<svg width="10" height="10" viewBox="0 0 10 10" fill="none" xmlns="http://www.w3.org/2000/svg">
<g opacity="0.4">
<path d="M1.90633 1.90633C0.197889 3.61478 0.197889 6.38522 1.90633 8.09367C3.61478 9.80211 6.38522 9.80211 8.09367 8.09367C9.80211 6.38522 9.80211 3.61478 8.09367 1.90633C6.38522 0.197889 3.61478 0.197889 1.90633 1.90633ZM7.39182 7.39182C6.07124 8.7124 3.91953 8.7124 2.59894 7.39182C1.27836 6.07124 1.27836 3.91953 2.59894 2.59894C3.91953 1.27836 6.07124 1.27836 7.39182 2.59894C8.72164 3.92876 8.72164 6.07124 7.39182 7.39182ZM4.50132 3.13456C4.50132 2.76517 4.80607 2.46966 5.17546 2.46966C5.54486 2.46966 5.84037 2.77441 5.83113 3.1438C5.83113 3.51319 5.52639 3.81794 5.16623 3.80871C4.79683 3.80871 4.49208 3.50396 4.50132 3.13456ZM6.11741 6.97625C6.09894 7.03166 6.06201 7.09631 6.02507 7.13325C5.78496 7.38259 5.48945 7.52111 5.14776 7.53034C4.98153 7.53034 4.82454 7.53034 4.65831 7.50264C4.3905 7.4657 4.04881 7.13325 4.10422 6.78232C4.14116 6.54222 4.1781 6.30211 4.21504 6.06201C4.28892 5.64644 4.3628 5.23087 4.43668 4.8153C4.43668 4.7876 4.44591 4.75989 4.44591 4.73219C4.44591 4.55673 4.3905 4.49208 4.21504 4.47361C4.14116 4.46438 4.06728 4.45515 3.9934 4.43668C3.91029 4.40897 3.87335 4.33509 3.87335 4.27045C3.88259 4.19657 3.92876 4.1504 4.02111 4.13193C4.06728 4.12269 4.12269 4.12269 4.16887 4.12269C4.37203 4.12269 4.5752 4.12269 4.77836 4.12269C4.99077 4.12269 5.2124 4.12269 5.4248 4.12269C5.58179 4.12269 5.67414 4.19657 5.67414 4.35356C5.67414 4.48285 5.65567 4.61214 5.62797 4.74143C5.54485 5.22164 5.45251 5.69261 5.36939 6.17282C5.34169 6.32982 5.30475 6.48681 5.28628 6.6438C5.27704 6.71768 5.28628 6.80079 5.30475 6.87467C5.33245 6.97625 5.40633 7.03166 5.50792 7.01319C5.59103 7.00396 5.67414 6.97625 5.75726 6.93931C5.8219 6.91161 5.87731 6.86544 5.94195 6.84697C6.06201 6.80079 6.14512 6.87467 6.11741 6.97625Z" fill="#848484"/>
</g>
</svg>
