<svg width="155" height="40" viewBox="0 0 155 40" fill="none" xmlns="http://www.w3.org/2000/svg">
<path fill-rule="evenodd" clip-rule="evenodd" d="M7.90325 39.932H0V0H7.90325V39.932Z" fill="#26C4F7"/>
<path fill-rule="evenodd" clip-rule="evenodd" d="M18.6676 31.8505H0V40H18.6676V31.8505Z" fill="#26C4F7"/>
<path fill-rule="evenodd" clip-rule="evenodd" d="M39.9242 7.67458H15.9424V0.0684814H39.9242V7.67458Z" fill="#0E84BC"/>
<path fill-rule="evenodd" clip-rule="evenodd" d="M31.8849 13.5148H39.9242V0.0684814H31.8849V13.5148Z" fill="#0E84BC"/>
<path fill-rule="evenodd" clip-rule="evenodd" d="M39.9243 24.1086H15.9424V15.8235H39.9243V24.1086Z" fill="#2C2A28"/>
<path fill-rule="evenodd" clip-rule="evenodd" d="M31.8849 40H39.9243V15.8235H31.8849V40Z" fill="#2C2A28"/>
<path fill-rule="evenodd" clip-rule="evenodd" d="M20.9841 31.8505H39.9243V40H20.9841V31.8505Z" fill="#2C2A28"/>
<path d="M76.7172 27.1717V12.044H86.7769V15.3954H80.798V18.2813H85.9228V21.6326H80.798V27.1717H76.7172Z" fill="#26C4F7"/>
<path d="M95.7484 27.451C93.5814 27.451 91.9681 26.8381 90.9083 25.6124C89.8644 24.3711 89.3424 22.455 89.3424 19.8639V12.044H93.4233V20.3293C93.4233 21.6792 93.6052 22.6334 93.969 23.192C94.3486 23.735 94.9417 24.0065 95.7484 24.0065C96.5551 24.0065 97.1482 23.735 97.5278 23.192C97.9233 22.6334 98.121 21.6792 98.121 20.3293V12.044H102.059V19.8639C102.059 22.455 101.545 24.3711 100.517 25.6124C99.4892 26.8381 97.8995 27.451 95.7484 27.451Z" fill="#26C4F7"/>
<path d="M110.034 27.451C109.053 27.451 108.041 27.2803 106.997 26.939C105.969 26.5821 105.036 26.0313 104.197 25.2866L106.522 22.5403C107.076 22.9747 107.669 23.3316 108.302 23.6109C108.95 23.8746 109.559 24.0065 110.129 24.0065C110.746 24.0065 111.189 23.9134 111.457 23.7272C111.742 23.5411 111.885 23.2773 111.885 22.9359C111.885 22.7498 111.837 22.5946 111.742 22.4705C111.647 22.3464 111.505 22.23 111.315 22.1214C111.141 22.0128 110.928 21.9119 110.674 21.8188C110.421 21.7102 110.129 21.5938 109.797 21.4697L107.875 20.6784C107.464 20.5233 107.068 20.3216 106.689 20.0733C106.309 19.8096 105.977 19.507 105.692 19.1657C105.407 18.8088 105.178 18.4054 105.004 17.9554C104.846 17.5055 104.767 17.009 104.767 16.4659C104.767 15.8143 104.909 15.2092 105.194 14.6506C105.479 14.0765 105.874 13.58 106.38 13.1611C106.886 12.7267 107.487 12.3853 108.183 12.1371C108.895 11.8888 109.67 11.7647 110.508 11.7647C111.394 11.7647 112.288 11.9276 113.189 12.2535C114.107 12.5793 114.921 13.0913 115.633 13.7895L113.593 16.303C113.071 15.9462 112.565 15.6746 112.074 15.4885C111.6 15.3023 111.078 15.2092 110.508 15.2092C110.002 15.2092 109.607 15.2945 109.322 15.4652C109.037 15.6359 108.895 15.8919 108.895 16.2332C108.895 16.5901 109.093 16.8693 109.488 17.071C109.899 17.2572 110.461 17.4822 111.173 17.746L113.047 18.4675C114.012 18.8398 114.755 19.3596 115.277 20.0268C115.799 20.6939 116.06 21.5551 116.06 22.6101C116.06 23.2463 115.926 23.8591 115.657 24.4487C115.388 25.0383 114.993 25.5581 114.471 26.008C113.964 26.4425 113.34 26.7916 112.596 27.0553C111.853 27.3191 110.999 27.451 110.034 27.451Z" fill="#26C4F7"/>
<path d="M118.538 27.1717V12.044H122.619V27.1717H118.538Z" fill="#26C4F7"/>
<path d="M132.546 27.451C131.471 27.451 130.49 27.2726 129.604 26.9157C128.734 26.5588 127.983 26.0468 127.35 25.3797C126.734 24.697 126.251 23.8669 125.903 22.8894C125.555 21.8964 125.381 20.7793 125.381 19.538C125.381 18.2968 125.555 17.1952 125.903 16.2332C126.251 15.2557 126.734 14.4412 127.35 13.7895C127.983 13.1223 128.734 12.6181 129.604 12.2767C130.49 11.9354 131.471 11.7647 132.546 11.7647C133.606 11.7647 134.579 11.9354 135.465 12.2767C136.35 12.6181 137.102 13.1223 137.719 13.7895C138.351 14.4567 138.842 15.2712 139.19 16.2332C139.538 17.1952 139.712 18.2968 139.712 19.538C139.712 20.7793 139.538 21.8964 139.19 22.8894C138.842 23.8669 138.351 24.697 137.719 25.3797C137.102 26.0468 136.35 26.5588 135.465 26.9157C134.579 27.2726 133.606 27.451 132.546 27.451ZM132.546 24.0065C133.48 24.0065 134.207 23.6109 134.729 22.8196C135.267 22.0128 135.536 20.9189 135.536 19.538C135.536 18.1571 135.267 17.0943 134.729 16.3496C134.207 15.5893 133.48 15.2092 132.546 15.2092C131.613 15.2092 130.878 15.5893 130.34 16.3496C129.818 17.0943 129.557 18.1571 129.557 19.538C129.557 20.9189 129.818 22.0128 130.34 22.8196C130.878 23.6109 131.613 24.0065 132.546 24.0065Z" fill="#26C4F7"/>
<path d="M142.473 27.1717V12.044H146.649L150.065 18.7933L151.536 22.1912H151.631C151.583 21.7878 151.528 21.3456 151.465 20.8646C151.402 20.3836 151.346 19.8949 151.299 19.3984C151.251 18.8864 151.204 18.3821 151.156 17.8856C151.125 17.3736 151.109 16.8849 151.109 16.4194V12.044H155V27.1717H150.824L147.408 20.3991L145.937 17.0245H145.842C145.937 17.8934 146.047 18.8398 146.174 19.8639C146.301 20.8879 146.364 21.8654 146.364 22.7963V27.1717H142.473Z" fill="#26C4F7"/>
<path d="M51.6667 27.1717V12.044H55.7341V23.8203H61.5515V27.1717H51.6667Z" fill="#0E84BC"/>
<path d="M68.3621 27.451C67.3847 27.451 66.3757 27.2803 65.3352 26.939C64.3104 26.5821 63.3803 26.0313 62.5447 25.2866L64.8622 22.5403C65.414 22.9747 66.0052 23.3316 66.6358 23.6109C67.2822 23.8746 67.8891 24.0065 68.4567 24.0065C69.0715 24.0065 69.513 23.9134 69.781 23.7272C70.0648 23.5411 70.2066 23.2773 70.2066 22.9359C70.2066 22.7498 70.1593 22.5946 70.0648 22.4705C69.9702 22.3464 69.8283 22.23 69.6391 22.1214C69.4657 22.0128 69.2528 21.9119 69.0006 21.8188C68.7484 21.7102 68.4567 21.5938 68.1256 21.4697L66.2101 20.6784C65.8002 20.5233 65.4061 20.3216 65.0277 20.0733C64.6494 19.8096 64.3183 19.507 64.0345 19.1657C63.7508 18.8088 63.5222 18.4054 63.3487 17.9554C63.1911 17.5055 63.1123 17.009 63.1123 16.4659C63.1123 15.8143 63.2541 15.2092 63.5379 14.6506C63.8217 14.0765 64.2158 13.58 64.7203 13.1611C65.2248 12.7267 65.8239 12.3853 66.5176 12.1371C67.227 11.8888 67.9995 11.7647 68.8351 11.7647C69.7179 11.7647 70.6087 11.9276 71.5073 12.2535C72.4217 12.5793 73.2336 13.0913 73.943 13.7895L71.9093 16.303C71.389 15.9462 70.8845 15.6746 70.3958 15.4885C69.9229 15.3023 69.4026 15.2092 68.8351 15.2092C68.3306 15.2092 67.9364 15.2945 67.6527 15.4652C67.3689 15.6359 67.227 15.8919 67.227 16.2332C67.227 16.5901 67.4241 16.8693 67.8182 17.071C68.2281 17.2572 68.7878 17.4822 69.4972 17.746L71.3654 18.4675C72.3271 18.8398 73.068 19.3596 73.5883 20.0268C74.1086 20.6939 74.3687 21.5551 74.3687 22.6101C74.3687 23.2463 74.2347 23.8591 73.9667 24.4487C73.6987 25.0383 73.3045 25.5581 72.7843 26.008C72.2798 26.4425 71.657 26.7916 70.9161 27.0553C70.1751 27.3191 69.3238 27.451 68.3621 27.451Z" fill="#0E84BC"/>
</svg>
