<svg width="150" height="150" viewBox="0 0 150 150" fill="none" xmlns="http://www.w3.org/2000/svg">
<mask id="mask0_324_799" style="mask-type:alpha" maskUnits="userSpaceOnUse" x="48" y="20" width="76" height="108">
<path d="M53 65L48.4019 64.0804C48.1682 64.0336 48 63.8284 48 63.5901V22.809C48 22.6196 48.107 22.4465 48.2764 22.3618L52.7756 20.1122C52.9168 20.0416 53.0831 20.0418 53.2241 20.1128L123.225 55.3615C123.394 55.4464 123.5 55.6192 123.5 55.808V123.682C123.5 123.876 123.387 124.053 123.211 124.135L116.219 127.398C116.081 127.462 115.92 127.46 115.784 127.392L72.3537 105.677C72.1464 105.573 72.0376 105.344 72.0824 105.117C72.7046 101.957 73.0667 93.7335 70 83C66.8 71.8 57.3333 66.3333 53 65Z" fill="#C4C4C4"/>
</mask>
<g mask="url(#mask0_324_799)">
<path fill-rule="evenodd" clip-rule="evenodd" d="M51.5726 24.7155C50.8418 24.7273 50.1527 25.1627 49.7994 25.8589C49.7994 25.8589 49.6945 26.064 49.6276 26.2719L49.5577 26.517C49.5324 26.6312 49.5033 26.7933 49.5033 26.7933C49.4703 27.0003 49.4519 27.2103 49.4519 27.4202V27.4426C49.4519 47.9921 49.1374 68.5444 49.4519 89.0915C49.4519 89.0915 49.4655 89.4482 49.4859 89.6293C49.5062 89.8127 49.5538 90.0703 49.5538 90.0703C49.58 90.1959 49.5926 90.2747 49.6615 90.5298C49.7004 90.6718 49.7644 90.8676 49.7644 90.8676C50.1556 91.9803 50.7758 93.0085 51.6697 93.7359C51.8444 93.8783 52.1152 94.0563 52.1152 94.0563C52.2045 94.1111 52.3307 94.1813 52.3307 94.1813C52.3511 94.192 52.3724 94.2028 52.3928 94.2133C73.2625 104.711 94.0523 115.37 115.002 125.705C115.055 125.731 115.108 125.756 115.162 125.78C115.215 125.802 115.268 125.823 115.321 125.843C116.003 126.095 116.804 126.068 117.401 125.585L117.708 125.281C117.822 125.139 117.923 125.005 118.043 124.734L118.184 124.348C118.26 124.069 118.307 123.783 118.323 123.494C118.328 123.397 118.326 123.461 118.329 123.304L118.329 123.278V61.651C118.323 61.2653 118.281 60.8806 118.196 60.5047C118.196 60.5047 118.049 59.8847 117.849 59.4072C117.849 59.4072 117.544 58.7286 117.269 58.3019C117.153 58.1232 117.029 57.9494 116.895 57.7844C116.895 57.7844 116.332 57.142 115.947 56.8568C115.776 56.7299 115.597 56.6157 115.409 56.518C94.6128 45.8567 73.6963 35.4355 52.7791 25.0153C52.4044 24.8308 51.9958 24.7136 51.5726 24.7155ZM51.6056 25.5875C51.8793 25.5904 52.1492 25.6753 52.3967 25.7974C73.3081 36.2147 94.2208 46.6339 115.012 57.2933C116.678 58.1633 117.442 60.3211 117.462 61.6393L117.462 61.6578V123.272C117.455 123.754 117.385 124.246 117.096 124.652C117.034 124.74 116.745 125.067 116.353 125.122C116.026 125.168 115.686 125.072 115.383 124.923C94.4319 114.587 73.5595 104.086 52.7684 93.4275C51.7163 92.8778 50.9961 91.783 50.6069 90.6523C50.4303 90.1367 50.3186 89.5552 50.3186 89.0847V89.0626C50.3186 68.5171 50.0022 47.9696 50.3186 27.427C50.3186 27.3382 50.3167 27.386 50.3245 27.2542C50.3681 26.4741 50.7544 25.6148 51.5591 25.5875C51.5746 25.5875 51.5901 25.5875 51.6056 25.5875Z" fill="#36464A"/>
</g>
<path fill-rule="evenodd" clip-rule="evenodd" d="M73.841 59.2588C73.6517 59.2959 73.6275 59.336 73.5683 59.4023C73.5091 59.4687 73.4731 59.498 73.4586 59.6923V64.5558C73.476 64.8107 73.4993 64.8273 73.6983 64.9454L78.7011 67.4616C78.9765 67.5758 79.3045 67.4011 79.3282 67.072V62.2085C79.3106 61.9537 79.2875 61.9361 79.0887 61.8189L74.0856 59.3018C74.0438 59.2852 74.0002 59.252 73.841 59.2588ZM78.4616 62.478V66.367L74.3253 64.2863V60.3973C75.7041 61.0906 77.0829 61.7848 78.4616 62.478ZM60.6138 52.6056C60.4245 52.6427 60.4002 52.6827 60.341 52.7491C60.2828 52.8155 60.2459 52.8448 60.2313 53.0391V57.9026C60.2498 58.1584 60.2721 58.175 60.4711 58.2922L71.2806 63.7298C71.5582 63.845 71.8843 63.6634 71.9085 63.3402V58.4757C71.8911 58.2209 71.8678 58.2043 71.6688 58.0862L60.8593 52.6486C60.8176 52.632 60.7729 52.5988 60.6138 52.6056ZM71.0418 58.7452V62.6342L61.0981 57.6331V53.7441C64.4127 55.4118 67.7272 57.0785 71.0418 58.7452ZM55.7792 41.0049C55.59 41.041 55.5657 41.0811 55.5065 41.1475C55.4483 41.2149 55.4114 41.2432 55.3968 41.4375V46.3009C55.4153 46.5568 55.4376 46.5734 55.6366 46.6915L78.7011 58.2922C78.9782 58.4074 79.3047 58.2268 79.3282 57.9026V53.0391C79.3106 52.7833 79.2875 52.7667 79.0887 52.6486L56.0248 41.0479C55.9831 41.0303 55.9384 40.9971 55.7792 41.0049ZM78.4616 53.3086V57.1976L56.2636 46.0315V42.1424C63.6634 45.8645 71.0622 49.5866 78.4616 53.3086Z" fill="#36464A"/>
<mask id="path-4-inside-1_324_799" fill="white">
<path fill-rule="evenodd" clip-rule="evenodd" d="M95.9261 94.2551L89.4325 82.59C87.9206 82.1635 86.4155 81.8598 84.9171 81.678C82.5535 81.3973 80.9327 83.3918 80.9327 86.5809C80.9315 90.4377 80.9315 95.0768 80.9315 95.0899L110.921 110.174C110.921 110.174 110.921 105.528 110.919 101.664C110.919 98.4749 109.299 94.8499 106.935 92.7529C105.437 91.4273 103.932 90.2169 102.42 89.1224L95.9261 94.2551Z"/>
</mask>
<path fill-rule="evenodd" clip-rule="evenodd" d="M95.9261 94.2551L89.4325 82.59C87.9206 82.1635 86.4155 81.8598 84.9171 81.678C82.5535 81.3973 80.9327 83.3918 80.9327 86.5809C80.9315 90.4377 80.9315 95.0768 80.9315 95.0899L110.921 110.174C110.921 110.174 110.921 105.528 110.919 101.664C110.919 98.4749 109.299 94.8499 106.935 92.7529C105.437 91.4273 103.932 90.2169 102.42 89.1224L95.9261 94.2551Z" fill="#7DE2FF"/>
<path d="M89.4325 82.59L90.3063 82.1036L90.1041 81.7404L89.704 81.6276L89.4325 82.59ZM84.9171 81.678L85.0376 80.6853L85.0351 80.685L84.9171 81.678ZM80.9327 86.5809L81.9327 86.5813V86.5809H80.9327ZM80.9315 95.0899H79.9315V95.7063L80.4821 95.9833L80.9315 95.0899ZM110.921 110.174L110.471 111.068L111.921 111.797L111.921 110.174L110.921 110.174ZM110.919 101.664H109.919V101.664L110.919 101.664ZM106.935 92.7529L107.599 92.0049L107.598 92.0039L106.935 92.7529ZM102.42 89.1224L103.006 88.3124L102.393 87.8687L101.8 88.3379L102.42 89.1224ZM96.7998 93.7687L90.3063 82.1036L88.5588 83.0764L95.0523 94.7415L96.7998 93.7687ZM89.704 81.6276C88.1444 81.1876 86.5888 80.8735 85.0376 80.6853L84.7967 82.6708C86.2422 82.8461 87.6968 83.1394 89.161 83.5524L89.704 81.6276ZM85.0351 80.685C83.5101 80.5039 82.1776 81.0716 81.2625 82.1976C80.3753 83.2895 79.9327 84.833 79.9327 86.5809H81.9327C81.9327 85.1398 82.3006 84.0915 82.8146 83.459C83.3008 82.8607 83.9605 82.5715 84.7992 82.6711L85.0351 80.685ZM79.9327 86.5806C79.9315 90.4376 79.9315 95.0768 79.9315 95.0899H81.9315C81.9315 95.0768 81.9315 90.4379 81.9327 86.5813L79.9327 86.5806ZM80.4821 95.9833L110.471 111.068L111.37 109.281L81.3808 94.1966L80.4821 95.9833ZM110.921 110.174C111.921 110.174 111.921 110.174 111.921 110.174C111.921 110.174 111.921 110.174 111.921 110.174C111.921 110.174 111.921 110.174 111.921 110.173C111.921 110.173 111.921 110.172 111.921 110.171C111.921 110.169 111.921 110.165 111.921 110.161C111.921 110.152 111.921 110.139 111.921 110.121C111.921 110.086 111.921 110.034 111.921 109.967C111.921 109.832 111.921 109.636 111.921 109.388C111.921 108.892 111.921 108.19 111.92 107.368C111.92 105.723 111.92 103.596 111.919 101.664L109.919 101.664C109.92 103.596 109.92 105.724 109.92 107.368C109.921 108.19 109.921 108.892 109.921 109.388C109.921 109.636 109.921 109.833 109.921 109.967C109.921 110.034 109.921 110.086 109.921 110.121C109.921 110.139 109.921 110.152 109.921 110.161C109.921 110.165 109.921 110.169 109.921 110.171C109.921 110.172 109.921 110.173 109.921 110.173C109.921 110.174 109.921 110.174 109.921 110.174C109.921 110.174 109.921 110.174 109.921 110.174C109.921 110.174 109.921 110.174 110.921 110.174ZM111.919 101.664C111.919 98.192 110.178 94.2937 107.599 92.0049L106.271 93.5009C108.419 95.4062 109.919 98.7578 109.919 101.664H111.919ZM107.598 92.0039C106.077 90.6584 104.546 89.4273 103.006 88.3124L101.833 89.9325C103.317 91.0065 104.797 92.1963 106.272 93.5019L107.598 92.0039ZM101.8 88.3379L95.306 93.4706L96.5462 95.0396L103.04 89.907L101.8 88.3379Z" fill="#36464A" mask="url(#path-4-inside-1_324_799)"/>
<path fill-rule="evenodd" clip-rule="evenodd" d="M84.4538 81.2161C83.3923 81.223 82.365 81.7311 81.6857 82.5739C81.5231 82.7756 81.3797 82.9927 81.2566 83.2199C81.2566 83.2199 80.9979 83.6983 80.8377 84.2086C80.8377 84.2086 80.7847 84.3783 80.7451 84.5297C80.7364 84.5629 80.7361 84.5629 80.7279 84.5962C80.6693 84.8323 80.6222 85.0716 80.5879 85.3125L80.5332 85.7829C80.5137 86.0357 80.5016 86.2885 80.4994 86.5418C80.4994 88.4535 80.4986 90.3652 80.4983 92.277V95.0901L80.5275 95.2474C80.6106 95.3826 80.6119 95.384 80.7379 95.48L110.727 110.564L110.896 110.61L111.069 110.584L111.218 110.491L111.319 110.347L111.354 110.174C111.354 107.337 111.354 104.499 111.353 101.664C111.353 101.625 111.352 101.587 111.352 101.548C111.348 101.124 111.316 100.701 111.26 100.281L111.202 99.8822C110.998 98.6604 110.615 97.4694 110.088 96.3572C110.088 96.3572 109.998 96.1686 109.905 95.9849C109.83 95.8357 109.825 95.8287 109.79 95.7637C109.725 95.6417 109.659 95.5208 109.59 95.4012C109.28 94.8574 108.931 94.3361 108.545 93.842C108.436 93.7021 108.424 93.689 108.369 93.6221C107.43 92.4791 106.243 91.5528 105.095 90.6252C104.326 90.0034 103.539 89.3981 102.744 88.8206C102.669 88.7661 102.586 88.731 102.504 88.6949L102.319 88.6986L102.152 88.7797L96.0567 93.5976L89.8108 82.3772L89.7004 82.2474C89.6499 82.2217 89.6009 82.1929 89.549 82.1703C89.5483 82.17 89.4068 82.1305 89.4062 82.1303C87.9483 81.725 86.4739 81.4318 84.9687 81.2453C84.8706 81.2339 84.9158 81.2365 84.7547 81.2254C84.7547 81.2254 84.6157 81.2168 84.5124 81.2161C84.4831 81.216 84.4831 81.216 84.4538 81.2161ZM84.5069 82.088C85.1099 82.0919 85.715 82.2205 86.3204 82.326C87.2705 82.4914 88.2128 82.7043 89.1428 82.9616L95.5481 94.4682L95.6713 94.6078L95.8413 94.6827L96.0268 94.6792L96.1939 94.5979L102.43 89.6686C103.935 90.7693 105.382 91.9186 106.754 93.1747C107.627 93.9744 108.345 94.9341 108.915 95.9709L108.934 96.0057C109.47 96.9791 109.886 98.0325 110.154 99.0974C110.163 99.1339 110.163 99.1338 110.172 99.1705C110.214 99.3433 110.252 99.517 110.286 99.6915C110.294 99.7281 110.293 99.7281 110.3 99.7648C110.396 100.273 110.458 100.788 110.479 101.306C110.486 101.473 110.484 101.376 110.486 101.629C110.486 102.628 110.487 103.626 110.487 104.624L110.487 107.368V109.469L81.365 94.8207C81.365 92.0741 81.3654 89.3276 81.366 86.5812C81.366 85.4531 81.554 84.2922 82.1926 83.3501C82.8766 82.3407 83.6844 82.0828 84.5069 82.088Z" fill="#36464A"/>
<mask id="path-7-inside-2_324_799" fill="white">
<path fill-rule="evenodd" clip-rule="evenodd" d="M95.926 60.8542C91.3284 58.5411 87.5957 61.4918 87.5957 67.4381C87.5957 73.3854 91.3284 80.0905 95.926 82.4031C100.524 84.7157 104.256 81.7654 104.256 75.8187C104.256 69.8723 100.524 63.1663 95.926 60.8542Z"/>
</mask>
<path fill-rule="evenodd" clip-rule="evenodd" d="M95.926 60.8542C91.3284 58.5411 87.5957 61.4918 87.5957 67.4381C87.5957 73.3854 91.3284 80.0905 95.926 82.4031C100.524 84.7157 104.256 81.7654 104.256 75.8187C104.256 69.8723 100.524 63.1663 95.926 60.8542Z" fill="#7DE2FF"/>
<path d="M95.926 82.4031L95.4767 83.2965L95.4767 83.2965L95.926 82.4031ZM96.3755 59.9609C93.8133 58.6718 91.2971 58.778 89.4167 60.2643C87.586 61.7113 86.5957 64.2831 86.5957 67.4381H88.5957C88.5957 64.6467 89.4718 62.77 90.6569 61.8334C91.7922 60.936 93.4411 60.7234 95.4766 61.7475L96.3755 59.9609ZM86.5957 67.4381C86.5957 70.6084 87.5862 73.9374 89.163 76.77C90.7352 79.5943 92.9463 82.0237 95.4767 83.2965L96.3754 81.5098C94.3082 80.47 92.3541 78.3905 90.9105 75.7972C89.4716 73.2123 88.5957 70.2151 88.5957 67.4381H86.5957ZM95.4767 83.2965C98.0388 84.5852 100.555 84.4789 102.435 82.9926C104.266 81.5456 105.256 78.9738 105.256 75.8187H103.256C103.256 78.6102 102.38 80.4869 101.195 81.4236C100.06 82.321 98.4109 82.5336 96.3754 81.5098L95.4767 83.2965ZM105.256 75.8187C105.256 72.6488 104.266 69.3198 102.689 66.4872C101.117 63.6629 98.9058 61.2334 96.3753 59.9608L95.4767 61.7476C97.5439 62.7871 99.498 64.8666 100.942 67.4599C102.381 70.0449 103.256 73.0421 103.256 75.8187H105.256Z" fill="#36464A" mask="url(#path-7-inside-2_324_799)"/>
<path fill-rule="evenodd" clip-rule="evenodd" d="M92.8703 59.6299C90.7237 59.6436 88.7732 61.1141 87.8792 63.3373C87.8434 63.4262 87.8089 63.515 87.7763 63.6049C87.4329 64.5539 87.2548 65.5635 87.1899 66.5605C87.1876 66.5956 87.1873 66.5956 87.1853 66.6308C87.1594 67.0916 87.1567 67.5535 87.1738 68.0143C87.1751 68.0514 87.1748 68.0514 87.1765 68.0875C87.3806 72.6337 89.3479 77.1118 92.4683 80.3275C92.4683 80.3275 92.9541 80.8141 93.2361 81.0655C95.0779 82.7075 97.4037 83.979 99.8588 83.5488C101.482 83.2645 102.859 82.1238 103.657 80.6052C103.81 80.3153 103.941 80.0155 104.055 79.7087C104.055 79.7087 104.247 79.1718 104.361 78.7135C104.447 78.3666 104.513 78.0156 104.564 77.66C104.585 77.5147 104.586 77.5022 104.594 77.4326C104.714 76.4581 104.715 75.4728 104.631 74.4824C104.62 74.3579 104.619 74.3516 104.614 74.3004C104.454 72.6581 104.054 71.0646 103.481 69.5414C103.481 69.5414 103.305 69.0747 103.116 68.6363C101.836 65.6612 99.9404 62.8804 97.1177 61.0399C95.8675 60.2246 94.435 59.6485 92.9465 59.6299C92.9211 59.6299 92.8957 59.6299 92.8703 59.6299ZM92.9413 60.5019C96.2194 60.5419 99.1151 63.4526 100.896 66.2744C101.199 66.7548 101.479 67.2478 101.74 67.7526C101.74 67.7526 101.928 68.1217 102.056 68.3941C102.454 69.2407 102.793 70.1116 103.063 71.0041C103.063 71.0041 103.209 71.4786 103.33 71.9668C103.536 72.7948 103.682 73.6404 103.761 74.4898C103.777 74.6553 103.778 74.6771 103.784 74.7635C103.911 76.4907 103.775 78.2537 103.061 79.8478C102.357 81.4208 100.906 82.7918 98.8684 82.7548C96.5556 82.7127 94.4194 81.118 92.998 79.6243C90.3738 76.8665 88.6648 73.1658 88.1646 69.4233C88.1403 69.2407 88.1116 68.9897 88.0908 68.7681C88.0753 68.6021 88.0746 68.5806 88.0683 68.4937C88.0458 68.1881 88.0322 67.8815 88.0297 67.574L88.0294 67.5398C88.0185 66.205 88.1833 64.8762 88.7014 63.6176C88.7394 63.5248 88.7795 63.434 88.8215 63.3432C89.5446 61.7839 90.9897 60.537 92.8334 60.5028C92.8694 60.5019 92.9053 60.5019 92.9413 60.5019Z" fill="#36464A"/>
<path fill-rule="evenodd" clip-rule="evenodd" d="M54.9406 23.0049C54.8542 23.0078 54.7494 23.0127 54.7494 23.0127L54.5931 23L54.4436 23.0439L50.7137 24.9196C50.4865 25.0954 50.4031 25.4273 50.6079 25.6246C50.7166 25.729 50.768 25.7183 50.9078 25.7456C50.9078 25.7456 51.0835 25.7046 51.1795 25.6646C51.5668 25.5123 52.0162 25.6109 52.384 25.7915C73.3081 36.1961 94.2168 46.6319 115.012 57.2933C116.678 58.1633 117.442 60.3211 117.462 61.6393L117.462 61.6578V123.274C117.461 123.393 117.455 123.512 117.443 123.631C117.389 124.142 117.23 124.68 116.767 124.971C116.745 124.985 116.717 125.001 116.717 125.001L116.575 125.129L116.502 125.305L116.511 125.496L116.6 125.665L116.752 125.779L116.938 125.817L117.123 125.771L120.404 124.12C120.479 124.086 120.793 123.903 120.966 123.729L121.08 123.606C121.214 123.445 121.367 123.182 121.367 123.182C121.393 123.133 121.397 123.123 121.397 123.123C121.527 122.86 121.615 122.576 121.666 122.286C121.666 122.286 121.726 121.876 121.73 121.57V59.9403C121.727 59.7597 121.709 59.5029 121.709 59.5029C121.694 59.3691 121.67 59.1846 121.67 59.1846C121.641 59.0118 121.592 58.7686 121.592 58.7686C121.384 57.8996 121.018 57.0619 120.501 56.3442C120.052 55.7203 119.502 55.1618 118.789 54.7966C97.9174 44.2983 77.1071 33.676 56.1742 23.3017C55.7918 23.1133 55.3744 22.9961 54.9406 23.0049ZM55.0085 23.8768C55.2735 23.8807 55.5326 23.9618 55.7743 24.075L55.7928 24.0848C76.7273 34.4601 97.6201 44.9222 118.413 55.5826C118.433 55.5924 118.453 55.6031 118.473 55.6139C119.557 56.2241 120.235 57.3958 120.567 58.338C120.746 58.8477 120.854 59.373 120.863 59.9286L120.863 59.9472V121.564C120.858 121.931 120.828 122.275 120.655 122.663C120.571 122.852 120.388 123.077 120.367 123.098C120.319 123.146 120.269 123.19 120.214 123.23C120.155 123.272 120.106 123.299 120.031 123.333L118.211 124.249C118.24 124.133 118.27 123.972 118.27 123.972C118.306 123.743 118.326 123.512 118.329 123.28V61.651C118.322 61.1794 118.272 60.8435 118.196 60.5047C118.196 60.5047 118.049 59.8847 117.849 59.4072C117.849 59.4072 117.544 58.7286 117.269 58.3019C117.153 58.1232 117.029 57.9494 116.895 57.7844C116.895 57.7844 116.332 57.1419 115.947 56.8568C115.776 56.7299 115.597 56.6157 115.408 56.518C94.6085 45.8537 73.6944 35.416 52.7665 25.0094C52.6946 24.9733 52.6141 24.9391 52.6141 24.9391L54.6756 23.9022C54.6756 23.9022 54.8464 23.8768 55.0085 23.8768Z" fill="#36464A"/>
<path fill-rule="evenodd" clip-rule="evenodd" d="M72.119 103.742L74.6945 105C75.5361 102.793 76 100.159 76 97.1631C76 82.0122 68.24 68.6823 57.9547 63.6582C55.1001 62.2638 52.3994 61.7786 50 62.0909V64.7827C51.7499 64.8926 53.6254 65.4181 55.5754 66.3994C65.1318 71.2053 72.8907 85.1434 72.8907 97.5038C72.8907 99.8102 72.6206 101.9 72.119 103.742ZM50 69.4736C59.4342 74.4026 67.0497 88.1963 67.0497 100.442C67.0497 100.718 67.0458 100.991 67.0382 101.26L52.6573 94.2355C51.1906 93.5191 50 91.4831 50 89.6918V69.4736Z" fill="#36464A"/>
<path fill-rule="evenodd" clip-rule="evenodd" d="M49.7342 69.3372C40.1778 64.5304 32.4198 70.6632 32.4198 83.0231C32.4198 95.3835 40.1778 109.321 49.7342 114.128C59.2907 118.935 67.0496 112.802 67.0496 100.442C67.0496 88.0814 59.2907 74.1438 49.7342 69.3372Z" fill="#7DE2FF"/>
<path fill-rule="evenodd" clip-rule="evenodd" d="M43.3847 67.2634C40.6428 67.2917 37.9562 68.3941 35.9577 70.5822C35.1648 71.4502 34.5048 72.4393 33.9767 73.4909C33.9767 73.4909 33.8438 73.7561 33.7351 73.9939C33.7351 73.9939 33.4856 74.5456 33.3158 74.9966C33.3158 74.9966 33.1158 75.5352 32.9858 75.9449C32.8945 76.2346 32.8101 76.5264 32.7334 76.8202C32.7334 76.8202 32.4791 77.8601 32.3782 78.4228L32.2918 78.9363C32.2433 79.2394 32.1889 79.6597 32.1889 79.6597C32.1598 79.8918 32.1511 79.9799 32.1346 80.1294C31.889 82.4304 31.954 84.7557 32.251 87.1028C32.2598 87.1775 32.2695 87.2521 32.2802 87.3268C32.5762 89.5546 33.0974 91.79 33.7846 93.9395C33.8642 94.1895 33.9767 94.5246 33.9767 94.5246C34.5115 96.1091 35.1405 97.6606 35.8529 99.1676L35.8859 99.2374C36.3489 100.205 36.8439 101.156 37.3777 102.085L37.6456 102.546C38.0193 103.173 38.4046 103.794 38.8103 104.402C38.8103 104.402 39.0267 104.725 39.1888 104.96C40.3788 106.679 41.7046 108.309 43.1799 109.789C43.1799 109.789 43.4391 110.048 43.6332 110.235C43.7487 110.346 43.8875 110.477 43.8875 110.477C45.3696 111.863 46.973 113.1 48.7433 114.094C48.7433 114.094 49.1044 114.295 49.3694 114.431C49.6305 114.565 49.9974 114.74 49.9974 114.74C53.3488 116.303 57.2205 116.901 60.704 115.068C61.3902 114.707 62.0327 114.263 62.6209 113.753C62.6578 113.72 62.6578 113.72 62.6946 113.687C64.1758 112.376 65.2784 110.644 66.0267 108.792C66.1732 108.428 66.3072 108.062 66.4275 107.691C66.4275 107.691 66.6382 107.033 66.7672 106.525C66.7672 106.525 66.9157 105.924 66.9934 105.546C67.0623 105.209 67.1244 104.87 67.1768 104.528C67.1768 104.528 67.2341 104.155 67.271 103.872C67.271 103.872 67.3409 103.318 67.3797 102.859L67.4273 102.235C67.4438 101.953 67.4583 101.669 67.467 101.386C67.467 101.386 67.4845 100.748 67.4826 100.295C67.4787 99.579 67.4505 98.8633 67.3972 98.1494L67.3865 98.0006C67.302 96.987 67.1817 95.9787 67.008 94.9435C66.677 92.9625 66.1859 91.0001 65.5162 89.0128L65.3677 88.5757C64.9959 87.5073 64.5844 86.4531 64.1272 85.4174C64.1272 85.4174 63.7584 84.5838 63.4158 83.8809C62.7131 82.4402 61.9347 81.042 61.0699 79.6939C61.0699 79.6939 60.7292 79.1614 60.407 78.6899C60.1963 78.382 59.9818 78.0767 59.7625 77.7751L59.7188 77.7152C58.4405 75.9667 57.0099 74.3137 55.4278 72.8455C54.0273 71.5449 52.5005 70.3781 50.8379 69.4349C50.8379 69.4349 50.2371 69.0961 49.6994 68.8344L49.6431 68.8061C47.7301 67.8912 45.6491 67.278 43.5381 67.2634C43.4866 67.2634 43.4361 67.2634 43.3847 67.2634ZM43.4856 68.1353C46.4178 68.1451 49.2694 69.3773 51.6454 70.9532C53.9554 72.4852 55.9743 74.4262 57.7427 76.5811L58.1474 77.0819C58.4153 77.4214 58.6783 77.7648 58.9346 78.1137C58.9346 78.1137 59.1394 78.3949 59.2752 78.5851C59.7984 79.3227 60.3002 80.0794 60.7729 80.8555L60.8117 80.9192C62.3161 83.3998 63.5643 86.0487 64.5242 88.7915C65.0784 90.3738 65.5385 92.0056 65.8927 93.704C66.1888 95.1194 66.4033 96.5588 66.5168 97.9971C66.5168 97.9971 66.5537 98.4875 66.5702 98.7918C66.642 100.083 66.6285 101.39 66.5275 102.65C66.5275 102.65 66.4741 103.266 66.4198 103.695C66.3586 104.175 66.2829 104.654 66.1917 105.129C66.1917 105.129 66.0975 105.609 65.9995 106.019L65.9432 106.249C65.8743 106.513 65.8025 106.776 65.7239 107.038L65.6569 107.256C65.5424 107.611 65.421 107.964 65.2842 108.311C65.2842 108.311 65.0386 108.933 64.7659 109.487C64.7271 109.565 64.7271 109.566 64.6727 109.672C64.6019 109.809 64.5291 109.945 64.4534 110.08C64.1408 110.641 63.7875 111.178 63.3915 111.682C63.3915 111.682 62.9616 112.223 62.5209 112.659C61.9162 113.259 61.2329 113.78 60.4943 114.191C60.4943 114.191 60.2264 114.338 60.0284 114.434C56.4819 116.145 52.0152 114.988 48.8404 113.147C46.6469 111.852 44.6154 110.103 42.9295 108.269C41.099 106.278 39.5111 104.053 38.1658 101.715C36.7138 99.1917 35.5384 96.5581 34.6562 93.8157C34.6562 93.8157 34.5931 93.6207 34.5416 93.4566C33.8884 91.3824 33.3973 89.2193 33.1294 87.1381C33.1294 87.1381 33.0809 86.7606 33.0498 86.4831C32.9256 85.3837 32.8586 84.2744 32.8528 83.1661C32.8528 83.1661 32.8528 82.7771 32.8577 82.5269C32.8703 81.734 32.9198 80.9426 33.0042 80.1564C33.0042 80.1564 33.0576 79.689 33.1003 79.3873C33.1003 79.3873 33.2022 78.7036 33.3002 78.216C33.4478 77.4818 33.6351 76.7567 33.8651 76.0453L34.0476 75.5151C34.0884 75.4033 34.1049 75.3596 34.1049 75.3596C34.2223 75.0549 34.3436 74.7524 34.4776 74.4563L34.5882 74.2151C34.6484 74.0897 34.7261 73.9319 34.7261 73.9319C35.6646 72.082 37.0254 70.426 38.7841 69.3832C38.7841 69.3832 39.3606 69.0502 39.8799 68.8335C40.9903 68.3706 42.188 68.148 43.3915 68.1353C43.4226 68.1353 43.4546 68.1353 43.4856 68.1353Z" fill="#36464A"/>
<path fill-rule="evenodd" clip-rule="evenodd" d="M36.7245 70.4162C35.5987 71.5079 34.6591 72.909 33.9477 74.5863L48.2697 101.733C48.7269 102.679 49.4189 103.484 50.1925 103.873C50.9165 104.237 51.5678 104.165 52.024 103.756V103.755L52.0259 103.754L52.0337 103.746L59.5742 96.8887C59.6664 96.8233 59.7518 96.7457 59.8295 96.6564C60.1624 96.276 60.3614 95.6854 60.3614 94.9354C60.3614 93.1571 59.2442 91.1518 57.8699 90.4603C57.1662 90.1065 56.5314 90.1645 56.0782 90.5435V90.5435C56.0481 90.5686 56.0189 90.5951 55.9908 90.6229L50.177 95.8995L36.7245 70.4162Z" fill="#36464A"/>
<path fill-rule="evenodd" clip-rule="evenodd" d="M56.9099 89.7894C56.7099 89.7966 56.4285 89.8672 56.4285 89.8672C56.2052 89.9381 55.9946 90.0493 55.8141 90.1973L55.6957 90.3033L50.2992 95.2015L37.1069 70.2122C36.9458 70.0091 36.7429 69.8734 36.4226 70.1038C36.4158 70.1087 36.0499 70.4719 35.7849 70.7756C34.8473 71.8477 34.1223 73.0877 33.5662 74.3747C33.5662 74.3747 33.4429 74.4442 33.5642 74.7907L47.8843 101.932C47.9688 102.105 48.1017 102.342 48.1017 102.342C48.3599 102.775 48.6569 103.185 49.0122 103.538C49.2626 103.787 49.875 104.271 50.4496 104.445C50.5894 104.488 50.733 104.518 50.8786 104.533C51.3862 104.587 51.9074 104.437 52.2976 104.093L52.2646 104.118L52.3238 104.07L59.8479 97.2279C60.2138 96.9658 60.2196 96.8947 60.3632 96.6621C60.4807 96.473 60.4069 96.7188 60.603 96.158C60.7 95.8802 60.7602 95.4788 60.7631 95.4598C60.7932 95.2176 60.799 94.9717 60.7893 94.7295C60.7709 94.2686 60.7369 94.1592 60.7049 93.9907C60.7049 93.9907 60.5865 93.4088 60.4215 92.9728C60.4215 92.9728 60.0158 92.051 59.744 91.643C59.0937 90.6667 58.1163 89.8272 57.039 89.7898C57.0001 89.7884 56.9933 89.7875 56.9099 89.7894ZM49.7945 96.104C49.9507 96.3028 50.138 96.4272 50.4671 96.2231L56.2848 90.9426C56.2984 90.93 56.311 90.9175 56.3246 90.9052C56.8672 90.4106 57.7873 90.8639 58.1755 91.1777C59.4091 92.1748 59.9274 93.8301 59.9274 94.9182C59.9274 94.9182 59.7712 95.9918 59.5965 96.2478C59.4819 96.4176 59.2839 96.5655 59.2839 96.5655L51.7483 103.416C51.7483 103.416 51.527 103.615 51.2649 103.659C50.4428 103.799 49.7362 103.088 49.3392 102.61C49.0752 102.291 48.852 101.937 48.6695 101.563L48.656 101.535L34.428 74.5674C34.9803 73.325 35.7034 72.1357 36.6031 71.1642L36.6187 71.1466C41.0106 79.4661 45.4025 87.785 49.7945 96.104ZM51.7269 103.437C51.7492 103.416 51.7376 103.428 51.7269 103.437V103.437ZM51.7386 103.427C51.7386 103.427 51.8453 103.345 51.7386 103.427V103.427Z" fill="#36464A"/>
<path fill-rule="evenodd" clip-rule="evenodd" d="M32.8907 72.0214C32.4345 71.0352 31.7231 70.1897 30.9243 69.7884C29.549 69.0961 28.4328 69.9787 28.4328 71.7568C28.4328 72.5028 28.6288 73.2878 28.9579 73.9992V73.9994C29.0472 74.192 29.1462 74.3792 29.2529 74.5589L44.5708 103.594C45.028 104.54 45.72 105.345 46.4936 105.734C47.2176 106.098 47.8699 106.025 48.3251 105.616L48.326 105.615L48.327 105.614L48.3357 105.606L55.8753 98.7491C55.9675 98.6837 56.0529 98.606 56.1306 98.5168V98.5167C56.4635 98.1363 56.6625 97.5458 56.6625 96.7958C56.6625 95.0174 55.5463 93.0121 54.1709 92.3206C53.4682 91.9669 52.8325 92.0249 52.3792 92.4038V92.4039C52.3491 92.4289 52.32 92.4554 52.2919 92.4833L46.478 97.7599L32.8907 72.0214Z" fill="#F7FBFC"/>
<path fill-rule="evenodd" clip-rule="evenodd" d="M28.6027 74.2616C28.7065 74.4767 28.8754 74.7728 28.8754 74.7728L44.1836 103.789C44.2787 103.991 44.3049 104.031 44.3768 104.157C44.4787 104.338 44.5893 104.514 44.7107 104.683C44.7107 104.683 45.4764 105.644 46.0928 106.01C46.8353 106.451 47.8447 106.572 48.5425 106.002L48.6289 105.927L56.1365 99.0976C56.2296 99.0283 56.35 98.9181 56.35 98.9181C56.6654 98.5937 56.4587 98.8295 56.6218 98.5886C56.6975 98.4766 56.7848 98.3046 56.7848 98.3046C56.8275 98.2136 56.8799 98.0834 56.8799 98.0834C57.1109 97.4534 57.1362 96.7533 57.044 96.0835C57.0226 95.9277 57.0236 95.9484 57.01 95.8723C56.8722 95.1248 56.5975 94.4071 56.2063 93.7587L56.0588 93.5237C55.6386 92.8955 55.1096 92.3281 54.4234 91.9606C54.4234 91.9606 53.9187 91.6769 53.3606 91.651C52.9073 91.6301 52.4472 91.7777 52.1007 92.0699L51.9949 92.166L46.6004 97.062L33.278 71.8252C32.9878 71.2091 32.486 70.4358 31.8736 69.9105C31.8736 69.9105 31.6649 69.7318 31.4766 69.6078C31.4766 69.6078 31.0981 69.3637 30.7632 69.2475C30.2391 69.0659 29.6374 69.061 29.1453 69.3383C29.1453 69.3383 28.7221 69.5941 28.4853 69.9466C28.4853 69.9466 28.3338 70.1809 28.2484 70.387C28.2484 70.387 28.1533 70.6262 28.1077 70.8166L28.0436 71.1388C28.0155 71.3351 28 71.5342 28 71.7324L28.0339 72.3359C28.0349 72.3427 28.0601 72.5302 28.0601 72.5302C28.0815 72.662 28.1164 72.8387 28.1164 72.8387C28.132 72.91 28.1378 72.9442 28.1795 73.1063C28.1795 73.1063 28.3193 73.6189 28.5163 74.0746C28.5755 74.2081 28.5658 74.1847 28.6027 74.2616ZM30.0343 69.9886C30.9506 70.0101 31.7164 70.8781 32.1638 71.5889C32.2706 71.7578 32.3482 71.8887 32.488 72.1845L32.5035 72.2168L46.0957 97.9645L46.1927 98.088C46.3733 98.1961 46.5664 98.2089 46.7683 98.0837L52.589 92.8006C52.5987 92.7913 52.6084 92.7822 52.6181 92.7732C53.0558 92.3666 53.7867 92.5634 54.2341 92.86C54.7213 93.1822 55.1125 93.6393 55.4221 94.139C55.9084 94.9229 56.2141 95.8292 56.2287 96.7403L56.2258 96.9512C56.2054 97.355 56.1297 97.7648 55.9045 98.0996C55.787 98.2743 55.5852 98.4258 55.5852 98.4258C53.0704 100.712 50.5148 102.954 48.0417 105.286C48.0417 105.286 46.9857 105.853 45.8928 104.749C45.5085 104.359 45.193 103.897 44.9591 103.398L29.6315 74.3449C29.5743 74.2498 29.5714 74.2429 29.5519 74.2085C29.2889 73.7315 29.088 73.2215 28.9715 72.6903C28.9715 72.6903 28.7648 71.5323 29.0045 70.8381C29.1753 70.343 29.5422 69.9993 29.9936 69.9886C30.0072 69.9886 30.0207 69.9886 30.0343 69.9886Z" fill="#36464A"/>
<path fill-rule="evenodd" clip-rule="evenodd" d="M48.0211 105.824L50.3661 104.645C50.4748 104.59 50.5767 104.52 50.6699 104.436L50.6709 104.435L50.6728 104.434L50.6806 104.426L58.2211 97.5693C58.3133 97.5037 58.3987 97.4261 58.4764 97.3369C58.8093 96.9565 59.0082 96.3658 59.0082 95.6159C59.0082 93.8375 57.8911 91.8323 56.5167 91.1407C55.9227 90.8418 55.3763 90.8368 54.9483 91.0712L52.7295 92.19V92.1901C53.1362 92.0203 53.6341 92.0504 54.1708 92.3205C55.5461 93.0121 56.6623 95.0173 56.6623 96.7957C56.6623 97.5457 56.4633 98.1362 56.1304 98.5167V98.5168C56.0528 98.6059 55.9674 98.6836 55.8752 98.749L48.3356 105.606L48.3269 105.614L48.3259 105.615L48.3249 105.616C48.2318 105.7 48.1298 105.77 48.0211 105.824ZM48.4851 95.9383L35.2355 70.8418C34.7803 69.8547 34.0689 69.0101 33.2701 68.6078C32.6945 68.3188 32.1646 68.3051 31.7424 68.517L29.3964 69.6975C29.8187 69.4846 30.3486 69.4983 30.9242 69.7883C31.7229 70.1896 32.4344 71.0352 32.8906 72.0213L46.4779 97.7598L48.4851 95.9383Z" fill="#F7FBFC"/>
<path fill-rule="evenodd" clip-rule="evenodd" d="M58.8103 97.6154C58.8297 97.5913 58.8501 97.5678 58.8695 97.5434C58.9996 97.3789 59.1151 97.178 59.1956 96.9798C59.1956 96.9798 59.3441 96.5139 59.3567 96.4536C59.4004 96.2533 59.4247 96.0494 59.4354 95.8446C59.4625 95.2974 59.3927 94.7441 59.248 94.2147C59.248 94.2147 59.1325 93.8159 59.0432 93.5852C58.9879 93.4424 59.0277 93.4842 58.786 93.0051C58.4308 92.2985 58.028 91.7787 57.5971 91.3799C57.5971 91.3799 57.1137 90.9736 56.8565 90.8286C56.2353 90.4791 55.4656 90.3385 54.8231 90.6462C54.7843 90.6649 54.7493 90.684 54.7493 90.684L52.5354 91.8004L52.3889 91.9201L52.3073 92.0908L52.3054 92.2802L52.383 92.4526L52.5267 92.5755L52.7082 92.6255L52.8936 92.5933C52.9072 92.5878 52.9207 92.5825 52.9353 92.5775C53.736 92.2858 54.6503 93.1416 55.0007 93.5572C55.7559 94.4509 56.2101 95.6105 56.2285 96.7402L56.2256 96.9511C56.2052 97.3549 56.1295 97.7647 55.9043 98.0995C55.7869 98.2741 55.585 98.4257 55.585 98.4257C53.0702 100.712 50.5147 102.953 48.0416 105.286C48.0416 105.286 47.9358 105.38 47.8271 105.435L47.6941 105.538C47.6213 105.665 47.5776 105.698 47.5883 105.853C47.6058 106.113 47.8242 106.318 48.2095 106.217C48.9966 105.833 49.7799 105.427 50.5729 105.028C50.6932 104.966 50.8505 104.852 50.8505 104.852C50.9262 104.793 50.9708 104.75 50.9708 104.75L58.4929 97.9092C58.6045 97.8262 58.7084 97.7312 58.8006 97.6261C58.8006 97.6261 58.7666 97.6491 58.8103 97.6154ZM50.3797 104.113C50.3797 104.113 50.3856 104.108 50.3797 104.113V104.113ZM55.618 91.3409C55.9034 91.3448 56.1848 91.4508 56.4343 91.59C56.5032 91.6289 56.874 91.8837 57.0827 92.0912C57.4476 92.4546 57.7349 92.8558 57.9853 93.3439C58.2629 93.8823 58.4541 94.4482 58.5366 95.0638C58.6026 95.5492 58.6259 96.3647 58.2444 96.9284C58.1386 97.0837 57.9309 97.2458 57.9309 97.2458L56.7983 98.2751C56.8361 98.1967 56.8798 98.0833 56.8798 98.0833C57.1108 97.4533 57.136 96.7532 57.0438 96.0834C57.0225 95.9275 57.0234 95.9483 57.0099 95.8722C56.872 95.1247 56.5973 94.407 56.2062 93.7586L56.0587 93.5235C55.6384 92.8954 55.1094 92.3279 54.4232 91.9605C54.4232 91.9605 54.3465 91.9209 54.2864 91.8926C54.7319 91.6677 55.1638 91.3409 55.618 91.3409ZM29.0694 69.4114L28.9859 69.5598L28.9646 69.7278L29.0092 69.8918L29.1131 70.0266C29.2587 70.1105 29.2606 70.1105 29.4276 70.132L29.5906 70.0871C29.6188 70.0724 29.6489 70.0597 29.678 70.048C30.4088 69.7873 31.1484 70.38 31.5638 70.8135C31.9463 71.2109 32.25 71.6806 32.4878 72.1844L32.5034 72.2166L46.0955 97.9643L46.1926 98.0878C46.3731 98.1959 46.5663 98.2088 46.7682 98.0835L48.7753 96.2621L48.885 96.1061L48.918 95.9181L48.8676 95.7339L35.6229 70.6436C35.6132 70.6241 35.6034 70.6036 35.5937 70.5831C35.4957 70.38 35.3889 70.1808 35.2705 69.9894C35.2705 69.9894 35.0987 69.7141 34.9396 69.5042C34.9396 69.5042 34.7833 69.303 34.6717 69.1781C33.9447 68.3647 32.9188 67.7232 31.8793 68.0005C31.7347 68.0396 31.5609 68.1206 31.5609 68.1206L29.2034 69.3069C29.1587 69.3421 29.1141 69.3763 29.0694 69.4114ZM32.3733 68.808C33.3002 68.8217 34.066 69.7043 34.5096 70.4083C34.6251 70.5929 34.7299 70.7842 34.8231 70.9825L34.8532 71.0459L47.9435 95.8425L46.6003 97.0618L33.2779 71.8251C32.9877 71.209 32.4859 70.4357 31.8735 69.9104C31.8735 69.9104 31.6648 69.7317 31.4765 69.6077C31.4765 69.6077 31.2261 69.4485 31.0387 69.3597L31.0378 69.3587C31.492 69.1302 31.9414 68.808 32.3733 68.808Z" fill="#36464A"/>
<path fill-rule="evenodd" clip-rule="evenodd" d="M49.2423 64.3254C47.7058 64.3381 46.1558 64.6779 44.7669 65.3761L38.9239 68.315L38.79 68.4195C38.7181 68.5474 38.6745 68.5796 38.6851 68.7359C38.7036 68.9966 38.9326 69.2133 39.3112 69.0952C39.5412 69.0229 39.8091 68.8579 40.0808 68.7525C43.1664 67.5583 46.7575 68.3473 49.449 69.681C52.6801 71.2833 55.4502 73.7881 57.7427 76.5812L58.1474 77.082C58.4153 77.4215 58.6784 77.7649 58.9346 78.1138C58.9346 78.1138 59.1394 78.395 59.2753 78.5852C59.7984 79.3227 60.3002 80.0794 60.7729 80.8556L60.8117 80.9193C62.3161 83.3998 63.5643 86.0488 64.5242 88.7915C65.0784 90.3739 65.5385 92.0056 65.8928 93.7041C66.1888 95.1195 66.4033 96.5588 66.5169 97.9972C66.5169 97.9972 66.5537 98.4875 66.5702 98.7919C66.6547 100.32 66.6256 101.854 66.4577 103.375C66.4577 103.375 66.3451 104.299 66.2325 104.913C65.7481 107.572 64.7688 110.181 62.947 112.21C62.354 112.872 61.3504 113.762 60.2032 114.347L60.1556 114.371C60.0411 114.462 59.9887 114.476 59.9401 114.624C59.8702 114.837 59.9993 115.102 60.2148 115.174C60.3623 115.223 60.405 115.189 60.5458 115.15C62.4928 114.171 64.4398 113.191 66.3868 112.212C66.5469 112.131 67.2962 111.717 67.8204 111.329C69.22 110.294 70.3391 108.904 71.1689 107.353C71.2184 107.26 71.4329 106.852 71.6251 106.424C71.6251 106.424 71.7649 106.11 71.86 105.876C73.1712 102.65 73.4721 99.046 73.2683 95.6567C73.2479 95.3099 73.2217 94.9627 73.1897 94.6162C73.1897 94.6162 73.1615 94.3202 73.1382 94.0955C73.0907 93.6463 73.0324 93.1983 72.9674 92.7518L72.9567 92.678C72.6792 90.7916 72.2453 88.9356 71.6872 87.1017C70.9098 84.5513 69.8712 82.0443 68.6328 79.7121C68.6328 79.7121 68.4464 79.3617 68.3057 79.1062C68.1513 78.8248 67.933 78.4414 67.933 78.4414C67.6049 77.8721 67.2662 77.3088 66.9119 76.7558C66.9119 76.7558 66.4188 75.9956 66.0791 75.5055C63.1081 71.2276 59.2656 67.3669 54.4378 65.4034C54.4378 65.4034 54.1117 65.2716 53.8739 65.1847C52.4316 64.6584 50.9097 64.3381 49.3704 64.3254C49.3277 64.3254 49.285 64.3254 49.2423 64.3254ZM43.3576 67.2635C43.1828 67.2664 42.9256 67.2761 42.9256 67.2761C43.6672 66.9032 44.4087 66.5302 45.1512 66.1572C45.7423 65.8603 46.0364 65.7617 46.4091 65.6416C50.2662 64.3957 54.6455 66.0566 57.8048 68.2301C59.9887 69.7328 61.8968 71.587 63.5847 73.6433L63.6303 73.6981C64.301 74.5209 64.9377 75.3702 65.5336 76.246L65.5764 76.3069C66.3819 77.4929 67.1225 78.7232 67.7971 79.9894C67.7971 79.9894 68.0562 80.4772 68.2795 80.9223C69.2607 82.8781 70.0993 84.9379 70.769 87.0699C71.3844 89.0263 71.8444 91.0114 72.1308 93.0247C72.1308 93.0247 72.1968 93.4955 72.2356 93.8248C72.6762 97.5845 72.5656 101.485 71.2407 105.07C71.2407 105.07 71.0437 105.602 70.835 106.064C70.8098 106.121 70.8108 106.121 70.7846 106.177C70.6438 106.483 70.4419 106.872 70.406 106.939C69.4209 108.779 67.9359 110.431 66.0898 111.386C66.0675 111.397 65.9976 111.433 65.9976 111.433L63.8244 112.526C65.3386 110.707 66.3218 108.418 66.8585 106.156C67.4836 103.52 67.5952 100.823 67.3972 98.1495L67.3865 98.0007C67.3021 96.9871 67.1817 95.9787 67.008 94.9436C66.677 92.9625 66.1859 91.0001 65.5162 89.0129L65.3677 88.5757C64.9959 87.5073 64.5844 86.4531 64.1273 85.4175C64.1273 85.4175 63.7584 84.5839 63.4158 83.881C62.7131 82.4403 61.9347 81.0421 61.0699 79.694C61.0699 79.694 60.7292 79.1614 60.407 78.6899C60.1964 78.3821 59.9819 78.0767 59.7625 77.7751L59.7188 77.7153C58.4406 75.9667 57.0099 74.3138 55.4278 72.8456C54.0273 71.545 52.5005 70.3782 50.8379 69.435C50.8379 69.435 50.4031 69.1889 50.043 69.0054C48.0018 67.9635 45.7714 67.2732 43.4866 67.2635C43.443 67.2635 43.4003 67.2635 43.3576 67.2635Z" fill="#36464A"/>
</svg>
