<svg width="150" height="150" viewBox="0 0 150 150" fill="none" xmlns="http://www.w3.org/2000/svg">
<path d="M44.6174 32.1946L44.7896 31.7252L44.1179 32.1709L44.6174 32.1946ZM72.0235 124.174L71.63 124.483L71.8308 124.739L72.1462 124.659L72.0235 124.174ZM99.6174 59.4131L100.117 59.3841L100.101 59.1209L99.8754 58.9848L99.6174 59.4131ZM72.0235 29.5667L72.4521 29.3092L72.184 28.8629L71.7489 29.1488L72.0235 29.5667ZM44.1179 32.1709C42.898 57.7887 43.2657 72.6077 47.2142 85.1625C51.1643 97.7223 58.686 107.974 71.63 124.483L72.417 123.866C59.4566 107.336 52.0551 97.2216 48.1681 84.8625C44.2796 72.4983 43.8964 57.8463 45.1168 32.2184L44.1179 32.1709ZM72.1462 124.659C79.9668 122.68 85.8101 120.254 90.1226 117.043C94.4481 113.822 97.2107 109.828 98.8951 104.763C100.574 99.7135 101.179 93.6091 101.217 86.1648C101.255 78.7189 100.726 69.8897 100.117 59.3841L99.1182 59.442C99.7286 69.9603 100.255 78.7527 100.217 86.1596C100.179 93.5681 99.5756 99.5478 97.9462 104.447C96.3223 109.331 93.6763 113.15 89.5254 116.241C85.3615 119.342 79.6604 121.726 71.9009 123.689L72.1462 124.659ZM44.4451 32.664C51.0971 35.1047 55.8664 35.9043 60.0936 35.3382C64.321 34.7721 67.9416 32.8478 72.2981 29.9845L71.7489 29.1488C67.4198 31.9941 63.9558 33.8121 59.9608 34.3471C55.9656 34.8821 51.3746 34.1414 44.7896 31.7252L44.4451 32.664ZM71.5949 29.8241C76.6459 38.2313 80.7114 44.0077 84.957 48.5483C89.2081 53.0946 93.6248 56.386 99.3593 59.8413L99.8754 58.9848C94.1936 55.5612 89.8573 52.3248 85.6875 47.8653C81.5122 43.4 77.4889 37.6927 72.4521 29.3092L71.5949 29.8241Z" fill="#36464A"/>
<path d="M44.6174 32.1945L44.3517 31.771C44.1901 31.8724 44.1002 32.0569 44.1201 32.2466C44.1399 32.4363 44.266 32.5982 44.4451 32.6639L44.6174 32.1945ZM72.0235 29.5666L72.4521 29.3091L72.184 28.8628L71.7489 29.1487L72.0235 29.5666ZM105.303 55.8464L105.802 55.8174L105.787 55.5542L105.561 55.4182L105.303 55.8464ZM50.303 28.628L50.4752 28.1586L50.245 28.0741L50.0373 28.2044L50.303 28.628ZM77.7091 26L78.1377 25.7425L77.8696 25.2962L77.4345 25.5822L77.7091 26ZM72.1462 124.659C79.9668 122.68 85.8101 120.254 90.1226 117.043C94.4481 113.822 97.2107 109.828 98.8951 104.763C100.574 99.7134 101.179 93.609 101.217 86.1647C101.255 78.7188 100.726 69.8896 100.117 59.384L99.1182 59.4419C99.7286 69.9602 100.255 78.7526 100.217 86.1595C100.179 93.568 99.5756 99.5477 97.9462 104.447C96.3223 109.331 93.6763 113.15 89.5254 116.241C85.3615 119.342 79.6604 121.726 71.9009 123.689L72.1462 124.659ZM44.4451 32.6639C51.0971 35.1046 55.8664 35.9042 60.0936 35.3381C64.321 34.772 67.9416 32.8477 72.2981 29.9844L71.7489 29.1487C67.4198 31.994 63.9558 33.812 59.9608 34.347C55.9656 34.882 51.3746 34.1413 44.7896 31.7251L44.4451 32.6639ZM71.5949 29.8241C76.6459 38.2312 80.7114 44.0076 84.957 48.5482C89.2081 53.0945 93.6248 56.3859 99.3593 59.8412L99.8754 58.9847C94.1936 55.5611 89.8573 52.3247 85.6875 47.8652C81.5122 43.3999 77.4889 37.6926 72.4521 29.3091L71.5949 29.8241ZM85.9091 119.681C91.2856 117.087 95.3971 114.432 98.4868 111.231C101.584 108.023 103.634 104.288 104.92 99.5662C107.479 90.1702 107.021 76.811 105.802 55.8174L104.804 55.8754C106.026 76.9296 106.461 90.1003 103.955 99.3034C102.708 103.881 100.735 107.463 97.7673 110.537C94.7925 113.619 90.7977 116.212 85.4746 118.78L85.9091 119.681ZM50.1307 29.0974C56.7827 31.5381 61.552 32.3376 65.7792 31.7716C70.0066 31.2055 73.6272 29.2811 77.9837 26.4178L77.4345 25.5822C73.1054 28.4274 69.6414 30.2455 65.6464 30.7804C61.6512 31.3154 57.0603 30.5747 50.4752 28.1586L50.1307 29.0974ZM77.2805 26.2575C82.3315 34.6647 86.397 40.4411 90.6426 44.9816C94.8937 49.5279 99.3104 52.8193 105.045 56.2747L105.561 55.4182C99.8792 51.9945 95.5429 48.7581 91.3731 44.2986C87.1978 39.8334 83.1745 34.126 78.1377 25.7425L77.2805 26.2575ZM50.0373 28.2044L44.3517 31.771L44.8831 32.6181L50.5687 29.0515L50.0373 28.2044ZM105.037 55.4229L99.3517 58.9894L99.8831 59.8365L105.569 56.27L105.037 55.4229Z" fill="#36464A"/>
<path d="M67.4997 90.2769L58.5 74.7767C56 70.2767 60.9999 67.7767 63.5 71.7767L69.4997 82.7769L83.4997 70.2769C86.9996 67.2768 91.4996 72.2766 87.9996 75.2767L70.4997 90.7769C68.4996 92.2768 67.4997 90.2769 67.4997 90.2769Z" fill="#26C4F7" stroke="#36464A"/>
<path fill-rule="evenodd" clip-rule="evenodd" d="M64.2588 69.0408C64.9564 69.3864 65.471 70.0447 65.9999 70.8908L71.4999 80.7768L73.3261 79.2175L68.6813 70.7015C67.4154 68.676 65.5084 68.3172 64.2588 69.0408ZM89.77 68.5243C93.0256 69.8287 93.1189 73.511 90.9995 75.2769L74.0948 90.2499C74.5252 90.2982 75.054 90.1719 75.681 89.7017L93.181 74.2015C96.3251 71.5064 93.0133 67.1976 89.77 68.5243Z" fill="#36464A"/>
<path d="M68.5001 91.1765C68.5001 91.1765 71.4996 92.2769 73.4997 90.777L90.9996 75.2768C93.2749 73.381 93.0001 69.2765 89.0001 68.2766C88.0123 68.0825 85.8292 68.9515 84.5001 69.6765M71.5 80.7767L66 70.8907C64.7076 68.8229 63.5 67.8767 59.5 69.8768" stroke="#36464A"/>
<path d="M67.4997 90.2769L58.5 74.7767C56 70.2767 60.9999 67.7767 63.5 71.7767L69.4997 82.7769L83.4997 70.2769C86.9996 67.2768 91.4996 72.2766 87.9996 75.2767L70.4997 90.7769C68.4996 92.2768 67.4997 90.2769 67.4997 90.2769Z" stroke="#36464A"/>
</svg>
