<svg width="150" height="150" viewBox="0 0 150 150" fill="none" xmlns="http://www.w3.org/2000/svg">
<path d="M42.6477 30.4991L42.8199 30.0297L42.1483 30.4753L42.6477 30.4991ZM71.401 127L71.0076 127.308L71.2083 127.564L71.5237 127.485L71.401 127ZM100.351 59.0555L100.85 59.0265L100.835 58.7633L100.609 58.6272L100.351 59.0555ZM71.401 27.7419L71.8296 27.4844L71.5615 27.0382L71.1264 27.3241L71.401 27.7419ZM42.1483 30.4753C40.8684 57.3527 41.2545 72.896 45.3956 86.0632C49.5383 99.2355 57.4269 109.988 71.0076 127.308L71.7945 126.691C58.1974 109.35 50.4291 98.7348 46.3496 85.7632C42.2684 72.7866 41.8668 57.4103 43.1472 30.5229L42.1483 30.4753ZM71.5237 127.485C79.7273 125.409 85.8542 122.865 90.3751 119.499C94.909 116.123 97.8045 111.937 99.5702 106.627C101.331 101.333 101.965 94.9315 102.005 87.1221C102.045 79.3111 101.49 70.0489 100.85 59.0265L99.8521 59.0844C100.493 70.1194 101.045 79.3449 101.005 87.1169C100.965 94.8904 100.332 101.167 98.6213 106.311C96.916 111.439 94.1372 115.451 89.7779 118.697C85.4057 121.952 79.4208 124.455 71.2784 126.515L71.5237 127.485ZM42.4755 30.9685C49.4528 33.5286 54.4521 34.366 58.8814 33.7729C63.3109 33.1797 67.1056 31.1634 71.6756 28.1598L71.1264 27.3241C66.5838 30.3097 62.9457 32.2197 58.7487 32.7817C54.5513 33.3438 49.7303 32.5652 42.8199 30.0297L42.4755 30.9685ZM70.9724 27.9994C76.2714 36.8193 80.5356 42.8779 84.9882 47.6398C89.4463 52.4075 94.0781 55.8593 100.093 59.4837L100.609 58.6272C94.6469 55.0345 90.0955 51.6377 85.7187 46.9568C81.3365 42.2702 77.1144 36.2807 71.8296 27.4844L70.9724 27.9994Z" fill="#36464A"/>
<path d="M43 30.499L42.7322 30.0768C42.5718 30.1785 42.4828 30.3625 42.5028 30.5514C42.5227 30.7404 42.648 30.9018 42.8261 30.9678L43 30.499ZM71.4441 27.7419L71.8739 27.4864L71.6053 27.0345L71.1674 27.3254L71.4441 27.7419ZM105.984 55.3136L106.483 55.2849L106.468 55.023L106.244 54.8866L105.984 55.3136ZM48.9009 26.7572L49.0748 26.2884L48.8425 26.2022L48.6332 26.3349L48.9009 26.7572ZM77.345 24L77.7749 23.7445L77.5063 23.2926L77.0684 23.5835L77.345 24ZM71.568 127.484C79.6841 125.409 85.7463 122.864 90.2195 119.497C94.7053 116.121 97.5695 111.934 99.316 106.625C101.057 101.332 101.685 94.9312 101.725 87.122C101.764 79.3113 101.215 70.0492 100.582 59.0268L99.5839 59.0841C100.217 70.119 100.764 79.3448 100.725 87.117C100.685 94.8907 100.059 101.168 98.3661 106.313C96.6788 111.442 93.9297 115.453 89.6181 118.698C85.2938 121.953 79.3743 124.456 71.3202 126.516L71.568 127.484ZM42.8261 30.9678C49.7289 33.5281 54.6764 34.3662 59.0605 33.7727C63.4448 33.1792 67.2 31.1619 71.7208 28.1583L71.1674 27.3254C66.6736 30.311 63.0759 32.22 58.9264 32.7817C54.7767 33.3435 50.0094 32.5656 43.1739 30.0303L42.8261 30.9678ZM71.0143 27.9973C76.2562 36.8171 80.4746 42.8758 84.8794 47.6378C89.2897 52.4057 93.8721 55.8578 99.8229 59.4825L100.343 58.6284C94.4452 55.036 89.9431 51.6394 85.6135 46.9588C81.2786 42.2723 77.1019 36.2827 71.8739 27.4864L71.0143 27.9973ZM85.7192 122.332C91.2986 119.611 95.5715 116.823 98.7878 113.461C102.011 110.092 104.153 106.169 105.503 101.211C108.19 91.3407 107.748 77.3132 106.483 55.2849L105.485 55.3422C106.753 77.4287 107.173 91.2699 104.538 100.948C103.227 105.764 101.161 109.534 98.0653 112.77C94.9629 116.012 90.8062 118.739 85.2808 121.433L85.7192 122.332ZM48.7271 27.226C55.6299 29.7862 60.5773 30.6243 64.9615 30.0308C69.3457 29.4374 73.1009 27.42 77.6217 24.4165L77.0684 23.5835C72.5746 26.5691 68.9769 28.4782 64.8273 29.0399C60.6776 29.6016 55.9104 28.8237 49.0748 26.2884L48.7271 27.226ZM76.9152 24.2555C82.1571 33.0752 86.3756 39.1339 90.7804 43.8959C95.1907 48.6638 99.7731 52.1159 105.724 55.7406L106.244 54.8866C100.346 51.2941 95.844 47.8975 91.5145 43.2169C87.1795 38.5304 83.0028 32.5408 77.7749 23.7445L76.9152 24.2555ZM48.6332 26.3349L42.7322 30.0768L43.2678 30.9213L49.1687 27.1794L48.6332 26.3349ZM105.716 54.8913L99.8153 58.6332L100.351 59.4777L106.252 55.7358L105.716 54.8913Z" fill="#36464A"/>
<path d="M56 68.5L68.5 114L68 82L79 88.5L68 43L68.5 76L56 68.5Z" fill="#7DE2FF"/>
<path fill-rule="evenodd" clip-rule="evenodd" d="M74.4483 86.1659L74.4483 111.658C74.4483 112.243 73.6157 112.352 73.4651 111.786L70.4799 100.574L70.3444 83.8176L74.4483 86.1659ZM73.4532 50.4415L73.2987 41.323C73.2886 40.727 74.1423 40.6165 74.2842 41.1954L85.3109 86.1647C85.4156 86.592 84.9572 86.9366 84.5758 86.7171L82.7682 85.6767L73.4532 50.4415Z" fill="#36464A"/>
<path fill-rule="evenodd" clip-rule="evenodd" d="M67.6263 43.4253C67.6162 42.8293 68.4699 42.7189 68.6118 43.2977L79.6385 88.267C79.7432 88.6943 79.2848 89.0389 78.9034 88.8194L68.7759 82.9902L68.7759 113.76C68.7759 114.345 67.9433 114.454 67.7927 113.889L55.7954 68.8267C55.6803 68.3945 56.1474 68.0402 56.5327 68.2675L68.1634 75.1285L67.6263 43.4253ZM56.4367 68.8392L68.7759 76.1409L68.1634 43.6818L78.9735 88.2313L68.1634 81.9882L68.1634 112.95L56.4367 68.8392Z" fill="#36464A"/>
<path fill-rule="evenodd" clip-rule="evenodd" d="M71.329 41.2333C71.245 40.9073 70.8694 40.7558 70.5827 40.9322L67.9766 42.5358L68.2918 43.061L70.7805 41.519L82.439 86.8409L79.307 88.2646L79.5605 88.8222L82.7844 87.3568C83.0053 87.2564 83.1223 87.0118 83.0617 86.7768L71.329 41.2333Z" fill="#36464A"/>
<path fill-rule="evenodd" clip-rule="evenodd" d="M59.3878 66.6493C59.243 66.5673 59.0668 66.5627 58.9178 66.6372L55.9542 68.119L56.2281 68.6669L59.1517 67.2051L68.4914 72.5079L68.7723 71.9636L59.3878 66.6493ZM71.0548 83.8175L70.4423 83.8237L70.4423 113.034L68.3776 113.79L68.4914 114.495L70.748 113.574C70.9361 113.497 71.059 113.314 71.059 113.111L71.0548 83.8175Z" fill="#36464A"/>
</svg>
