<svg width="150" height="150" viewBox="0 0 150 150" fill="none" xmlns="http://www.w3.org/2000/svg">
<rect width="150" height="150" fill="#F7FBFC"/>
<path d="M38.5271 51.366L38.5271 103.787C38.5271 104.174 38.7497 104.526 39.099 104.691L77.986 123.112C78.5508 123.38 79.2083 123.368 79.7631 123.08L119.645 102.393C119.976 102.221 120.184 101.879 120.184 101.506L120.184 49.982" stroke="#36464A"/>
<path d="M38.5271 48.5981L78.0711 67.3303C78.5872 67.5748 79.1833 67.587 79.709 67.3638L120.646 49.9822" stroke="#36464A"/>
<path d="M38.5271 91.5025L38.5271 48.308C38.5271 47.9216 38.7497 47.5697 39.099 47.4043L77.986 28.9833C78.5508 28.7157 79.2083 28.7276 79.7631 29.0154L119.645 49.702C119.976 49.874 120.184 50.2163 120.184 50.5897L120.184 92.8866" stroke="#36464A"/>
<path d="M78.6637 67.5129L78.6636 123.335" stroke="#36464A"/>
<path fill-rule="evenodd" clip-rule="evenodd" d="M60.5444 113.398C61.2678 111.444 61.6666 109.113 61.6666 106.461C61.6666 95.3887 54.7164 82.9035 46.1557 78.5975C43.7021 77.3633 41.3806 76.9339 39.3182 77.2103V99.8484C39.3182 101.434 40.3416 103.236 41.6023 103.87L60.5444 113.398Z" fill="#36464A"/>
<path fill-rule="evenodd" clip-rule="evenodd" d="M40.5035 76.7397C40.107 76.7423 39.7114 76.766 39.3167 76.8167C39.0785 76.8473 38.9672 77.0039 38.9298 77.2103V99.8887C38.9367 100.29 38.9976 100.691 39.1019 101.082C39.1263 101.175 39.1298 101.182 39.1428 101.225C39.3115 101.79 39.5636 102.328 39.9184 102.836C40.3131 103.402 40.7965 103.895 41.4112 104.21L60.3707 113.747L60.5272 113.788L60.6863 113.761L60.8211 113.671L60.9254 113.488C61.0306 113.201 61.1272 112.91 61.2167 112.617C61.2315 112.567 61.2315 112.567 61.2463 112.517C61.315 112.285 61.401 111.961 61.401 111.961C61.4671 111.701 61.5515 111.337 61.5515 111.337C61.6019 111.105 61.6505 110.873 61.6929 110.639C61.6929 110.639 61.779 110.169 61.8361 109.752L61.8948 109.296C61.9409 108.886 61.9798 108.474 62.0052 108.062C62.0052 108.062 62.0364 107.528 62.0475 107.086C62.0475 107.086 62.0561 106.657 62.0545 106.33C62.0452 104.329 61.822 102.353 61.4045 100.332C61.1845 99.2669 60.9167 98.2218 60.5881 97.1431C60.3055 96.2176 59.9864 95.2997 59.6326 94.4053L59.6082 94.3413C59.4552 93.9559 59.2969 93.5724 59.1326 93.1921C59.1326 93.1921 58.9735 92.8257 58.8518 92.5606C58.2092 91.1507 57.4841 89.7735 56.6694 88.449C56.6694 88.449 56.4947 88.1646 56.3469 87.9319C53.9028 84.0931 50.7275 80.6014 46.7384 78.4611L46.688 78.4331C44.8334 77.4552 42.8189 76.7756 40.7139 76.7406C40.6435 76.7397 40.5731 76.7397 40.5035 76.7397ZM40.6035 77.5208C41.5529 77.5322 42.4937 77.68 43.4093 77.9345C43.4093 77.9345 43.817 78.0509 44.1596 78.1707C47.2671 79.2526 50.0137 81.4419 52.1247 83.7082C52.1247 83.7082 52.596 84.219 52.962 84.6476C53.2524 84.987 53.5359 85.3342 53.8115 85.6867L53.8515 85.7374C55.6539 88.0596 57.1581 90.6265 58.3666 93.3803C58.557 93.8136 58.7387 94.2509 58.9109 94.6923C58.9109 94.6923 59.0544 95.0593 59.1526 95.3242C59.9403 97.4475 60.5446 99.6332 60.9176 101.992C61.1463 103.434 61.2715 104.883 61.2784 106.333C61.2784 106.333 61.268 107.486 61.2193 108.186C61.1715 108.872 61.0906 109.557 60.9759 110.234L60.9394 110.445C60.8594 110.872 60.7707 111.296 60.662 111.715C60.662 111.715 60.602 111.944 60.5438 112.152C60.5438 112.152 60.5238 112.22 60.502 112.294C60.4881 112.342 60.4881 112.342 60.4742 112.389C60.4142 112.584 60.3255 112.851 60.3255 112.851C54.1332 109.737 47.9165 106.672 41.7494 103.507C40.4035 102.816 39.8358 100.965 39.7453 100.373C39.7332 100.291 39.7314 100.27 39.7262 100.22C39.7106 100.071 39.7062 99.8823 39.7062 99.8823V77.5593C40.0044 77.5313 40.3044 77.5199 40.6035 77.5208Z" fill="#36464A"/>
<path fill-rule="evenodd" clip-rule="evenodd" d="M39.0817 82.1558C30.521 77.8498 23.5714 83.3436 23.5714 94.4157C23.5714 105.488 30.521 117.974 39.0817 122.279C47.6425 126.585 54.593 121.092 54.593 110.019C54.593 98.9469 47.6425 86.4615 39.0817 82.1558Z" fill="#7DE2FF"/>
<path fill-rule="evenodd" clip-rule="evenodd" d="M33.3938 80.2979C30.9376 80.3233 28.5309 81.3108 26.7407 83.2709C26.0303 84.0485 25.4391 84.9345 24.9661 85.8765C24.9661 85.8765 24.847 86.1141 24.7496 86.3272C24.7496 86.3272 24.5262 86.8214 24.374 87.2254C24.374 87.2254 24.1949 87.7078 24.0784 88.0749C23.9967 88.3344 23.921 88.5958 23.8523 88.859C23.8523 88.859 23.6245 89.7905 23.5341 90.2946L23.4567 90.7546C23.4133 91.0261 23.3646 91.4026 23.3646 91.4026C23.3385 91.6105 23.3307 91.6894 23.3159 91.8233C23.0959 93.8846 23.1542 95.9676 23.4202 98.0701C23.428 98.1371 23.4367 98.2039 23.4463 98.2708C23.7115 100.267 24.1784 102.269 24.794 104.194C24.8653 104.418 24.9661 104.719 24.9661 104.719C25.4452 106.138 26.0086 107.528 26.6468 108.878L26.6763 108.94C27.0911 109.807 27.5345 110.66 28.0127 111.492L28.2527 111.904C28.5874 112.466 28.9326 113.022 29.296 113.566C29.296 113.566 29.4899 113.857 29.6351 114.067C30.7011 115.607 31.8888 117.067 33.2104 118.392C33.2104 118.392 33.4425 118.625 33.6164 118.792C33.7199 118.891 33.8442 119.009 33.8442 119.009C35.1719 120.25 36.6082 121.359 38.1941 122.249C38.1941 122.249 38.5176 122.429 38.7549 122.551C38.9888 122.671 39.3175 122.828 39.3175 122.828C42.3197 124.228 45.788 124.763 48.9085 123.122C49.5232 122.798 50.0988 122.4 50.6257 121.943C50.6587 121.914 50.6587 121.914 50.6918 121.885C52.0186 120.71 53.0063 119.159 53.6766 117.499C53.8079 117.174 53.9279 116.846 54.0357 116.513C54.0357 116.513 54.2244 115.924 54.34 115.469C54.34 115.469 54.4731 114.931 54.5426 114.592C54.6044 114.289 54.66 113.986 54.707 113.679C54.707 113.679 54.7582 113.345 54.7913 113.092C54.7913 113.092 54.8539 112.596 54.8887 112.185L54.9313 111.626C54.9461 111.373 54.9591 111.119 54.9669 110.865C54.9669 110.865 54.9826 110.294 54.9808 109.888C54.9774 109.246 54.9521 108.605 54.9043 107.966L54.8948 107.833C54.8191 106.925 54.7113 106.021 54.5557 105.094C54.2592 103.319 53.8192 101.561 53.2193 99.7812L53.0863 99.3896C52.7533 98.4325 52.3846 97.4881 51.9751 96.5604C51.9751 96.5604 51.6447 95.8137 51.3378 95.184C50.7083 93.8934 50.011 92.6409 49.2363 91.4332C49.2363 91.4332 48.9311 90.9562 48.6425 90.5338C48.4538 90.258 48.2616 89.9845 48.0651 89.7143L48.026 89.6607C46.8809 88.0944 45.5993 86.6136 44.1821 85.2984C42.9275 84.1333 41.5598 83.0881 40.0704 82.2432C40.0704 82.2432 39.5322 81.9397 39.0505 81.7052L39.0001 81.6799C37.2864 80.8603 35.4223 80.311 33.5312 80.2979C33.4851 80.2979 33.4399 80.2979 33.3938 80.2979ZM33.4842 81.079C36.1109 81.0877 38.6654 82.1916 40.7938 83.6033C42.8631 84.9756 44.6716 86.7144 46.2558 88.6448L46.6183 89.0934C46.8583 89.3975 47.0939 89.7052 47.3235 90.0177C47.3235 90.0177 47.5069 90.2696 47.6287 90.44C48.0973 91.1007 48.5468 91.7786 48.9702 92.4738L49.005 92.5309C50.3527 94.753 51.4708 97.1259 52.3307 99.5829C52.8272 101 53.2393 102.462 53.5567 103.984C53.8218 105.252 54.014 106.541 54.1157 107.829C54.1157 107.829 54.1488 108.269 54.1635 108.541C54.2279 109.697 54.2157 110.868 54.1253 111.998C54.1253 111.998 54.0775 112.549 54.0288 112.934C53.974 113.364 53.9062 113.793 53.8245 114.219C53.8245 114.219 53.7401 114.648 53.6523 115.015L53.6019 115.222C53.5401 115.458 53.4758 115.694 53.4054 115.928L53.3454 116.124C53.2428 116.442 53.1341 116.758 53.0115 117.069C53.0115 117.069 52.7915 117.626 52.5472 118.122C52.5124 118.192 52.5124 118.193 52.4637 118.288C52.4003 118.411 52.3351 118.533 52.2672 118.653C51.9873 119.156 51.6708 119.637 51.3161 120.088C51.3161 120.088 50.9309 120.573 50.5361 120.964C49.9945 121.501 49.3824 121.967 48.7207 122.336C48.7207 122.336 48.4807 122.468 48.3034 122.553C45.1263 124.086 41.1251 123.05 38.2811 121.4C36.3161 120.241 34.4963 118.674 32.986 117.031C31.3462 115.248 29.9238 113.254 28.7187 111.16C27.418 108.9 26.3651 106.54 25.5747 104.084C25.5747 104.084 25.5182 103.909 25.4721 103.762C24.887 101.904 24.447 99.9662 24.2071 98.1018C24.2071 98.1018 24.1636 97.7637 24.1358 97.5151C24.0245 96.5302 23.9645 95.5365 23.9593 94.5436C23.9593 94.5436 23.9593 94.1952 23.9636 93.9711C23.9749 93.2608 24.0193 92.5519 24.0949 91.8476C24.0949 91.8476 24.1427 91.4289 24.181 91.1586C24.181 91.1586 24.2723 90.5461 24.3601 90.1093C24.4923 89.4516 24.6601 88.802 24.8661 88.1648L25.0296 87.6898C25.0661 87.5897 25.0809 87.5505 25.0809 87.5505C25.1861 87.2776 25.2948 87.0066 25.4148 86.7413L25.5139 86.5253C25.5678 86.413 25.6373 86.2715 25.6373 86.2715C26.4781 84.6144 27.6971 83.131 29.2726 82.1968C29.2726 82.1968 29.789 81.8986 30.2542 81.7044C31.2488 81.2898 32.3218 81.0904 33.3999 81.079C33.4277 81.079 33.4564 81.079 33.4842 81.079Z" fill="#36464A"/>
<path fill-rule="evenodd" clip-rule="evenodd" d="M27.4276 83.1224C26.419 84.1002 25.5774 85.3554 24.9401 86.8579L37.7699 111.176C38.1794 112.024 38.7993 112.745 39.4923 113.093C40.1409 113.42 40.7243 113.355 41.1329 112.988V112.987L41.1347 112.986L41.1416 112.979L47.8965 106.837C47.9791 106.778 48.0556 106.708 48.1252 106.628C48.4234 106.288 48.6016 105.759 48.6016 105.087C48.6016 103.494 47.6009 101.697 46.3697 101.078C45.7394 100.761 45.1707 100.813 44.7647 101.152V101.153C44.7377 101.175 44.7116 101.199 44.6864 101.224L39.4784 105.95L27.4276 83.1224Z" fill="#36464A"/>
<path fill-rule="evenodd" clip-rule="evenodd" d="M45.5097 100.477C45.3306 100.483 45.0785 100.547 45.0785 100.547C44.8785 100.61 44.6898 100.71 44.5281 100.842L44.422 100.937L39.5878 105.325L27.7701 82.9395C27.6258 82.7576 27.444 82.636 27.1571 82.8424C27.151 82.8468 26.8232 83.1722 26.5859 83.4442C25.746 84.4046 25.0965 85.5154 24.5983 86.6683C24.5983 86.6683 24.4879 86.7306 24.5966 87.0409L37.4246 111.354C37.5003 111.509 37.6194 111.722 37.6194 111.722C37.8506 112.109 38.1167 112.476 38.4349 112.793C38.6593 113.016 39.2079 113.449 39.7226 113.606C39.8478 113.644 39.9765 113.671 40.1069 113.685C40.5616 113.733 41.0285 113.598 41.3781 113.29L41.3485 113.312L41.4015 113.269L48.1416 107.14C48.4694 106.906 48.4746 106.842 48.6033 106.634C48.7085 106.464 48.6424 106.684 48.818 106.182C48.905 105.933 48.9589 105.573 48.9615 105.556C48.9885 105.34 48.9937 105.119 48.985 104.902C48.9685 104.489 48.938 104.391 48.9093 104.24C48.9093 104.24 48.8033 103.719 48.6555 103.329C48.6555 103.329 48.292 102.503 48.0486 102.137C47.466 101.263 46.5905 100.511 45.6254 100.477C45.5906 100.476 45.5845 100.475 45.5097 100.477ZM39.1357 106.134C39.2757 106.312 39.4435 106.423 39.7382 106.24L44.9498 101.51C44.962 101.499 44.9733 101.487 44.9855 101.476C45.4715 101.033 46.2957 101.439 46.6435 101.72C47.7486 102.614 48.2129 104.097 48.2129 105.071C48.2129 105.071 48.0729 106.033 47.9164 106.262C47.8138 106.414 47.6364 106.547 47.6364 106.547L40.8859 112.684C40.8859 112.684 40.6877 112.862 40.4529 112.901C39.7165 113.026 39.0835 112.39 38.7279 111.961C38.4914 111.676 38.2915 111.359 38.128 111.024L38.1158 110.998L25.3704 86.8409C25.8651 85.7279 26.5129 84.6626 27.3188 83.7923L27.3328 83.7766C31.2671 91.2292 35.2014 98.6814 39.1357 106.134ZM40.8668 112.703C40.8868 112.683 40.8764 112.695 40.8668 112.703V112.703ZM40.8772 112.693C40.8772 112.693 40.9729 112.62 40.8772 112.693V112.693Z" fill="#36464A"/>
<path fill-rule="evenodd" clip-rule="evenodd" d="M23.9932 84.5603C23.5846 83.6768 22.9473 82.9194 22.2317 82.5599C20.9997 81.9397 19.9998 82.7304 19.9998 84.3232C19.9998 84.9915 20.1754 85.6947 20.4702 86.332V86.3322C20.5502 86.5047 20.6388 86.6724 20.7345 86.8333L34.4563 112.843C34.8659 113.69 35.4858 114.411 36.1787 114.76C36.8274 115.086 37.4116 115.021 37.8194 114.654L37.8203 114.654L37.8212 114.653L37.829 114.646L44.583 108.503C44.6656 108.445 44.7421 108.375 44.8116 108.295V108.295C45.1099 107.954 45.2881 107.425 45.2881 106.753C45.2881 105.16 44.2882 103.364 43.0562 102.744C42.4267 102.428 41.8572 102.48 41.4512 102.819V102.819C41.4242 102.841 41.3981 102.865 41.3729 102.89L36.1648 107.617L23.9932 84.5603Z" fill="#F7FBFC"/>
<path fill-rule="evenodd" clip-rule="evenodd" d="M20.152 86.5669C20.245 86.7595 20.3963 87.0247 20.3963 87.0247L34.1095 113.018C34.1947 113.199 34.2182 113.234 34.2825 113.347C34.3738 113.509 34.4729 113.667 34.5816 113.818C34.5816 113.818 35.2676 114.679 35.8197 115.008C36.4849 115.403 37.3891 115.511 38.0142 115L38.0916 114.933L44.8169 108.815C44.9004 108.753 45.0082 108.654 45.0082 108.654C45.2908 108.364 45.1056 108.575 45.2517 108.359C45.3195 108.259 45.3977 108.105 45.3977 108.105C45.436 108.023 45.4829 107.907 45.4829 107.907C45.6899 107.342 45.7125 106.715 45.6299 106.115C45.6107 105.975 45.6116 105.994 45.5994 105.926C45.476 105.256 45.2299 104.613 44.8795 104.032L44.7474 103.822C44.3709 103.259 43.897 102.751 43.2823 102.422C43.2823 102.422 42.8302 102.168 42.3303 102.144C41.9242 102.126 41.5121 102.258 41.2017 102.52L41.1069 102.606L36.2745 106.992L24.3402 84.3843C24.0802 83.8324 23.6307 83.1396 23.0821 82.6691C23.0821 82.6691 22.8952 82.509 22.7265 82.3979C22.7265 82.3979 22.3874 82.1792 22.0874 82.0752C21.6179 81.9125 21.0788 81.9081 20.638 82.1565C20.638 82.1565 20.2589 82.3857 20.0468 82.7014C20.0468 82.7014 19.9112 82.9113 19.8346 83.0959C19.8346 83.0959 19.7494 83.3102 19.7086 83.4808L19.6512 83.7694C19.626 83.9452 19.6121 84.1236 19.6121 84.3012L19.6425 84.8417C19.6434 84.8479 19.666 85.0158 19.666 85.0158C19.6851 85.1339 19.7164 85.2922 19.7164 85.2922C19.7303 85.3561 19.7355 85.3867 19.7729 85.5319C19.7729 85.5319 19.8981 85.9911 20.0746 86.3993C20.1277 86.5189 20.119 86.4979 20.152 86.5669ZM21.4345 82.739C22.2552 82.7583 22.9412 83.5359 23.3421 84.1726C23.4377 84.3239 23.5073 84.4411 23.6325 84.7062L23.6464 84.735L35.8223 107.8L35.9093 107.911C36.071 108.007 36.244 108.019 36.4249 107.907L41.639 103.174C41.6477 103.166 41.6564 103.158 41.6651 103.15C42.0572 102.785 42.712 102.962 43.1128 103.227C43.5492 103.516 43.8996 103.925 44.177 104.373C44.6126 105.075 44.8865 105.887 44.8995 106.703L44.8969 106.892C44.8786 107.254 44.8108 107.621 44.6091 107.921C44.5039 108.078 44.3231 108.213 44.3231 108.213C42.0703 110.262 39.781 112.269 37.5656 114.358C37.5656 114.358 36.6196 114.867 35.6406 113.877C35.2963 113.529 35.0137 113.114 34.8042 112.667L21.0736 86.6415C21.0223 86.5563 21.0197 86.5501 21.0023 86.5193C20.7667 86.092 20.5867 85.6351 20.4824 85.1592C20.4824 85.1592 20.2972 84.1219 20.512 83.5C20.665 83.0565 20.9936 82.7487 21.3979 82.739C21.4101 82.739 21.4223 82.739 21.4345 82.739Z" fill="#36464A"/>
<path fill-rule="evenodd" clip-rule="evenodd" d="M37.5471 114.841L39.6478 113.784C39.7452 113.735 39.8364 113.673 39.9199 113.598L39.9208 113.597L39.9225 113.596L39.9295 113.589L46.6843 107.446C46.7669 107.388 46.8434 107.318 46.913 107.238C47.2112 106.897 47.3895 106.368 47.3895 105.696C47.3895 104.103 46.3887 102.307 45.1576 101.687C44.6254 101.42 44.1359 101.415 43.7525 101.625L41.7649 102.628V102.628C42.1292 102.475 42.5753 102.502 43.0561 102.744C44.2881 103.364 45.288 105.16 45.288 106.753C45.288 107.425 45.1097 107.954 44.8115 108.295V108.295C44.742 108.375 44.6654 108.444 44.5828 108.503L37.8289 114.646L37.821 114.653L37.8202 114.654L37.8193 114.654C37.7358 114.73 37.6445 114.792 37.5471 114.841ZM37.9628 105.985L26.0937 83.5036C25.6859 82.6194 25.0486 81.8628 24.3331 81.5024C23.8175 81.2435 23.3427 81.2312 22.9645 81.4211L20.863 82.4785C21.2413 82.2879 21.716 82.3001 22.2316 82.5599C22.9471 82.9194 23.5845 83.6768 23.9931 84.5602L36.1647 107.617L37.9628 105.985Z" fill="#F7FBFC"/>
<path fill-rule="evenodd" clip-rule="evenodd" d="M47.2122 107.487C47.2296 107.466 47.2478 107.445 47.2652 107.423C47.3817 107.276 47.4852 107.096 47.5573 106.918C47.5573 106.918 47.6904 106.501 47.7017 106.447C47.7408 106.267 47.7625 106.085 47.7721 105.901C47.7964 105.411 47.7338 104.915 47.6043 104.441C47.6043 104.441 47.5008 104.084 47.4208 103.877C47.3713 103.749 47.4069 103.787 47.1904 103.358C46.8722 102.725 46.5114 102.259 46.1253 101.902C46.1253 101.902 45.6923 101.538 45.4619 101.408C44.9055 101.095 44.216 100.969 43.6404 101.244C43.6056 101.261 43.5743 101.278 43.5743 101.278L41.5911 102.278L41.4598 102.386L41.3868 102.539L41.385 102.708L41.4546 102.863L41.5833 102.973L41.7459 103.018L41.9119 102.989C41.9241 102.984 41.9363 102.979 41.9493 102.975C42.6666 102.713 43.4857 103.48 43.7995 103.852C44.476 104.653 44.8829 105.692 44.8994 106.704L44.8968 106.892C44.8785 107.254 44.8107 107.621 44.609 107.921C44.5038 108.078 44.3229 108.213 44.3229 108.213C42.0702 110.262 39.7809 112.269 37.5655 114.359C37.5655 114.359 37.4707 114.443 37.3733 114.492L37.2542 114.585C37.189 114.699 37.1499 114.728 37.1594 114.867C37.1751 115.099 37.3707 115.283 37.7159 115.193C38.421 114.849 39.1227 114.485 39.833 114.128C39.9409 114.072 40.0817 113.97 40.0817 113.97C40.1495 113.917 40.1895 113.879 40.1895 113.879L46.9279 107.751C47.0278 107.676 47.1209 107.591 47.2035 107.497C47.2035 107.497 47.173 107.518 47.2122 107.487ZM39.66 113.308C39.66 113.308 39.6652 113.303 39.66 113.308V113.308ZM44.3525 101.867C44.6081 101.87 44.8603 101.965 45.0837 102.09C45.1455 102.125 45.4776 102.353 45.6645 102.539C45.9914 102.864 46.2488 103.224 46.4731 103.661C46.7218 104.143 46.8931 104.65 46.967 105.202C47.0261 105.637 47.047 106.367 46.7053 106.872C46.6105 107.011 46.4244 107.156 46.4244 107.156L45.4098 108.078C45.4437 108.008 45.4828 107.907 45.4828 107.907C45.6897 107.342 45.7123 106.715 45.6297 106.115C45.6106 105.976 45.6115 105.994 45.5993 105.926C45.4759 105.256 45.2298 104.613 44.8794 104.033L44.7472 103.822C44.3708 103.259 43.8969 102.751 43.2822 102.422C43.2822 102.422 43.2135 102.386 43.1596 102.361C43.5587 102.16 43.9456 101.867 44.3525 101.867ZM20.5701 82.2222L20.4953 82.3551L20.4762 82.5056L20.5162 82.6525L20.6092 82.7733C20.7396 82.8485 20.7414 82.8485 20.8909 82.8677L21.037 82.8275C21.0622 82.8144 21.0892 82.803 21.1153 82.7925C21.77 82.5589 22.4325 83.0899 22.8046 83.4782C23.1472 83.8342 23.4193 84.2549 23.6323 84.7063L23.6463 84.7351L35.8222 107.8L35.9092 107.911C36.0709 108.008 36.2439 108.019 36.4247 107.907L38.2228 106.275L38.321 106.135L38.3506 105.967L38.3054 105.802L26.4407 83.326C26.432 83.3085 26.4233 83.2902 26.4146 83.2718C26.3268 83.0899 26.2312 82.9114 26.1251 82.74C26.1251 82.74 25.9712 82.4934 25.8286 82.3053C25.8286 82.3053 25.6886 82.1251 25.5886 82.0132C24.9374 81.2846 24.0184 80.7099 23.0872 80.9583C22.9576 80.9933 22.802 81.0659 22.802 81.0659L20.6901 82.1286C20.6501 82.1601 20.6101 82.1907 20.5701 82.2222ZM23.5297 81.6817C24.3601 81.6939 25.0461 82.4846 25.4434 83.1152C25.5469 83.2806 25.6408 83.452 25.7243 83.6295L25.7512 83.6864L37.4777 105.899L36.2743 106.992L24.3401 84.3844C24.0801 83.8325 23.6306 83.1397 23.082 82.6692C23.082 82.6692 22.895 82.5091 22.7264 82.398C22.7264 82.398 22.502 82.2554 22.3342 82.1758L22.3334 82.175C22.7403 81.9703 23.1428 81.6817 23.5297 81.6817Z" fill="#36464A"/>
<path fill-rule="evenodd" clip-rule="evenodd" d="M48.5929 122.846L53.8253 120.214V120.214C57.4753 118.378 59.8255 113.826 59.8255 107.387C59.8255 96.3149 52.875 83.8291 44.3143 79.524C40.7321 77.7213 37.4308 77.6356 34.8041 78.9572L29.5708 81.5891C32.1983 80.2675 35.4988 80.3532 39.0819 82.1559C47.6426 86.4616 54.5931 98.947 54.5931 110.02C54.5931 116.458 52.2429 121.01 48.5929 122.846Z" fill="#F7FBFC"/>
<path fill-rule="evenodd" clip-rule="evenodd" d="M38.641 77.6661C37.2647 77.6775 35.8761 77.9819 34.6319 78.6073L29.3978 81.24L29.2778 81.3336C29.2135 81.4482 29.1743 81.4771 29.1839 81.617C29.2004 81.8505 29.4056 82.0447 29.7447 81.9389C29.9508 81.8741 30.1907 81.7263 30.4342 81.6319C33.1982 80.5621 36.4152 81.2689 38.8262 82.4637C41.7207 83.899 44.2021 86.1428 46.2558 88.6449L46.6184 89.0935C46.8583 89.3976 47.094 89.7052 47.3235 90.0178C47.3235 90.0178 47.5069 90.2697 47.6287 90.44C48.0973 91.1008 48.5468 91.7786 48.9702 92.4739L49.005 92.531C50.3527 94.7531 51.4708 97.126 52.3307 99.583C52.8272 101 53.2393 102.462 53.5567 103.984C53.8218 105.252 54.014 106.541 54.1157 107.829C54.1157 107.829 54.1488 108.269 54.1636 108.541C54.2392 109.911 54.2131 111.285 54.0627 112.647C54.0627 112.647 53.9618 113.475 53.861 114.025C53.4271 116.407 52.5498 118.744 50.9178 120.562C50.3866 121.155 49.4876 121.952 48.4599 122.476L48.4173 122.498C48.3147 122.579 48.2677 122.591 48.2242 122.724C48.1616 122.914 48.2773 123.152 48.4703 123.216C48.6025 123.26 48.6407 123.23 48.7668 123.195C50.5109 122.318 52.2551 121.44 53.9992 120.563C54.1427 120.491 54.8139 120.12 55.2834 119.772C56.5372 118.845 57.5397 117.6 58.2831 116.21C58.3274 116.127 58.5196 115.762 58.6917 115.378C58.6917 115.378 58.8169 115.097 58.9021 114.887C60.0768 111.997 60.3463 108.769 60.1637 105.733C60.1455 105.422 60.122 105.111 60.0933 104.801C60.0933 104.801 60.0681 104.536 60.0472 104.334C60.0046 103.932 59.9524 103.531 59.8942 103.131L59.8846 103.065C59.636 101.375 59.2473 99.7121 58.7474 98.0692C58.0509 95.7845 57.1206 93.5387 56.0112 91.4496C56.0112 91.4496 55.8442 91.1357 55.7182 90.9068C55.5799 90.6547 55.3843 90.3113 55.3843 90.3113C55.0904 89.8013 54.787 89.2967 54.4696 88.8013C54.4696 88.8013 54.0279 88.1203 53.7236 87.6813C51.0622 83.8492 47.62 80.3907 43.2953 78.6318C43.2953 78.6318 43.0031 78.5137 42.7901 78.4358C41.4981 77.9644 40.1348 77.6775 38.7558 77.6661C38.7175 77.6661 38.6793 77.6661 38.641 77.6661ZM33.3695 80.298C33.213 80.3006 32.9826 80.3094 32.9826 80.3094C33.6468 79.9752 34.3111 79.6411 34.9762 79.307C35.5057 79.0411 35.7692 78.9528 36.1031 78.8452C39.5583 77.7291 43.4813 79.2169 46.3114 81.1639C48.2677 82.51 49.9771 84.171 51.4891 86.0131L51.5299 86.0622C52.1307 86.7992 52.7011 87.56 53.235 88.3446L53.2732 88.3992C53.9949 89.4616 54.6583 90.5637 55.2625 91.698C55.2625 91.698 55.4947 92.135 55.6947 92.5337C56.5737 94.2857 57.3249 96.1309 57.9248 98.0408C58.4761 99.7933 58.8882 101.572 59.1447 103.375C59.1447 103.375 59.2038 103.797 59.2386 104.092C59.6333 107.46 59.5342 110.954 58.3474 114.165C58.3474 114.165 58.1709 114.642 57.984 115.056C57.9614 115.107 57.9622 115.107 57.9388 115.157C57.8127 115.432 57.6318 115.779 57.5997 115.84C56.7172 117.488 55.3869 118.968 53.7332 119.823C53.7132 119.833 53.6506 119.865 53.6506 119.865L51.7038 120.844C53.0602 119.215 53.941 117.164 54.4218 115.138C54.9817 112.777 55.0817 110.361 54.9043 107.966L54.8948 107.833C54.8191 106.925 54.7113 106.021 54.5557 105.094C54.2592 103.319 53.8192 101.561 53.2193 99.7813L53.0863 99.3897C52.7533 98.4326 52.3846 97.4882 51.9751 96.5605C51.9751 96.5605 51.6447 95.8138 51.3378 95.1841C50.7083 93.8935 50.011 92.641 49.2363 91.4333C49.2363 91.4333 48.9311 90.9563 48.6425 90.5339C48.4538 90.2581 48.2616 89.9846 48.0651 89.7144L48.026 89.6608C46.8809 88.0944 45.5993 86.6137 44.1821 85.2985C42.9275 84.1334 41.5598 83.0882 40.0704 82.2433C40.0704 82.2433 39.6809 82.0228 39.3583 81.8584C37.5299 80.9251 35.5318 80.3067 33.4851 80.298C33.446 80.298 33.4077 80.298 33.3695 80.298Z" fill="#36464A"/>
</svg>
