<svg width="150" height="150" viewBox="0 0 150 150" fill="none" xmlns="http://www.w3.org/2000/svg">
<rect width="150" height="150" fill="#F7FBFC"/>
<path fill-rule="evenodd" clip-rule="evenodd" d="M39.4382 32.1781L108.071 66.4948V124.147C108.071 125.836 106.973 126.66 105.621 125.984L41.8879 94.1167C40.5357 93.4408 39.4382 91.5198 39.4382 89.8298V32.1781Z" fill="#F7FBFC"/>
<path fill-rule="evenodd" clip-rule="evenodd" d="M39.2882 31.7671L39.1371 31.8599L39.0356 32.0045L39 32.1783V89.8733C39.0022 89.9863 39.0022 90.1106 39.0313 90.358C39.0313 90.358 39.1176 91.021 39.3292 91.6056L39.3367 91.6257C39.5223 92.1347 39.7749 92.6193 40.0878 93.0601C40.0878 93.0601 40.6436 93.8052 41.1972 94.2064C41.3429 94.3121 41.4961 94.4083 41.6569 94.4902L41.672 94.4982C62.8368 105.31 84.0969 115.938 105.444 126.384C106.048 126.683 106.785 126.767 107.383 126.45C107.383 126.45 107.778 126.21 107.992 125.924C107.992 125.924 108.307 125.414 108.396 125.067C108.396 125.067 108.449 124.844 108.468 124.715C108.5 124.494 108.508 124.17 108.508 124.17V66.4949L108.479 66.3374C108.395 66.2014 108.394 66.1992 108.267 66.1032L39.6335 31.7865L39.463 31.7412C39.4047 31.7498 39.3464 31.7585 39.2882 31.7671ZM107.634 66.7647C107.634 85.904 107.966 105.046 107.633 124.182C107.633 124.248 107.633 124.253 107.631 124.283C107.616 124.625 107.556 124.972 107.37 125.284C107.179 125.606 106.753 125.834 106.331 125.767C106.162 125.739 105.999 125.68 105.844 125.606C84.5349 115.067 63.2253 104.527 42.0552 93.7114C40.6846 93.012 40.1019 91.4385 39.9378 90.5166C39.9065 90.3414 39.8817 90.2397 39.8752 89.8658V32.8851C62.4613 44.1787 85.0475 55.4722 107.634 66.7647Z" fill="#36464A"/>
<path fill-rule="evenodd" clip-rule="evenodd" d="M111.503 64.778L108.071 66.495V124.147C108.071 125.114 107.711 125.798 107.15 126.078V126.078L110.582 124.362C111.143 124.082 111.503 123.398 111.503 122.431V64.778Z" fill="#F7FBFC"/>
<path fill-rule="evenodd" clip-rule="evenodd" d="M111.308 64.3872L107.876 66.1031L107.748 66.2003C107.664 66.3362 107.663 66.3373 107.634 66.4949V124.166C107.63 124.397 107.678 124.778 107.367 125.29C107.266 125.456 107.126 125.6 106.952 125.688L106.825 125.785C106.742 125.92 106.742 125.922 106.713 126.078L106.748 126.251L106.85 126.396L107 126.489L107.175 126.515L107.346 126.469L110.78 124.752C111.129 124.575 111.413 124.283 111.598 123.939L111.795 123.47C111.848 123.286 111.89 123.142 111.922 122.822C111.935 122.689 111.939 122.559 111.94 122.456V64.7779L111.905 64.6052L111.804 64.4606L111.653 64.3678L111.478 64.3419C111.421 64.357 111.365 64.3721 111.308 64.3872ZM111.066 122.45C111.063 122.626 111.072 122.846 110.959 123.211C110.862 123.524 110.676 123.824 110.385 123.972L108.424 124.952C108.464 124.785 108.493 124.574 108.502 124.37C108.502 124.37 108.507 124.266 108.508 124.172V66.7647L111.066 65.4858C111.066 84.4739 111.066 103.462 111.066 122.45Z" fill="#36464A"/>
<path fill-rule="evenodd" clip-rule="evenodd" d="M39.4382 27.0305C39.4382 25.5003 40.431 24.7556 41.6548 25.3675L105.854 57.4665C107.078 58.0784 108.071 59.8169 108.071 61.3472V66.4949L39.4382 32.1782V27.0305Z" fill="#F7FBFC"/>
<path fill-rule="evenodd" clip-rule="evenodd" d="M40.8131 24.7157C40.3415 24.7222 39.8839 24.9316 39.5688 25.2823C39.5688 25.2823 39.4037 25.4766 39.3087 25.659C39.3087 25.659 39.0939 26.1403 39.0432 26.4716L39.013 26.7133C39.0065 26.7921 39.0022 26.8709 39.0011 26.9507L39 26.9907V32.1782C39.0508 32.4491 39.1565 32.5042 39.2418 32.5689L107.876 66.8856L108.046 66.9309L108.221 66.905L108.371 66.8122L108.473 66.6676L108.508 66.4949C108.508 64.765 108.541 63.0362 108.508 61.3073C108.508 61.0839 108.486 60.8605 108.449 60.6426C108.449 60.6426 108.408 60.4235 108.407 60.4202C108.166 59.2698 107.554 58.1723 106.624 57.4439C106.449 57.3068 106.263 57.1849 106.066 57.0834C84.6754 46.3251 63.3603 35.4104 41.8178 24.9596C41.5048 24.8064 41.1606 24.7136 40.8131 24.7157ZM40.839 25.591C41.0516 25.5931 41.2577 25.66 41.4476 25.7528C62.8843 36.4075 84.3731 46.9619 105.682 57.8702C106.227 58.1518 106.65 58.6342 106.971 59.1598C107.052 59.2925 107.057 59.3055 107.092 59.3702C107.417 59.9702 107.634 60.6361 107.634 61.3149L107.634 65.787L39.8753 31.9074V26.9993C39.8785 26.8288 39.8709 26.7295 39.9433 26.4327C40.0447 26.014 40.3501 25.6072 40.8055 25.591C40.8163 25.591 40.8282 25.591 40.839 25.591Z" fill="#36464A"/>
<path fill-rule="evenodd" clip-rule="evenodd" d="M104.111 58.428C103.199 57.9715 102.457 58.5543 102.457 59.7284C102.457 60.9015 103.199 62.2257 104.111 62.6821C105.024 63.1386 105.766 62.5559 105.766 61.3817C105.766 60.2087 105.024 58.8845 104.111 58.428Z" fill="#F7FBFC"/>
<path fill-rule="evenodd" clip-rule="evenodd" d="M103.488 57.8355C102.683 57.8549 102.08 58.6448 102.026 59.5406C101.946 60.855 102.615 62.2493 103.684 62.94C104.242 63.3015 105.033 63.4234 105.589 62.9561C106.612 62.096 106.202 60.146 105.426 59.0474C104.969 58.3999 104.294 57.8441 103.528 57.8355C103.515 57.8355 103.501 57.8355 103.488 57.8355ZM103.513 58.7096C104.258 58.715 104.796 59.506 105.098 60.2668C105.314 60.8086 105.454 61.414 105.229 61.9838C105.021 62.5094 104.216 62.4403 103.629 61.7129C103.049 60.9964 102.669 59.9992 102.99 59.138C103.071 58.919 103.244 58.7236 103.482 58.7107C103.492 58.7107 103.503 58.7096 103.513 58.7096Z" fill="#36464A"/>
<path fill-rule="evenodd" clip-rule="evenodd" d="M99.7632 56.2546C98.8502 55.7982 98.1091 56.3798 98.1091 57.554C98.1091 58.7281 98.8502 60.0512 99.7632 60.5077C100.676 60.9642 101.417 60.3825 101.417 59.2084C101.417 58.0342 100.676 56.7111 99.7632 56.2546Z" fill="#F7FBFC"/>
<path fill-rule="evenodd" clip-rule="evenodd" d="M99.1532 55.6611C97.5139 55.6805 97.1018 58.7745 98.9572 60.471C99.5193 60.9857 100.336 61.3149 101.028 60.9307C102.143 60.3102 101.972 58.3817 101.283 57.1935C100.817 56.3906 100.069 55.6773 99.1812 55.6611C99.1672 55.6611 99.1672 55.6611 99.1532 55.6611ZM99.1705 56.5363C99.9042 56.5493 100.387 57.2928 100.679 57.9274C100.948 58.5134 101.125 59.1932 100.881 59.8094C100.873 59.8289 100.865 59.8472 100.857 59.8656C100.847 59.8871 100.837 59.9077 100.825 59.9282C100.734 60.0943 100.565 60.2249 100.367 60.226C99.7495 60.2292 99.2711 59.6335 98.9509 59.0411C98.6076 58.4076 98.3735 57.6414 98.6458 56.9518C98.6533 56.9334 98.6613 56.9151 98.6697 56.8967C98.6772 56.8795 98.6855 56.8633 98.6941 56.8482C98.7878 56.6734 98.9546 56.5395 99.1542 56.5363C99.1596 56.5363 99.1651 56.5363 99.1705 56.5363Z" fill="#36464A"/>
<path fill-rule="evenodd" clip-rule="evenodd" d="M95.4152 54.0801C94.5022 53.6236 93.761 54.2064 93.761 55.3805C93.761 56.5536 94.5022 57.8778 95.4152 58.3342C96.3282 58.7907 97.0694 58.208 97.0694 57.0338C97.0694 55.8608 96.3282 54.5366 95.4152 54.0801Z" fill="#F7FBFC"/>
<path fill-rule="evenodd" clip-rule="evenodd" d="M94.7916 53.4875C93.4725 53.5199 93.0077 55.5088 93.7044 57.025C94.218 58.1431 95.2646 59.206 96.4045 58.8715C97.372 58.5877 97.6342 57.216 97.4154 56.2405C97.2018 55.2897 96.6842 54.3778 95.8668 53.8371C95.5488 53.6278 95.1796 53.4832 94.7916 53.4875ZM94.817 54.3616C95.6629 54.367 96.234 55.3512 96.4889 56.1617C96.648 56.6678 96.7343 57.2387 96.4967 57.7168C96.2908 58.1312 95.6485 58.0826 95.168 57.6229C94.5229 57.0045 94.1347 56.0915 94.2057 55.2012C94.2361 54.8192 94.3957 54.3821 94.7905 54.3627C94.7994 54.3616 94.8081 54.3616 94.817 54.3616Z" fill="#36464A"/>
<path fill-rule="evenodd" clip-rule="evenodd" d="M108.071 66.4949L111.503 64.7779V59.6313C111.503 58.1011 110.51 56.3625 109.286 55.7506L45.0877 23.6516C44.5643 23.3894 44.083 23.3764 43.7042 23.5653H43.7031L40.2713 25.2823C40.6512 25.0923 41.1314 25.1053 41.6548 25.3675L105.854 57.4665C107.078 58.0784 108.071 59.8169 108.071 61.3472V66.4949Z" fill="#F7FBFC"/>
<path fill-rule="evenodd" clip-rule="evenodd" d="M44.2524 22.9999C44.0258 23.002 43.8002 23.0452 43.593 23.1358C43.5714 23.1445 43.5509 23.1531 43.5315 23.1628C43.5153 23.1715 43.5078 23.1747 43.5078 23.1747L40.076 24.8906L39.9476 24.9877C39.8645 25.1237 39.8634 25.1248 39.8343 25.2823L39.8688 25.4528L39.9681 25.5974L40.117 25.6913L40.2897 25.7183L40.4591 25.6762C40.7753 25.5262 41.1401 25.6061 41.439 25.7485C62.8682 36.4248 84.3702 46.9608 105.682 57.8702C106.227 58.1518 106.65 58.6342 106.971 59.1598C107.052 59.2925 107.057 59.3055 107.092 59.3702C107.417 59.9702 107.634 60.6361 107.634 61.3149L107.634 66.4949L107.67 66.6676L107.771 66.8122L107.921 66.905L108.096 66.9309L108.267 66.8856L111.699 65.1697L111.827 65.0726C111.911 64.9366 111.911 64.9355 111.94 64.778C111.94 63.0491 111.973 61.3203 111.94 59.5904C111.94 57.9058 111.07 56.1726 109.498 55.3676C88.1181 44.6147 66.6874 33.9621 45.2819 23.2599C44.9625 23.1002 44.6118 22.9988 44.2524 22.9999ZM44.2729 23.8751C44.4812 23.8772 44.6841 23.9431 44.8718 24.0326C66.301 34.7089 87.8023 45.2438 109.114 56.1543C110.379 56.8093 111.066 58.4982 111.066 59.599L111.066 64.5082L108.508 65.787C108.508 64.2934 108.536 62.7998 108.508 61.3073C108.508 61.2264 108.506 61.2221 108.505 61.1865C108.498 61.0041 108.479 60.8228 108.449 60.6426C108.449 60.6426 108.408 60.4235 108.407 60.4202C108.166 59.2698 107.554 58.1723 106.624 57.4439C106.444 57.3025 106.253 57.1773 106.05 57.0759L41.8555 24.9791C42.543 24.6348 43.2239 24.2787 43.9179 23.9485C44.0269 23.8967 44.1509 23.874 44.2729 23.8751Z" fill="#36464A"/>
<path fill-rule="evenodd" clip-rule="evenodd" d="M53.2926 57.2845C53.5845 57.3321 53.8952 57.4342 54.2189 57.5945L96.1005 78.3426C98.1052 79.3358 99.8098 82.1535 99.8098 84.4742L99.8098 91.7063C99.8098 95.9049 96.999 97.7662 93.3721 95.9694L56.4691 77.6877C56.5486 77.7334 56.6287 77.7763 56.7093 77.8162L93.7627 96.1724C98.2963 98.4183 101.81 96.0917 101.81 90.8435L101.81 81.3275C101.81 80.1672 100.958 78.7583 99.9552 78.2617L56.2188 56.5948C54.8993 55.941 53.7958 56.2558 53.2926 57.2845Z" fill="#36464A"/>
<path d="M50 59.1998L51.5583 57.8285C52.1586 57.3002 53.0482 57.2684 54.012 57.7406L96.1786 78.4009C98.1541 79.3688 99.8512 82.1184 99.8898 84.4278C99.932 86.9493 99.9783 90.2528 99.9942 93.3678C100.001 94.7028 99.4266 95.6144 98.4704 95.8057L96 96.2998" stroke="#36464A"/>
<path d="M49.433 60.9762C49.433 59.1393 50.6628 58.325 52.2495 59.1111L94.1312 79.8592C95.8853 80.7282 97.3768 83.1938 97.3768 85.2243L97.3768 94.1827C97.3768 96.0195 96.1471 96.8338 94.5603 96.0478L52.6787 75.2996C50.9246 74.4306 49.433 71.9651 49.433 69.9345L49.433 60.9762Z" fill="#7DE2FF" stroke="#36464A"/>
<path d="M55.3164 68.4744C55.3164 67.0475 56.2696 66.4125 57.502 67.0185L86.9588 81.5037C88.3272 82.1766 89.4934 84.1002 89.4934 85.6847C89.4934 87.1115 88.5402 87.7465 87.3078 87.1405L57.851 72.6554C56.4826 71.9825 55.3164 70.0588 55.3164 68.4744Z" fill="#F7FBFC" stroke="#36464A"/>
</svg>
