<svg width="150" height="150" viewBox="0 0 150 150" fill="none" xmlns="http://www.w3.org/2000/svg">
<rect width="150" height="150" fill="#7DE2FF"/>
<path fill-rule="evenodd" clip-rule="evenodd" d="M92.8721 46.1208V36.5449C92.8721 35.3302 91.8819 33.8517 90.662 33.2444L86.2407 31.043C85.0208 30.4356 84.03 30.9289 84.03 32.1437V41.7195C81.2094 41.0425 78.5837 41.1447 76.2645 41.9387L70.656 32.0326C70.1249 31.0963 68.9943 30.8756 68.1315 31.5407L65.0059 33.9495C64.1431 34.6147 63.8723 35.9139 64.4034 36.8501L70.0119 46.7563C68.4736 48.934 67.3624 51.7116 66.7896 55.0033L59.7575 51.5027C58.5138 50.8835 57.5052 51.6375 57.5052 53.1841V58.7913C57.5052 60.3393 58.5138 62.0977 59.7575 62.7174L66.7896 66.2187C67.3639 70.082 68.4751 73.9664 70.0119 77.6743L65.9327 80.8167C64.5581 81.8759 64.1431 83.9728 65.0059 85.4966L68.1315 91.0183C68.9943 92.542 70.8108 92.9192 72.1853 91.86L76.2645 88.7175C78.5837 91.8224 81.2094 94.5396 84.03 96.6713V106.247C84.03 107.462 85.0208 108.942 86.2407 109.549L90.662 111.75C91.8819 112.358 92.8721 111.864 92.8721 110.65V101.074C95.6925 101.751 98.3186 101.649 100.638 100.854L106.247 110.76C106.777 111.696 107.908 111.917 108.77 111.252L111.896 108.843C112.759 108.179 113.029 106.879 112.499 105.943L106.891 96.0364C108.428 93.8591 109.539 91.0814 110.112 87.7892L117.145 91.2905C118.388 91.9096 119.397 91.1557 119.397 89.6082V84.0007C119.397 82.4532 118.388 80.6943 117.145 80.0754L110.112 76.5739C109.539 72.7107 108.428 68.8263 106.891 65.1185L110.969 61.9763C112.343 60.9171 112.759 58.8194 111.896 57.2965L108.77 51.7738C107.908 50.2509 106.091 49.8732 104.717 50.9324L100.503 53.8952C98.1833 50.7902 95.6925 48.2525 92.8721 46.1208ZM88.4513 54.5737C81.1306 50.9294 75.1889 55.5085 75.1889 64.7929C75.1889 74.0776 81.1306 84.5746 88.4513 88.2191C95.7709 91.8637 101.714 87.2847 101.714 77.9998C101.714 68.7151 95.7709 58.2179 88.4513 54.5737Z" fill="#36464A"/>
<path fill-rule="evenodd" clip-rule="evenodd" d="M58.8827 50.6849C58.2847 50.6997 57.7119 51.0049 57.3638 51.5101C57.3192 51.5753 57.1675 51.8553 57.1526 51.8878C57.0157 52.1945 57.0514 52.1071 56.9875 52.3871C56.9309 52.6345 56.9056 52.8893 56.9027 53.1441V58.8327C56.9071 59.2519 56.9384 59.5275 57.0693 60.0148C57.2418 60.6652 57.5305 61.2814 57.9158 61.8325C58.0095 61.9673 58.8143 62.9094 59.4852 63.2528L66.2407 66.6166C66.2526 66.6967 66.266 66.777 66.2794 66.8572C66.8476 70.3834 67.8652 73.8577 69.0627 76.9318C69.1505 77.1555 69.2799 77.4787 69.2799 77.4787C68.0348 78.4381 66.7851 79.3903 65.5444 80.3569C65.5266 80.3716 65.5073 80.3866 65.4894 80.4014C64.9672 80.8326 64.8214 81.0544 64.5804 81.4553C64.5522 81.5024 64.5239 81.5499 64.4986 81.5981C64.3588 81.8527 64.213 82.2349 64.213 82.2349C64.0806 82.6168 63.9899 83.1672 63.9884 83.1857C63.9051 83.8233 63.9631 84.4884 64.1698 85.0892L64.3261 85.4906C64.3975 85.636 64.3618 85.5807 64.4823 85.794C65.5281 87.6418 66.5531 89.5017 67.6212 91.3376C67.8563 91.7405 68.1642 92.1072 68.5361 92.3925C68.5361 92.3925 68.9809 92.7346 69.5076 92.906C70.5266 93.2381 71.7004 92.9943 72.5543 92.3344L76.1499 89.5642C78.2356 92.2824 80.6516 94.8226 83.3978 96.9444L83.4275 96.9674V106.252C83.429 106.357 83.4305 106.391 83.4305 106.391C83.435 106.451 83.4394 106.51 83.4454 106.569C83.4855 106.957 83.5064 106.95 83.5287 107.038C83.6507 107.523 83.7146 107.647 83.9214 108.035C83.9214 108.035 84.3543 108.781 84.8334 109.256C85.1591 109.579 85.5296 109.857 85.9372 110.069C87.4308 110.819 88.9229 111.571 90.4254 112.304C91.2764 112.714 92.4567 112.802 93.1077 111.898C93.5003 111.353 93.4683 111.061 93.475 110.655V101.819C93.5213 101.828 93.5678 101.837 93.6141 101.846C95.8398 102.255 98.1846 102.224 100.355 101.575L105.724 111.058C106.385 112.193 108 112.578 109.114 111.746C110.169 110.943 111.215 110.127 112.266 109.318C112.605 109.054 112.882 108.712 113.067 108.328C113.067 108.328 113.25 107.933 113.316 107.588L113.355 107.339C113.377 107.107 113.364 106.777 113.364 106.777C113.342 106.541 113.328 106.348 113.179 105.972C113.135 105.861 113.083 105.754 113.025 105.65L107.6 96.0671C107.638 96.0102 107.676 95.9528 107.714 95.8954C107.908 95.595 108.165 95.1638 108.165 95.1638C108.605 94.4085 108.99 93.6213 109.318 92.8144C109.318 92.8144 109.651 91.9964 109.909 91.1801C109.909 91.1801 110.217 90.1892 110.409 89.3569C110.409 89.3569 110.49 89.0051 110.557 88.6816L116.877 91.8285C117.707 92.2332 118.767 92.1938 119.405 91.4557C119.621 91.2056 119.8 90.7832 119.817 90.7358C119.867 90.6007 119.914 90.4098 119.914 90.4098C119.988 90.0661 119.997 89.8581 120 89.6483V83.9605C119.998 83.8309 119.987 83.6626 119.987 83.6626C119.959 83.3478 119.866 82.9057 119.866 82.9057C119.839 82.7936 119.808 82.6822 119.774 82.5719C119.681 82.2697 119.564 81.9755 119.422 81.6947C119.422 81.6947 119.137 81.1747 118.962 80.9255C118.55 80.3547 118.038 79.853 117.415 79.5391L110.662 76.1764C110.486 75.0522 110.266 73.9309 110.008 72.817C109.421 70.2862 108.614 67.7672 107.628 65.3292L107.622 65.3141C108.867 64.3548 110.102 63.3825 111.357 62.4362C112.254 61.7111 112.821 60.6267 112.93 59.4652L112.948 59.1408C112.952 58.8638 112.91 58.4653 112.91 58.4653C112.869 58.1749 112.808 57.9512 112.808 57.9512C112.779 57.8535 112.751 57.7542 112.718 57.6579C112.577 57.2491 112.445 57.0431 112.445 57.0431C111.376 55.1914 110.322 53.3307 109.285 51.4597C109.244 51.3901 109.202 51.3219 109.157 51.2538C108.162 49.7516 105.939 49.2583 104.387 50.4287L104.358 50.4494L100.633 53.0685C100.585 53.0063 100.537 52.9441 100.489 52.8819C100.122 52.4108 99.7463 51.9426 99.3601 51.4849C99.3601 51.4849 98.9961 51.0553 98.7264 50.7486C97.1416 48.9532 95.3853 47.3029 93.5042 45.8466L93.475 45.8244V36.5405C93.4653 35.9568 93.3003 35.3805 93.0327 34.8576C93.0327 34.8576 92.8674 34.5435 92.7056 34.3035C92.7056 34.3035 92.3012 33.7391 91.9012 33.3776C91.6186 33.1214 91.3046 32.9006 90.9655 32.7243C89.4823 31.9792 87.9946 31.2444 86.5085 30.5052C85.7974 30.1571 84.9509 30.0267 84.268 30.4519C84.268 30.4519 83.7146 30.8889 83.5525 31.3614C83.5525 31.3614 83.4736 31.6518 83.4677 31.6844C83.4394 31.834 83.429 31.9866 83.4275 32.1377V40.9728C83.3814 40.9639 83.3338 40.955 83.2877 40.9462C81.0443 40.5343 78.7369 40.5684 76.5471 41.2172C74.753 38.0485 72.9485 34.8872 71.1663 31.7125C71.0309 31.4844 70.775 31.2044 70.775 31.2044C69.997 30.4593 68.7414 30.3674 67.8414 31.0074L67.7908 31.0444C66.7346 31.8488 65.6873 32.6651 64.637 33.4754C64.3142 33.7243 64.0479 34.0472 63.8634 34.4087C63.8634 34.4087 63.6388 34.8916 63.5688 35.2961L63.5287 35.7346C63.5287 35.9568 63.5793 36.3242 63.5926 36.3923C63.6566 36.6886 63.8455 37.0856 63.8455 37.0856C63.856 37.1049 63.8664 37.1241 63.8768 37.1434L69.3023 46.7251C68.4632 47.9814 67.8072 49.3205 67.2999 50.7131C67.2999 50.7131 67.102 51.2568 66.9488 51.7545C66.9265 51.8256 66.925 51.8256 66.9042 51.8982C66.7733 52.3323 66.6527 52.7708 66.5456 53.2107C66.4742 53.51 66.4073 53.8107 66.3448 54.1114L60.0267 50.9649C59.6697 50.7886 59.2785 50.6805 58.8827 50.6849ZM85.2722 31.3822C85.5073 31.3896 85.7364 31.4666 85.9476 31.5674C87.4412 32.2992 88.9289 33.0458 90.415 33.7924C91.4623 34.3376 92.252 35.4975 92.2694 36.5508V46.1207C92.3146 46.4125 92.5467 46.6259 92.8955 46.897C95.6023 49.0035 97.9903 51.5323 100.019 54.2522L100.19 54.4077C100.263 54.4344 100.332 54.4759 100.408 54.4877C100.618 54.5203 100.668 54.467 100.851 54.3855L105.075 51.4153C105.096 51.399 105.117 51.3827 105.139 51.3679C105.873 50.8242 106.966 50.8064 107.685 51.3945C107.906 51.5753 108.09 51.8034 108.236 52.0537C109.265 53.907 110.325 55.7425 111.37 57.5883C111.523 57.8579 111.624 58.1542 111.688 58.4594C111.742 58.7231 111.736 59.4919 111.633 59.8963C111.633 59.8963 111.571 60.1052 111.565 60.123C111.49 60.3378 111.471 60.3704 111.423 60.4696C111.389 60.5393 111.353 60.6089 111.313 60.677C111.132 60.9881 110.893 61.2651 110.613 61.4903L106.522 64.6437L106.355 64.842L106.288 65.0916L106.333 65.3461C107.052 67.0938 107.681 68.8631 108.207 70.6841C108.754 72.5818 109.195 74.5361 109.489 76.4835L109.516 76.6601L109.573 76.8432C109.686 76.998 109.687 76.9992 109.843 77.1109C112.195 78.2819 114.552 79.4417 116.899 80.6242C117.799 81.0902 118.37 82.0696 118.642 82.9904L118.734 83.3769C118.774 83.6017 118.791 83.7344 118.794 83.9682V89.6405C118.788 90.1363 118.705 90.7715 118.13 90.892C117.884 90.9434 117.631 90.8592 117.412 90.7526L110.382 87.2522C109.991 87.1415 109.598 87.2562 109.492 87.8367C109.492 87.8367 109.346 88.6288 109.183 89.2999C109.166 89.3706 109.167 89.3707 109.149 89.4412C108.868 90.5646 108.507 91.6725 108.047 92.7289C108.047 92.7289 107.899 93.0698 107.747 93.3827C107.747 93.3827 107.454 93.9865 107.155 94.5063C107.049 94.6893 107.043 94.6979 106.997 94.7728C106.808 95.0863 106.606 95.3924 106.396 95.6932L106.304 95.8968C106.294 96.1184 106.294 96.1211 106.365 96.3311C108.237 99.6376 110.136 102.929 111.981 106.251C112.217 106.693 112.215 107.084 112.098 107.503C112.007 107.828 111.82 108.13 111.556 108.346L111.542 108.357C110.493 109.171 109.443 109.985 108.386 110.789C108.314 110.843 108.299 110.85 108.256 110.875C107.764 111.167 107.085 111.002 106.77 110.462L101.164 100.559C100.936 100.283 100.657 100.222 100.13 100.388C97.8401 101.092 95.3709 101.052 93.0125 100.49L92.7963 100.478C92.5198 100.565 92.3283 100.752 92.2694 101.074V110.645C92.2652 110.89 92.2255 111.156 92.0254 111.303C91.7063 111.539 91.2675 111.376 90.955 111.225C89.46 110.495 87.9738 109.747 86.4876 109.001C85.6114 108.544 84.936 107.685 84.7054 106.77C84.7054 106.77 84.6355 106.42 84.6325 106.242V96.6713C84.5537 96.1582 83.8604 95.7908 83.3011 95.3295C81.0934 93.5046 79.1044 91.3863 77.343 89.1399C77.1407 88.8816 76.9428 88.6201 76.7465 88.3579L76.5694 88.2001L76.3448 88.1226L76.1083 88.1377L75.8941 88.2428C74.5269 89.2967 73.1791 90.3773 71.7911 91.4043C70.961 92.03 69.6876 92.0124 68.9214 91.105C68.8232 90.9895 68.7399 90.8646 68.6626 90.7345C67.5974 88.9014 66.5739 87.0443 65.5296 85.1991C65.3823 84.9379 65.4522 85.0969 65.3228 84.7391C65.235 84.4996 65.1026 83.554 65.2588 82.9312C65.421 82.2917 65.7795 81.7004 66.2898 81.3013L70.3808 78.1491L70.5474 77.9498L70.6144 77.6992L70.5683 77.4439C70.5445 77.3873 70.5221 77.3307 70.4983 77.274C69.5462 74.9295 68.7459 72.5043 68.1538 70.0613C67.8459 68.7959 67.5944 67.5121 67.3996 66.2202C67.3996 66.2202 67.526 66.0165 67.0589 65.6818L60.0297 62.1821C59.1654 61.7392 58.5926 60.84 58.2892 59.8978C58.2892 59.8978 58.1121 59.1764 58.1077 58.8238V53.1515C58.1136 52.7634 58.1761 52.3485 58.4528 52.076C58.7265 51.8064 59.1862 51.8893 59.4882 52.0389L66.5203 55.541C66.9771 55.6699 67.3118 55.461 67.4665 54.6566C67.6182 53.8655 67.8087 53.0833 68.0377 52.31C68.0377 52.31 68.2371 51.6627 68.4082 51.1886C68.5465 50.8094 68.6953 50.4346 68.856 50.0642C68.9497 49.8435 69.0508 49.6257 69.155 49.4094C69.5239 48.6421 69.9553 47.9014 70.4358 47.1992L70.5043 47.1029L70.598 46.8984C70.6084 46.6762 70.6084 46.6733 70.537 46.4614C68.6641 43.1535 66.7643 39.8603 64.9182 36.5375C64.8616 36.4353 64.8185 36.3256 64.7887 36.2116C64.7486 36.0575 64.7352 35.8294 64.7352 35.8294C64.7322 35.6975 64.756 35.5109 64.756 35.5109C64.8259 35.099 65.0208 34.7094 65.36 34.4354C66.4103 33.6236 67.4576 32.8103 68.5138 32.0059C69.03 31.6296 69.8155 31.7674 70.1294 32.3258L75.7379 42.2335C76.0012 42.552 76.3671 42.515 77.0336 42.3268C79.2517 41.6972 81.6349 41.7639 83.8887 42.3031L84.1059 42.315C84.3826 42.2276 84.5745 42.0409 84.6325 41.7195V32.1481C84.634 32.0755 84.637 32.0044 84.6474 31.9333C84.692 31.6311 84.933 31.3792 85.2722 31.3822ZM83.548 52.7204C81.4861 52.7396 79.4481 53.5589 77.9783 54.9914C77.9783 54.9914 77.41 55.5543 76.9666 56.1661C75.8583 57.692 75.1978 59.5926 74.8914 61.2874C74.8914 61.2874 74.814 61.7214 74.7709 62.0296C74.7411 62.2325 74.7173 62.4364 74.695 62.64C74.6682 62.895 74.6667 62.9269 74.6563 63.0583C74.6355 63.3061 74.6206 63.5539 74.6072 63.8018C74.5909 64.162 74.5953 64.1215 74.5909 64.2943C74.5894 64.3927 74.5879 64.4047 74.5864 64.6275C74.5805 65.888 74.6757 67.154 74.8616 68.4036C74.8705 68.4615 74.8705 68.4615 74.8795 68.5193C75.8435 74.668 78.7548 80.4036 82.6301 84.5053C85.8197 87.8819 90.1249 90.7412 94.7316 89.9513C97.4628 89.4829 99.7908 87.4674 101.006 84.7749L101.247 84.2088C101.457 83.6729 101.448 83.6679 101.494 83.5291L101.508 83.4872C101.665 83.0094 101.798 82.5241 101.904 82.033C101.904 82.033 102.073 81.2236 102.152 80.6101C102.26 79.7817 102.309 78.9498 102.316 78.1135C102.316 78.1135 102.314 77.2208 102.27 76.5386C102.249 76.2182 102.223 75.8982 102.19 75.5788C102.124 74.9326 102.035 74.2937 101.92 73.6509C101.91 73.5946 101.899 73.5385 101.889 73.4822C101.875 73.4065 101.861 73.3311 101.846 73.2555C101.755 72.7798 101.649 72.3092 101.536 71.8418C101.474 71.5872 101.467 71.5666 101.435 71.4455C100.18 66.6249 97.7725 62.0384 94.3484 58.369C92.0939 55.9528 89.4124 53.9011 86.1336 53.0552C85.2901 52.8359 84.4168 52.7159 83.548 52.7204ZM83.6269 53.9203C85.6531 53.9277 87.6153 54.707 89.3261 55.7439C89.5314 55.8699 89.5715 55.8965 89.6876 55.9721C95.4582 59.6963 98.7974 66.4444 100.136 71.2602C100.212 71.5306 100.283 71.8017 100.352 72.0734C100.411 72.3114 100.415 72.3344 100.442 72.451C100.811 74.0244 101.049 75.6293 101.1 77.3084C101.144 78.7632 101.053 80.2316 100.746 81.6886C100.562 82.5594 100.297 83.3978 99.9393 84.2095C99.8356 84.445 99.8259 84.4569 99.7759 84.5581C98.6742 86.7809 96.5699 88.6945 93.7249 88.8592C90.0238 89.0734 86.6349 86.756 84.2383 84.4252C83.185 83.4009 82.2225 82.2554 81.3939 81.1205C81.3627 81.0775 81.3627 81.0776 81.3314 81.0344C78.911 77.6504 77.1719 73.8068 76.3165 69.6913C76.2258 69.259 76.1469 68.8251 76.0785 68.3892C76.0711 68.3362 76.0711 68.3363 76.0622 68.2832C75.9402 67.4626 75.8539 66.6348 75.8152 65.8028C75.7959 65.4027 75.8003 65.4171 75.7974 65.2707C75.7572 63.4117 75.9461 61.5718 76.4742 59.883C77.2448 57.4194 78.8232 55.1099 81.4266 54.2596C82.1333 54.027 82.883 53.9203 83.6269 53.9203Z" fill="#36464A"/>
<path fill-rule="evenodd" clip-rule="evenodd" d="M104.444 98.0862C104.264 98.0542 104.076 97.9911 103.882 97.8945L96.8499 94.3932C96.2764 97.6853 95.1652 100.463 93.628 102.64L99.2364 112.547C99.7665 113.483 99.4965 114.783 98.6338 115.447L95.6613 117.738L105.147 113.015C105.425 112.968 105.703 112.849 105.957 112.654L109.083 110.245C109.945 109.58 110.215 108.28 109.685 107.344L104.444 98.0862Z" fill="#7DE2FF"/>
<path fill-rule="evenodd" clip-rule="evenodd" d="M96.7565 93.7998C96.3191 93.8961 96.3011 94.0396 96.2156 94.5165C95.7059 97.2888 94.7495 99.985 93.1333 102.297C93.1333 102.297 92.9859 102.574 93.0461 102.797C93.0637 102.861 93.074 102.875 93.103 102.935C94.9749 106.241 96.8995 109.519 98.7186 112.854C99.0924 113.543 98.8856 114.47 98.2782 114.962L95.2924 117.263C95.2924 117.263 95.0081 117.539 95.0695 117.852C95.14 118.212 95.5707 118.427 95.9307 118.274L105.342 113.588C105.477 113.56 105.476 113.557 105.529 113.541C105.811 113.456 106.078 113.318 106.311 113.139C107.365 112.339 108.406 111.525 109.454 110.717C110.515 109.882 110.908 108.296 110.211 107.05L104.969 97.791C104.731 97.4201 104.548 97.552 104.15 97.3565L97.1196 93.8558C97.0094 93.8093 96.988 93.778 96.7565 93.7998ZM103.614 98.4317C103.782 98.5147 104.046 98.6058 104.046 98.6058C105.754 101.622 107.476 104.63 109.169 107.655C109.177 107.67 109.186 107.686 109.193 107.701C109.233 107.781 109.265 107.864 109.29 107.95C109.309 108.012 109.323 108.076 109.333 108.141C109.425 108.739 109.199 109.382 108.727 109.759C107.69 110.576 106.635 111.371 105.589 112.177C105.325 112.381 104.974 112.439 104.974 112.439C104.903 112.465 104.877 112.478 104.877 112.478L99.7547 115.028C100.208 114.192 100.246 113.139 99.7639 112.256L94.3376 102.671C94.3637 102.632 94.3895 102.593 94.4154 102.554C95.8401 100.374 96.7434 97.8968 97.2807 95.3511L97.2941 95.285C99.4006 96.3339 101.507 97.3827 103.614 98.4317Z" fill="#36464A"/>
<path fill-rule="evenodd" clip-rule="evenodd" d="M58.8679 98.5056L63.6239 96.137L63.0288 95.3304L58.8679 98.5056Z" fill="#7DE2FF"/>
<path fill-rule="evenodd" clip-rule="evenodd" d="M62.9991 94.731C62.8161 94.745 62.773 94.7745 62.6629 94.8539L58.5004 98.029C58.252 98.2296 58.2788 98.3201 58.2669 98.4565C58.2341 98.8593 58.6953 99.2334 59.1074 99.0565C59.1163 99.0521 59.1267 99.0472 59.1371 99.0424L63.8947 96.6738C63.9914 96.6221 64.0137 96.5993 64.0568 96.5549C64.2562 96.3503 64.3008 96.0549 64.1104 95.7813L63.5153 94.9748C63.3918 94.8169 63.2029 94.7262 62.9991 94.731Z" fill="#36464A"/>
<path fill-rule="evenodd" clip-rule="evenodd" d="M105.784 97.539L105.957 97.6248C109.1 95.9037 113.028 94.3766 115.528 92.9669C116.162 92.6097 116.583 91.9012 116.583 90.9014V85.4018C116.583 83.8543 115.574 82.0954 114.331 81.4765L107.299 77.9752C106.725 74.1118 105.614 70.2276 104.077 66.5196L108.155 63.3773C109.529 62.3181 109.945 60.221 109.083 58.6981L105.957 53.1754C105.094 51.6525 103.004 51.5695 101.629 52.3162L97.2092 54.6701C95.0442 51.9014 92.6321 49.4674 90.058 47.5223V37.9465C90.058 36.7318 89.0673 35.2518 87.8474 34.6445L83.4276 32.4431C82.7775 32.1201 82.1928 32.1083 81.7882 32.3527L81.7867 32.3483L71.3612 37.5406V37.5421C71.7644 37.3125 72.3401 37.3288 72.9783 37.6458L77.3996 39.8472C78.6195 40.4545 79.6088 41.9345 79.6088 43.1492V52.7251C82.4294 54.8568 85.0565 57.5737 87.3758 60.6787L91.4535 57.5367C92.8286 56.4775 94.6451 56.8537 95.5078 58.3781L98.6338 63.8998C99.4965 65.4235 99.0808 67.5205 97.7061 68.5797L93.628 71.722C95.1651 75.43 96.2764 79.3144 96.8499 83.1776L103.882 86.6791C105.125 87.298 106.135 89.0569 106.135 90.6044V96.2119C106.135 96.7641 106.006 97.2153 105.784 97.539Z" fill="#7DE2FF"/>
<path fill-rule="evenodd" clip-rule="evenodd" d="M82.4026 31.5841C82.0991 31.5915 81.8031 31.6611 81.5338 31.8048L81.5175 31.8122L71.092 37.0031L70.9239 37.126L70.8093 37.2994C70.7602 37.4994 70.7602 37.5008 70.7811 37.7053C70.7811 37.7053 71.034 38.2815 71.632 38.0742C71.632 38.0742 72.233 37.9556 72.6838 38.1704C74.1759 38.9082 75.6695 39.6415 77.1527 40.3955C77.6749 40.6636 78.0616 41.0207 78.444 41.5806C78.6493 41.8799 78.8174 42.2102 78.9141 42.5524L79.0033 43.0443C79.0048 43.0828 79.0063 43.1258 79.0063 43.1258V52.7253L79.0346 52.906C79.1447 53.1282 79.3738 53.3001 79.5686 53.4512C82.3178 55.5829 84.71 58.1413 86.7852 60.8938L86.8909 61.036L87.0679 61.196L87.294 61.273L87.5306 61.2597L87.7448 61.1545C89.1045 60.1057 90.4642 59.0583 91.8224 58.0109C92.6844 57.3473 93.9978 57.3636 94.7878 58.3783C94.8565 58.4657 94.9171 58.5605 94.9737 58.6568C96.0084 60.5219 97.0956 62.3571 98.125 64.2244C98.2055 64.3706 98.29 64.5826 98.3033 64.6196C98.5051 65.1844 98.4749 65.3632 98.48 65.5826C98.4925 66.1163 98.3727 66.66 98.1314 67.1321C97.8583 67.6665 97.6877 67.8319 97.3358 68.1063L93.2592 71.2476L93.093 71.446L93.0259 71.6954C93.1292 72.2865 93.4333 72.8366 93.6536 73.42C94.8562 76.6045 95.7484 79.9174 96.2539 83.267L96.312 83.4489C96.4242 83.6026 96.4254 83.6037 96.5804 83.7147C98.9318 84.8855 101.289 86.0451 103.634 87.2271C104.463 87.6632 105.005 88.5374 105.296 89.3375C105.296 89.3375 105.413 89.6744 105.471 89.9809L105.51 90.233C105.526 90.3895 105.532 90.6084 105.532 90.6084V96.2325C105.528 96.4227 105.641 96.679 105.285 97.2026L105.19 97.438L105.201 97.6913L105.316 97.9176C105.621 98.161 105.868 98.3479 106.687 97.9143C109.691 96.3249 112.916 95.1235 115.824 93.4902C116.211 93.2735 116.538 92.9421 116.766 92.5633L116.878 92.3555C116.93 92.2441 116.991 92.0856 116.991 92.0856C117.142 91.6331 117.179 91.2931 117.185 90.9835L117.186 85.3619C117.186 85.3619 117.108 84.4265 116.936 83.8929C116.536 82.6551 115.705 81.5055 114.604 80.9414L107.848 77.5775C107.835 77.4972 107.823 77.4171 107.81 77.3368C107.561 75.7936 107.236 74.2795 106.829 72.7552C106.29 70.733 105.617 68.7411 104.815 66.732L104.808 66.7154C106.053 65.7562 107.301 64.8013 108.543 63.8376C108.568 63.8182 108.592 63.7984 108.617 63.7782C108.966 63.4954 109.255 63.1489 109.494 62.762C109.511 62.7349 109.527 62.7073 109.543 62.6798C109.943 61.9915 110.141 61.1871 110.135 60.399C110.13 59.7146 109.953 59.0257 109.618 58.4198C108.549 56.5769 107.539 54.6985 106.467 52.8556C106.313 52.5934 106.281 52.5712 106.281 52.5712C105.209 51.1298 102.897 50.9461 101.343 51.7875L97.3703 53.9045C95.3989 51.4409 93.1653 49.1551 90.6665 47.2307L90.6606 37.9423C90.6591 37.8149 90.6665 37.8964 90.6502 37.6964L90.6293 37.5142C90.5832 37.2194 90.6174 37.3868 90.5594 37.1557C90.3988 36.5172 90.3184 36.4446 90.1667 36.1587C89.7115 35.3054 89.0078 34.5706 88.1524 34.1247C86.6692 33.381 85.1815 32.6463 83.6954 31.907C83.316 31.7189 82.901 31.593 82.4725 31.5841C82.4383 31.5841 82.4383 31.5841 82.4026 31.5841ZM93.1044 56.3355C92.3736 56.3503 91.6618 56.6184 91.0861 57.0614L87.4889 59.8316C85.3824 57.0851 83.0007 54.583 80.2425 52.4527L80.2128 52.429V43.1154L80.1949 42.8221C80.1518 42.4962 80.0179 42.0443 80.0179 42.0443C79.8572 41.5821 79.6237 41.1451 79.3321 40.751C79.3321 40.751 78.9513 40.2548 78.5823 39.9318C78.3056 39.6889 78.0006 39.48 77.6704 39.3111L73.4112 37.1912L82.053 32.8848C82.053 32.8848 82.6228 32.7277 83.133 32.9692C84.6237 33.7084 86.1143 34.4477 87.6005 35.1928C88.4678 35.6446 89.1462 36.4876 89.3827 37.4238C89.3827 37.4238 89.4526 37.7719 89.4556 37.9512V47.5226C89.5344 48.0262 90.2262 48.4025 90.7498 48.8336C92.9438 50.6439 94.9263 52.7386 96.6835 54.9755C96.6835 54.9755 96.9777 55.3103 97.2943 55.2659C97.3635 55.2555 97.4272 55.2214 97.4937 55.2007C98.9773 54.4096 100.467 53.6289 101.945 52.829C103.025 52.269 104.472 52.269 105.244 53.1978C105.318 53.2867 105.376 53.3756 105.425 53.4601C106.496 55.3014 107.543 57.1576 108.574 59.0227C109.116 60.0079 109.023 61.2952 108.391 62.2537C108.229 62.4977 108.029 62.7128 107.8 62.8923L103.708 66.0451L103.541 66.2443L103.474 66.4948L103.52 66.7502C103.544 66.8067 103.567 66.8634 103.59 66.92C104.429 68.988 105.145 71.0753 105.711 73.2407C106.122 74.8151 106.459 76.4444 106.703 78.0645L106.761 78.2464C106.873 78.4002 106.874 78.4013 107.029 78.5123L114.059 82.0121C115.264 82.6294 115.931 84.063 115.979 85.3123L115.98 85.3696C115.98 87.2329 116.018 89.0964 115.98 90.9592C115.967 91.5879 115.701 92.185 115.058 92.5415C112.37 94.0207 109.482 95.1355 106.738 96.533C106.738 96.533 106.735 96.385 106.738 96.2434V90.6006C106.735 90.389 106.708 90.0968 106.708 90.0968C106.691 89.9679 106.664 89.8011 106.664 89.8011C106.61 89.5155 106.597 89.4752 106.56 89.3407C106.53 89.2312 106.496 89.123 106.46 89.0153C106.341 88.6614 106.185 88.3198 105.998 87.9964C105.998 87.9964 105.543 87.2323 105.013 86.7452C104.755 86.5079 104.467 86.3014 104.153 86.1429L97.3989 82.7801C97.17 81.3128 96.8702 79.8625 96.4998 78.4142C95.9289 76.1837 95.2119 74.0241 94.3653 71.9331L94.3592 71.9181C95.6102 70.9542 96.8689 69.9998 98.1119 69.0258C98.1378 69.0054 98.1634 68.9848 98.1887 68.9636C98.5802 68.6357 98.9083 68.2369 99.1515 67.7799C99.1515 67.7799 99.5026 67.0872 99.6174 66.4388L99.6752 65.9745C99.6982 65.5781 99.6819 65.1765 99.5988 64.7875L99.494 64.3789C99.3349 63.8769 99.2631 63.7939 99.172 63.6286C98.1404 61.7633 97.0562 59.9279 96.0219 58.0643C95.8866 57.8332 95.8229 57.7487 95.7426 57.645C95.1293 56.8495 94.1502 56.3355 93.1478 56.3355C93.1334 56.3355 93.1188 56.3355 93.1044 56.3355Z" fill="#36464A"/>
<path fill-rule="evenodd" clip-rule="evenodd" d="M90.0537 112.188L87.3759 107.458C85.0567 108.253 82.4295 108.355 79.6089 107.678V117.254C79.6089 117.522 79.5613 117.756 79.472 117.949C79.3575 118.208 79.1224 118.4 78.8234 118.556L88.9588 113.51C89.3917 113.209 89.7279 113.135 89.9109 112.77C89.9897 112.604 90.0403 112.41 90.0537 112.188Z" fill="#7DE2FF"/>
<path fill-rule="evenodd" clip-rule="evenodd" d="M87.3251 106.859C87.2299 106.871 87.2091 106.881 87.1808 106.89C84.7902 107.704 82.1674 107.668 79.7485 107.093C79.7485 107.093 79.5328 107.047 79.3453 107.138C79.143 107.236 79.0166 107.452 79.0062 107.677V117.272C78.9987 117.581 78.8336 117.871 78.5405 118.026C78.5405 118.026 78.0898 118.406 78.2772 118.808C78.4126 119.101 78.7265 119.257 79.0924 119.093L89.2278 114.047C89.7024 113.789 90.5533 113.291 90.6485 112.307C90.6619 112.165 90.6455 112.023 90.5786 111.893L87.9008 107.163C87.7788 106.967 87.5691 106.849 87.3251 106.859ZM89.4316 112.311C89.4242 112.348 89.4138 112.384 89.4019 112.42C89.3111 112.7 88.9392 112.795 88.6357 113.001L80.2126 117.193V108.423C80.2588 108.432 80.3049 108.441 80.351 108.45C82.5914 108.863 84.9255 108.825 87.0916 108.179C87.8711 109.556 88.6521 110.933 89.4316 112.311Z" fill="#36464A"/>
<path fill-rule="evenodd" clip-rule="evenodd" d="M56.3819 52.7118C56.0695 52.6555 55.7824 52.6955 55.5384 52.817L45.0892 58.0197C45.4745 57.8271 45.9639 57.8419 46.495 58.1056L53.5271 61.6077C54.0999 58.3145 55.2112 55.5369 56.7494 53.3607L56.3819 52.7118Z" fill="#7DE2FF"/>
<path fill-rule="evenodd" clip-rule="evenodd" d="M56.092 52.0868C55.8078 52.0913 55.5237 52.1535 55.2693 52.2794L44.82 57.4821C44.82 57.4821 44.5002 57.7162 44.4868 58.0199C44.4868 58.0199 44.6133 58.5976 45.0595 58.6199C45.2143 58.6273 45.3571 58.5369 45.5044 58.5058C45.7513 58.4525 46.0072 58.5369 46.2274 58.6436L53.258 62.1441C53.4008 62.2078 53.4306 62.2049 53.5035 62.2078C53.8501 62.2212 54.0822 61.916 54.161 61.4849C54.6564 58.7724 55.5906 56.1029 57.1393 53.8542C57.3624 53.5283 57.294 53.626 57.3148 53.5668C57.3743 53.4038 57.3535 53.2216 57.2747 53.0661L56.9072 52.4172C56.8284 52.2913 56.8031 52.2765 56.7495 52.235C56.574 52.1017 56.3642 52.0868 56.092 52.0868ZM56.0399 53.3298C56.0131 53.3683 55.9879 53.4068 55.9626 53.4453C54.527 55.6348 53.6121 58.1428 53.0825 60.7146L47.053 57.7132C49.9777 56.257 52.8623 54.7193 55.8257 53.346C55.9179 53.3046 56.0042 53.2661 56.0399 53.3298Z" fill="#36464A"/>
<path fill-rule="evenodd" clip-rule="evenodd" d="M70.772 38.6101L67.8413 33.4341C67.3742 32.6089 66.4429 32.3393 65.6381 32.7408L55.287 37.8946V37.8976C56.0695 37.5657 56.9442 37.8457 57.392 38.6353L63.0005 48.543C65.3212 47.7475 67.9469 47.6452 70.7675 48.3222V38.7464C70.7675 38.7005 70.769 38.6546 70.772 38.6101Z" fill="#7DE2FF"/>
<path fill-rule="evenodd" clip-rule="evenodd" d="M66.3628 31.9586C66.0176 31.966 65.6799 32.0504 65.3705 32.203L55.0164 37.3583C54.7546 37.505 54.6281 37.8176 54.7233 38.1079C54.7233 38.1079 54.8037 38.2946 54.945 38.3909C55.3035 38.6397 55.7826 38.259 56.2482 38.4072C56.5115 38.4886 56.7302 38.6886 56.8671 38.9301L62.4755 48.8377C62.7611 49.2866 63.4127 49.0229 63.984 48.8718C66.1411 48.3015 68.4395 48.3874 70.6279 48.9059C70.6279 48.9059 70.8956 48.9533 71.092 48.8289C71.2616 48.7207 71.3598 48.5267 71.3702 48.3222C71.3702 45.1239 71.2973 41.924 71.3702 38.7257C71.3747 38.5538 71.4624 38.6442 71.2973 38.3153C70.3155 36.5821 69.3306 34.8503 68.3532 33.1156C68.0349 32.5763 67.8266 32.4608 67.596 32.3112C67.2271 32.0727 66.8492 31.9527 66.3628 31.9586ZM66.4059 33.1585C66.7838 33.1644 67.1304 33.397 67.3163 33.7274L70.1652 38.7597V47.5771C67.8668 47.1238 65.5103 47.1534 63.2848 47.8215C61.4922 44.6528 59.6981 41.4855 57.904 38.3183C57.715 37.9983 57.5023 37.7716 57.2524 37.5865C60.1414 36.148 63.02 34.6918 65.9179 33.2726C66.0712 33.2 66.2378 33.157 66.4059 33.1585Z" fill="#36464A"/>
<path fill-rule="evenodd" clip-rule="evenodd" d="M79.6087 52.7249V43.1491C79.6087 41.9343 78.6195 40.4544 77.3996 39.847L72.9783 37.6457C71.7584 37.0383 70.7676 37.5316 70.7676 38.7464V48.3222C67.947 47.6452 65.3213 47.7474 63.0006 48.5429L57.3921 38.6352C56.8625 37.699 55.7319 37.4797 54.8691 38.1434L51.7435 40.5522C50.8807 41.2173 50.6099 42.518 51.141 43.4543L56.7495 53.3604C55.2112 55.5366 54.0999 58.3143 53.5272 61.6074L46.4951 58.1054C45.2514 57.4862 44.2427 58.2402 44.2427 59.7883V65.3956C44.2427 66.943 45.2514 68.7019 46.4951 69.3208L53.5272 72.8223C54.0999 76.6855 55.2112 80.5699 56.7495 84.2777L52.6703 87.4202C51.2957 88.4795 50.8807 90.5764 51.7435 92.1002L54.8691 97.6218C55.7319 99.1454 57.5483 99.5226 58.9229 98.4634L63.0006 95.321C65.3213 98.4259 67.947 101.143 70.7676 103.275V112.851C70.7676 114.066 71.7584 115.545 72.9783 116.153L77.3996 118.354C78.6195 118.961 79.6087 118.468 79.6087 117.253V107.677C82.4293 108.354 85.0565 108.252 87.3758 107.457L92.9844 117.364C93.5144 118.3 94.6451 118.52 95.5077 117.856L98.6337 115.447C99.4964 114.782 99.7664 113.483 99.2364 112.546L93.6279 102.64C95.1651 100.463 96.2764 97.6849 96.8499 94.3928L103.882 97.8941C105.125 98.513 106.135 97.7593 106.135 96.2118V90.6042C106.135 89.0568 105.125 87.2979 103.882 86.679L96.8499 83.1775C96.2764 79.3143 95.1651 75.4299 93.6279 71.7219L97.7061 68.5795C99.0808 67.5203 99.4964 65.4234 98.6337 63.8996L95.5077 58.378C94.6451 56.8536 92.8286 56.4773 91.4534 57.5365L87.2404 60.4979C84.9212 57.3943 82.4293 54.8567 79.6087 52.7249ZM75.1889 61.1764C67.8682 57.5321 61.9265 62.1111 61.9265 71.3964C61.9265 80.6812 67.8682 91.1781 75.1889 94.8227C82.5082 98.4673 88.4514 93.8881 88.4514 84.6033C88.4514 75.3186 82.5082 64.8217 75.1889 61.1764Z" fill="#7DE2FF"/>
<path fill-rule="evenodd" clip-rule="evenodd" d="M45.6188 57.2892C45.2275 57.2981 44.8407 57.4255 44.5313 57.6611C44.5313 57.6611 44.3617 57.7944 44.2442 57.9292C43.9749 58.2388 43.8157 58.5721 43.7161 59.0269C43.7131 59.0447 43.664 59.3469 43.661 59.3736C43.6461 59.5084 43.6417 59.6462 43.6387 59.7839V65.3995C43.6417 65.6112 43.6684 65.9035 43.6684 65.9035C43.7086 66.2159 43.7146 66.2152 43.7369 66.3247C43.7369 66.3247 43.9005 66.9833 44.0716 67.3882C44.1772 67.6344 44.3572 67.9666 44.3572 67.9666C44.811 68.7512 45.4268 69.4556 46.2242 69.8572L52.9782 73.2202C53.5688 77.0043 54.6503 80.7028 56.0115 84.067L56.0174 84.0822C54.7663 85.0461 53.5063 85.9976 52.2641 86.9744C51.1097 87.884 50.5697 89.5654 50.7155 90.8174L50.7824 91.2326C50.8672 91.6296 51.0085 92.0145 51.2049 92.3717C52.2403 94.2431 53.3233 96.0881 54.3662 97.9552C55.1263 99.2457 56.7791 99.9842 58.2489 99.4977C58.6253 99.3731 58.9794 99.1798 59.2918 98.938L62.8874 96.1679C64.9984 98.9214 67.4233 101.456 70.1353 103.548L70.165 103.571V112.884L70.1784 113.139C70.1859 113.206 70.1963 113.279 70.1963 113.279C70.229 113.511 70.3138 113.815 70.3138 113.816C70.4254 114.189 70.4611 114.237 70.5578 114.439C70.6232 114.575 70.6932 114.708 70.772 114.838C70.8851 115.028 71.068 115.281 71.068 115.281C71.2585 115.531 71.5679 115.858 71.5679 115.858C71.9249 116.21 72.273 116.467 72.6747 116.672C74.1519 117.426 75.6441 118.151 77.1287 118.891C77.8517 119.25 78.78 119.387 79.4792 118.873C79.4792 118.873 79.6845 118.695 79.7217 118.654C79.9032 118.455 80.0639 118.099 80.0639 118.099C80.1412 117.887 80.1933 117.574 80.1933 117.574C80.2097 117.416 80.2112 117.371 80.2127 117.287V108.423C80.2588 108.432 80.3049 108.441 80.351 108.449C80.3956 108.458 80.4403 108.466 80.4864 108.474C82.6792 108.862 84.9508 108.803 87.0529 108.19L87.0916 108.179L92.4609 117.662C92.617 117.93 92.9315 118.256 92.9315 118.256C93.7295 118.962 94.9824 118.996 95.8509 118.35C96.9147 117.54 97.9795 116.732 99.028 115.902C99.2583 115.72 99.5239 115.391 99.5239 115.391C99.7713 115.048 99.9544 114.661 100.041 114.252C100.041 114.252 100.116 113.895 100.11 113.539C100.11 113.539 100.089 113.051 99.949 112.663C99.9383 112.633 99.8598 112.422 99.7598 112.249L94.3375 102.671C94.376 102.614 94.4135 102.556 94.4513 102.499C94.6023 102.266 94.8012 101.94 94.8012 101.94C95.0205 101.572 95.2277 101.197 95.4197 100.814L95.6319 100.381C95.6987 100.237 95.778 100.064 95.778 100.064C95.8793 99.835 95.9922 99.5713 96.0019 99.5482C96.0472 99.4393 96.0916 99.33 96.1353 99.2205C96.2258 98.9933 96.2287 98.981 96.2644 98.886L96.4858 98.2717C96.6197 97.8729 96.7476 97.4732 96.861 97.0689C96.861 97.0689 96.9867 96.6166 97.0746 96.2601C97.0746 96.2601 97.1944 95.7684 97.2942 95.2853L103.615 98.4323C103.932 98.5871 105.279 99.014 106.112 98.0943C106.252 97.9392 106.393 97.6987 106.407 97.6723C106.573 97.3637 106.679 96.8774 106.682 96.8597C106.749 96.4881 106.736 96.3537 106.737 96.2158V90.6003C106.735 90.3888 106.708 90.0965 106.708 90.0965C106.691 89.9676 106.664 89.8008 106.664 89.8008C106.61 89.5152 106.597 89.4749 106.56 89.3404C106.53 89.2309 106.496 89.1228 106.459 89.0151C106.34 88.6612 106.185 88.3196 105.998 87.9962C105.998 87.9962 105.543 87.2321 105.013 86.745C104.755 86.5077 104.467 86.3012 104.153 86.1426L97.3988 82.7798C97.1698 81.3125 96.87 79.8622 96.4996 78.414C95.9288 76.1834 95.2118 74.0238 94.3651 71.9328L94.359 71.9179C95.61 70.9539 96.8687 69.9996 98.1118 69.0256C98.1377 69.0051 98.1633 68.9845 98.1886 68.9633C98.5801 68.6355 98.9081 68.2367 99.1514 67.7797C99.1514 67.7797 99.5025 67.087 99.6173 66.4386L99.675 65.9743C99.6981 65.5779 99.6817 65.1763 99.5987 64.7872L99.4938 64.3787C99.3348 63.8766 99.263 63.7937 99.1719 63.6283C98.1402 61.7631 97.056 59.9276 96.0218 58.064C95.8094 57.7026 95.7491 57.6463 95.6411 57.5189C94.5695 56.2463 92.5121 55.9693 91.1023 57.0478L87.3697 59.6728C87.2522 59.5203 87.1154 59.3425 87.1154 59.3425C85.1472 56.827 82.9217 54.5457 80.4418 52.6065C80.3436 52.5295 80.2127 52.4287 80.2127 52.4287V43.1151L80.1948 42.8218C80.1517 42.4959 80.0178 42.0441 80.0178 42.0441C79.8571 41.5819 79.6235 41.1449 79.332 40.7508C79.332 40.7508 79.1534 40.5123 78.9913 40.3345C78.6238 39.9286 78.1909 39.5775 77.7015 39.3272C76.2228 38.5761 74.7321 37.8487 73.2475 37.1095C72.3965 36.6873 71.2049 36.5969 70.5503 37.4724C70.3376 37.7584 70.2171 38.1065 70.1799 38.4635C70.1784 38.468 70.1665 38.5983 70.165 38.7139V47.5771C70.1174 47.5683 70.0713 47.5593 70.0252 47.5505C67.7952 47.1386 65.4834 47.1786 63.3233 47.8097L63.2846 47.8216L57.9157 38.3376C57.7937 38.1302 57.7654 38.0695 57.5557 37.8517C56.7925 37.0591 55.4566 36.9554 54.5253 37.6502C53.426 38.4872 52.2805 39.2783 51.2466 40.1834C50.8389 40.539 50.5414 41.0204 50.3897 41.5389C50.3837 41.5611 50.3421 41.7182 50.3421 41.7182C50.1978 42.4011 50.2736 43.1359 50.6143 43.7462L56.0398 53.3294C56.0011 53.3857 55.9639 53.4435 55.9252 53.5013C55.8166 53.6687 55.6798 53.8894 55.6798 53.8894C55.6039 54.0124 55.5741 54.0613 55.5741 54.0613C55.403 54.3531 55.1769 54.762 55.1769 54.762C54.6845 55.6938 54.259 56.6597 53.9154 57.6581C53.9154 57.6581 53.7309 58.1914 53.5777 58.7158C53.5569 58.7884 53.5569 58.7869 53.536 58.861C53.362 59.4728 53.2117 60.0921 53.0823 60.7143L46.7628 57.5677C46.37 57.3752 46.0041 57.2818 45.6188 57.2892ZM87.1288 106.907C84.7664 107.695 82.1555 107.667 79.75 107.093L79.5328 107.082C79.2561 107.169 79.0657 107.356 79.0062 107.677V117.277C78.9987 117.77 78.5881 118.249 77.7134 117.839L77.6911 117.828C76.1781 117.075 74.628 116.35 73.1775 115.58C73.0169 115.493 72.8651 115.391 72.7223 115.278C72.2121 114.872 71.73 114.342 71.4697 113.473C71.3983 113.235 71.37 112.875 71.37 112.875V103.275L71.3418 103.094C71.1484 102.703 70.6872 102.459 70.2945 102.141C67.8904 100.199 65.7333 97.9231 63.6997 95.2489C63.6283 95.154 63.5569 95.0591 63.4855 94.9635L63.3084 94.8047L63.0838 94.7265L62.8458 94.7412L62.6316 94.8464C61.2644 95.9002 59.9032 96.9618 58.5286 98.0078C57.5735 98.7081 56.1305 98.49 55.4626 97.4397C55.4417 97.4082 55.4224 97.3762 55.403 97.3434C54.3319 95.4997 53.2817 93.6435 52.2522 91.7758C51.5709 90.5368 51.8461 88.8215 53.0407 87.8944L57.1183 84.7526L57.2835 84.5543L57.3504 84.3047C57.1525 83.1677 56.5233 82.1014 56.0963 80.8324C55.2052 78.1826 54.5357 75.4657 54.1237 72.7332L54.0642 72.5513C53.9526 72.3975 53.9511 72.3964 53.7964 72.2854C51.4444 71.1146 49.088 69.9551 46.7419 68.7731C45.7378 68.2444 45.113 67.1058 44.9047 66.0193L44.8675 65.7672C44.8511 65.6102 44.8452 65.3918 44.8452 65.3918V59.7914C44.8511 59.301 44.8645 59.4254 44.8958 59.2803C44.9672 58.9484 45.1293 58.587 45.5012 58.5055C45.7497 58.4521 46.007 58.5351 46.2272 58.6433L53.2579 62.1438C53.7131 62.2742 54.0478 62.0727 54.204 61.2609C54.2873 60.8224 54.384 60.3869 54.4911 59.9528C54.4911 59.9528 54.6072 59.4877 54.7351 59.0507C54.7544 58.984 54.7544 58.984 54.7753 58.9158C54.8288 58.7366 54.9002 58.5114 54.9002 58.5114C55.2483 57.4359 55.6783 56.3797 56.2108 55.3856C56.2108 55.3856 56.3864 55.0538 56.5798 54.7279C56.5798 54.7279 56.8848 54.2153 57.2433 53.7028L57.3355 53.4998C57.3459 53.2776 57.3459 53.2761 57.2745 53.0658C55.4016 49.7578 53.5063 46.4616 51.6557 43.1418C51.2837 42.4678 51.492 41.5167 52.0975 41.0382C53.1374 40.2131 54.1966 39.4116 55.2528 38.6072C55.7541 38.2339 56.5233 38.342 56.8699 38.9346L62.4754 48.8378C62.6658 49.0674 62.9395 49.1978 63.2489 49.0926C63.2668 49.0867 63.2831 49.0808 63.2995 49.0748C65.6604 48.2986 68.2445 48.3386 70.6277 48.906L70.8434 48.9178C71.1201 48.8304 71.312 48.6438 71.37 48.3223V38.7228C71.3745 38.4768 71.4325 38.2043 71.6438 38.0724C71.9696 37.8709 72.3831 38.028 72.6851 38.1717C74.1758 38.9109 75.6694 39.6427 77.1525 40.3953C77.6747 40.6634 78.0615 41.0204 78.4438 41.5804C78.6491 41.8796 78.8172 42.21 78.9139 42.5522L79.0032 43.044C79.0047 43.0826 79.0062 43.1255 79.0062 43.1255V52.725L79.0344 52.9058C79.3111 53.4613 79.9702 53.7576 80.5221 54.2153C82.276 55.673 83.8753 57.2967 85.3406 59.0595L85.3956 59.1262C85.8449 59.6684 86.2808 60.221 86.7033 60.7854C86.7033 60.7854 86.7955 60.932 86.9294 61.012C87.1258 61.1305 87.3668 61.0876 87.5884 60.9883L91.8119 58.0196C91.8283 58.0062 91.8446 57.9944 91.8625 57.9811C92.703 57.3544 93.9822 57.3441 94.7876 58.3781C94.8564 58.4655 94.9169 58.5603 94.9736 58.6566C96.0083 60.5217 97.0954 62.3568 98.1249 64.2242C98.2054 64.3704 98.2899 64.5824 98.3031 64.6194C98.505 65.1841 98.4748 65.3629 98.4798 65.5823C98.4923 66.1161 98.3726 66.6598 98.1313 67.1319C97.8582 67.6662 97.6875 67.8317 97.3357 68.106L93.2591 71.2474L93.0929 71.4457L93.0258 71.6952C93.1291 72.2863 93.4331 72.8363 93.6535 73.4197C94.8561 76.6043 95.7482 79.9172 96.2537 83.2668L96.3119 83.4487C96.4241 83.6023 96.4253 83.6035 96.5803 83.7145C98.9317 84.8852 101.289 86.0449 103.634 87.2269C104.463 87.663 105.004 88.5372 105.296 89.3373C105.296 89.3373 105.413 89.6742 105.471 89.9807L105.51 90.2328C105.526 90.3892 105.532 90.6082 105.532 90.6082V96.2081C105.525 96.7147 105.514 96.5669 105.481 96.72C105.41 97.047 105.254 97.4053 104.887 97.4911C104.635 97.5501 104.374 97.4656 104.149 97.3562L97.1194 93.8559C96.7046 93.7383 96.3297 93.8946 96.2152 94.5167C96.2152 94.5167 96.1274 94.988 96.0535 95.3271C95.9752 95.6862 95.8884 96.0435 95.7952 96.3981L95.7769 96.4675C95.6539 96.9217 95.5191 97.3729 95.3668 97.8184L95.1601 98.3998C95.017 98.7751 94.8681 99.1476 94.704 99.5137L94.5413 99.8688C94.4669 100.023 94.3715 100.218 94.3715 100.218C94.1899 100.575 94.0008 100.927 93.7975 101.271C93.7662 101.324 93.7659 101.324 93.7341 101.377C93.5447 101.69 93.3439 101.996 93.1335 102.297L93.0417 102.5C93.0312 102.722 93.0315 102.725 93.1029 102.935C94.9755 106.243 96.8177 109.568 98.721 112.859C99.0815 113.537 98.8867 114.482 98.279 114.961C97.238 115.785 96.1804 116.588 95.1238 117.392C94.6761 117.726 94.0051 117.707 93.6317 117.249C93.5852 117.191 93.5447 117.13 93.5075 117.066L87.9008 107.163C87.7134 106.935 87.4456 106.799 87.1288 106.907ZM70.284 59.3247C67.7134 59.3484 65.2558 60.6402 63.7265 62.7385C63.484 63.0712 63.2608 63.419 63.06 63.7799L62.8592 64.1532C62.7848 64.3009 62.6881 64.504 62.6881 64.504C62.5096 64.8951 62.3444 65.2897 62.2046 65.6945L62.0201 66.2617C61.8743 66.7492 61.7524 67.2448 61.6557 67.7453C61.6557 67.7453 61.6051 68.0044 61.5605 68.2837C61.5605 68.2837 61.4608 68.9531 61.4176 69.4002C61.4117 69.4535 61.4117 69.4534 61.4072 69.5069C61.3537 70.0975 61.3284 70.6905 61.3224 71.2853V71.5079C61.3284 72.1273 61.3566 72.746 61.4072 73.3634C61.4251 73.5917 61.4281 73.6039 61.437 73.7046C61.8342 77.7411 63.1463 81.5876 65.0044 85.0101C65.5905 86.0902 66.2406 87.1442 66.9562 88.1507C66.9562 88.1507 67.3236 88.6639 67.5959 89.0207C70.1472 92.3561 73.3218 95.2049 77.3757 96.3073C80.5221 97.1627 84.0865 96.4937 86.4058 93.5818C86.7464 93.1533 87.0514 92.6976 87.3177 92.2201L87.517 91.8468C87.5914 91.7006 87.6881 91.4987 87.6881 91.4987C87.7878 91.2834 87.9172 90.9775 87.9172 90.9775C88.0362 90.6858 88.1865 90.2641 88.1865 90.2641C88.2936 89.9555 88.423 89.513 88.423 89.513C88.5316 89.1126 88.6328 88.7092 88.7116 88.3015L88.792 87.8627C88.8589 87.4442 88.9199 87.0227 88.9601 86.5998L88.9645 86.5493C89.021 85.9391 89.0478 85.3264 89.0538 84.7147V84.4921C89.0478 83.873 89.021 83.2546 88.9705 82.6366C88.9511 82.4083 88.9496 82.3962 88.9392 82.2954C88.8425 81.3053 88.6878 80.3272 88.4795 79.3482C88.4007 78.9723 88.3114 78.5947 88.2162 78.2196C88.2028 78.162 88.2014 78.1621 88.1865 78.1045C86.7122 72.4337 83.8901 67.2172 79.2918 63.2374C76.7866 61.0698 73.7027 59.3499 70.406 59.3247C70.3659 59.3247 70.3257 59.3247 70.284 59.3247ZM70.3629 60.5247C74.7902 60.5454 78.7979 64.0523 81.08 66.7815C83.5286 69.7092 85.3778 73.2108 86.498 76.6292C87.0306 78.2528 87.6107 80.9662 87.7595 82.628C87.764 82.6806 87.764 82.6806 87.7684 82.7333C87.8146 83.3026 87.8428 83.8737 87.8473 84.4452C87.8473 84.4452 87.8518 85.0526 87.825 85.588C87.764 86.8171 87.5914 88.0461 87.2507 89.2268C87.2299 89.2955 87.2106 89.3643 87.1897 89.4326C87.1377 89.6029 87.0603 89.8346 87.0603 89.8346C86.9339 90.2017 86.7911 90.5638 86.6289 90.9186C86.4415 91.3255 86.4043 91.3867 86.2838 91.5996C85.6946 92.6502 84.9672 93.5636 83.9065 94.2982C81.2451 96.1401 77.3876 95.4389 74.6414 93.8461C73.0511 92.9242 71.6244 91.735 70.354 90.4015C67.575 87.4839 65.537 83.9536 64.2115 80.3293C63.8857 79.4418 63.5881 78.4817 63.3427 77.5392C63.3293 77.4863 63.3293 77.4863 63.3159 77.4334C63.2698 77.2526 63.2266 77.0714 63.1835 76.8899C63.1403 76.7064 63.1403 76.697 63.124 76.6203C62.8874 75.5494 62.7149 74.4623 62.6182 73.372C62.581 72.97 62.5854 72.9845 62.5765 72.836C62.5483 72.4088 62.5334 71.9819 62.5289 71.5548C62.5289 71.5548 62.5453 70.0871 62.6598 69.1306C62.758 68.3071 62.9172 67.4879 63.1507 66.6883C63.1626 66.6488 63.1627 66.6488 63.1746 66.6094C63.2192 66.4606 63.2668 66.3128 63.3159 66.1656C63.3605 66.0334 63.365 66.0272 63.3843 65.9722C64.027 64.1873 65.104 62.4875 66.8788 61.4416C67.9246 60.8254 69.1415 60.5247 70.3629 60.5247Z" fill="#36464A"/>
<path fill-rule="evenodd" clip-rule="evenodd" d="M73.4216 60.4463C66.9354 58.3131 61.9265 62.8718 61.9265 71.3967C61.9265 80.6815 67.8682 91.1784 75.1889 94.823C80.8018 97.6181 85.6055 95.5763 87.5409 90.2844C86.9622 90.0943 86.3731 89.8511 85.7736 89.5529C78.4528 85.9083 72.5111 75.4114 72.5111 66.1265C72.5111 63.9624 72.834 62.0536 73.4216 60.4463Z" fill="#36464A"/>
<path fill-rule="evenodd" clip-rule="evenodd" d="M70.3273 59.3246C68.0333 59.332 65.7572 60.3512 64.2056 62.1377C62.9887 63.5368 62.2121 65.2674 61.7748 67.1889C61.7748 67.1889 61.6706 67.6521 61.6111 67.9801C61.4371 68.9534 61.3478 69.9303 61.3285 70.9361L61.3225 71.2938C61.3225 71.4585 61.324 71.6234 61.327 71.7882C61.3329 72.1822 61.3508 72.5755 61.3761 72.9674C61.4014 73.3422 61.4014 73.2993 61.4177 73.4785C61.7822 77.557 63.0824 81.4694 65.0045 85.01C65.5906 86.0901 66.2407 87.1441 66.9563 88.1505C66.9563 88.1505 67.2449 88.5578 67.4948 88.8867C69.9777 92.1533 73.0705 94.9976 77.0113 96.202C80.247 97.1905 83.978 96.5187 86.3092 93.6996C87.0932 92.7518 87.6778 91.6407 88.1062 90.4931L88.1434 90.2565L88.0839 90.0242L87.9381 89.8333C87.6302 89.6571 87.2806 89.562 86.9488 89.4262C83.6076 88.0612 80.9253 85.4282 78.9111 82.719C78.1851 81.7442 76.266 78.6132 75.3764 76.529C74.7293 75.0119 74.2101 73.4409 73.8203 71.8362C73.7757 71.6526 73.7742 71.6434 73.7578 71.5668C73.2654 69.4241 73.0259 67.2184 73.1434 65.0164C73.1598 64.7004 73.1643 64.685 73.1747 64.5514C73.2089 64.118 73.2609 63.6857 73.3264 63.257C73.3487 63.1122 73.3517 63.1054 73.3621 63.045C73.4558 62.4982 73.5793 61.957 73.7325 61.4267C73.7682 61.3037 73.7355 61.4074 73.8129 61.1645C73.8679 60.9926 73.9259 60.8208 73.9884 60.6489L74.0226 60.4134L73.9631 60.1823L73.8173 59.9927C73.4692 59.7956 73.0824 59.7082 72.6986 59.6149C71.9236 59.4268 71.1336 59.3231 70.3273 59.3246ZM70.3942 60.5245C71.1574 60.5304 71.9161 60.6445 72.651 60.8415C72.5008 61.3022 72.4814 61.4282 72.4814 61.4282C72.3996 61.7378 72.3788 61.8296 72.352 61.9481C72.2731 62.2897 72.2062 62.6339 72.1512 62.9805L72.0574 63.6338C72.0217 63.9234 71.992 64.214 71.9697 64.5046C71.9593 64.6298 71.9548 64.6585 71.9429 64.9043C71.8878 65.9107 71.9012 66.9243 71.9771 67.9252C71.9979 68.1899 72.0232 68.453 72.0515 68.7155C72.0753 68.9442 72.0783 68.9565 72.0917 69.0574C72.4859 72.2527 73.4291 75.3011 74.7962 78.1759C75.6382 79.9458 76.6305 81.6353 77.8057 83.2492C77.956 83.4563 77.9709 83.4724 78.0438 83.57C78.3487 83.9746 78.6656 84.3704 78.9914 84.7592C79.1521 84.9513 79.1669 84.966 79.2458 85.0563C81.3047 87.4375 83.8114 89.4957 86.7227 90.6288L86.7525 90.6403C85.5564 93.4731 82.9917 95.714 79.4362 95.4532C75.2767 95.1477 71.6811 92.0666 69.2964 89.2182C67.1006 86.5954 65.4002 83.5785 64.2116 80.3292C63.8858 79.4416 63.5882 78.4815 63.3428 77.5391C63.3294 77.4862 63.3294 77.4862 63.316 77.4333C63.2699 77.2524 63.2267 77.0712 63.1836 76.8898C63.1404 76.7062 63.1404 76.6969 63.1241 76.6202C62.8875 75.5492 62.715 74.4622 62.6183 73.3719C62.5811 72.9698 62.5856 72.9843 62.5766 72.8359C62.5484 72.4087 62.5335 71.9817 62.529 71.5546C62.529 71.5546 62.5275 71.0781 62.5394 70.7262C62.5945 69.0956 62.837 67.4658 63.3904 65.9546C63.4038 65.9195 63.4038 65.9196 63.4157 65.8847C64.2785 63.5512 65.9774 61.4163 68.5615 60.7467C69.1595 60.5912 69.7843 60.5215 70.3942 60.5245Z" fill="#36464A"/>
<path fill-rule="evenodd" clip-rule="evenodd" d="M104.077 66.5198L93.6279 71.7222L97.7438 68.5503L108.193 63.3479L104.077 66.5198Z" fill="#7DE2FF"/>
<path fill-rule="evenodd" clip-rule="evenodd" d="M108.15 62.749C108.046 62.7615 108.019 62.7687 107.923 62.811L97.4745 68.0134C97.4234 68.0421 97.4234 68.042 97.3752 68.0756L93.2591 71.2474C92.908 71.5467 93.0131 72.1983 93.4943 72.3074C93.6211 72.3362 93.6974 72.3468 93.8976 72.2591L104.346 67.0565C104.398 67.0279 104.398 67.0279 104.446 66.9944L108.562 63.8226C108.956 63.4869 108.748 62.7361 108.15 62.749Z" fill="#36464A"/>
<path fill-rule="evenodd" clip-rule="evenodd" d="M70.5 103.5C73.6944 101.278 72.9539 101.5 72.9539 99.8208C72.9539 88.351 65.5928 75.4174 56.5245 70.9572C52.5089 68.9823 48.8279 68.9974 45.9734 70.6238V98.4621C45.9734 100.152 47.071 102.073 48.4232 102.749L70.5 103.5Z" fill="#36464A"/>
<path fill-rule="evenodd" clip-rule="evenodd" d="M56.9375 116.938L62.4802 114.212C66.3469 112.31 68.8354 107.595 68.8354 100.925C68.8354 89.4556 61.4733 76.5218 52.4061 72.0615C48.6106 70.1946 45.1141 70.1061 42.332 71.4755L36.7883 74.2015C39.5715 72.8321 43.068 72.9216 46.8635 74.7886C55.9307 79.2488 63.2928 92.182 63.2928 103.652C63.2928 110.321 60.8032 115.037 56.9375 116.938Z" fill="#7DE2FF"/>
<path fill-rule="evenodd" clip-rule="evenodd" d="M46.3951 70.105C44.9263 70.1158 43.4554 70.4342 42.1399 71.0827L36.5951 73.8087L36.4667 73.9059C36.3814 74.0418 36.3814 74.044 36.3512 74.2016L36.3868 74.3742L36.4872 74.5188L36.6361 74.6116L36.8098 74.6386C37.0969 74.5652 37.3969 74.3969 37.7109 74.2771C40.779 73.1094 44.3802 73.9393 47.2379 75.4728C47.6545 75.6962 48.0635 75.9347 48.4628 76.1883C50.4851 77.4682 52.283 79.0859 53.8802 80.8806C55.9878 83.2494 57.7976 86.035 59.2092 88.9094C60.9553 92.4667 62.1186 96.3167 62.5935 99.8389C62.8147 101.476 62.9054 103.132 62.8309 104.784C62.7629 106.275 62.5611 107.791 62.1586 109.252C62.0927 109.494 62.0927 109.49 62.0733 109.556C62.0496 109.635 62.0258 109.715 62.001 109.794C61.9233 110.041 61.8068 110.377 61.8068 110.377C61.7539 110.527 61.6827 110.715 61.6827 110.715C60.7589 113.103 59.1995 115.287 56.8728 116.481C56.8296 116.504 56.7864 116.525 56.7422 116.547L56.6073 116.651C56.5339 116.779 56.4907 116.812 56.5015 116.968C56.5188 117.229 56.7411 117.435 57.1307 117.331C58.9782 116.422 61.0254 115.838 62.6733 114.604C64.0353 113.934 65.2213 112.923 66.1472 111.73C66.1472 111.73 66.6587 111.056 67.0192 110.443C67.0192 110.443 67.3257 109.898 67.5005 109.55C67.821 108.889 68.0951 108.209 68.3196 107.514C68.3325 107.474 68.448 107.111 68.5279 106.821C68.9941 105.134 69.2164 103.397 69.2639 101.633L69.266 101.556C69.32 99.103 69.0448 96.6658 68.5387 94.3602C68.5387 94.3602 68.1739 92.7946 67.9041 91.8767C67.3418 89.9681 66.635 88.1191 65.7857 86.3155C65.4393 85.5793 65.0723 84.8573 64.6795 84.1472C64.6795 84.1472 64.5047 83.8267 64.331 83.5256C64.331 83.5256 64.1464 83.2051 64.0072 82.972C61.2305 78.3262 57.5991 74.0775 52.4622 71.6029C50.5931 70.7018 48.5383 70.1115 46.4771 70.105C46.4501 70.105 46.422 70.105 46.3951 70.105ZM40.8114 72.831C40.7046 72.8332 40.5535 72.8375 40.5535 72.8375C42.3255 71.9655 44.0435 71.0687 46.0659 70.9867C48.848 70.8745 51.5643 71.9461 53.8543 73.3663C56.4864 74.9991 58.757 77.2157 60.6628 79.6395C62.2999 81.7191 63.6953 83.9821 64.8738 86.435C65.7522 88.2626 66.499 90.1879 67.085 92.1909C67.7638 94.5156 68.2171 96.9154 68.3552 99.3959C68.4253 100.67 68.4135 101.939 68.2926 103.22L68.2235 103.852C68.0811 104.985 67.8501 106.099 67.5059 107.187C67.5059 107.187 67.3311 107.732 67.139 108.209C66.3835 110.094 65.2569 111.821 63.5248 113.074C63.1331 113.357 62.7187 113.607 62.287 113.82L60.3488 114.773C60.9521 114.055 61.456 113.268 61.8758 112.438C61.8758 112.438 62.1877 111.813 62.4079 111.262C62.4079 111.262 62.7176 110.465 62.9118 109.802C63.6522 107.285 63.8324 104.602 63.6813 102.005C63.527 99.3304 63.0122 96.7242 62.2384 94.1927C62.2039 94.0787 62.1683 93.9647 62.1316 93.851C61.1765 90.8295 59.8437 87.9182 58.1699 85.2139L58.1333 85.154C55.0749 80.2266 50.9816 75.8441 45.6569 73.7796C44.1137 73.1817 42.4604 72.8191 40.8114 72.831Z" fill="#36464A"/>
<path fill-rule="evenodd" clip-rule="evenodd" d="M46.8636 116.352C55.9308 120.812 63.293 115.121 63.293 103.652C63.293 92.1818 55.9308 79.2486 46.8636 74.7884C37.7953 70.3271 30.4332 76.0187 30.4332 87.488C30.5551 95.4832 36.4129 100.728 30.4332 108.27L46.8636 116.352Z" fill="#7DE2FF"/>
<path fill-rule="evenodd" clip-rule="evenodd" d="M40.887 72.8309C38.1157 72.8439 35.4404 74.0029 33.5184 76.2012C33.4871 76.2368 33.4871 76.2368 33.4558 76.2735C33.3727 76.3717 33.2907 76.4699 33.2108 76.5703C32.3702 77.6214 31.7216 78.816 31.2403 80.0765C31.2403 80.0765 30.8593 81.1233 30.6618 81.8885C30.6618 81.8885 30.569 82.2532 30.5107 82.5133C30.4201 82.9223 30.3413 83.3356 30.2766 83.75C30.2766 83.75 30.1514 84.6203 30.0996 85.1779C30.0996 85.1779 30.0629 85.5941 30.0445 85.887C29.9917 86.7924 29.9766 87.6947 30.051 88.6293C30.0694 88.875 30.0953 89.1202 30.1244 89.3657C30.1298 89.4119 30.1298 89.4119 30.1352 89.4581C30.4449 91.899 31.2457 94.2594 31.9094 96.6353C32.1835 97.6163 32.4284 98.6032 32.5666 99.6306C32.6335 100.128 32.6756 100.636 32.6799 101.144C32.6799 101.144 32.6799 101.494 32.6691 101.736C32.6302 102.527 32.49 103.313 32.2579 104.068C32.2579 104.068 32.1425 104.434 32.0281 104.725C32.0281 104.725 31.9083 105.038 31.7583 105.354C31.7583 105.354 31.4507 105.992 31.1518 106.484C30.8313 107.011 30.4708 107.517 30.0899 107.999L30.0165 108.136C29.9895 108.341 30.0521 108.524 30.2399 108.662C35.735 111.365 41.2291 114.068 46.7243 116.771C49.256 118.004 52.1342 118.707 55.0037 118.075C57.0164 117.631 58.865 116.475 60.2075 114.939C60.2388 114.903 60.2388 114.903 60.2701 114.866C60.9057 114.124 61.4442 113.297 61.8845 112.422C61.8845 112.422 62.0615 112.066 62.177 111.807L62.1986 111.759C62.3 111.53 62.396 111.298 62.4856 111.063C62.4856 111.063 62.7306 110.398 62.8633 109.965C62.9356 109.728 63.0025 109.49 63.064 109.251C63.064 109.251 63.2378 108.562 63.3457 107.987C63.3986 107.712 63.459 107.329 63.459 107.329C63.527 106.875 63.5842 106.419 63.6274 105.962C63.6274 105.962 63.6533 105.658 63.6684 105.448C63.786 103.63 63.7213 101.8 63.4968 99.9996C63.2497 98.024 62.8115 96.0681 62.2385 94.1927C62.2039 94.0786 62.1683 93.9646 62.1316 93.8509C61.1766 90.8288 59.8416 87.9152 58.17 85.2138L58.1333 85.1539C55.1105 80.2837 51.1446 75.9746 45.8145 73.8421C44.2486 73.2162 42.5694 72.8299 40.887 72.8309ZM40.9787 73.7051C44.7375 73.7396 48.2416 75.6983 51.123 78.1621C53.5554 80.2427 55.6167 82.782 57.2797 85.4374C58.797 87.8627 60.0434 90.4349 61.0125 93.2504C61.7324 95.3453 62.2719 97.456 62.5935 99.8388C62.832 101.603 62.9184 103.409 62.8083 105.199C62.777 105.712 62.7273 106.22 62.6615 106.726L62.5946 107.194C62.4759 107.936 62.3227 108.672 62.1176 109.4L62.1036 109.452C61.9201 110.086 61.7 110.709 61.4388 111.313C61.4388 111.313 61.2953 111.642 61.1474 111.941C61.0741 112.089 61.0697 112.096 61.0384 112.157C60.8992 112.423 60.7503 112.686 60.5917 112.942C60.5917 112.942 60.3057 113.401 60.024 113.776C58.3448 116.012 55.7019 117.45 52.7471 117.434C50.7722 117.424 48.8233 116.829 47.0567 115.959L31.1054 108.113C31.2403 107.93 31.373 107.745 31.5014 107.556C31.5014 107.556 32.1673 106.546 32.5504 105.725C32.8061 105.178 33.0198 104.612 33.1806 104.033C33.1936 103.986 33.1849 104.018 33.2141 103.909C33.2799 103.663 33.3349 103.414 33.3813 103.164C33.39 103.117 33.3846 103.148 33.404 103.04C33.404 103.04 33.4655 102.665 33.4947 102.385C33.5065 102.277 33.5163 102.169 33.5249 102.061C33.5832 101.272 33.5562 100.489 33.459 99.7104C33.459 99.7104 33.4331 99.5014 33.3997 99.2798C33.3716 99.0873 33.3662 99.0642 33.349 98.9659C33.3155 98.7699 33.2637 98.4987 33.2637 98.4987L33.2313 98.3418C33.0554 97.5036 32.8364 96.6769 32.5968 95.8556C32.5968 95.8556 32.354 95.0287 32.1576 94.3663C31.7734 93.066 31.4075 91.7719 31.1669 90.4202C31.1032 90.0649 31.0482 89.7067 31.0029 89.3479C30.9975 89.3052 30.9975 89.3052 30.9931 89.2624C30.9802 89.1605 30.9694 89.0586 30.9586 88.9565C30.9111 88.4965 30.882 88.0342 30.8723 87.5721C30.8723 87.5721 30.8701 87.0586 30.8841 86.6406C30.91 85.896 30.9683 85.1517 31.0644 84.414L31.1313 83.9454C31.1949 83.5471 31.2672 83.15 31.3525 82.7572C31.3525 82.7572 31.4302 82.4108 31.4939 82.1626C31.5457 81.9608 31.6234 81.6877 31.6234 81.6877C31.7399 81.282 31.8705 80.8805 32.0205 80.4866C32.0205 80.4866 32.1608 80.1197 32.2871 79.8272C32.2871 79.8272 32.354 79.674 32.409 79.5542C32.4295 79.51 32.4295 79.5099 32.45 79.4657C32.6551 79.0308 32.8817 78.6056 33.1342 78.1977C33.1342 78.1977 33.4213 77.739 33.7019 77.3645C35.3606 75.1555 38.025 73.7472 40.7996 73.7061C40.86 73.7051 40.9194 73.7051 40.9787 73.7051Z" fill="#36464A"/>
<path fill-rule="evenodd" clip-rule="evenodd" d="M48.5114 101.608C47.6761 101.197 46.9994 101.655 46.9994 102.629C46.9994 103.603 47.6761 104.727 48.5114 105.138L55.9706 108.807C56.8048 109.218 57.4825 108.76 57.4825 107.786C57.4825 106.812 56.8048 105.688 55.9706 105.277L48.5114 101.608ZM37.7552 89.8409C36.921 89.4305 36.2433 89.8881 36.2433 90.8622C36.2433 91.8364 36.921 92.9605 37.7552 93.371L55.9706 102.331C56.8048 102.742 57.4825 102.284 57.4825 101.31C57.4825 100.336 56.8048 99.2116 55.9706 98.8011L37.7552 89.8409ZM37.7552 83.2257C36.921 82.8156 36.2433 83.2732 36.2433 84.247C36.2433 85.2212 36.921 86.3452 37.7552 86.7558L55.9706 95.7159C56.8048 96.1263 57.4825 95.6688 57.4825 94.6946C57.4825 93.7204 56.8048 92.5964 55.9706 92.1858L37.7552 83.2257Z" fill="#36464A"/>
</svg>
