<svg width="150" height="150" viewBox="0 0 150 150" fill="none" xmlns="http://www.w3.org/2000/svg">
<rect width="150" height="150" fill="#F7FBFC"/>
<path d="M71.3749 126.908C44.2213 92.2776 40.0892 84.2102 42.6471 30.4932C56.5225 35.5843 62.2704 33.7223 71.3749 27.7385C81.9492 45.3389 88.3325 51.8135 100.299 59.0242C102.857 103.1 104.038 118.644 71.3749 126.908Z" stroke="#36464A"/>
<path d="M83.5 123C107.5 114 108.817 99.3612 106.259 55.2857M106.259 55.2857C94.2923 48.075 87.9089 41.6004 77.3347 24C68.2301 29.9838 62.4823 31.8457 48.6069 26.7547L42.6471 30.2965M106.259 55.2857L100.299 58.8275" stroke="#36464A"/>
<path d="M56 68.5L68.5 114L68 82L79 88.5L68 43L68.5 76L56 68.5Z" fill="#7DE2FF"/>
<path fill-rule="evenodd" clip-rule="evenodd" d="M74.4483 86.1659L74.4483 111.658C74.4483 112.243 73.6157 112.352 73.4651 111.786L70.4799 100.574L70.3444 83.8176L74.4483 86.1659ZM73.4532 50.4415L73.2987 41.323C73.2886 40.727 74.1423 40.6165 74.2842 41.1954L85.3109 86.1647C85.4156 86.592 84.9572 86.9366 84.5758 86.7171L82.7682 85.6767L73.4532 50.4415Z" fill="#36464A"/>
<path fill-rule="evenodd" clip-rule="evenodd" d="M67.6263 43.4253C67.6162 42.8293 68.4699 42.7189 68.6118 43.2977L79.6385 88.267C79.7432 88.6943 79.2848 89.0389 78.9034 88.8194L68.7759 82.9902L68.7759 113.76C68.7759 114.345 67.9433 114.454 67.7927 113.889L55.7954 68.8267C55.6803 68.3945 56.1474 68.0402 56.5327 68.2675L68.1634 75.1285L67.6263 43.4253ZM56.4367 68.8392L68.7759 76.1409L68.1634 43.6818L78.9735 88.2313L68.1634 81.9882L68.1634 112.95L56.4367 68.8392Z" fill="#36464A"/>
<path fill-rule="evenodd" clip-rule="evenodd" d="M71.329 41.2333C71.245 40.9073 70.8694 40.7558 70.5827 40.9322L67.9766 42.5358L68.2918 43.061L70.7805 41.519L82.439 86.8409L79.307 88.2646L79.5605 88.8222L82.7844 87.3568C83.0053 87.2564 83.1223 87.0118 83.0617 86.7768L71.329 41.2333Z" fill="#36464A"/>
<path fill-rule="evenodd" clip-rule="evenodd" d="M59.3878 66.6493C59.243 66.5673 59.0668 66.5627 58.9178 66.6372L55.9542 68.119L56.2281 68.6669L59.1517 67.2051L68.4914 72.5079L68.7723 71.9636L59.3878 66.6493ZM71.0548 83.8175L70.4423 83.8237L70.4423 113.034L68.3776 113.79L68.4914 114.495L70.748 113.574C70.9361 113.497 71.059 113.314 71.059 113.111L71.0548 83.8175Z" fill="#36464A"/>
</svg>
