<svg width="150" height="150" viewBox="0 0 150 150" fill="none" xmlns="http://www.w3.org/2000/svg">
<mask id="mask0_329_206" style="mask-type:alpha" maskUnits="userSpaceOnUse" x="42" y="27" width="85" height="96">
<path d="M56 72.5C50.4 68.9 44.6667 69.6667 42.5 70.5V27H127V98L116 115.5L87 123L68.5 119C68.3333 117.833 68.4 113.2 70 104C72 92.5 63 77 56 72.5Z" fill="#C4C4C4"/>
</mask>
<g mask="url(#mask0_329_206)">
<path d="M89.366 47.725H88.866V47.9738L89.0645 48.1239L89.366 47.725ZM87.1568 34.8471L87.3797 34.3995L87.1568 34.8471ZM82.7355 32.6457L82.5127 33.0933L82.7355 32.6457ZM79.7188 32.6457L79.973 33.0762L79.9813 33.0714L79.9893 33.0662L79.7188 32.6457ZM67.1494 33.6353L66.7142 33.8815L66.7143 33.8816L67.1494 33.6353ZM64.6263 33.1435L64.8517 33.5898L64.8938 33.5686L64.9312 33.5398L64.6263 33.1435ZM94.2845 117.799C94.0353 117.918 93.9298 118.216 94.0488 118.465C94.1678 118.715 94.4663 118.82 94.7155 118.701L94.2845 117.799ZM105.265 112.856L105.57 113.252L105.57 113.252L105.265 112.856ZM108.391 110.447L108.086 110.051L108.086 110.051L108.391 110.447ZM108.994 107.546L108.559 107.793L108.559 107.793L108.994 107.546ZM114 94.0001L114.203 94.457L114.219 94.4501L114.234 94.4421L114 94.0001ZM113.639 81.679L113.417 82.1266L113.417 82.1266L113.639 81.679ZM106.607 78.1776L106.113 78.251L106.151 78.5089L106.384 78.6251L106.607 78.1776ZM103.385 66.722L103.08 66.3259L102.777 66.5597L102.923 66.9134L103.385 66.722ZM107.463 63.5796L107.158 63.1835L107.158 63.1835L107.463 63.5796ZM108.391 58.8997L107.956 59.146L107.956 59.146L108.391 58.8997ZM105.265 53.378L104.83 53.6243L104.83 53.6244L105.265 53.378ZM101.211 52.5366L101.498 52.9457L101.507 52.9394L101.516 52.9327L101.211 52.5366ZM96.9977 55.4979L96.5972 55.7972L96.8879 56.1863L97.2852 55.907L96.9977 55.4979ZM84.9462 89.8228L85.1691 89.3752L85.169 89.3752L84.9462 89.8228ZM89.866 47.725V38.1492H88.866V47.725H89.866ZM89.866 38.1492C89.866 37.4154 89.5718 36.6462 89.1345 35.9924C88.6951 35.3355 88.0806 34.7485 87.3797 34.3995L86.934 35.2947C87.4529 35.5531 87.943 36.0098 88.3033 36.5483C88.6656 37.09 88.866 37.6682 88.866 38.1492H89.866ZM87.3797 34.3995L82.9584 32.1982L82.5127 33.0933L86.934 35.2947L87.3797 34.3995ZM82.9584 32.1982C82.3194 31.88 81.7357 31.6823 81.1494 31.6767C80.55 31.671 80.0062 31.8662 79.4482 32.2253L79.9893 33.0662C80.4313 32.7818 80.7859 32.6733 81.14 32.6767C81.5071 32.6801 81.9318 32.8041 82.5127 33.0933L82.9584 32.1982ZM67.5846 33.3891C66.9013 32.1812 65.4189 31.9031 64.3215 32.7472L64.9312 33.5398C65.5594 33.0566 66.3383 33.2169 66.7142 33.8815L67.5846 33.3891ZM64.4009 32.6972L55.7746 37.0538L56.2254 37.9464L64.8517 33.5898L64.4009 32.6972ZM94.5 118.25C94.7155 118.701 94.7155 118.701 94.7156 118.701C94.7157 118.701 94.7158 118.701 94.716 118.701C94.7163 118.701 94.7167 118.701 94.7173 118.7C94.7185 118.7 94.7204 118.699 94.7227 118.698C94.7275 118.695 94.7347 118.692 94.7441 118.688C94.7629 118.679 94.7908 118.665 94.8272 118.648C94.9001 118.613 95.007 118.562 95.1433 118.496C95.416 118.366 95.8065 118.178 96.2777 117.951C97.2201 117.497 98.4859 116.885 99.7789 116.251C101.072 115.618 102.393 114.963 103.447 114.424C103.973 114.155 104.435 113.913 104.794 113.717C105.139 113.529 105.425 113.363 105.57 113.252L104.96 112.46C104.889 112.514 104.677 112.642 104.315 112.839C103.968 113.029 103.515 113.266 102.991 113.534C101.946 114.069 100.63 114.721 99.339 115.353C98.0486 115.985 96.7849 116.597 95.8437 117.05C95.3731 117.277 94.9832 117.464 94.711 117.595C94.5749 117.66 94.4682 117.711 94.3956 117.746C94.3593 117.763 94.3315 117.776 94.3128 117.785C94.3034 117.79 94.2963 117.793 94.2916 117.795C94.2892 117.797 94.2875 117.797 94.2863 117.798C94.2857 117.798 94.2852 117.798 94.2849 117.799C94.2848 117.799 94.2847 117.799 94.2846 117.799C94.2845 117.799 94.2845 117.799 94.5 118.25ZM105.57 113.252L108.696 110.843L108.086 110.051L104.96 112.46L105.57 113.252ZM108.696 110.843C109.752 110.029 110.084 108.457 109.429 107.3L108.559 107.793C108.964 108.508 108.755 109.535 108.086 110.051L108.696 110.843ZM109.429 107.3L103.82 97.3935L102.95 97.8862L108.559 107.793L109.429 107.3ZM105.203 98.457L114.203 94.457L113.797 93.5432L104.797 97.5432L105.203 98.457ZM114.234 94.4421C115.154 93.9556 115.759 93.5888 116.079 93.0762C116.408 92.5496 116.392 91.9335 116.392 91.2119H115.392C115.392 92.0378 115.375 92.3158 115.231 92.5464C115.079 92.7909 114.738 93.0445 113.766 93.558L114.234 94.4421ZM116.392 91.2119V85.6043H115.392V91.2119H116.392ZM116.392 85.6043C116.392 84.7284 116.109 83.8168 115.666 83.0446C115.224 82.2754 114.596 81.5969 113.862 81.2314L113.417 82.1266C113.926 82.38 114.424 82.8904 114.798 83.5423C115.17 84.1911 115.392 84.9328 115.392 85.6043H116.392ZM113.862 81.2314L106.83 77.73L106.384 78.6251L113.417 82.1266L113.862 81.2314ZM107.102 78.1041C106.522 74.197 105.399 70.2731 103.847 66.5305L102.923 66.9134C104.446 70.5868 105.546 74.4316 106.113 78.251L107.102 78.1041ZM103.69 67.118L107.768 63.9757L107.158 63.1835L103.08 66.3259L103.69 67.118ZM107.768 63.9757C109.343 62.7624 109.81 60.3908 108.826 58.6534L107.956 59.146C108.698 60.4562 108.333 62.2784 107.158 63.1835L107.768 63.9757ZM108.826 58.6534L105.7 53.1317L104.83 53.6244L107.956 59.146L108.826 58.6534ZM105.7 53.1318C104.69 51.3469 102.526 50.8927 100.906 52.1405L101.516 52.9327C102.646 52.0621 104.115 52.3604 104.83 53.6243L105.7 53.1318ZM100.923 52.1275L96.7101 55.0889L97.2852 55.907L101.498 52.9457L100.923 52.1275ZM97.3982 55.1986C95.0534 52.0609 92.529 49.4888 89.6675 47.3261L89.0645 48.1239C91.8442 50.2247 94.3034 52.7278 96.5972 55.7972L97.3982 55.1986ZM71.1838 66.3965C71.1838 71.1392 72.699 76.1687 75.1346 80.471C77.5681 84.7698 80.9484 88.3911 84.7234 90.2704L85.169 89.3752C81.6232 87.6099 78.3723 84.1604 76.0048 79.9784C73.6394 75.7999 72.1838 70.9386 72.1838 66.3965H71.1838ZM72.2949 60.1034C71.5751 61.8667 71.1838 63.9866 71.1838 66.3965H72.1838C72.1838 64.092 72.5583 62.1042 73.2207 60.4814L72.2949 60.1034ZM84.7233 90.2703C85.5017 90.6579 86.2689 90.9575 87.0199 91.1713L87.2938 90.2095C86.6067 90.0139 85.8969 89.7376 85.1691 89.3752L84.7233 90.2703ZM70.9044 39.2538L67.5845 33.389L66.7143 33.8816L70.0341 39.7464L70.9044 39.2538ZM79.4645 32.2152L71.2457 37.0696L71.7543 37.9306L79.973 33.0762L79.4645 32.2152ZM78.7203 118.949L90.2203 113.305L89.7797 112.407L78.2797 118.051L78.7203 118.949Z" fill="#36464A"/>
<path fill-rule="evenodd" clip-rule="evenodd" d="M79.366 52.7249V43.1491C79.366 41.9343 78.3767 40.4544 77.1568 39.847L72.7355 37.6457C71.5157 37.0383 70.5249 37.5316 70.5249 38.7464V48.3222C67.7043 47.6452 65.0786 47.7474 62.7578 48.5429L57.1494 38.6352C56.6198 37.699 55.4892 37.4797 54.6263 38.1434L51.5008 40.5522C50.6379 41.2173 50.3672 42.518 50.8983 43.4543L56.5067 53.3604C54.9685 55.5366 53.8572 58.3143 53.2845 61.6074L46.2523 58.1054C45.0086 57.4862 44 58.2402 44 59.7883V65.3956C44 66.943 45.0086 68.7019 46.2523 69.3208L53.2845 72.8223C53.8572 76.6855 54.9685 80.5699 56.5067 84.2777L52.4276 87.4202C51.053 88.4795 50.6379 90.5764 51.5008 92.1002L54.6263 97.6218C55.4892 99.1454 57.3056 99.5226 58.6802 98.4634L62.7578 95.321C65.0786 98.4259 67.7043 101.143 70.5249 103.275V112.851C70.5249 114.066 71.5157 115.545 72.7355 116.153L77.1568 118.354C78.3767 118.961 79.366 118.468 79.366 117.253V107.677C82.1866 108.354 84.8138 108.252 87.133 107.457L92.7416 117.364C93.2717 118.3 94.4023 118.52 95.265 117.856L98.391 115.447C99.2537 114.782 99.5237 113.483 98.9937 112.546L93.3852 102.64C94.9224 100.463 96.0337 97.6849 96.6072 94.3928L103.639 97.8941C104.883 98.513 105.892 97.7593 105.892 96.2118V90.6042C105.892 89.0568 104.883 87.2979 103.639 86.679L96.6072 83.1775C96.0337 79.3143 94.9224 75.4299 93.3852 71.7219L97.4633 68.5795C98.8381 67.5203 99.2537 65.4234 98.391 63.8996L95.265 58.378C94.4023 56.8536 92.5859 56.4773 91.2107 57.5365L86.9977 60.4979C84.6784 57.3943 82.1866 54.8567 79.366 52.7249ZM74.9462 61.1764C67.6254 57.5321 61.6838 62.1111 61.6838 71.3964C61.6838 80.6812 67.6254 91.1781 74.9462 94.8227C82.2654 98.4673 88.2086 93.8881 88.2086 84.6033C88.2086 75.3186 82.2654 64.8217 74.9462 61.1764Z" stroke="#36464A"/>
<path fill-rule="evenodd" clip-rule="evenodd" d="M73.1788 60.4463C66.6927 58.3131 61.6837 62.8718 61.6837 71.3967C61.6837 80.6815 67.6254 91.1784 74.9462 94.823C80.5591 97.6181 85.3627 95.5763 87.2982 90.2844C86.7195 90.0943 86.1304 89.8511 85.5308 89.5529C78.2101 85.9083 72.2684 75.4114 72.2684 66.1265C72.2684 63.9624 72.5912 62.0536 73.1788 60.4463Z" fill="#36464A"/>
<path d="M102.993 67.6712L93.0566 72.3375L98.3807 68.7804L108.943 62.6624C108.922 63.8322 107.635 64.7887 106.694 65.4801L102.993 67.6712Z" fill="#36464A"/>
<path fill-rule="evenodd" clip-rule="evenodd" d="M93.3662 36.7632V46.339C96.1868 48.4707 97.6807 49.8965 100 53L103.5 50.5C104.875 49.4408 108.402 50.4677 109.265 51.992L112.391 57.5137C113.254 59.0375 112.838 61.1344 111.464 62.1936L107.385 65.336C108.923 69.0439 110.034 72.9283 110.607 76.7915L117.64 80.293C118.883 80.9119 119.892 82.6708 119.892 84.2183V89.8259C119.892 91.3733 117.743 92.6964 116.5 92.0775L115.892 91.6575V85.2183C115.892 83.6708 114.883 81.9119 113.64 81.293L106.607 77.7915C106.034 73.9283 104.923 70.0439 103.385 66.336L107.463 63.1936C108.838 62.1344 109.254 60.0375 108.391 58.5137L105.265 52.992C104.402 51.4677 102.586 51.0914 101.211 52.1506L96.9978 55.1119C94.6786 52.0084 92.1868 49.4707 89.3662 47.339V37.7632C89.3662 36.5484 88.3769 35.0685 87.157 34.4611L82.7357 32.2597C82.6679 32.226 82.5977 32.196 82.5251 32.1697V31.3604C82.5251 30.1457 83.5158 29.6523 84.7357 30.2597L91.157 33.4611C92.3769 34.0685 93.3662 35.5484 93.3662 36.7632ZM73.4371 36.2904L71.1496 32.2493C70.62 31.313 69.4894 31.0938 68.6265 31.7575L66.9939 33.0157C67.0501 33.0878 67.1022 33.1657 67.1495 33.2493L70 38.4999L73.4371 36.2904ZM107.817 97.0164C106.562 97.6014 105.389 98.1187 104.5 98.4999L103.5 97.9999L108.994 107.16C109.524 108.097 108.363 110.335 107.5 111L107.001 111.332C107.587 111.959 108.525 112.04 109.265 111.47L112.391 109.061C113.254 108.396 113.524 107.097 112.994 106.16L107.817 97.0164ZM93.3662 105.291V110.878C93.3662 110.874 93.3662 110.871 93.3662 110.867L93.3662 105.291Z" fill="#36464A"/>
</g>
<path fill-rule="evenodd" clip-rule="evenodd" d="M72.9994 100.576C73.0931 101.5 73.1117 101.684 70.5 103.5L68.7104 103.439C68.793 102.636 68.8355 101.797 68.8355 100.925C68.8355 89.4554 61.4734 76.5216 52.4061 72.0614C50.1761 70.9645 48.0492 70.4815 46.1099 70.5474C48.9447 68.9973 52.5726 69.0135 56.5245 70.9571C65.5928 75.4173 72.9539 88.3509 72.9539 99.8207C72.9539 100.127 72.9785 100.37 72.9994 100.576ZM45.9734 74.3807C46.2681 74.5057 46.5649 74.6416 46.8635 74.7885C55.8262 79.1973 63.1229 91.8848 63.2899 103.254L48.4231 102.749C47.0709 102.073 45.9734 100.152 45.9734 98.462V74.3807Z" fill="#36464A"/>
<path fill-rule="evenodd" clip-rule="evenodd" d="M46.3951 70.105C44.9263 70.1158 43.4554 70.4342 42.1399 71.0827L36.5951 73.8087L36.4667 73.9059C36.3814 74.0418 36.3814 74.044 36.3512 74.2016L36.3868 74.3742L36.4872 74.5188L36.6361 74.6116L36.8099 74.6386C37.0969 74.5652 37.3969 74.3969 37.711 74.2771C40.7791 73.1094 44.3803 73.9393 47.2379 75.4728C47.6545 75.6962 48.0635 75.9347 48.4628 76.1883C50.4852 77.4682 52.2831 79.0859 53.8802 80.8806C55.9879 83.2494 57.7977 86.035 59.2092 88.9094C60.9553 92.4667 62.1187 96.3167 62.5935 99.8389C62.8147 101.476 62.9054 103.132 62.8309 104.784C62.7629 106.275 62.5611 107.791 62.1586 109.252C62.0928 109.494 62.0928 109.49 62.0733 109.556C62.0496 109.635 62.0259 109.715 62.001 109.794C61.9233 110.041 61.8068 110.377 61.8068 110.377C61.7539 110.527 61.6827 110.715 61.6827 110.715C60.7589 113.103 59.1995 115.287 56.8728 116.481C56.8296 116.504 56.7865 116.525 56.7422 116.547L56.6073 116.651C56.5339 116.779 56.4908 116.812 56.5016 116.968C56.5188 117.229 56.7411 117.435 57.1307 117.331C58.9783 116.422 61.0255 115.838 62.6734 114.604C64.0353 113.934 65.2213 112.923 66.1472 111.73C66.1472 111.73 66.6588 111.056 67.0192 110.443C67.0192 110.443 67.3257 109.898 67.5005 109.55C67.821 108.889 68.0951 108.209 68.3196 107.514C68.3326 107.474 68.448 107.111 68.5279 106.821C68.9941 105.134 69.2164 103.397 69.2639 101.633L69.266 101.556C69.32 99.103 69.0448 96.6658 68.5387 94.3602C68.5387 94.3602 68.1739 92.7946 67.9041 91.8767C67.3419 89.9681 66.635 88.1191 65.7857 86.3155C65.4393 85.5793 65.0724 84.8573 64.6796 84.1472C64.6796 84.1472 64.5047 83.8267 64.331 83.5256C64.331 83.5256 64.1464 83.2051 64.0072 82.972C61.2305 78.3262 57.5991 74.0775 52.4622 71.6029C50.5931 70.7018 48.5383 70.1115 46.4771 70.105C46.4501 70.105 46.4221 70.105 46.3951 70.105ZM40.8114 72.831C40.7046 72.8332 40.5535 72.8375 40.5535 72.8375C42.3255 71.9655 44.0436 71.0687 46.0659 70.9867C48.8481 70.8745 51.5643 71.9461 53.8544 73.3663C56.4865 74.9991 58.757 77.2157 60.6629 79.6395C62.3 81.7191 63.6953 83.9821 64.8738 86.435C65.7523 88.2626 66.499 90.1879 67.085 92.1909C67.7638 94.5156 68.2171 96.9154 68.3552 99.3959C68.4254 100.67 68.4135 101.939 68.2926 103.22L68.2236 103.852C68.0811 104.985 67.8502 106.099 67.5059 107.187C67.5059 107.187 67.3311 107.732 67.139 108.209C66.3836 110.094 65.2569 111.821 63.5248 113.074C63.1331 113.357 62.7187 113.607 62.287 113.82L60.3488 114.773C60.9521 114.055 61.4561 113.268 61.8759 112.438C61.8759 112.438 62.1877 111.813 62.4079 111.262C62.4079 111.262 62.7176 110.465 62.9119 109.802C63.6522 107.285 63.8324 104.602 63.6813 102.005C63.527 99.3304 63.0122 96.7242 62.2385 94.1927C62.2039 94.0787 62.1683 93.9647 62.1316 93.851C61.1766 90.8295 59.8438 87.9182 58.17 85.2139L58.1333 85.154C55.0749 80.2266 50.9816 75.8441 45.6569 73.7796C44.1137 73.1817 42.4604 72.8191 40.8114 72.831Z" fill="#36464A"/>
<path fill-rule="evenodd" clip-rule="evenodd" d="M46.8636 116.352C55.9309 120.812 63.293 115.121 63.293 103.652C63.293 92.1818 55.9309 79.2486 46.8636 74.7884C37.7953 70.3271 30.4332 76.0187 30.4332 87.488C30.5552 95.4832 36.4129 100.728 30.4332 108.27L46.8636 116.352Z" fill="#7DE2FF"/>
<path fill-rule="evenodd" clip-rule="evenodd" d="M40.887 72.8309C38.1157 72.8439 35.4404 74.0029 33.5184 76.2012C33.4871 76.2368 33.4871 76.2368 33.4558 76.2735C33.3727 76.3717 33.2907 76.4699 33.2109 76.5703C32.3702 77.6214 31.7216 78.816 31.2403 80.0765C31.2403 80.0765 30.8593 81.1233 30.6619 81.8885C30.6619 81.8885 30.569 82.2532 30.5108 82.5133C30.4201 82.9223 30.3414 83.3356 30.2766 83.75C30.2766 83.75 30.1514 84.6203 30.0996 85.1779C30.0996 85.1779 30.0629 85.5941 30.0446 85.887C29.9917 86.7924 29.9766 87.6947 30.051 88.6293C30.0694 88.875 30.0953 89.1202 30.1244 89.3657C30.1298 89.4119 30.1298 89.4119 30.1352 89.4581C30.4449 91.899 31.2457 94.2594 31.9094 96.6353C32.1835 97.6163 32.4285 98.6032 32.5666 99.6306C32.6335 100.128 32.6756 100.636 32.6799 101.144C32.6799 101.144 32.6799 101.494 32.6691 101.736C32.6303 102.527 32.49 103.313 32.258 104.068C32.258 104.068 32.1425 104.434 32.0281 104.725C32.0281 104.725 31.9083 105.038 31.7583 105.354C31.7583 105.354 31.4507 105.992 31.1518 106.484C30.8313 107.011 30.4708 107.517 30.0899 107.999L30.0165 108.136C29.9895 108.341 30.0521 108.524 30.2399 108.662C35.7351 111.365 41.2291 114.068 46.7243 116.771C49.256 118.004 52.1342 118.707 55.0037 118.075C57.0164 117.631 58.865 116.475 60.2075 114.939C60.2388 114.903 60.2388 114.903 60.2701 114.866C60.9057 114.124 61.4442 113.297 61.8845 112.422C61.8845 112.422 62.0615 112.066 62.177 111.807L62.1986 111.759C62.3 111.53 62.3961 111.298 62.4856 111.063C62.4856 111.063 62.7306 110.398 62.8634 109.965C62.9357 109.728 63.0026 109.49 63.0641 109.251C63.0641 109.251 63.2378 108.562 63.3458 107.987C63.3986 107.712 63.4591 107.329 63.4591 107.329C63.5271 106.875 63.5842 106.419 63.6274 105.962C63.6274 105.962 63.6533 105.658 63.6684 105.448C63.786 103.63 63.7213 101.8 63.4968 99.9996C63.2497 98.024 62.8116 96.0681 62.2385 94.1927C62.204 94.0786 62.1684 93.9646 62.1317 93.8509C61.1766 90.8288 59.8417 87.9152 58.17 85.2138L58.1333 85.1539C55.1106 80.2837 51.1446 75.9746 45.8146 73.8421C44.2487 73.2162 42.5695 72.8299 40.887 72.8309ZM40.9788 73.7051C44.7375 73.7396 48.2416 75.6983 51.123 78.1621C53.5555 80.2427 55.6167 82.782 57.2797 85.4374C58.797 87.8627 60.0435 90.4349 61.0126 93.2504C61.7324 95.3453 62.272 97.456 62.5936 99.8388C62.8321 101.603 62.9184 103.409 62.8083 105.199C62.777 105.712 62.7274 106.22 62.6616 106.726L62.5946 107.194C62.4759 107.936 62.3227 108.672 62.1177 109.4L62.1036 109.452C61.9202 110.086 61.7 110.709 61.4388 111.313C61.4388 111.313 61.2953 111.642 61.1475 111.941C61.0741 112.089 61.0698 112.096 61.0385 112.157C60.8993 112.423 60.7503 112.686 60.5917 112.942C60.5917 112.942 60.3057 113.401 60.0241 113.776C58.3449 116.012 55.702 117.45 52.7472 117.434C50.7723 117.424 48.8233 116.829 47.0567 115.959L31.1054 108.113C31.2403 107.93 31.373 107.745 31.5015 107.556C31.5015 107.556 32.1673 106.546 32.5504 105.725C32.8062 105.178 33.0199 104.612 33.1807 104.033C33.1936 103.986 33.185 104.018 33.2141 103.909C33.2799 103.663 33.335 103.414 33.3814 103.164C33.39 103.117 33.3846 103.148 33.404 103.04C33.404 103.04 33.4656 102.665 33.4947 102.385C33.5066 102.277 33.5163 102.169 33.5249 102.061C33.5832 101.272 33.5562 100.489 33.4591 99.7104C33.4591 99.7104 33.4332 99.5014 33.3997 99.2798C33.3717 99.0873 33.3663 99.0642 33.349 98.9659C33.3155 98.7699 33.2638 98.4987 33.2638 98.4987L33.2314 98.3418C33.0555 97.5036 32.8364 96.6769 32.5968 95.8556C32.5968 95.8556 32.354 95.0287 32.1576 94.3663C31.7734 93.066 31.4076 91.7719 31.1669 90.4202C31.1032 90.0649 31.0482 89.7067 31.0029 89.3479C30.9975 89.3052 30.9975 89.3052 30.9932 89.2624C30.9802 89.1605 30.9694 89.0586 30.9586 88.9565C30.9111 88.4965 30.882 88.0342 30.8723 87.5721C30.8723 87.5721 30.8701 87.0586 30.8842 86.6406C30.9101 85.896 30.9683 85.1517 31.0644 84.414L31.1313 83.9454C31.195 83.5471 31.2673 83.15 31.3525 82.7572C31.3525 82.7572 31.4302 82.4108 31.4939 82.1626C31.5457 81.9608 31.6234 81.6877 31.6234 81.6877C31.74 81.282 31.8705 80.8805 32.0205 80.4866C32.0205 80.4866 32.1608 80.1197 32.2871 79.8272C32.2871 79.8272 32.354 79.674 32.409 79.5542C32.4296 79.51 32.4295 79.5099 32.4501 79.4657C32.6551 79.0308 32.8817 78.6056 33.1343 78.1977C33.1343 78.1977 33.4213 77.739 33.7019 77.3645C35.3606 75.1555 38.0251 73.7472 40.7996 73.7061C40.8601 73.7051 40.9194 73.7051 40.9788 73.7051Z" fill="#36464A"/>
<path fill-rule="evenodd" clip-rule="evenodd" d="M48.5114 101.608C47.6761 101.197 46.9995 101.655 46.9995 102.629C46.9995 103.603 47.6761 104.727 48.5114 105.138L55.9706 108.807C56.8048 109.218 57.4826 108.76 57.4826 107.786C57.4826 106.812 56.8048 105.688 55.9706 105.277L48.5114 101.608ZM37.7553 89.8409C36.9211 89.4305 36.2433 89.8881 36.2433 90.8622C36.2433 91.8364 36.9211 92.9605 37.7553 93.371L55.9706 102.331C56.8048 102.742 57.4826 102.284 57.4826 101.31C57.4826 100.336 56.8048 99.2116 55.9706 98.8011L37.7553 89.8409ZM37.7553 83.2257C36.9211 82.8156 36.2433 83.2732 36.2433 84.247C36.2433 85.2212 36.9211 86.3452 37.7553 86.7558L55.9706 95.7159C56.8048 96.1263 57.4826 95.6688 57.4826 94.6946C57.4826 93.7204 56.8048 92.5964 55.9706 92.1858L37.7553 83.2257Z" fill="#36464A"/>
</svg>
