<svg width="150" height="150" viewBox="0 0 150 150" fill="none" xmlns="http://www.w3.org/2000/svg">
<rect width="150" height="150" fill="#7DE2FF"/>
<path fill-rule="evenodd" clip-rule="evenodd" d="M65.8505 19.2414C65.8505 17.7572 66.8382 17.044 68.0551 17.6504L125.238 46.1207C126.455 46.726 127.443 48.4228 127.443 49.9059V99.4555C127.443 100.939 126.455 101.652 125.238 101.046L68.0551 72.5762C66.8382 71.9705 65.8505 70.274 65.8505 68.7909V19.2414Z" fill="#7DE2FF"/>
<path fill-rule="evenodd" clip-rule="evenodd" d="M67.2047 17.0002C66.1923 17.0136 65.4258 18.0561 65.4146 19.2021V19.22C65.3331 35.7561 65.2526 52.2933 65.4146 68.8295C65.4314 70.5085 66.4315 72.2315 67.8271 72.9473C86.7953 82.6739 105.88 92.179 125.077 101.45C125.897 101.846 126.979 101.755 127.522 100.874C127.776 100.463 127.874 99.9702 127.878 99.4941C128.041 82.9525 128.04 66.4084 127.878 49.8667C127.866 48.6283 127.306 47.3988 126.462 46.5109C126.169 46.2027 125.83 45.9335 125.45 45.7399C106.418 36.1522 87.3627 26.6068 68.2171 17.245C67.8997 17.0948 67.5522 16.998 67.2047 17.0002ZM67.2315 17.8681C67.4472 17.8714 67.6561 17.9382 67.8472 18.0316C86.9438 27.4825 106.063 36.8888 125.067 46.5198C126.258 47.1385 126.994 48.5782 127.007 49.8756C127.168 66.4117 127.17 82.9496 127.007 99.4855C127.005 99.6717 126.985 99.8586 126.938 100.038C126.927 100.079 126.915 100.119 126.901 100.159C126.722 100.68 126.083 100.972 125.444 100.663C106.326 91.2583 87.184 81.8969 68.226 72.1756C67.0337 71.5644 66.2996 70.1179 66.2862 68.8206C66.1242 52.2844 66.1242 35.7461 66.2862 19.211C66.2873 19.1343 66.2907 19.0586 66.2985 18.983C66.3041 18.9251 66.3119 18.8684 66.322 18.8127C66.3309 18.7638 66.3398 18.7159 66.3521 18.6692C66.4527 18.282 66.7131 17.8848 67.1969 17.8681C67.2081 17.8681 67.2204 17.8681 67.2315 17.8681Z" fill="#36464A"/>
<path fill-rule="evenodd" clip-rule="evenodd" d="M68.2482 22.5466C68.2482 22.0193 68.6047 21.7689 69.0449 21.9881L124.249 49.4727C124.688 49.6919 125.045 50.2971 125.045 50.8234V96.6298C125.045 97.1565 124.688 97.4067 124.249 97.1879L69.0449 69.7028C68.6047 69.4847 68.2482 68.8794 68.2482 68.352V22.5466Z" fill="#7DE2FF"/>
<path fill-rule="evenodd" clip-rule="evenodd" d="M68.7311 21.4752C68.2272 21.4796 67.8204 21.9547 67.8126 22.5289C67.7076 37.8088 67.7076 53.0899 67.8126 68.3698C67.8227 69.0641 68.2171 69.7607 68.835 70.0833C87.2158 79.3108 105.627 88.4777 124.069 97.5835C124.445 97.7614 124.922 97.73 125.21 97.4133C125.396 97.2086 125.477 96.9263 125.481 96.6467C125.586 81.367 125.586 66.0867 125.481 50.8067C125.471 50.1113 125.069 49.4115 124.459 49.0922C106.078 39.865 87.7268 30.5755 69.225 21.5931C69.0708 21.5186 68.901 21.473 68.7311 21.4752ZM68.7434 22.343C68.778 22.3442 68.8116 22.3575 68.844 22.3731C87.3416 31.3544 105.843 40.3412 124.064 49.8666C124.391 50.0424 124.598 50.4273 124.609 50.8079C124.819 66.0856 124.822 81.3676 124.609 96.6453C124.607 96.7252 124.576 96.8338 124.55 96.8331C124.515 96.8311 124.481 96.8175 124.449 96.8026C106.012 87.6991 87.4502 78.8351 69.2295 69.31C68.8976 69.1309 68.6898 68.7415 68.6842 68.3609C68.5792 53.0843 68.4719 37.8055 68.6842 22.5311C68.6875 22.4332 68.7132 22.3419 68.7434 22.343Z" fill="#36464A"/>
<path fill-rule="evenodd" clip-rule="evenodd" d="M124.33 102.574C125.962 101.761 126.227 100.574 124.922 99.924L67.5467 71.3586C66.2416 70.7088 63.8571 70.8401 62.2246 71.653L18.8606 93.243C17.2292 94.0555 16.9632 95.2428 18.2695 95.8927L75.6434 124.458C76.9493 125.108 79.334 124.976 80.9659 124.164L124.33 102.574Z" fill="#7DE2FF"/>
<path fill-rule="evenodd" clip-rule="evenodd" d="M65.3633 70.512C64.2235 70.5254 63.0748 70.749 62.0502 71.2553C47.562 78.4362 33.0604 85.5915 18.6248 92.8755C17.7577 93.3172 16.8447 94.005 17.0224 95.0549C17.1118 95.5824 17.542 96.0075 18.0392 96.2632C37.073 106.007 56.3034 115.367 75.4668 124.855C77.2356 125.711 79.5042 125.362 81.1398 124.562C95.6282 117.381 110.143 110.252 124.566 102.941C124.691 102.878 124.814 102.809 124.934 102.736C125.631 102.305 126.306 101.66 126.171 100.78C126.089 100.242 125.645 99.8106 125.152 99.5538C106.074 89.8947 86.909 80.4076 67.7243 70.9616C67.0036 70.6088 66.1868 70.5087 65.3633 70.512ZM65.4538 71.3799C66.1008 71.3832 66.7645 71.4589 67.3388 71.7404C86.519 81.1837 105.679 90.6684 124.752 100.325C125.022 100.466 125.318 100.662 125.315 100.984C125.31 101.476 124.82 101.789 124.444 102.016C124.349 102.074 124.252 102.127 124.153 102.177C109.68 109.382 95.2591 116.69 80.7356 123.793C79.4761 124.406 77.9939 124.605 76.6441 124.333C76.3715 124.278 76.1028 124.198 75.8512 124.076C56.6923 114.59 37.4674 105.233 18.4381 95.4918C18.1655 95.3513 17.8727 95.1473 17.8761 94.833C17.8794 94.3323 18.3778 94.0238 18.7466 93.8006C18.8415 93.7431 18.9387 93.69 19.0382 93.64C33.485 86.3833 47.9576 79.178 62.4558 72.0238C63.3832 71.5735 64.4336 71.3777 65.4538 71.3799Z" fill="#36464A"/>
<path fill-rule="evenodd" clip-rule="evenodd" d="M17.4404 94.8356C17.4404 95.2385 17.7108 95.6146 18.2695 95.8924L75.6434 124.458C76.9493 125.108 79.334 124.976 80.9659 124.163L124.33 102.573C125.264 102.108 125.751 101.52 125.751 100.981H125.751V103.666H125.75C125.727 104.195 125.242 104.765 124.33 105.219L80.9659 126.809C79.334 127.622 76.9493 127.753 75.6434 127.104L18.2695 98.5382C17.7108 98.2604 17.4404 97.8843 17.4404 97.4813V94.8356Z" fill="#7DE2FF"/>
<path fill-rule="evenodd" clip-rule="evenodd" d="M125.443 100.673C125.335 100.833 125.356 100.814 125.305 101.078C125.211 101.566 124.687 101.908 124.156 102.175C109.705 109.426 95.26 116.689 80.7356 123.793C79.476 124.406 77.9938 124.605 76.644 124.333C76.3715 124.278 76.1027 124.198 75.8511 124.076C56.6933 114.591 37.4774 105.22 18.4414 95.4931C18.3978 95.4709 18.3543 95.447 18.3129 95.4212C18.2805 95.4013 18.2481 95.3805 18.2179 95.3584C18.1922 95.3405 18.1677 95.3217 18.1431 95.302C18.1252 95.2873 18.1084 95.272 18.0917 95.2564C17.9721 95.1461 17.8771 94.9969 17.876 94.8319L17.8414 94.6665C17.6749 94.422 17.333 94.3271 17.1307 94.5296C17.0212 94.6395 17.0324 94.6925 17.0044 94.8358C17.0044 95.7221 16.9966 96.6084 17.0044 97.4948C17.0056 97.5883 17.0156 97.6817 17.0369 97.7729C17.0525 97.842 17.0737 97.9099 17.1005 97.9757C17.2715 98.3998 17.6559 98.7156 18.0593 98.9192C37.1701 108.496 56.2676 118.101 75.4667 127.501C77.225 128.362 79.5041 128.008 81.1397 127.208C95.6297 120.026 110.141 112.885 124.571 105.584C125.337 105.192 126.083 104.621 126.178 103.777C126.184 103.723 126.186 103.666 126.186 103.666V100.981L126.153 100.815L126.059 100.674L125.917 100.58L125.751 100.547L125.584 100.58C125.537 100.611 125.49 100.642 125.443 100.673ZM17.8849 96.1776C17.9419 96.2113 18 96.2428 18.0582 96.273C37.169 105.85 56.31 115.37 75.4667 124.855C77.2355 125.711 79.5041 125.362 81.1397 124.562C95.6221 117.384 110.101 110.199 124.548 102.95C124.817 102.815 125.076 102.658 125.313 102.472L125.315 103.642C125.277 103.787 125.202 104.007 125.057 104.172C124.812 104.449 124.489 104.652 124.155 104.821C109.682 112.027 95.2598 119.335 80.7356 126.438C79.3462 127.115 77.6605 127.33 76.224 126.87C76.0966 126.829 75.9718 126.781 75.8511 126.722C56.652 117.321 37.5277 107.766 18.4414 98.1389C18.4012 98.118 18.361 98.0959 18.3219 98.0724C18.2895 98.0528 18.257 98.0323 18.2269 98.0105C18.2034 97.994 18.1799 97.977 18.1576 97.9592C18.0101 97.8411 17.8771 97.6756 17.876 97.4795V96.1724C17.8783 96.1742 17.8816 96.1758 17.8849 96.1776Z" fill="#36464A"/>
<path fill-rule="evenodd" clip-rule="evenodd" d="M115.594 107.963C115.594 107.861 115.661 107.745 115.742 107.704L117.354 106.896C117.436 106.855 117.502 106.905 117.502 107.007L117.502 107.376C117.502 107.479 117.435 107.595 117.354 107.636L115.742 108.443C115.66 108.484 115.594 108.435 115.594 108.333L115.594 107.963Z" fill="#36464A"/>
<path fill-rule="evenodd" clip-rule="evenodd" d="M119.363 106.087C119.363 105.985 119.429 105.869 119.511 105.828L121.122 105.02C121.204 104.979 121.271 105.028 121.271 105.131L121.27 105.5C121.27 105.602 121.204 105.718 121.122 105.759L119.511 106.567C119.429 106.608 119.363 106.559 119.363 106.457L119.363 106.087Z" fill="#36464A"/>
<path fill-rule="evenodd" clip-rule="evenodd" d="M57.5605 92.5465C56.68 92.1081 55.3927 92.039 54.6877 92.3923L36.9009 101.307C36.1958 101.66 36.3389 102.303 37.2194 102.741L61.9485 115.054C62.829 115.492 64.1162 115.561 64.8213 115.208L82.6087 106.293C83.3136 105.94 83.171 105.297 82.2904 104.859L57.5605 92.5465Z" fill="#7DE2FF"/>
<path fill-rule="evenodd" clip-rule="evenodd" d="M55.8139 91.7327C55.3681 91.7359 54.9167 91.8013 54.5144 91.9937C48.5509 94.9169 42.6409 97.9445 36.7042 100.92C36.226 101.163 35.8717 101.681 36.0852 102.233C36.2427 102.644 36.6226 102.923 37.0003 103.117C45.2389 107.27 53.511 111.355 61.7775 115.453C62.772 115.935 64.0168 116.054 64.9531 115.627C64.961 115.623 64.9867 115.61 64.9956 115.606C70.9457 112.659 76.869 109.656 82.8057 106.68C83.3043 106.427 83.673 105.877 83.3901 105.286C83.2142 104.92 82.8669 104.667 82.5094 104.483C74.2711 100.33 66.0046 96.2317 57.7314 92.1466C57.1403 91.8603 56.4743 91.7303 55.8139 91.7327ZM55.862 92.6007C56.3738 92.6042 56.8878 92.7035 57.3481 92.9258C65.6158 97.0086 73.8778 101.105 82.1125 105.255C82.4604 105.434 82.8461 105.677 82.424 105.9C76.5044 108.908 70.5647 111.878 64.6146 114.826C63.886 115.17 62.9508 115.047 62.1786 114.683C53.8719 110.665 45.6367 106.498 37.397 102.345C37.1813 102.234 36.9299 102.091 36.8908 101.895C36.8752 101.822 36.9891 101.751 37.0852 101.7C43.0052 98.6917 48.9319 95.6974 54.8954 92.7743C55.1915 92.6326 55.5346 92.5994 55.862 92.6007Z" fill="#36464A"/>
<path fill-rule="evenodd" clip-rule="evenodd" d="M69.7636 72.4626L122.685 98.8103C121.75 99.2765 121.074 99.6121 120.855 99.7217C120.419 99.9406 119.904 99.9414 119.468 99.7239C113.613 96.8093 72.6029 76.3914 67.7121 73.9561C67.6216 73.9112 67.5646 73.8194 67.5646 73.7189C67.5646 73.6185 67.6216 73.5267 67.7121 73.4817L69.7636 72.4626Z" fill="#36464A"/>
<path fill-rule="evenodd" clip-rule="evenodd" d="M56.4486 89.3764L54.5356 88.4238C54.4686 88.3904 54.4339 88.3441 54.4384 88.2952C54.444 88.2462 54.4876 88.1986 54.5624 88.1628C55.0753 87.9141 56.1637 87.3871 56.6766 87.1385C56.7514 87.1025 56.8486 87.0814 56.9481 87.0796C57.0487 87.0779 57.1425 87.0956 57.2095 87.129C57.6733 87.3602 58.6577 87.8505 59.1225 88.0817C59.1896 88.115 59.2242 88.1613 59.2198 88.2103C59.2142 88.2592 59.1695 88.3069 59.0957 88.3427C58.5828 88.5914 57.4945 89.1183 56.9805 89.367C56.9067 89.4029 56.8095 89.4241 56.709 89.4258C56.6095 89.4275 56.5157 89.4098 56.4486 89.3764ZM52.8204 87.5701L50.9074 86.6174C50.8404 86.584 50.8057 86.5378 50.8102 86.4888C50.8158 86.4398 50.8594 86.3922 50.9342 86.3564C51.4471 86.1077 52.5355 85.5808 53.0484 85.3321C53.1232 85.2963 53.2204 85.275 53.3199 85.2733C53.4205 85.2716 53.5132 85.2892 53.5814 85.3226C54.0451 85.5538 55.0295 86.0441 55.4943 86.2753C55.5614 86.3087 55.596 86.3549 55.5916 86.4039C55.586 86.4529 55.5413 86.5005 55.4675 86.5363C54.9546 86.785 53.8663 87.3119 53.3523 87.5606C53.2786 87.5965 53.1813 87.6177 53.0808 87.6195C52.9813 87.6211 52.8875 87.6034 52.8204 87.5701ZM49.1922 85.7637L47.2792 84.811C47.2122 84.7777 47.1776 84.7314 47.182 84.6824C47.1876 84.6335 47.2312 84.5858 47.3061 84.55C47.8189 84.3013 48.9073 83.7744 49.4213 83.5257C49.495 83.4899 49.5922 83.4686 49.6917 83.467C49.7923 83.4652 49.885 83.4829 49.952 83.5162C50.4169 83.7475 51.4013 84.2377 51.8662 84.4689C51.9332 84.5023 51.9678 84.5486 51.9634 84.5975C51.9578 84.6465 51.9131 84.6941 51.8393 84.7299C51.3265 84.9786 50.2381 85.5055 49.7241 85.7542C49.6504 85.7902 49.5531 85.8113 49.4526 85.8131C49.3531 85.8147 49.2593 85.7971 49.1922 85.7637ZM89.3307 103.396C89.4048 103.36 89.4493 103.312 89.4542 103.263C89.4592 103.214 89.4244 103.168 89.3573 103.135C88.8928 102.904 87.9084 102.413 87.4439 102.182C87.3768 102.149 87.2832 102.131 87.1834 102.133C87.0836 102.135 86.986 102.156 86.912 102.192C86.3986 102.44 85.3103 102.967 84.7969 103.216C84.7228 103.252 84.6784 103.299 84.6734 103.348C84.6685 103.397 84.7032 103.444 84.7703 103.477C85.2348 103.708 86.2193 104.198 86.6838 104.43C86.7508 104.463 86.8445 104.481 86.9442 104.479C87.044 104.477 87.1416 104.456 87.2157 104.42C87.7292 104.172 88.8173 103.644 89.3307 103.396ZM100.215 108.815C100.289 108.779 100.334 108.731 100.339 108.683C100.344 108.634 100.309 108.587 100.242 108.554C99.7774 108.323 98.793 107.833 98.3285 107.601C98.2614 107.568 98.1678 107.55 98.068 107.552C97.9682 107.554 97.8705 107.575 97.7966 107.611C97.2831 107.859 96.1949 108.386 95.6815 108.635C95.6074 108.671 95.563 108.719 95.558 108.768C95.553 108.816 95.5878 108.863 95.6549 108.896C96.1194 109.127 97.1039 109.617 97.5684 109.849C97.6353 109.882 97.7291 109.9 97.8288 109.898C97.9285 109.896 98.0262 109.875 98.1003 109.839C98.6136 109.591 99.7019 109.064 100.215 108.815ZM80.865 99.181C81.0192 99.1063 81.0311 98.9894 80.8916 98.9199C79.0357 97.996 67.531 92.2679 65.675 91.3438C65.5353 91.2744 65.2973 91.2786 65.1431 91.3533C64.6291 91.602 63.5407 92.129 63.0278 92.3776C62.8736 92.4523 62.8614 92.5692 63.001 92.6386C64.857 93.5627 76.3621 99.2908 78.218 100.215C78.3575 100.284 78.5957 100.28 78.75 100.205C79.2633 99.9566 80.3515 99.4296 80.865 99.181ZM96.5871 107.009C96.6612 106.973 96.7055 106.925 96.7106 106.876C96.7156 106.827 96.6807 106.781 96.6137 106.748C96.1492 106.516 95.1648 106.026 94.7003 105.795C94.6332 105.762 94.5396 105.744 94.4398 105.746C94.34 105.747 94.2424 105.768 94.1684 105.804C93.6549 106.053 92.5667 106.58 92.0533 106.829C91.9792 106.865 91.9348 106.912 91.9298 106.961C91.9248 107.01 91.9596 107.056 92.0267 107.09C92.4912 107.321 93.4757 107.811 93.9402 108.042C94.0071 108.076 94.1009 108.093 94.2006 108.092C94.3003 108.09 94.398 108.069 94.4721 108.033C94.9855 107.784 96.0737 107.257 96.5871 107.009ZM92.9589 105.202C93.033 105.166 93.0775 105.119 93.0824 105.07C93.0874 105.021 93.0526 104.975 92.9855 104.941C92.521 104.71 91.5366 104.22 91.0721 103.988C91.005 103.955 90.9114 103.937 90.8116 103.939C90.7118 103.941 90.6142 103.962 90.5402 103.998C90.0268 104.247 88.9385 104.774 88.4251 105.022C88.351 105.058 88.3066 105.106 88.3016 105.155C88.2967 105.204 88.3314 105.25 88.3985 105.283C88.863 105.515 89.8475 106.005 90.312 106.236C90.3789 106.269 90.4727 106.287 90.5724 106.285C90.6722 106.284 90.7698 106.262 90.8439 106.227C91.3573 105.978 92.4455 105.451 92.9589 105.202ZM85.7025 101.59C85.8568 101.515 85.8687 101.398 85.7291 101.328C85.0643 100.997 83.2712 100.105 82.6062 99.7737C82.4668 99.7041 82.2286 99.7084 82.0743 99.7831C81.561 100.032 80.4728 100.559 79.9593 100.807C79.8051 100.882 79.7932 100.999 79.9327 101.068C80.5976 101.399 82.3907 102.292 83.0556 102.623C83.1951 102.693 83.4333 102.688 83.5875 102.614C84.101 102.365 85.1892 101.838 85.7025 101.59ZM63.9329 90.7512C64.0871 90.6766 64.0994 90.5596 63.9598 90.4902C63.2949 90.1592 61.5015 89.2664 60.8366 88.9354C60.6981 88.8658 60.4589 88.8702 60.3047 88.9449C59.7919 89.1935 58.7035 89.7205 58.1906 89.9691C58.0364 90.0438 58.0241 90.1606 58.1638 90.2302C58.8287 90.5612 60.621 91.4539 61.2869 91.785C61.4255 91.8544 61.6646 91.8502 61.8188 91.7755C62.3317 91.5269 63.4201 90.9999 63.9329 90.7512ZM68.5489 89.1101C68.6227 89.0742 68.7199 89.0531 68.8204 89.0513C68.9199 89.0495 69.0137 89.0672 69.0808 89.1006C69.5445 89.3319 70.5289 89.8221 70.9938 90.0534C71.0608 90.0866 71.0955 90.1329 71.091 90.1819C71.0854 90.2308 71.0418 90.2785 70.967 90.3144C70.4541 90.563 69.3657 91.09 68.8517 91.3387C68.778 91.3745 68.6808 91.3957 68.5802 91.3975C68.4808 91.3992 68.3869 91.3814 68.3198 91.3482C67.8561 91.1168 66.8717 90.6267 66.4069 90.3954C66.3398 90.362 66.3052 90.3158 66.3096 90.2669C66.3152 90.2179 66.3588 90.1703 66.4337 90.1344C66.9466 89.8858 68.0349 89.3587 68.5489 89.1101ZM90.3528 99.9659C90.4269 99.93 90.5245 99.9089 90.6242 99.9071C90.724 99.9053 90.8176 99.9231 90.8847 99.9565C91.3427 100.184 92.305 100.664 92.763 100.892C92.83 100.925 92.8648 100.971 92.8599 101.02C92.8549 101.069 92.8104 101.117 92.7364 101.153C92.223 101.401 91.1348 101.928 90.6213 102.177C90.5472 102.213 90.4497 102.234 90.3499 102.236C90.2501 102.238 90.1565 102.22 90.0894 102.186C89.6314 101.958 88.6691 101.479 88.2111 101.251C88.1442 101.218 88.1093 101.172 88.1143 101.123C88.1192 101.074 88.1637 101.026 88.2378 100.99C88.7511 100.742 89.8394 100.214 90.3528 99.9659ZM75.8053 92.7228C75.879 92.687 75.9762 92.6659 76.0764 92.6641C76.176 92.6623 76.2698 92.68 76.3367 92.7134C76.8012 92.9447 77.7858 93.4348 78.2503 93.6661C78.3173 93.6994 78.3521 93.7457 78.3471 93.7946C78.3421 93.8436 78.2978 93.8912 78.2237 93.9272C77.7102 94.1757 76.622 94.7028 76.1086 94.9515C76.0344 94.9873 75.9371 95.0084 75.8366 95.0102C75.7371 95.012 75.6433 94.9942 75.5762 94.9609C75.1125 94.7296 74.1281 94.2395 73.6632 94.0082C73.5962 93.9748 73.5616 93.9286 73.566 93.8797C73.5716 93.8307 73.6152 93.7831 73.6901 93.7471C74.2029 93.4986 75.2913 92.9715 75.8053 92.7228ZM64.9207 87.3037C64.9945 87.2679 65.0917 87.2467 65.1922 87.2449C65.2917 87.2432 65.3856 87.2609 65.4526 87.2942C65.9163 87.5256 66.9007 88.0157 67.3656 88.247C67.4326 88.2803 67.4673 88.3265 67.4628 88.3755C67.4572 88.4245 67.4136 88.4721 67.3388 88.508C66.8259 88.7566 65.7375 89.2836 65.2235 89.5323C65.1498 89.5682 65.0526 89.5893 64.9531 89.5911C64.8526 89.5928 64.7587 89.575 64.6917 89.5418C64.2279 89.3105 63.2435 88.8203 62.7787 88.589C62.7116 88.5556 62.677 88.5095 62.6814 88.4605C62.687 88.4116 62.7306 88.3639 62.8055 88.328C63.3184 88.0794 64.4067 87.5524 64.9207 87.3037ZM79.433 94.5292C79.5071 94.4934 79.6048 94.4722 79.7046 94.4705C79.8042 94.4687 79.898 94.4864 79.9649 94.5198C80.4294 94.7511 81.414 95.2412 81.8785 95.4725C81.9455 95.5058 81.9803 95.5521 81.9753 95.601C81.9703 95.65 81.9259 95.6976 81.8519 95.7335C81.3384 95.9821 80.2502 96.5092 79.7367 96.7578C79.6627 96.7937 79.5651 96.8148 79.4653 96.8166C79.3655 96.8184 79.2719 96.8006 79.2049 96.7673C78.7404 96.536 77.7558 96.0459 77.2914 95.8145C77.2244 95.7812 77.1895 95.735 77.1945 95.686C77.1995 95.6371 77.2439 95.5895 77.318 95.5535C77.8314 95.3048 78.9196 94.7779 79.433 94.5292ZM61.2925 85.4973C61.3663 85.4615 61.4635 85.4403 61.5641 85.4386C61.6635 85.4368 61.7574 85.4545 61.8244 85.4879C62.2881 85.7192 63.2726 86.2093 63.7374 86.4406C63.8044 86.4739 63.8391 86.5202 63.8346 86.5691C63.829 86.6181 63.7854 86.6657 63.7106 86.7016C63.1977 86.9502 62.1093 87.4773 61.5953 87.7259C61.5216 87.7618 61.4244 87.7829 61.3238 87.7847C61.2244 87.7865 61.1305 87.7687 61.0635 87.7354C60.5997 87.5041 59.6153 87.014 59.1505 86.7826C59.0834 86.7493 59.0488 86.7031 59.0533 86.6541C59.0588 86.6052 59.1035 86.5576 59.1773 86.5216C59.6902 86.2731 60.7785 85.746 61.2925 85.4973ZM83.0612 96.3356C83.1353 96.2998 83.233 96.2786 83.3326 96.2768C83.4324 96.2751 83.5262 96.2928 83.5931 96.3261C84.0576 96.5575 85.0421 97.0476 85.5066 97.2789C85.5737 97.3122 85.6084 97.3584 85.6035 97.4074C85.5985 97.4564 85.5541 97.504 85.4801 97.5399C84.9666 97.7885 83.8784 98.3155 83.3649 98.5642C83.2908 98.6 83.1933 98.6212 83.0935 98.623C82.9937 98.6248 82.9001 98.6069 82.8331 98.5736C82.3686 98.3424 81.384 97.8522 80.9195 97.6209C80.8526 97.5875 80.8177 97.5414 80.8227 97.4924C80.8277 97.4435 80.8721 97.3958 80.9462 97.3599C81.4595 97.1112 82.5478 96.5843 83.0612 96.3356ZM72.1771 90.9164C72.2508 90.8806 72.3481 90.8595 72.4486 90.8577C72.5481 90.8559 72.6419 90.8736 72.709 90.907C73.1727 91.1383 74.1571 91.6284 74.622 91.8598C74.689 91.893 74.7236 91.9393 74.7192 91.9883C74.7136 92.0372 74.67 92.0848 74.5951 92.1208C74.0823 92.3693 72.9939 92.8964 72.4799 93.1451C72.4062 93.1809 72.309 93.202 72.2084 93.2038C72.1089 93.2056 72.0151 93.1878 71.948 93.1545C71.4843 92.9232 70.4999 92.4331 70.0351 92.2018C69.968 92.1684 69.9334 92.1222 69.9378 92.0733C69.9434 92.0243 69.987 91.9767 70.0619 91.9408C70.5747 91.6922 71.6631 91.1651 72.1771 90.9164ZM86.6894 98.142C86.7635 98.1061 86.8612 98.085 86.9608 98.0832C87.0606 98.0814 87.1544 98.0991 87.2213 98.1325C87.6858 98.3638 88.6703 98.854 89.1348 99.0853C89.2019 99.1185 89.2366 99.1648 89.2317 99.2138C89.2267 99.2627 89.1823 99.3104 89.1082 99.3462C88.5948 99.5949 87.5066 100.122 86.9931 100.37C86.919 100.406 86.8215 100.428 86.7217 100.429C86.6219 100.431 86.5283 100.413 86.4612 100.38C85.9967 100.149 85.0122 99.6586 84.5477 99.4273C84.4808 99.3939 84.4459 99.3477 84.4509 99.2988C84.4559 99.2498 84.5003 99.2022 84.5744 99.1663C85.0877 98.9176 86.176 98.3906 86.6894 98.142ZM104.226 106.873C104.3 106.837 104.344 106.789 104.349 106.74C104.354 106.691 104.319 106.645 104.252 106.612C103.199 106.087 99.1596 104.076 98.1059 103.552C98.0388 103.518 97.9452 103.501 97.8454 103.502C97.7457 103.504 97.6481 103.525 97.574 103.561C97.0605 103.81 95.9723 104.337 95.4589 104.585C95.3849 104.621 95.3404 104.669 95.3355 104.718C95.3305 104.767 95.3653 104.813 95.4323 104.846C96.4861 105.371 100.525 107.382 101.579 107.907C101.646 107.94 101.739 107.958 101.839 107.956C101.939 107.954 102.037 107.933 102.111 107.897C102.624 107.649 103.712 107.121 104.226 106.873ZM60.0824 84.8953C60.1573 84.8593 60.2008 84.8117 60.2064 84.7627C60.2109 84.7138 60.1762 84.6676 60.1092 84.6342C59.0555 84.1096 55.0172 82.0987 53.9635 81.5741C53.8965 81.5407 53.8026 81.5229 53.702 81.5247C53.6026 81.5265 53.5054 81.5476 53.4305 81.5835C52.9176 81.8321 51.8293 82.3592 51.3164 82.6078C51.2415 82.6437 51.198 82.6913 51.1924 82.7403C51.1879 82.7892 51.2225 82.8355 51.2896 82.8688C52.3433 83.3935 56.3816 85.4043 57.4353 85.929C57.5023 85.9623 57.5962 85.9801 57.6956 85.9783C57.7962 85.9765 57.8934 85.9554 57.9672 85.9196C58.4812 85.6709 59.5695 85.1438 60.0824 84.8953ZM93.7176 103.993L91.8041 103.04C91.7371 103.007 91.7023 102.961 91.7073 102.912C91.7122 102.863 91.7567 102.815 91.8308 102.779C92.3441 102.53 93.4324 102.003 93.9458 101.755C94.0199 101.719 94.1175 101.698 94.2172 101.696C94.317 101.694 94.4106 101.712 94.4777 101.745C94.9422 101.977 95.9267 102.467 96.3912 102.698C96.4582 102.731 96.493 102.778 96.4881 102.827C96.4831 102.875 96.4386 102.923 96.3646 102.959C95.8512 103.208 94.763 103.735 94.2495 103.983C94.1754 104.019 94.0778 104.04 93.9781 104.042C93.8783 104.044 93.7847 104.026 93.7176 103.993ZM70.7446 86.2647C70.8183 86.2289 70.9167 86.2077 71.0161 86.206C71.1156 86.2042 71.2094 86.222 71.2765 86.2552C71.7413 86.4866 72.7257 86.9767 73.1906 87.208C73.2576 87.2414 73.2923 87.2876 73.2867 87.3365C73.2822 87.3855 73.2375 87.4331 73.1638 87.469C72.6498 87.7176 71.5614 88.2447 71.0485 88.4933C70.9748 88.5292 70.8764 88.5503 70.777 88.5521C70.6775 88.5539 70.5837 88.5362 70.5166 88.5028C70.0518 88.2715 69.0674 87.7814 68.6025 87.55C68.5355 87.5168 68.5009 87.4705 68.5064 87.4215C68.5109 87.3726 68.5556 87.3249 68.6294 87.289C69.1434 87.0404 70.2317 86.5134 70.7446 86.2647ZM67.1164 84.4583C67.1902 84.4225 67.2885 84.4014 67.3879 84.3996C67.4874 84.3978 67.5812 84.4156 67.6483 84.4489C68.1131 84.6802 69.0975 85.1703 69.5624 85.4016C69.6294 85.435 69.6641 85.4812 69.6585 85.5301C69.654 85.5791 69.6093 85.6267 69.5356 85.6627C69.0216 85.9112 67.9332 86.4383 67.4203 86.687C67.3466 86.7228 67.2483 86.7439 67.1488 86.7457C67.0494 86.7475 66.9555 86.7298 66.8885 86.6964C66.4236 86.4651 65.4392 85.975 64.9755 85.7436C64.9084 85.7104 64.8727 85.6641 64.8783 85.6151C64.8827 85.5662 64.9274 85.5186 65.0012 85.4826C65.5152 85.2341 66.6035 84.707 67.1164 84.4583ZM88.6575 97.5347L86.7441 96.5819C86.677 96.5486 86.6422 96.5024 86.6472 96.4534C86.6521 96.4045 86.6966 96.3568 86.7707 96.3209C87.284 96.0723 88.3722 95.5453 88.8857 95.2966C88.9597 95.2608 89.0574 95.2396 89.1572 95.2379C89.2569 95.2361 89.3506 95.2538 89.4175 95.2871C89.882 95.5185 90.8666 96.0086 91.3311 96.2399C91.3981 96.2733 91.4329 96.3195 91.428 96.3684C91.4229 96.4174 91.3786 96.465 91.3045 96.5009C90.791 96.7495 89.7028 97.2766 89.1894 97.5252C89.1154 97.5611 89.0177 97.5822 88.918 97.584C88.8182 97.5858 88.7245 97.568 88.6575 97.5347ZM81.4011 93.9219L79.4877 92.9692C79.4206 92.9358 79.3858 92.8896 79.3908 92.8407C79.3957 92.7917 79.4402 92.7441 79.5143 92.7081C80.0277 92.4596 81.1158 91.9325 81.6293 91.6838C81.7034 91.648 81.801 91.6269 81.9008 91.6251C82.0005 91.6233 82.0942 91.6411 82.1612 91.6744C82.6257 91.9057 83.6102 92.3958 84.0747 92.6271C84.1418 92.6605 84.1765 92.7067 84.1716 92.7557C84.1666 92.8046 84.1222 92.8522 84.0481 92.8882C83.5347 93.1367 82.4464 93.6638 81.933 93.9125C81.859 93.9483 81.7614 93.9694 81.6616 93.9712C81.5618 93.973 81.4682 93.9552 81.4011 93.9219ZM74.1448 90.3092L72.2307 89.3564C72.1637 89.323 72.129 89.2769 72.1346 89.2279C72.1391 89.1789 72.1838 89.1313 72.2575 89.0954C72.7716 88.8468 73.8599 88.3198 74.3728 88.0711C74.4465 88.0353 74.5449 88.0141 74.6443 88.0123C74.7438 88.0106 74.8376 88.0284 74.9047 88.0616C75.3695 88.2929 76.3538 88.7831 76.8183 89.0144C76.8854 89.0478 76.9202 89.0939 76.9152 89.1429C76.9102 89.1919 76.8658 89.2395 76.7917 89.2754C76.2783 89.524 75.1896 90.051 74.6767 90.2997C74.603 90.3355 74.5046 90.3567 74.4052 90.3585C74.3057 90.3602 74.2119 90.3425 74.1448 90.3092ZM63.2603 84.89L61.3473 83.9373C61.2791 83.904 61.2445 83.8577 61.2501 83.8088C61.2545 83.7598 61.2992 83.7122 61.373 83.6762C61.887 83.4277 62.9753 82.9006 63.4882 82.6519C63.562 82.6161 63.6603 82.595 63.7597 82.5932C63.8592 82.5914 63.953 82.6092 64.0201 82.6425C64.4849 82.8738 65.4694 83.3639 65.9342 83.5952C66.0012 83.6286 66.0359 83.6748 66.0303 83.7238C66.0258 83.7727 65.9811 83.8203 65.9074 83.8563C65.3934 84.1048 64.305 84.6319 63.7921 84.8806C63.7184 84.9164 63.6201 84.9375 63.5206 84.9393C63.4212 84.9411 63.3273 84.9234 63.2603 84.89ZM99.5421 102.954L97.6285 102.001C97.5616 101.968 97.5267 101.922 97.5318 101.873C97.5367 101.824 97.5811 101.776 97.6552 101.74C98.1686 101.491 99.2568 100.964 99.7702 100.716C99.8443 100.68 99.942 100.659 100.042 100.657C100.141 100.655 100.235 100.673 100.302 100.706C100.767 100.938 101.751 101.428 102.216 101.659C102.283 101.692 102.317 101.739 102.313 101.788C102.308 101.837 102.263 101.884 102.189 101.92C101.676 102.169 100.587 102.696 100.074 102.944C99.9999 102.98 99.9023 103.001 99.8025 103.003C99.7027 103.005 99.6091 102.987 99.5421 102.954ZM77.7729 92.1156L75.8589 91.1628C75.7919 91.1294 75.7572 91.0832 75.7628 91.0343C75.7673 90.9853 75.812 90.9377 75.8857 90.9018C76.3995 90.6532 77.4876 90.1261 78.0011 89.8775C78.0752 89.8416 78.1728 89.8205 78.2726 89.8187C78.3723 89.8169 78.466 89.8347 78.533 89.868C78.9975 90.0993 79.982 90.5894 80.4465 90.8208C80.5136 90.8541 80.5483 90.9003 80.5434 90.9493C80.5384 90.9982 80.494 91.0459 80.4199 91.0818C79.9065 91.3304 78.8182 91.8574 78.3048 92.1061C78.2308 92.1419 78.1332 92.1631 78.0334 92.1648C77.9336 92.1666 77.84 92.1489 77.7729 92.1156ZM85.2575 93.4902C85.3316 93.4544 85.4292 93.4333 85.529 93.4315C85.6287 93.4297 85.7224 93.4475 85.7893 93.4808C86.2539 93.7121 87.2384 94.2022 87.7029 94.4335C87.7699 94.4669 87.8047 94.5131 87.7998 94.562C87.7948 94.611 87.7504 94.6586 87.6763 94.6946C87.1629 94.9431 86.0746 95.4702 85.5612 95.7189C85.4872 95.7547 85.3895 95.7758 85.2898 95.7776C85.19 95.7794 85.0963 95.7616 85.0293 95.7283C84.5648 95.497 83.5804 95.0069 83.1159 94.7756C83.0488 94.7422 83.014 94.696 83.019 94.647C83.0239 94.5981 83.0684 94.5505 83.1425 94.5145C83.6559 94.266 84.744 93.7389 85.2575 93.4902ZM92.549 97.1206C92.6231 97.0846 92.7208 97.0635 92.8206 97.0617C92.9202 97.06 93.014 97.0777 93.0809 97.1111C93.539 97.3391 94.5013 97.8182 94.9593 98.0463C95.0263 98.0796 95.0611 98.1258 95.0562 98.1748C95.0511 98.2237 95.0068 98.2714 94.9327 98.3073C94.4192 98.5559 93.331 99.0829 92.8176 99.3316C92.7435 99.3674 92.6459 99.3886 92.5461 99.3904C92.4464 99.3921 92.3527 99.3743 92.2857 99.3411C91.8277 99.113 90.8654 98.6339 90.4074 98.4059C90.3404 98.3725 90.3055 98.3262 90.3106 98.2773C90.3155 98.2283 90.36 98.1807 90.434 98.1449C90.9474 97.8962 92.0356 97.3692 92.549 97.1206ZM108.236 104.931C108.31 104.895 108.355 104.847 108.359 104.798C108.364 104.749 108.33 104.703 108.263 104.67C107.428 104.254 104.765 102.928 103.93 102.513C103.863 102.479 103.77 102.462 103.67 102.463C103.57 102.465 103.473 102.486 103.398 102.522C102.885 102.771 101.797 103.298 101.283 103.546C101.209 103.582 101.165 103.63 101.16 103.679C101.155 103.728 101.19 103.774 101.257 103.807C102.091 104.223 104.755 105.549 105.589 105.964C105.656 105.998 105.75 106.015 105.849 106.014C105.949 106.012 106.047 105.991 106.121 105.955C106.634 105.706 107.723 105.179 108.236 104.931ZM62.2792 82.0499C62.3529 82.014 62.3976 81.9663 62.4021 81.9174C62.4077 81.8684 62.3731 81.8222 62.306 81.7889C61.4713 81.3733 58.8074 80.0475 57.9727 79.6319C57.9057 79.5985 57.8129 79.5808 57.7124 79.5826C57.6129 79.5844 57.5157 79.6055 57.4409 79.6414C56.928 79.89 55.8396 80.417 55.3267 80.6656C55.2519 80.7015 55.2083 80.7492 55.2027 80.7982C55.1982 80.8471 55.2329 80.8933 55.2999 80.9267C56.1346 81.3422 58.7974 82.6681 59.6321 83.0837C59.6991 83.117 59.793 83.1347 59.8924 83.1329C59.9919 83.1312 60.0902 83.11 60.164 83.0742C60.6768 82.8255 61.7652 82.2985 62.2792 82.0499ZM95.9139 101.147L94.0003 100.195C93.9334 100.161 93.8985 100.115 93.9036 100.066C93.9085 100.017 93.953 99.9696 94.027 99.9337C94.5404 99.6851 95.6286 99.158 96.142 98.9094C96.2161 98.8735 96.3138 98.8524 96.4135 98.8506C96.5132 98.8488 96.607 98.8665 96.6739 98.8999C97.1384 99.1312 98.123 99.6213 98.5875 99.8527C98.6545 99.8859 98.6893 99.9322 98.6844 99.9812C98.6793 100.03 98.635 100.078 98.5609 100.114C98.0474 100.362 96.9592 100.889 96.4458 101.138C96.3717 101.174 96.2741 101.195 96.1743 101.197C96.0746 101.199 95.9809 101.181 95.9139 101.147ZM65.0794 79.5056C65.1543 79.4697 65.2515 79.4485 65.3509 79.4467C65.4515 79.445 65.5453 79.4628 65.6124 79.4961C66.0761 79.7274 67.0605 80.2176 67.5254 80.4488C67.5924 80.4822 67.6271 80.5285 67.6226 80.5773C67.617 80.6263 67.5723 80.674 67.4986 80.7098C66.9857 80.9585 65.8973 81.4854 65.3833 81.7341C65.3096 81.77 65.2124 81.7911 65.1118 81.7929C65.0123 81.7947 64.9185 81.777 64.8514 81.7436C64.3877 81.5124 63.4022 81.0221 62.9385 80.7909C62.8714 80.7576 62.8368 80.7113 62.8412 80.6623C62.8468 80.6134 62.8904 80.5657 62.9653 80.5299C63.4782 80.2812 64.5665 79.7542 65.0794 79.5056ZM90.5125 92.1677C90.5865 92.1319 90.6841 92.1108 90.7839 92.109C90.8837 92.1072 90.9773 92.1249 91.0444 92.1583C91.5024 92.3864 92.4647 92.8655 92.9226 93.0935C92.9896 93.1268 93.0245 93.173 93.0195 93.222C93.0145 93.2709 92.9701 93.3187 92.896 93.3545C92.3826 93.6032 91.2944 94.1301 90.781 94.3788C90.7069 94.4146 90.6093 94.4358 90.5095 94.4375C90.4098 94.4393 90.316 94.4216 90.2491 94.3882C89.7911 94.1601 88.8288 93.681 88.3708 93.4531C88.3037 93.4197 88.269 93.3735 88.2739 93.3245C88.2789 93.2756 88.3233 93.2279 88.3974 93.192C88.9108 92.9434 89.999 92.4164 90.5125 92.1677ZM68.7076 81.312C68.7824 81.276 68.8797 81.2549 68.9791 81.2531C69.0797 81.2513 69.1724 81.2692 69.2395 81.3025C69.7043 81.5337 70.6887 82.024 71.1536 82.2552C71.2206 82.2886 71.2552 82.3348 71.2508 82.3837C71.2452 82.4326 71.2005 82.4804 71.1267 82.5162C70.6139 82.7649 69.5255 83.2918 69.0115 83.5405C68.9378 83.5763 68.8405 83.5975 68.74 83.5993C68.6405 83.601 68.5467 83.5833 68.4796 83.55C68.0159 83.3188 67.0315 82.8285 66.5666 82.5973C66.4996 82.5639 66.465 82.5176 66.4694 82.4687C66.475 82.4197 66.5186 82.3721 66.5935 82.3363C67.1064 82.0876 68.1947 81.5605 68.7076 81.312ZM86.8491 90.3439C86.9231 90.3079 87.0207 90.2868 87.1205 90.285C87.2203 90.2832 87.3139 90.3011 87.381 90.3344C87.8455 90.5656 88.8299 91.0559 89.2944 91.2871C89.3615 91.3205 89.3963 91.3666 89.3913 91.4156C89.3864 91.4645 89.3419 91.5123 89.2678 91.5481C88.7544 91.7968 87.6662 92.3237 87.1528 92.5724C87.0787 92.6082 86.9811 92.6294 86.8813 92.6312C86.7816 92.6329 86.6879 92.6152 86.6209 92.5819C86.1564 92.3505 85.1719 91.8604 84.7074 91.6292C84.6403 91.5958 84.6056 91.5495 84.6105 91.5006C84.6155 91.4516 84.6599 91.404 84.734 91.3682C85.2474 91.1195 86.3357 90.5924 86.8491 90.3439ZM79.5927 86.7311C79.6668 86.6952 79.7643 86.6741 79.8641 86.6723C79.9639 86.6705 80.0575 86.6883 80.1246 86.7217C80.5891 86.9529 81.5736 87.4431 82.038 87.6743C82.1051 87.7077 82.1399 87.7539 82.1349 87.8028C82.13 87.8518 82.0855 87.8995 82.0114 87.9353C81.4981 88.184 80.4099 88.711 79.8964 88.9596C79.8223 88.9955 79.7247 89.0166 79.6249 89.0184C79.5252 89.0202 79.4315 89.0025 79.3645 88.9691C78.9 88.7378 77.9155 88.2477 77.451 88.0165C77.3839 87.9831 77.3492 87.9368 77.3541 87.8878C77.3591 87.8389 77.4035 87.7913 77.4776 87.7554C77.991 87.5068 79.0793 86.9797 79.5927 86.7311ZM72.3369 83.1184C72.4106 83.0824 72.5078 83.0613 72.6073 83.0595C72.7079 83.0577 72.8006 83.0755 72.8677 83.1089C73.3325 83.3401 74.3169 83.8303 74.7818 84.0616C74.8488 84.0949 74.8834 84.1411 74.879 84.1901C74.8734 84.239 74.8287 84.2868 74.7549 84.3226C74.242 84.5713 73.1537 85.0982 72.6397 85.3469C72.566 85.3827 72.4687 85.4038 72.3682 85.4056C72.2687 85.4074 72.1749 85.3897 72.1078 85.3563C71.6441 85.1251 70.6586 84.6349 70.1948 84.4037C70.1278 84.3703 70.0932 84.324 70.0976 84.2751C70.1032 84.2261 70.1468 84.1785 70.2216 84.1427C70.7345 83.894 71.8229 83.3669 72.3369 83.1184ZM104.99 99.3758C105.064 99.3398 105.162 99.3187 105.261 99.3169C105.361 99.3151 105.455 99.3329 105.522 99.3663C105.986 99.5975 106.971 100.088 107.435 100.319C107.502 100.352 107.537 100.399 107.532 100.447C107.527 100.496 107.483 100.544 107.409 100.58C106.895 100.829 105.807 101.356 105.294 101.604C105.22 101.64 105.122 101.661 105.022 101.663C104.923 101.665 104.829 101.647 104.762 101.614C104.297 101.382 103.313 100.892 102.848 100.661C102.781 100.628 102.746 100.581 102.751 100.532C102.756 100.484 102.801 100.436 102.875 100.4C103.388 100.151 104.477 99.6244 104.99 99.3758ZM61.4512 77.6992C61.5261 77.6633 61.6233 77.6422 61.7227 77.6404C61.8233 77.6386 61.9171 77.6564 61.9831 77.6898C62.4479 77.921 63.4323 78.4112 63.8972 78.6424C63.9642 78.6758 63.9989 78.7221 63.9944 78.7709C63.9888 78.8199 63.9441 78.8676 63.8704 78.9034C63.3575 79.1521 62.2691 79.6791 61.7551 79.9277C61.6814 79.9636 61.5842 79.9847 61.4836 79.9865C61.3841 79.9883 61.2903 79.9706 61.2232 79.9372C60.7595 79.706 59.774 79.2158 59.3103 78.9846C59.2432 78.9512 59.2086 78.9049 59.2131 78.8559C59.2186 78.807 59.2622 78.7594 59.3371 78.7235C59.85 78.4749 60.9383 77.9478 61.4512 77.6992ZM97.7337 95.763C97.8076 95.7271 97.9053 95.7059 98.0051 95.7042C98.1049 95.7024 98.1985 95.7202 98.2656 95.7536C98.7301 95.9848 99.7145 96.4749 100.179 96.7062C100.246 96.7396 100.281 96.7858 100.276 96.8347C100.271 96.8837 100.226 96.9314 100.152 96.9672C99.6389 97.2159 98.5507 97.7429 98.0374 97.9915C97.9633 98.0274 97.8656 98.0485 97.7658 98.0503C97.6662 98.0521 97.5724 98.0344 97.5055 98.001C97.041 97.7697 96.0565 97.2796 95.592 97.0484C95.5249 97.015 95.49 96.9687 95.4951 96.9197C95.5001 96.8708 95.5445 96.8232 95.6185 96.7873C96.132 96.5387 97.2202 96.0116 97.7337 95.763ZM83.2209 88.5375C83.2949 88.5016 83.3925 88.4804 83.4923 88.4786C83.5921 88.4769 83.6857 88.4947 83.7528 88.528C84.2173 88.7593 85.2018 89.2495 85.6662 89.4807C85.7333 89.5141 85.7681 89.5603 85.7631 89.6092C85.7582 89.6582 85.7137 89.7059 85.6396 89.7417C85.1263 89.9904 84.0381 90.5173 83.5246 90.766C83.4505 90.8019 83.3529 90.823 83.2531 90.8248C83.1534 90.8266 83.0597 90.8089 82.9927 90.7755C82.5282 90.5442 81.5437 90.054 81.0792 89.8228C81.0121 89.7894 80.9774 89.7432 80.9823 89.6942C80.9873 89.6453 81.0317 89.5976 81.1058 89.5618C81.6192 89.3131 82.7075 88.7861 83.2209 88.5375ZM75.9651 84.9247C76.0388 84.8888 76.1362 84.8677 76.2359 84.8659C76.3357 84.8641 76.4294 84.8819 76.4964 84.9153C76.9609 85.1465 77.9454 85.6367 78.41 85.8679C78.4769 85.9013 78.5117 85.9475 78.5067 85.9964C78.5018 86.0454 78.4573 86.0931 78.3832 86.129C77.8699 86.3776 76.7817 86.9046 76.2682 87.1533C76.1941 87.1891 76.0965 87.2102 75.9964 87.212C75.8969 87.2138 75.8031 87.1961 75.736 87.1627C75.2723 86.9314 74.2868 86.4413 73.823 86.2101C73.756 86.1767 73.7213 86.1304 73.7258 86.0815C73.7314 86.0325 73.775 85.9849 73.8498 85.9491C74.3627 85.7004 75.4511 85.1733 75.9651 84.9247ZM101.362 97.5694C101.436 97.5335 101.533 97.5123 101.633 97.5105C101.733 97.5088 101.827 97.5266 101.894 97.5599C102.358 97.7912 103.343 98.2813 103.807 98.5126C103.874 98.546 103.909 98.5921 103.904 98.6411C103.899 98.6901 103.855 98.7378 103.781 98.7736C103.267 99.0223 102.179 99.5492 101.666 99.7979C101.591 99.8338 101.494 99.8549 101.394 99.8567C101.294 99.8584 101.201 99.8408 101.134 99.8074C100.669 99.5761 99.6846 99.0859 99.2201 98.8546C99.1531 98.8214 99.1182 98.7751 99.1233 98.7261C99.1283 98.6772 99.1727 98.6295 99.2467 98.5937C99.7602 98.345 100.848 97.818 101.362 97.5694ZM93.8773 96.1946L91.9638 95.242C91.8967 95.2086 91.8619 95.1623 91.8669 95.1133C91.8719 95.0644 91.9163 95.0168 91.9904 94.9809C92.5038 94.7323 93.592 94.2052 94.1055 93.9566C94.1794 93.9207 94.2771 93.8996 94.3769 93.8978C94.4767 93.896 94.5703 93.9138 94.6374 93.9472C95.1019 94.1784 96.0863 94.6685 96.5508 94.8998C96.6178 94.9332 96.6527 94.9794 96.6477 95.0283C96.6426 95.0773 96.5983 95.125 96.5242 95.1609C96.0107 95.4095 94.9226 95.9365 94.4092 96.1852C94.3351 96.221 94.2374 96.2421 94.1377 96.2439C94.038 96.2457 93.9442 96.228 93.8773 96.1946ZM108.618 101.182C108.772 101.107 109.011 101.103 109.15 101.173C109.815 101.504 111.608 102.396 112.273 102.728C112.412 102.797 112.401 102.914 112.246 102.988C111.733 103.237 110.645 103.764 110.131 104.013C109.977 104.088 109.739 104.092 109.599 104.022C108.934 103.691 107.141 102.799 106.477 102.467C106.337 102.398 106.349 102.281 106.503 102.206C107.017 101.958 108.105 101.431 108.618 101.182ZM116.257 101.046C116.331 101.01 116.375 100.963 116.38 100.914C116.385 100.865 116.35 100.819 116.283 100.785C115.819 100.554 114.834 100.064 114.37 99.8326C114.303 99.7993 114.209 99.7816 114.109 99.7832C114.01 99.785 113.912 99.8062 113.838 99.8421C113.324 100.091 112.236 100.618 111.723 100.866C111.649 100.902 111.604 100.95 111.599 100.999C111.594 101.048 111.629 101.094 111.696 101.127C112.161 101.359 113.145 101.849 113.61 102.08C113.677 102.113 113.77 102.131 113.87 102.129C113.97 102.128 114.068 102.106 114.142 102.071C114.655 101.822 115.743 101.295 116.257 101.046ZM109 97.4336C109.074 97.3977 109.119 97.3501 109.124 97.3011C109.129 97.2522 109.094 97.2059 109.027 97.1725C108.562 96.9413 107.578 96.4511 107.113 96.2199C107.046 96.1865 106.953 96.1688 106.853 96.1705C106.753 96.1723 106.656 96.1934 106.582 96.2293C106.068 96.478 104.98 97.005 104.466 97.2536C104.392 97.2895 104.348 97.3371 104.343 97.386C104.338 97.435 104.373 97.4813 104.44 97.5147C104.904 97.7459 105.889 98.2361 106.353 98.4673C106.42 98.5007 106.514 98.5184 106.614 98.5167C106.714 98.5149 106.811 98.4938 106.885 98.4579C107.399 98.2092 108.487 97.6822 109 97.4336ZM101.744 93.8208C101.818 93.785 101.862 93.7373 101.867 93.6884C101.872 93.6394 101.838 93.5931 101.771 93.5598C101.306 93.3286 100.322 92.8383 99.8571 92.6071C99.79 92.5737 99.6964 92.556 99.5966 92.5578C99.4969 92.5595 99.3993 92.5807 99.3252 92.6166C98.8117 92.8653 97.7235 93.3922 97.2101 93.6409C97.1361 93.6767 97.0916 93.7243 97.0867 93.7733C97.0817 93.8222 97.1165 93.8685 97.1835 93.9019C97.648 94.1331 98.6325 94.6233 99.097 94.8546C99.164 94.8879 99.2577 94.9056 99.3575 94.904C99.4571 94.9022 99.5548 94.881 99.6289 94.8451C100.142 94.5964 101.231 94.0695 101.744 93.8208ZM94.4876 90.208C94.5616 90.1722 94.6061 90.1246 94.6111 90.0756C94.616 90.0267 94.5812 89.9804 94.5142 89.947C94.0497 89.7158 93.0652 89.2256 92.6007 88.9944C92.5336 88.961 92.44 88.9433 92.3402 88.9451C92.2405 88.9467 92.1429 88.968 92.0688 89.0038C91.5554 89.2525 90.4671 89.7794 89.9538 90.0281C89.8797 90.0639 89.8352 90.1117 89.8303 90.1605C89.8253 90.2095 89.8601 90.2558 89.9271 90.2891C90.3916 90.5203 91.3761 91.0106 91.8406 91.2418C91.9077 91.2752 92.0013 91.293 92.1011 91.2912C92.2009 91.2894 92.2984 91.2683 92.3725 91.2323C92.8859 90.9838 93.9742 90.4567 94.4876 90.208ZM72.719 79.3698C72.7928 79.3339 72.8364 79.2863 72.8419 79.2373C72.8464 79.1884 72.8118 79.1421 72.7447 79.1087C72.281 78.8775 71.2955 78.3873 70.8318 78.1561C70.7647 78.1227 70.6709 78.105 70.5714 78.1068C70.4708 78.1086 70.3736 78.1297 70.2999 78.1655C69.7859 78.4142 68.6975 78.9412 68.1846 79.1898C68.1109 79.2257 68.0662 79.2734 68.0606 79.3224C68.0561 79.3713 68.0908 79.4175 68.1578 79.4509C68.6227 79.6821 69.6071 80.1723 70.0719 80.4035C70.139 80.4369 70.2317 80.4547 70.3323 80.4529C70.4317 80.4511 70.5289 80.43 70.6038 80.3941C71.1167 80.1455 72.205 79.6184 72.719 79.3698ZM79.9749 82.9825C80.0489 82.9467 80.0933 82.8991 80.0983 82.8501C80.1032 82.8012 80.0685 82.7549 80.0015 82.7215C79.537 82.4903 78.5524 82 78.0879 81.7688C78.021 81.7355 77.9272 81.7178 77.8276 81.7195C77.7278 81.7213 77.6301 81.7425 77.556 81.7783C77.0426 82.027 75.9539 82.5539 75.441 82.8026C75.3673 82.8384 75.3226 82.8862 75.317 82.9351C75.3125 82.984 75.3472 83.0302 75.4142 83.0636C75.879 83.2948 76.8633 83.7851 77.3279 84.0163C77.3949 84.0496 77.4885 84.0675 77.5883 84.0657C77.6881 84.0639 77.7858 84.0428 77.8597 84.0068C78.3732 83.7582 79.4614 83.2312 79.9749 82.9825ZM98.1158 92.0144C98.1898 91.9786 98.2343 91.931 98.2393 91.882C98.2442 91.833 98.2093 91.7868 98.1424 91.7534C97.6779 91.5222 96.6934 91.0319 96.2289 90.8007C96.1618 90.7674 96.0682 90.7497 95.9684 90.7514C95.8687 90.7531 95.7711 90.7744 95.697 90.8102C95.1835 91.0589 94.0953 91.5858 93.5819 91.8345C93.5079 91.8703 93.4634 91.9181 93.4585 91.9669C93.4535 92.0159 93.4883 92.0621 93.5553 92.0955C94.0198 92.3267 95.0043 92.817 95.4688 93.0482C95.5359 93.0816 95.6295 93.0992 95.7293 93.0976C95.829 93.0958 95.9266 93.0746 96.0007 93.0387C96.5141 92.79 97.6024 92.2631 98.1158 92.0144ZM112.628 99.2399C112.703 99.2041 112.747 99.1565 112.752 99.1075C112.757 99.0586 112.722 99.0123 112.655 98.9789C112.191 98.7477 111.206 98.2575 110.742 98.0263C110.675 97.9929 110.581 97.9752 110.481 97.9769C110.381 97.9786 110.284 97.9998 110.21 98.0357C109.696 98.2844 108.608 98.8113 108.095 99.06C108.021 99.0958 107.976 99.1435 107.971 99.1924C107.966 99.2414 108.001 99.2877 108.068 99.321C108.533 99.5522 109.517 100.042 109.982 100.274C110.049 100.307 110.142 100.325 110.242 100.323C110.342 100.321 110.439 100.3 110.513 100.264C111.027 100.016 112.115 99.4886 112.628 99.2399ZM76.3467 81.1761C76.4208 81.1403 76.4651 81.0927 76.4701 81.0437C76.4751 80.9948 76.4403 80.9485 76.3733 80.9151C75.9092 80.6839 74.9237 80.1937 74.4599 79.9625C74.3929 79.9291 74.299 79.9114 74.1996 79.9132C74.099 79.9149 74.0018 79.9361 73.9281 79.9719C73.4141 80.2206 72.3257 80.7475 71.8128 80.9962C71.7391 81.032 71.6944 81.0798 71.6888 81.1287C71.6843 81.1777 71.719 81.2239 71.786 81.2572C72.2508 81.4884 73.2353 81.9787 73.7001 82.2099C73.7672 82.2433 73.8599 82.2611 73.9605 82.2593C74.0599 82.2575 74.1571 82.2364 74.232 82.2004C74.7449 81.9519 75.8332 81.4248 76.3467 81.1761ZM105.372 95.6272C105.446 95.5913 105.491 95.5437 105.496 95.4948C105.501 95.4458 105.466 95.3995 105.399 95.3661C104.934 95.1349 103.95 94.6447 103.485 94.4135C103.418 94.3801 103.325 94.3624 103.225 94.3641C103.125 94.3659 103.027 94.387 102.953 94.423C102.44 94.6716 101.352 95.1986 100.838 95.4473C100.764 95.4831 100.72 95.5307 100.715 95.5797C100.71 95.6286 100.745 95.6749 100.812 95.7083C101.276 95.9395 102.261 96.4297 102.725 96.6609C102.792 96.6943 102.886 96.712 102.986 96.7103C103.085 96.7086 103.183 96.6874 103.257 96.6515C103.771 96.4028 104.859 95.8758 105.372 95.6272ZM90.8594 88.4017C90.9335 88.3658 90.9779 88.3182 90.9829 88.2692C90.9878 88.2203 90.953 88.174 90.886 88.1406C90.4215 87.9094 89.437 87.4192 88.9725 87.188C88.9054 87.1546 88.8118 87.1369 88.712 87.1387C88.6123 87.1405 88.5147 87.1616 88.4406 87.1974C87.9272 87.4461 86.8389 87.9731 86.3256 88.2217C86.2515 88.2576 86.207 88.3053 86.2021 88.3541C86.1971 88.4031 86.232 88.4494 86.2989 88.4828C86.7634 88.714 87.7479 89.2042 88.2124 89.4354C88.2795 89.4688 88.3731 89.4866 88.4729 89.4848C88.5727 89.483 88.6702 89.4619 88.7443 89.4259C89.2578 89.1774 90.346 88.6503 90.8594 88.4017ZM87.196 86.5778C87.2701 86.5419 87.3145 86.4942 87.3195 86.4453C87.3244 86.3963 87.2897 86.3502 87.2226 86.3168C86.7646 86.0887 85.8023 85.6096 85.3443 85.3816C85.2774 85.3482 85.1836 85.3305 85.0838 85.3323C84.9842 85.3341 84.8865 85.3552 84.8124 85.3911C84.299 85.6397 83.2107 86.1667 82.6974 86.4154C82.6233 86.4512 82.5788 86.4989 82.5739 86.5479C82.5689 86.5967 82.6038 86.643 82.6707 86.6764C83.1287 86.9044 84.091 87.3835 84.549 87.6116C84.6161 87.6449 84.7097 87.6626 84.8095 87.6609C84.9093 87.6591 85.0068 87.6379 85.0809 87.6021C85.5944 87.3534 86.6826 86.8264 87.196 86.5778ZM83.6031 84.7889C83.6771 84.7531 83.7215 84.7054 83.7265 84.6565C83.7314 84.6075 83.6967 84.5612 83.6297 84.5279C83.1651 84.2967 82.1806 83.8064 81.7161 83.5752C81.6492 83.5418 81.5554 83.5242 81.4556 83.5259C81.356 83.5277 81.2583 83.5489 81.1842 83.5847C80.6708 83.8334 79.5825 84.3603 79.0692 84.609C78.9951 84.6448 78.9506 84.6925 78.9457 84.7415C78.9407 84.7903 78.9756 84.8366 79.0425 84.87C79.507 85.1012 80.4915 85.5914 80.956 85.8227C81.0231 85.856 81.1167 85.8738 81.2165 85.872C81.3163 85.8703 81.4138 85.8491 81.4879 85.8132C82.0014 85.5646 83.0896 85.0376 83.6031 84.7889ZM69.0897 77.5634C69.2439 77.4887 69.2562 77.3719 69.1166 77.3023C68.4517 76.9713 66.6594 76.0787 65.9934 75.7475C65.8549 75.6781 65.6157 75.6823 65.4615 75.757C64.9487 76.0057 63.8603 76.5327 63.3474 76.7813C63.1932 76.8561 63.1809 76.9729 63.3206 77.0423C63.9855 77.3735 65.7789 78.2661 66.4437 78.5971C66.5823 78.6667 66.8214 78.6624 66.9756 78.5877C67.4885 78.3391 68.5768 77.812 69.0897 77.5634Z" fill="#36464A"/>
<path fill-rule="evenodd" clip-rule="evenodd" d="M40.2418 106.832C40.2418 106.832 41.062 106.851 41.6643 106.866C42.0732 106.875 42.4766 106.975 42.8431 107.157C44.6835 108.074 50.5554 110.997 52.3321 111.882C52.6673 112.049 52.9489 112.308 53.1411 112.629C53.3791 113.027 53.6741 113.52 53.6741 113.52C53.6741 113.52 52.8539 113.501 52.2527 113.487C51.8427 113.477 51.4404 113.377 51.0728 113.195C49.2324 112.278 43.3616 109.355 41.5838 108.47C41.2486 108.303 40.9681 108.044 40.7748 107.723L40.2418 106.832Z" fill="#7DE2FF"/>
<path fill-rule="evenodd" clip-rule="evenodd" d="M40.2061 106.4C39.9077 106.44 39.72 106.776 39.8675 107.055C40.2843 107.75 40.6385 108.469 41.3704 108.849C44.5427 110.437 47.7128 112.03 50.8985 113.593C51.3175 113.795 51.7778 113.908 52.2416 113.92L53.664 113.954C53.9758 113.945 54.2093 113.601 54.0484 113.298C53.6394 112.615 53.2662 111.881 52.5645 111.513L52.5466 111.503C49.3799 109.902 46.1998 108.328 43.0186 106.759C42.6018 106.557 42.1403 106.444 41.6743 106.432L40.2519 106.398C40.2362 106.399 40.2206 106.399 40.2061 106.4ZM41.6531 107.299C41.9861 107.308 42.3168 107.388 42.6185 107.531C45.8109 109.082 48.9821 110.674 52.1488 112.276C52.4047 112.408 52.6204 112.611 52.7679 112.853L52.8964 113.068C52.3444 113.055 51.7868 113.057 51.2817 112.813C48.1005 111.253 44.9349 109.662 41.7671 108.076C41.5123 107.944 41.2967 107.744 41.1492 107.499L41.0207 107.285C41.2307 107.29 41.4419 107.294 41.6531 107.299Z" fill="#36464A"/>
<path fill-rule="evenodd" clip-rule="evenodd" d="M119.839 54.9404L72.6912 31.4147V71.4643L119.839 94.9902V54.9404Z" fill="#7DE2FF"/>
<path fill-rule="evenodd" clip-rule="evenodd" d="M72.5415 31.0073L72.3917 31.0996L72.2901 31.2432L72.2543 31.4145V71.4642C72.2744 71.5699 72.2755 71.6871 72.4957 71.8527L119.644 95.3781L119.814 95.4233L119.989 95.3978L120.138 95.3056L120.24 95.1619L120.275 94.9901V54.9403C120.255 54.8346 120.254 54.7178 120.035 54.552L72.8856 31.0262L72.7158 30.9817C72.6577 30.9895 72.5996 30.9984 72.5415 31.0073ZM119.403 55.2073V94.2872L73.127 71.1972V32.1177C88.5521 39.8139 103.978 47.5112 119.403 55.2073Z" fill="#36464A"/>
<path fill-rule="evenodd" clip-rule="evenodd" d="M117.248 57.3437L92.1636 44.6762V62.394L117.248 75.061V57.3437Z" fill="#7DE2FF"/>
<path fill-rule="evenodd" clip-rule="evenodd" d="M92.0156 44.2679L91.8651 44.3602L91.7636 44.5037L91.7279 44.6762V62.394C91.7473 62.4986 91.7484 62.6143 91.9666 62.7812L117.051 75.4481L117.221 75.4941L117.396 75.4692L117.546 75.3772L117.648 75.2332L117.683 75.061V57.3437C117.664 57.2391 117.663 57.1223 117.445 56.9565L92.3608 44.289L92.1904 44.2423C92.1322 44.2512 92.0738 44.259 92.0156 44.2679ZM116.812 57.6096V74.3544L92.5994 62.1269V45.3827C100.67 49.4583 108.741 53.534 116.812 57.6096Z" fill="#36464A"/>
<path fill-rule="evenodd" clip-rule="evenodd" d="M116.884 78.604L111.424 75.8471V77.1628L116.884 79.9197V78.604Z" fill="#7DE2FF"/>
<path fill-rule="evenodd" clip-rule="evenodd" d="M111.384 75.415C111.29 75.4271 111.276 75.437 111.237 75.4554C111.089 75.5255 110.994 75.6832 110.988 75.8472V77.1629C110.994 77.3252 111.084 77.4711 111.227 77.5499L116.686 80.3068C116.873 80.393 116.907 80.3602 116.985 80.3418C117.175 80.2965 117.311 80.1595 117.319 79.9197V78.604C117.314 78.4416 117.224 78.2958 117.081 78.217L111.622 75.4601C111.547 75.4258 111.467 75.4103 111.384 75.415ZM116.448 78.8705V79.213L111.86 76.8963V76.5538C113.389 77.326 114.918 78.0983 116.448 78.8705Z" fill="#36464A"/>
<path fill-rule="evenodd" clip-rule="evenodd" d="M101.842 71.116L96.383 68.3589V69.674L101.842 72.4312V71.116Z" fill="#7DE2FF"/>
<path fill-rule="evenodd" clip-rule="evenodd" d="M96.3423 67.9263C96.2489 67.9385 96.2343 67.9485 96.1953 67.9674C96.0479 68.0375 95.953 68.1944 95.9472 68.3591V69.6742C95.9528 69.8367 96.0423 69.9824 96.1859 70.0614L101.645 72.8184C101.736 72.8604 101.766 72.8623 101.822 72.8649C102.058 72.876 102.268 72.7166 102.278 72.4315V71.1162C102.272 70.9538 102.183 70.8069 102.039 70.729L96.5801 67.9719C96.506 67.9374 96.4259 67.9218 96.3423 67.9263ZM101.406 71.3821V71.7247L96.8188 69.4083V69.0656C98.3481 69.8378 99.8772 70.6099 101.406 71.3821Z" fill="#36464A"/>
<path fill-rule="evenodd" clip-rule="evenodd" d="M86.7162 63.5846L81.257 60.8275V62.1437L86.7162 64.9009V63.5846Z" fill="#7DE2FF"/>
<path fill-rule="evenodd" clip-rule="evenodd" d="M81.2162 60.3956C80.997 60.4234 80.8304 60.5647 80.821 60.8273V62.1436C80.8267 62.306 80.9162 62.4518 81.0597 62.5308L86.519 65.2868C86.7058 65.3736 86.7398 65.3413 86.8172 65.3224C87.0074 65.2768 87.1434 65.1399 87.1519 64.9007V63.5844C87.1463 63.422 87.0568 63.2762 86.9132 63.1972L81.454 60.4401C81.3797 60.4067 81.2998 60.3911 81.2162 60.3956ZM86.2803 63.8515V64.1931L81.6927 61.8765V61.5338C83.2219 62.306 84.751 63.0782 86.2803 63.8515Z" fill="#36464A"/>
<path fill-rule="evenodd" clip-rule="evenodd" d="M116.884 82.4626L105.292 76.6087V77.9245L116.884 83.7783V82.4626Z" fill="#7DE2FF"/>
<path fill-rule="evenodd" clip-rule="evenodd" d="M105.23 76.179C105.02 76.22 104.867 76.392 104.856 76.6086V77.9243C104.864 78.085 104.898 78.1995 105.094 78.3113L116.686 84.1653C116.962 84.2872 117.303 84.0984 117.319 83.7782V82.4625C117.311 82.3018 117.277 82.1873 117.081 82.0754L105.489 76.2215C105.339 76.1554 105.395 76.1639 105.23 76.179ZM116.448 82.7289V83.0715L105.727 77.6578V77.3153C109.301 79.1197 112.874 80.9244 116.448 82.7289Z" fill="#36464A"/>
<path fill-rule="evenodd" clip-rule="evenodd" d="M101.842 74.9738L90.2503 69.1198V70.436L101.842 76.2896V74.9738Z" fill="#7DE2FF"/>
<path fill-rule="evenodd" clip-rule="evenodd" d="M90.1883 68.6904C89.9784 68.7315 89.8256 68.9029 89.8144 69.1198V70.4361C89.8265 70.6742 89.8954 70.7332 90.0532 70.8222L101.645 76.6766C101.923 76.7994 102.262 76.6029 102.278 76.2895V74.9739C102.266 74.735 102.197 74.6767 102.039 74.5868L90.4474 68.7326C90.2981 68.667 90.354 68.6748 90.1883 68.6904ZM101.407 75.2404V75.5829L90.6861 70.1691V69.8264C94.2595 71.6312 97.833 73.4358 101.407 75.2404Z" fill="#36464A"/>
<path fill-rule="evenodd" clip-rule="evenodd" d="M86.7162 67.4429L75.1237 61.5893V62.9044L86.7162 68.7581V67.4429Z" fill="#7DE2FF"/>
<path fill-rule="evenodd" clip-rule="evenodd" d="M75.0622 61.1601C74.8521 61.2001 74.699 61.3726 74.6878 61.5896V62.9047C74.6968 63.066 74.7303 63.1795 74.927 63.2919L86.5188 69.1455C86.7945 69.2679 87.1354 69.0788 87.1519 68.7583V67.4432C87.1398 67.204 87.071 67.1461 86.9132 67.056L75.3214 61.2024C75.2588 61.1745 75.2376 61.1434 75.0622 61.1601ZM86.2802 67.7091V68.0518L75.5594 62.6388V62.2961C79.1333 64.1008 82.7067 65.9044 86.2802 67.7091Z" fill="#36464A"/>
<path fill-rule="evenodd" clip-rule="evenodd" d="M116.884 85.0744L105.292 79.2205V80.5362L116.884 86.3901V85.0744Z" fill="#7DE2FF"/>
<path fill-rule="evenodd" clip-rule="evenodd" d="M105.23 78.7914C105.02 78.8323 104.867 79.0043 104.856 79.2209V80.5367C104.864 80.6973 104.898 80.8118 105.094 80.9237L116.686 86.7775C116.962 86.8996 117.303 86.7107 117.319 86.3905V85.0748C117.307 84.8359 117.238 84.7776 117.081 84.6877L105.489 78.8339C105.339 78.7678 105.395 78.7761 105.23 78.7914ZM116.448 85.3413V85.6839L105.727 80.2702V79.9276C109.301 81.7321 112.874 83.5367 116.448 85.3413Z" fill="#36464A"/>
<path fill-rule="evenodd" clip-rule="evenodd" d="M101.842 77.586L90.2503 71.7322V73.0479L101.842 78.9019V77.586Z" fill="#7DE2FF"/>
<path fill-rule="evenodd" clip-rule="evenodd" d="M90.1883 71.3029C89.9784 71.344 89.8256 71.5154 89.8144 71.732V73.0477C89.8225 73.2084 89.8566 73.3229 90.0532 73.4347L101.645 79.2887C101.923 79.4115 102.262 79.215 102.278 78.9016V77.586C102.266 77.3471 102.197 77.2888 102.039 77.1989L90.4474 71.3451C90.3851 71.3173 90.3639 71.2862 90.1883 71.3029ZM101.407 77.8525V78.1949L90.6861 72.7812V72.4387C94.2595 74.2433 97.833 76.0479 101.407 77.8525Z" fill="#36464A"/>
<path fill-rule="evenodd" clip-rule="evenodd" d="M86.7162 70.0546L75.1237 64.201V65.5172L86.7162 71.3708V70.0546Z" fill="#7DE2FF"/>
<path fill-rule="evenodd" clip-rule="evenodd" d="M75.0622 63.7714C74.8521 63.8126 74.699 63.9839 74.6878 64.2009V65.5172C74.6968 65.6774 74.7303 65.792 74.927 65.9044L86.5188 71.7579C86.7939 71.8796 87.1354 71.691 87.1519 71.3708V70.0545C87.1398 69.8164 87.071 69.7575 86.9132 69.6684L75.3214 63.8137C75.2588 63.787 75.2376 63.7558 75.0622 63.7714ZM86.2802 70.3216V70.6643L75.5594 65.2501V64.9074C79.1333 66.7121 82.7067 68.5169 86.2802 70.3216Z" fill="#36464A"/>
<path fill-rule="evenodd" clip-rule="evenodd" d="M116.884 87.7988L108.67 83.6732V84.9889L116.884 89.1145V87.7988Z" fill="#7DE2FF"/>
<path fill-rule="evenodd" clip-rule="evenodd" d="M108.615 83.243C108.405 83.2789 108.243 83.4582 108.234 83.6735V84.9892C108.241 85.1507 108.328 85.2958 108.474 85.3767L116.687 89.5023C116.962 89.6261 117.306 89.4295 117.319 89.1148V87.7991C117.313 87.6377 117.225 87.4926 117.08 87.4117L108.866 83.286C108.788 83.2508 108.703 83.2356 108.615 83.243ZM116.448 88.0662V88.4098L109.106 84.7221V84.3785C111.553 85.6078 114 86.837 116.448 88.0662Z" fill="#36464A"/>
<path fill-rule="evenodd" clip-rule="evenodd" d="M101.842 80.3102L93.6288 76.1846V77.5003L101.842 81.626V80.3102Z" fill="#7DE2FF"/>
<path fill-rule="evenodd" clip-rule="evenodd" d="M93.5736 75.7543C93.3638 75.79 93.2022 75.9695 93.193 76.1847V77.5005C93.1999 77.6619 93.2872 77.8069 93.4325 77.8879L101.646 82.0135C101.923 82.1382 102.265 81.9327 102.278 81.6261V80.3102C102.271 80.1488 102.184 80.0038 102.039 79.9228L93.8251 75.7972C93.7469 75.762 93.6619 75.7467 93.5736 75.7543ZM101.406 80.5774V80.9211L94.0646 77.2333V76.8896C96.5119 78.1189 98.9592 79.3481 101.406 80.5774Z" fill="#36464A"/>
<path fill-rule="evenodd" clip-rule="evenodd" d="M86.7162 72.7798L78.5028 68.6539V69.9702L86.7162 74.0955V72.7798Z" fill="#7DE2FF"/>
<path fill-rule="evenodd" clip-rule="evenodd" d="M78.4474 68.223C78.2353 68.2597 78.076 68.4388 78.0669 68.6536V69.9698C78.0738 70.1312 78.1609 70.2758 78.3064 70.3571L86.5199 74.4825C86.7964 74.6071 87.1388 74.4019 87.152 74.0951V72.7794C87.145 72.6179 87.0578 72.4729 86.9124 72.392L78.699 68.2664C78.6208 68.2308 78.5358 68.2163 78.4474 68.223ZM86.2803 73.0465V73.3901L78.9385 69.7028V69.359C81.3858 70.5885 83.8331 71.8173 86.2803 73.0465Z" fill="#36464A"/>
<path fill-rule="evenodd" clip-rule="evenodd" d="M89.2068 43.4702L74.994 36.2925V53.7232L89.2068 60.9009V43.4702Z" fill="#7DE2FF"/>
<path fill-rule="evenodd" clip-rule="evenodd" d="M74.9439 35.8608C74.7528 35.8964 74.7282 35.9364 74.669 36.0032C74.6087 36.0688 74.5718 36.0978 74.5573 36.2925V53.7232C74.5751 53.9758 74.5986 53.9925 74.7964 54.1104L89.0098 61.2881C89.2887 61.4038 89.619 61.2235 89.6427 60.9009V43.469C89.6253 43.2165 89.6024 43.2009 89.404 43.083L75.1908 35.9053C75.1484 35.8875 75.1048 35.8541 74.9439 35.8608ZM88.7711 43.7361V60.1943L75.43 53.4562V36.999C79.8766 39.2443 84.3239 41.4908 88.7711 43.7361Z" fill="#36464A"/>
</svg>
