<svg width="150" height="150" viewBox="0 0 150 150" fill="none" xmlns="http://www.w3.org/2000/svg">
<rect width="150" height="150" fill="#F7FBFC"/>
<path fill-rule="evenodd" clip-rule="evenodd" d="M108.063 116.503C109.42 96.0169 106.472 83.2594 84.2582 72.1789C63.727 61.9391 42.0649 68.3743 41.3945 101.191C41.3924 101.269 41.3902 101.347 41.3902 101.425V101.434C41.3902 106.42 47.0431 112.568 57.2926 117.68C72.9754 125.501 93.5195 127.955 103.142 123.156C106.061 121.7 107.642 119.743 107.989 117.504H107.989L107.989 117.502C108.04 117.175 108.064 116.842 108.063 116.503Z" fill="#7DE2FF"/>
<path fill-rule="evenodd" clip-rule="evenodd" d="M41.0011 101.495C41.0212 103.443 41.8449 105.327 42.896 106.918C44.9072 109.965 47.795 112.338 50.7324 114.329C55.6843 117.685 61.2071 120.151 66.8971 122.037C74.3359 124.502 82.1211 126.005 89.8989 126C94.4774 125.997 99.1305 125.588 103.316 123.504C105.341 122.496 107.232 121.048 108.057 118.79C108.2 118.401 108.306 117.999 108.37 117.59C108.37 117.59 108.453 117.005 108.453 116.516C108.796 111.311 108.942 106.05 108.24 100.865C108.205 100.606 108.157 100.279 108.157 100.279C107.303 94.5891 105.158 89.0574 101.559 84.5832C98.0569 80.2294 93.4408 76.8389 88.6278 74.0733C83.2027 70.9564 77.5056 68.4366 71.1394 67.5991C65.4548 66.8512 59.4677 67.6149 54.4757 70.6084C51.4071 72.4489 48.8365 75.0637 46.9004 78.0561C43.3782 83.5014 41.827 90.118 41.2602 96.4487C41.1195 98.0223 41.0381 99.6009 41.0053 101.18C41.0011 101.292 41.0001 101.436 41.0001 101.436C41.0011 101.456 41.0011 101.476 41.0011 101.495ZM67.0451 68.1011C73.2782 68.1128 79.4866 70.1611 84.9801 72.9806C91.2065 76.1755 97.1752 80.0554 101.512 85.7897C104.998 90.3997 106.908 96.073 107.577 101.844C108.139 106.694 107.993 111.645 107.673 116.49C107.673 117.679 107.317 118.87 106.612 119.879C105.257 121.819 103.011 122.947 100.829 123.694C95.8242 125.406 90.3022 125.451 85.0251 125.016C75.6106 124.241 66.2795 121.661 57.833 117.513C53.7344 115.5 49.7692 113.104 46.4912 109.951C44.7306 108.257 43.1117 106.343 42.2647 103.996C41.7011 102.436 41.7741 100.744 41.8608 99.0398C42.214 92.1046 43.3856 85.095 47.3921 78.7344C50.2196 74.2463 54.5508 70.697 59.7532 69.1285C62.1102 68.4176 64.5898 68.1011 67.0451 68.1011Z" fill="#36464A"/>
<path fill-rule="evenodd" clip-rule="evenodd" d="M94.7232 78.5752C91.823 75.9298 88.4738 73.6821 84.6942 71.8847C79.6579 69.4883 73.1624 68.3101 66.7415 69.0643C58.0538 71.794 52.4654 83.5254 64.5717 89.3508C79.6809 96.6206 96.4782 88.9826 94.7232 78.5752Z" fill="#F7FBFC"/>
<path fill-rule="evenodd" clip-rule="evenodd" d="M70.5747 68.4494C69.3323 68.4525 68.0962 68.52 66.8484 68.6603C66.8442 68.6614 66.7015 68.6772 66.6972 68.6782C66.6719 68.6825 66.6475 68.6877 66.6243 68.6941C66.6063 68.6983 66.0723 68.8723 65.643 69.0443C61.1733 70.8332 57.428 74.9088 57.2176 79.7842C57.1044 82.3957 58.2422 84.9356 60.135 86.798C61.4631 88.1046 63.0809 89.0895 64.7622 89.8711C71.1944 92.863 78.8017 93.5718 85.4762 91.1927C89.249 89.848 92.8116 87.4222 94.4188 83.8471C95.1568 82.2052 95.3999 80.3335 95.1183 78.5741L95.066 78.3896C95.0394 78.3558 95.015 78.3199 94.9861 78.2883C94.9842 78.2862 94.8506 78.1649 94.8487 78.1638C91.7724 75.3845 88.232 73.0629 84.4399 71.3373C80.2219 69.4166 75.5173 68.4863 70.8782 68.4504C70.7767 68.4494 70.6763 68.4494 70.5747 68.4494ZM70.7249 69.2278C75.7114 69.2447 80.6937 70.3332 85.1373 72.5313C88.4593 74.1757 91.5629 76.2505 94.3253 78.7397L94.36 78.7714C94.7234 81.1897 93.9993 83.6864 92.3297 85.7388C90.211 88.3429 87.0933 89.9823 83.7937 90.9127C77.7221 92.6246 71.0178 91.8732 65.2666 89.2467C62.9551 88.1913 60.7419 86.7497 59.3398 84.6226C57.9916 82.5751 57.6511 79.9262 58.4135 77.5109C59.6253 73.6684 63.0016 70.6728 66.8093 69.4514L66.8241 69.4461C68.1184 69.2963 69.4264 69.2257 70.7249 69.2278Z" fill="#36464A"/>
<path fill-rule="evenodd" clip-rule="evenodd" d="M88.3051 125.589C86.4299 119.202 85.8256 112.76 85.6872 106.298C84.2369 113.034 82.6226 119.278 81.7581 125.06C84.004 125.351 86.1992 125.529 88.3051 125.589ZM44.865 108.825C44.7836 102.828 45.1304 93.7572 47.0517 87.0278C44.5795 91.8496 41.6039 103.265 41.8228 103.915C42.3568 105.499 43.3804 107.155 44.865 108.825Z" fill="#36464A"/>
<path fill-rule="evenodd" clip-rule="evenodd" d="M85.4904 105.961L85.3712 106.069L85.3058 106.216C85.2606 106.425 85.2152 106.635 85.1697 106.845C83.8782 112.765 82.3675 118.578 81.4346 124.593C81.4055 124.78 81.3705 124.964 81.38 125.155L81.4468 125.294L81.562 125.396L81.7079 125.445C83.8647 125.724 86.0526 125.91 88.1945 125.975C88.5124 125.984 88.7718 125.796 88.6576 125.405C86.8754 119.301 86.2196 112.74 86.0768 106.289L86.0403 106.133L85.9435 106.004L85.8032 105.926L85.6431 105.911C85.5922 105.928 85.5414 105.945 85.4904 105.961ZM85.4069 109.495C85.6666 114.757 86.3335 120.023 87.7575 125.095L87.7821 125.182C87.3981 125.168 87.0145 125.15 86.6308 125.128C85.1593 125.045 83.6892 124.907 82.2266 124.727L82.2035 124.724C82.9569 119.816 84.1401 114.981 85.2405 110.12C85.2868 109.915 85.3331 109.71 85.3792 109.504L85.4024 109.401C85.4039 109.432 85.4054 109.463 85.4069 109.495ZM46.9522 86.6517L46.8063 86.7251L46.7037 86.8515C45.3777 89.4544 44.4726 92.2739 43.6118 95.062C42.7818 97.7511 41.9358 100.465 41.4864 103.208C41.4484 103.443 41.404 103.683 41.4262 103.915C41.4262 103.915 41.4367 103.986 41.4515 104.034C41.4653 104.075 41.4653 104.075 41.479 104.116C42.1188 105.952 43.2491 107.586 44.5371 109.043L44.6978 109.177L44.85 109.214L45.0044 109.188L45.1366 109.103L45.2244 108.974L45.254 108.82C45.1842 103.423 45.4105 98.0108 46.2448 92.6663C46.5356 90.8026 46.9152 88.9381 47.427 87.1335L47.4375 86.9714L47.3804 86.819L47.2662 86.703L47.115 86.6439C47.06 86.6464 47.0061 86.649 46.9522 86.6517ZM45.6664 91.3927C44.7242 96.7543 44.4472 102.159 44.4651 107.667V107.748C43.5251 106.569 42.712 105.284 42.2171 103.862C42.2171 103.862 42.2583 103.287 42.3398 102.877C43.1212 98.9229 44.3298 95.0544 45.6738 91.3316C45.6738 91.3316 45.6706 91.3666 45.6664 91.3927ZM42.2023 103.829C42.2023 103.829 42.2023 103.828 42.2023 103.829V103.829Z" fill="#36464A"/>
<path fill-rule="evenodd" clip-rule="evenodd" d="M81.1199 70.4702C78.395 69.5874 75.4068 69.0304 72.3311 68.8796C64.9028 69.0315 52.9055 80.9531 66.6909 87.5858C81.4834 94.7035 96.7329 83.4702 91.7775 76.1417L91.7706 76.1365C91.3909 75.8559 91.0129 75.5838 90.6365 75.319C90.4258 75.1735 90.2133 75.029 89.999 74.8855C87.1406 72.9099 87.0881 68.6866 88.1691 64.9442L81.1199 70.4702Z" fill="#F7FBFC"/>
<path fill-rule="evenodd" clip-rule="evenodd" d="M88.0738 64.5666L87.9281 64.6383L81.0417 70.0367C78.3267 69.1802 75.491 68.6697 72.6408 68.5062C71.0864 68.4176 69.532 68.9017 68.0876 69.561C64.8942 71.0176 62.0435 73.4942 60.6699 76.6997C60.2564 77.6648 59.9995 78.7059 59.9858 79.7525V79.8034C59.9858 81.0773 60.3442 82.3417 61.0188 83.4472C62.2211 85.416 64.1974 86.7745 66.197 87.7769C72.6852 91.0305 80.7526 91.1979 87.1302 87.448C88.9942 86.352 90.6869 84.9501 91.8671 83.1017C92.9146 81.461 93.4643 79.4368 92.869 77.5098C92.6979 76.9549 92.4379 76.4297 92.1161 75.9466C92.1161 75.9466 91.7647 75.6481 91.4307 75.4065C90.3287 74.6123 89.1926 73.9425 88.554 72.5481C87.4901 70.2265 87.8509 67.4862 88.5314 65.095L88.5552 64.8893L88.4995 64.7375L88.3867 64.6214L88.236 64.5602C88.182 64.5624 88.1278 64.5645 88.0738 64.5666ZM87.5056 65.9673C86.9007 68.695 86.8673 71.7296 88.4493 73.9098C88.8132 74.4108 89.2653 74.8507 89.7766 75.2051C89.7766 75.2051 90.1309 75.4413 90.4128 75.6386C90.7681 75.8854 91.1187 76.1407 91.4679 76.397C91.4679 76.397 91.6388 76.6427 91.7378 76.8263C93.0559 79.2607 91.8426 82.5136 89.4769 84.7434C85.4126 88.5741 79.3178 90.0249 73.6724 89.283C70.8496 88.912 68.0918 87.9983 65.6313 86.5912C64.0176 85.6689 62.5098 84.4969 61.5793 82.8637C60.856 81.5933 60.6012 80.0816 60.8877 78.6025C61.3847 76.0426 63.1463 73.914 65.1152 72.3202C66.7447 71.0007 68.6322 69.9607 70.6561 69.4903C71.7357 69.2392 72.8811 69.2793 74.0824 69.4006C76.3871 69.6337 78.6571 70.0947 80.8732 70.7993L80.9996 70.8393L81.1249 70.8583C81.2491 70.8362 81.2501 70.8362 81.3606 70.7761L87.508 65.9568C87.5072 65.9599 87.5064 65.9642 87.5056 65.9673Z" fill="#36464A"/>
<path fill-rule="evenodd" clip-rule="evenodd" d="M79.4578 30.2083C68.2219 29.6894 58.3066 36.2722 58.4103 49.8325C58.5086 62.6248 60.9142 71.3605 67.0577 74.2864C74.8659 78.0045 94.5374 64.2228 97.1097 51.6224C99.3543 40.6274 90.694 30.7273 79.4578 30.2083Z" fill="#F7FBFC"/>
<path fill-rule="evenodd" clip-rule="evenodd" d="M78.1464 29.7907C72.7159 29.8149 67.229 31.5764 63.398 35.3905C59.7849 38.9883 58.0718 44.1325 58.0211 49.3547C58.0137 50.1563 58.0327 50.9569 58.0539 51.7595L58.0581 51.9051C58.2157 57.2518 58.6608 62.6586 60.7355 67.5865C61.9948 70.5778 63.9923 73.3561 67.0376 74.7052C69.273 75.6956 71.9144 75.3222 74.3106 74.6102C77.9431 73.5291 81.2979 71.5809 84.3514 69.3332C89.1767 65.7828 93.4632 61.3918 96.0425 55.9407C97.1756 53.5463 97.8457 50.9305 97.8556 48.1912C97.8787 41.9006 94.2295 35.7902 88.6048 32.5046C85.5011 30.6914 81.8848 29.8012 78.2786 29.7907C78.2345 29.7907 78.1905 29.7907 78.1464 29.7907ZM78.2773 30.5691C82.7206 30.5817 87.1659 32.0257 90.6091 34.8409C94.0086 37.6203 96.3888 41.6168 96.9486 46.0796C97.09 47.2071 97.1126 48.3495 97.0214 49.4812C96.5507 55.331 92.9033 60.415 88.8451 64.458C85.3412 67.9493 81.2727 70.9343 76.7422 72.8899C74.5544 73.835 72.2105 74.5733 69.8715 74.5111C67.1645 74.4394 64.6172 72.5851 62.9803 70.1538C60.1127 65.8957 59.3767 60.4351 59.0098 55.3627C58.7158 51.2849 58.5255 47.1744 59.6495 43.3076C60.9395 38.866 64.0166 34.997 68.2759 32.8221C71.2884 31.2842 74.7139 30.5923 78.0846 30.5691C78.1489 30.5691 78.2131 30.5691 78.2773 30.5691Z" fill="#36464A"/>
<path fill-rule="evenodd" clip-rule="evenodd" d="M89.4847 64.3662C92.734 61.4603 96.261 56.4649 97.9582 48.6279C102.713 26.6706 80.4519 20.7881 68.2315 24.3606C60.0525 26.7518 57.612 33.0921 60.7313 39.618C63.9946 36.6328 82.837 39.7955 82.7844 54.215C82.3518 57.8171 84.8925 58.0207 85.5502 55.7772C88.4621 45.8443 97.2187 50.9357 89.4847 64.3662Z" fill="#36464A"/>
<path fill-rule="evenodd" clip-rule="evenodd" d="M75.404 23.0001C72.254 23.0138 69.1156 23.4473 66.1845 24.6677C63.3633 25.8417 60.8012 27.8658 59.6645 30.8107C58.5658 33.6565 59.0364 36.9506 60.3613 39.7457C60.3613 39.7457 60.4026 39.8428 60.4649 39.9018C60.6045 40.0316 60.8128 40.0242 60.9989 39.9008C61.1396 39.808 61.3024 39.636 61.4875 39.5073C63.1931 38.3207 65.4274 38.0623 67.5401 38.1024C72.2392 38.1931 77.0191 39.9451 80.024 43.9437C82.1734 46.8043 82.804 50.5899 82.4138 54.0284C82.2924 55.098 82.2938 56.253 82.9137 57.0367C83.3857 57.6326 84.2781 57.8288 84.9933 57.313C85.5401 56.9175 85.8099 56.2466 86.0096 55.6064C86.5052 54.0263 87.2174 52.4115 88.5517 51.4622C89.1926 51.0065 90.0567 50.7808 90.7675 51.2027C91.6349 51.7164 92.0164 52.8471 92.1509 53.9145C92.1509 53.9145 92.1777 54.1466 92.1889 54.3164C92.3048 56.0631 91.9098 57.8067 91.3328 59.4753C90.7679 61.1102 90.0089 62.6692 89.1464 64.1733L89.0975 64.321L89.1109 64.476L89.1841 64.6131L89.3056 64.7112L89.4559 64.7534L89.6108 64.7344L89.7455 64.6553C92.7117 61.9973 94.9282 58.5429 96.4393 54.8775C99.0298 48.5953 100.076 41.4787 97.6357 35.477C96.3092 32.2146 93.9256 29.4195 90.9817 27.4164C86.5101 24.3745 80.9409 23.0381 75.6645 23.0001C75.5777 23.0001 75.4909 23.0001 75.404 23.0001ZM75.5754 23.7775C81.9756 23.8038 88.5247 25.6022 93.2219 30.2591C96.7302 33.7367 98.4328 38.7437 98.1988 43.9269C98.0423 47.3939 97.185 50.8335 95.9535 53.9947C94.7904 56.9797 93.1937 59.7833 91.0729 62.2061L91.0366 62.2473C92.2073 59.7633 93.133 57.081 92.97 54.3111C92.97 54.3111 92.9524 54.0506 92.9302 53.8629C92.7842 52.6203 92.3575 51.3388 91.3036 50.6215C90.653 50.1775 89.7874 50.0857 89.0308 50.342C87.6272 50.8188 86.6496 52.1647 85.978 53.5527C85.645 54.2405 85.388 54.9672 85.1693 55.6908C85.1386 55.792 85.1345 55.7994 85.1171 55.8469C84.9015 56.4354 84.3917 57.0725 83.8065 56.7888C83.023 56.408 83.0993 54.963 83.2096 53.923C83.526 50.8536 83.1345 47.6966 81.6008 44.9447C78.4553 39.3017 71.0559 36.5329 64.8331 37.498C63.4257 37.7163 62.0331 38.1287 60.8837 38.9821C60.8837 38.9821 60.6648 38.5053 60.5231 38.1129C59.3219 34.7851 59.5651 30.8972 62.3831 28.0504C64.5 25.9113 67.4914 24.7964 70.394 24.2426C72.0985 23.9167 73.8155 23.7753 75.5754 23.7775Z" fill="#36464A"/>
<path fill-rule="evenodd" clip-rule="evenodd" d="M64.7515 29.6271C63.0448 29.6366 61.3244 29.9478 59.8218 30.7262C59.8218 30.7262 59.6759 30.8053 59.6072 30.9582C59.5987 30.9762 59.5025 31.1924 59.4348 31.3675C58.4927 33.7882 58.5815 36.6846 59.7129 38.8406C59.9117 39.2192 60.1539 39.5768 60.4489 39.8859L60.5588 39.966C60.8306 40.0451 61.1097 39.8279 61.3646 39.6812C63.2002 38.6244 65.4705 38.4936 67.5388 38.7741C70.6444 39.1939 73.6094 40.4639 76.2385 42.2022C78.4052 43.6345 80.4111 45.4129 81.6199 47.6437C82.0889 48.5087 82.4216 49.4601 82.4653 50.4473L82.4991 50.5971L82.5949 50.7279L82.7359 50.8091L82.8976 50.825L83.0518 50.7743L83.1721 50.6657C83.2631 50.4579 83.2975 50.2237 83.3384 49.9938C84.1095 45.6428 82.9951 41.0271 80.1426 37.3787C77.3217 33.7713 73.1995 31.2029 68.7474 30.1229C67.4415 29.8054 66.1039 29.626 64.7515 29.6271ZM64.8741 30.4055C68.6745 30.4351 72.3902 31.8759 75.4527 34.0234C78.5691 36.2079 81.1009 39.2277 82.2261 43.0259C82.7255 44.7115 82.9029 46.4993 82.7724 48.2629C82.7724 48.2629 82.572 47.7756 82.3529 47.3611C81.0874 44.9678 78.9736 43.0766 76.6693 41.5535C73.313 39.3353 69.3586 37.7679 65.3785 37.8723C63.7839 37.9134 62.1841 38.2742 60.819 39.099C60.819 39.099 60.7259 39.0041 60.6804 38.9376C59.7658 37.6118 59.5374 35.883 59.6103 34.3472C59.66 33.3294 59.8705 32.3083 60.2733 31.3791C60.2733 31.3791 60.635 31.1903 60.986 31.0553C62.2158 30.5806 63.5397 30.4013 64.8741 30.4055Z" fill="#36464A"/>
</svg>
