<svg width="150" height="150" viewBox="0 0 150 150" fill="none" xmlns="http://www.w3.org/2000/svg">
<rect width="150" height="150" fill="#7DE2FF"/>
<path fill-rule="evenodd" clip-rule="evenodd" d="M34.4913 27.2719L111.635 65.6816V130.21C111.635 132.102 110.401 133.023 108.881 132.267L37.2448 96.5989C35.7249 95.8421 34.4913 93.6922 34.4913 91.8005V27.2719Z" fill="#7DE2FF"/>
<path fill-rule="evenodd" clip-rule="evenodd" d="M34.3227 26.8129L34.1541 26.9168L34.0401 27.0787L34 27.2719V91.8492C34.0025 91.9756 34.0025 92.1145 34.0352 92.3916C34.0352 92.3916 34.1019 92.8889 34.2087 93.2803C34.2681 93.5006 34.3785 93.8105 34.3785 93.8105C34.5883 94.3879 34.877 94.936 35.2373 95.4384C35.6994 96.0827 36.2938 96.6626 37.0034 97.0257C60.8191 109.077 84.6887 121.022 108.683 132.715C109.522 133.123 110.593 133.131 111.288 132.485L111.557 132.186C111.765 131.903 111.914 131.576 112 131.24C112 131.24 112.126 130.678 112.126 130.259L112.126 130.237V65.6816L112.093 65.5052C111.999 65.353 111.998 65.3518 111.855 65.2443L34.7108 26.8347L34.5192 26.7839C34.4537 26.7936 34.3882 26.8033 34.3227 26.8129ZM111.143 65.9847C111.143 87.4063 111.516 108.831 111.143 130.25C111.143 130.353 111.195 130.114 111.108 130.705C111.021 131.3 110.731 131.945 110.056 132.032C109.738 132.073 109.41 131.979 109.115 131.836C85.1202 120.143 61.1975 108.299 37.434 96.1454C35.8074 95.3137 35.0068 93.2076 34.9826 91.8407V28.0643C60.3703 40.7048 85.7565 53.3442 111.143 65.9847Z" fill="#36464A"/>
<path fill-rule="evenodd" clip-rule="evenodd" d="M75.782 62.616V54.8082C75.782 53.8177 74.9746 52.6122 73.98 52.117L70.375 50.3221C69.3803 49.8268 68.5725 50.229 68.5725 51.2195V59.0273C66.2727 58.4753 64.1318 58.5587 62.2407 59.2061L57.6678 51.1289C57.2348 50.3655 56.3129 50.1856 55.6094 50.7279L53.0609 52.6919C52.3574 53.2343 52.1366 54.2936 52.5696 55.057L57.1426 63.1341C55.8883 64.9097 54.9823 67.1745 54.5153 69.8585L48.7815 67.0042C47.7674 66.4993 46.945 67.1141 46.945 68.3752V72.947C46.945 74.2093 47.7674 75.643 48.7815 76.1483L54.5153 79.0031C54.9835 82.1531 55.8896 85.3203 57.1426 88.3436L53.8166 90.9058C52.6958 91.7694 52.3574 93.4792 53.0609 94.7216L55.6094 99.2238C56.3129 100.466 57.7939 100.774 58.9147 99.9101L62.2407 97.3478C64.1318 99.8794 66.2727 102.095 68.5725 103.833V111.641C68.5725 112.632 69.3803 113.838 70.375 114.333L73.98 116.128C74.9746 116.623 75.782 116.221 75.782 115.231V107.423C78.0817 107.975 80.2229 107.891 82.1145 107.243L86.6874 115.321C87.1196 116.084 88.0414 116.264 88.7449 115.722L91.2937 113.758C91.9971 113.216 92.2173 112.156 91.7851 111.393L87.2121 103.315C88.4655 101.54 89.3716 99.2753 89.8392 96.591L95.5731 99.4458C96.5868 99.9506 97.4097 99.3359 97.4097 98.0741V93.5019C97.4097 92.2402 96.5868 90.806 95.5731 90.3014L89.8392 87.4464C89.3716 84.2965 88.4655 81.1293 87.2121 78.106L90.5374 75.544C91.6582 74.6804 91.9971 72.97 91.2937 71.7283L88.7449 67.2253C88.0414 65.9836 86.5605 65.6755 85.4396 66.5392L82.0041 68.955C80.1126 66.4232 78.0817 64.3541 75.782 62.616ZM72.1775 69.5082C66.2084 66.5368 61.3637 70.2704 61.3637 77.8406C61.3637 85.411 66.2084 93.9699 72.1775 96.9415C78.1456 99.9132 82.9912 96.1796 82.9912 88.609C82.9912 81.0386 78.1456 72.4796 72.1775 69.5082Z" fill="#36464A"/>
<path fill-rule="evenodd" clip-rule="evenodd" d="M48.0682 66.3374C47.5806 66.3495 47.1136 66.5983 46.8298 67.0102C46.7934 67.0634 46.6697 67.2917 46.6575 67.3182C46.5459 67.5683 46.575 67.497 46.5229 67.7253C46.4768 67.927 46.4562 68.1348 46.4537 68.3425V72.9808C46.4574 73.3226 46.4828 73.5473 46.5896 73.9447C46.7303 74.475 46.9656 74.9775 47.2798 75.4268C47.3562 75.5367 48.0124 76.3048 48.5595 76.5848L54.0676 79.3275C54.0773 79.3929 54.0882 79.4584 54.0992 79.5237C54.5625 82.3988 55.3922 85.2317 56.3686 87.7382C56.4402 87.9206 56.5457 88.1841 56.5457 88.1841C55.5305 88.9664 54.5116 89.7428 53.4999 90.531C53.4854 90.5429 53.4696 90.5551 53.4551 90.5672C53.0293 90.9188 52.9104 91.0996 52.7139 91.4265C52.6909 91.4649 52.6678 91.5037 52.6472 91.5429C52.5332 91.7506 52.4143 92.0622 52.4143 92.0622C52.3064 92.3736 52.2324 92.8223 52.2312 92.8374C52.1632 93.3573 52.2105 93.8996 52.3791 94.3894L52.5065 94.7168C52.5647 94.8353 52.5356 94.7902 52.6339 94.9641C53.4866 96.4707 54.3223 97.9873 55.1933 99.4842C55.3849 99.8127 55.636 100.112 55.9392 100.344C55.9392 100.344 56.3019 100.623 56.7313 100.763C57.5622 101.034 58.5193 100.835 59.2155 100.297L62.1473 98.0382C63.8479 100.255 65.8178 102.326 68.0569 104.056L68.0812 104.075V111.645C68.0824 111.73 68.0836 111.758 68.0836 111.758C68.0873 111.807 68.0909 111.855 68.0957 111.904C68.1285 112.219 68.1455 112.214 68.1637 112.286C68.2631 112.681 68.3153 112.782 68.4839 113.098C68.4839 113.098 68.8369 113.707 69.2275 114.094C69.4931 114.358 69.7951 114.584 70.1275 114.757C71.3453 115.368 72.5619 115.982 73.7871 116.579C74.4809 116.914 75.4433 116.986 75.9741 116.249C76.2942 115.804 76.2681 115.566 76.2736 115.235V108.031C76.3113 108.038 76.3492 108.045 76.387 108.052C78.2017 108.385 80.1136 108.36 81.8832 107.831L86.2606 115.564C86.8003 116.489 88.1167 116.803 89.0249 116.125C89.8854 115.469 90.7383 114.804 91.5951 114.144C91.8719 113.93 92.0973 113.651 92.248 113.338C92.248 113.338 92.3972 113.016 92.4511 112.734L92.483 112.531C92.5008 112.342 92.4907 112.073 92.4907 112.073C92.4725 111.88 92.4613 111.723 92.3396 111.416C92.3039 111.326 92.2614 111.239 92.2143 111.154L87.7907 103.34C87.822 103.294 87.8525 103.247 87.8834 103.201C88.0419 102.956 88.2516 102.604 88.2516 102.604C88.6098 101.988 88.9236 101.346 89.1913 100.688C89.1913 100.688 89.4631 100.021 89.6735 99.3558C89.6735 99.3558 89.9242 98.5478 90.0808 97.8692C90.0808 97.8692 90.1469 97.5824 90.2014 97.3186L95.3548 99.8845C96.0313 100.214 96.896 100.182 97.4163 99.5805C97.5924 99.3766 97.7381 99.0322 97.7522 98.9935C97.7923 98.8834 97.8306 98.7277 97.8306 98.7277C97.8917 98.4475 97.8988 98.2779 97.9011 98.1068V93.4691C97.8997 93.3635 97.8905 93.2262 97.8905 93.2262C97.8675 92.9696 97.7917 92.6091 97.7917 92.6091C97.7696 92.5177 97.7448 92.4269 97.717 92.337C97.6411 92.0906 97.5456 91.8507 97.4302 91.6217C97.4302 91.6217 97.1974 91.1977 97.055 90.9945C96.7188 90.5291 96.3017 90.12 95.7938 89.8641L90.287 87.1223C90.1441 86.2056 89.9645 85.2914 89.7539 84.3832C89.2755 82.3196 88.6175 80.2657 87.8131 78.2779L87.8081 78.2656C88.8233 77.4833 89.8304 76.6906 90.8538 75.919C91.5856 75.3277 92.0479 74.4436 92.1363 73.4966L92.1514 73.232C92.154 73.0062 92.1198 72.6813 92.1198 72.6813C92.0866 72.4445 92.0367 72.2621 92.0367 72.2621C92.0136 72.1824 91.9904 72.1015 91.9633 72.023C91.8485 71.6896 91.7414 71.5217 91.7414 71.5217C90.8691 70.0118 90.0102 68.4947 89.1641 66.9691C89.1308 66.9124 89.0966 66.8568 89.0602 66.8012C88.2487 65.5764 86.4364 65.1742 85.1711 66.1285L85.1471 66.1454L82.1098 68.2809C82.0709 68.2302 82.0316 68.1795 81.9924 68.1287C81.6931 67.7446 81.387 67.3629 81.0721 66.9897C81.0721 66.9897 80.7753 66.6394 80.5554 66.3894C79.2632 64.9254 77.8311 63.5798 76.2973 62.3924L76.2736 62.3743V54.8045C76.2657 54.3286 76.1311 53.8587 75.9129 53.4323C75.9129 53.4323 75.7782 53.1763 75.6462 52.9806C75.6462 52.9806 75.3165 52.5204 74.9903 52.2257C74.7599 52.0167 74.5039 51.8367 74.2274 51.693C73.018 51.0854 71.805 50.4863 70.5933 49.8836C70.0135 49.5997 69.3233 49.4934 68.7665 49.8401C68.7665 49.8401 68.3153 50.1964 68.1831 50.5817C68.1831 50.5817 68.1188 50.8185 68.1139 50.845C68.0909 50.967 68.0824 51.0914 68.0812 51.2147V58.4185C68.0436 58.4112 68.0048 58.404 67.9672 58.3968C66.138 58.061 64.2567 58.0887 62.4712 58.6178C61.0083 56.0341 59.537 53.4565 58.0838 50.868C57.9734 50.682 57.7648 50.4537 57.7648 50.4537C57.1304 49.8461 56.1066 49.7712 55.3728 50.293L55.3316 50.3232C54.4703 50.9791 53.6164 51.6447 52.76 52.3054C52.4968 52.5083 52.2797 52.7716 52.1293 53.0663C52.1293 53.0663 51.9461 53.4601 51.8891 53.7899L51.8564 54.1474C51.8564 54.3286 51.8976 54.6281 51.9085 54.6837C51.9607 54.9253 52.1147 55.249 52.1147 55.249C52.1232 55.2647 52.1317 55.2804 52.1402 55.2961L56.5639 63.1087C55.8798 64.133 55.3449 65.2249 54.9313 66.3604C54.9313 66.3604 54.7699 66.8037 54.645 67.2095C54.6268 67.2675 54.6256 67.2675 54.6086 67.3267C54.5019 67.6806 54.4036 68.0381 54.3163 68.3969C54.2581 68.6409 54.2035 68.8861 54.1525 69.1313L49.001 66.5657C48.7099 66.422 48.3909 66.3338 48.0682 66.3374ZM69.5853 50.5986C69.7769 50.6047 69.9637 50.6675 70.136 50.7496C71.3538 51.3463 72.5668 51.9551 73.7786 52.5639C74.6325 53.0084 75.2764 53.9541 75.2906 54.8129V62.6159C75.3274 62.8539 75.5166 63.0278 75.8011 63.2488C78.0081 64.9665 79.9552 67.0283 81.6093 69.246L81.7489 69.3728C81.8081 69.3946 81.8642 69.4284 81.9263 69.4381C82.0974 69.4646 82.1382 69.4212 82.2874 69.3547L85.7321 66.9329C85.7492 66.9196 85.7663 66.9063 85.7838 66.8943C86.3823 66.451 87.2738 66.4365 87.8601 66.916C88.0403 67.0634 88.1897 67.2494 88.3091 67.4535C89.148 68.9646 90.0126 70.4612 90.8643 71.9662C90.989 72.186 91.0718 72.4276 91.1235 72.6764C91.168 72.8914 91.1626 73.5183 91.0792 73.8481C91.0792 73.8481 91.0281 74.0184 91.0234 74.0329C90.9628 74.208 90.9466 74.2346 90.9077 74.3155C90.8801 74.3723 90.8504 74.4291 90.8183 74.4846C90.6708 74.7383 90.4755 74.9642 90.2474 75.1478L86.9113 77.7189L86.7758 77.8806L86.7211 78.0841L86.7573 78.2917C87.3441 79.7166 87.8569 81.1593 88.2853 82.644C88.7317 84.1913 89.0914 85.7848 89.3309 87.3727L89.3526 87.5167L89.3997 87.666C89.4913 87.7922 89.4923 87.7932 89.6193 87.8842C91.537 88.8391 93.4593 89.7847 95.3723 90.7489C96.1061 91.1289 96.5723 91.9274 96.7936 92.6782L96.869 92.9934C96.9016 93.1766 96.9156 93.2848 96.918 93.4754V98.1004C96.9128 98.5047 96.8453 99.0227 96.3762 99.1209C96.1759 99.1628 95.9693 99.0942 95.7909 99.0072L90.0588 96.1531C89.7401 96.0628 89.42 96.1563 89.3331 96.6297C89.3331 96.6297 89.2141 97.2756 89.0817 97.8227C89.0677 97.8804 89.0681 97.8805 89.0538 97.938C88.8249 98.8539 88.5305 99.7573 88.1547 100.619C88.1547 100.619 88.0344 100.897 87.9108 101.152C87.9108 101.152 87.6714 101.644 87.4274 102.068C87.3415 102.217 87.3361 102.224 87.2991 102.285C87.1445 102.541 86.9803 102.79 86.8088 103.036L86.7341 103.202C86.7254 103.382 86.7257 103.384 86.7839 103.556C88.3103 106.252 89.8585 108.936 91.3629 111.644C91.5552 112.005 91.5537 112.323 91.4579 112.665C91.3838 112.93 91.2315 113.176 91.016 113.352L91.0048 113.361C90.1492 114.025 89.2931 114.688 88.4314 115.344C88.3724 115.388 88.3609 115.394 88.3258 115.415C87.9246 115.652 87.3705 115.518 87.1138 115.078L82.5427 107.003C82.3574 106.778 82.1292 106.728 81.7002 106.864C79.8327 107.438 77.8194 107.405 75.8964 106.947L75.7202 106.937C75.4947 107.008 75.3386 107.161 75.2906 107.423V115.226C75.2872 115.427 75.2548 115.643 75.0916 115.763C74.8314 115.956 74.4736 115.823 74.2189 115.699C72.9998 115.105 71.7881 114.494 70.5763 113.886C69.8618 113.514 69.3112 112.813 69.1231 112.068C69.1231 112.068 69.0661 111.782 69.0637 111.637V103.833C68.9994 103.415 68.4342 103.115 67.9781 102.739C66.178 101.251 64.5563 99.5239 63.1201 97.6923C62.9551 97.4816 62.7938 97.2684 62.6337 97.0546L62.4893 96.926L62.3062 96.8628L62.1133 96.8751L61.9387 96.9608C60.8239 97.8201 59.725 98.7012 58.5933 99.5385C57.9164 100.049 56.8781 100.034 56.2534 99.2946C56.1734 99.2003 56.1054 99.0985 56.0424 98.9925C55.1739 97.4978 54.3393 95.9836 53.4878 94.4791C53.3677 94.2661 53.4247 94.3957 53.3192 94.104C53.2476 93.9087 53.1397 93.1377 53.2671 92.6299C53.3993 92.1085 53.6916 91.6264 54.1076 91.301L57.4433 88.7307L57.5792 88.5683L57.6338 88.3639L57.5962 88.1558C57.5768 88.1096 57.5586 88.0635 57.5392 88.0172C56.7629 86.1056 56.1103 84.1282 55.6275 82.1362C55.3764 81.1045 55.1714 80.0577 55.0125 79.0043C55.0125 79.0043 55.1156 78.8382 54.7348 78.5654L49.0034 75.7118C48.2987 75.3507 47.8317 74.6175 47.5842 73.8493C47.5842 73.8493 47.4399 73.261 47.4362 72.9736V68.3486C47.4411 68.0321 47.4921 67.6939 47.7177 67.4716C47.9409 67.2518 48.3157 67.3194 48.5619 67.4414L54.2957 70.2969C54.668 70.402 54.941 70.2317 55.0671 69.5758C55.1908 68.9308 55.3461 68.293 55.5329 67.6625C55.5329 67.6625 55.6954 67.1346 55.8349 66.7481C55.9477 66.4389 56.069 66.1333 56.2 65.8313C56.2765 65.6513 56.3589 65.4738 56.4439 65.2974C56.7447 64.6717 57.0964 64.0678 57.4882 63.4953L57.544 63.4167L57.6204 63.25C57.6289 63.0689 57.6289 63.0665 57.5707 62.8937C56.0436 60.1965 54.4946 57.5114 52.9893 54.8021C52.9432 54.7187 52.908 54.6294 52.8838 54.5363C52.851 54.4107 52.8401 54.2247 52.8401 54.2247C52.8377 54.1172 52.8571 53.965 52.8571 53.965C52.9141 53.6292 53.073 53.3115 53.3495 53.0881C54.2059 52.4262 55.0598 51.763 55.9211 51.1071C56.342 50.8003 56.9824 50.9127 57.2384 51.3681L61.8113 59.4464C62.026 59.7061 62.3244 59.6759 62.8678 59.5225C64.6764 59.0092 66.6195 59.0635 68.4572 59.5032L68.6343 59.5128C68.8599 59.4416 69.0164 59.2894 69.0637 59.0273V51.2231C69.0649 51.1639 69.0673 51.1059 69.0758 51.048C69.1122 50.8016 69.3087 50.5962 69.5853 50.5986ZM68.1794 67.9971C66.4983 68.0128 64.8365 68.6807 63.638 69.8488C63.638 69.8488 63.1747 70.3078 62.8132 70.8066C61.9095 72.0507 61.371 73.6005 61.1211 74.9823C61.1211 74.9823 61.058 75.3362 61.0229 75.5874C60.9986 75.7529 60.9792 75.9191 60.961 76.0852C60.9392 76.2931 60.938 76.3191 60.9295 76.4262C60.9125 76.6283 60.9003 76.8303 60.8894 77.0324C60.8761 77.3262 60.8797 77.2931 60.8761 77.4341C60.8749 77.5143 60.8737 77.524 60.8724 77.7057C60.8676 78.7335 60.9452 79.7658 61.0968 80.7846C61.1041 80.8318 61.1041 80.8318 61.1114 80.879C61.8974 85.8924 64.2712 90.569 67.431 93.9134C70.0317 96.6666 73.542 98.9979 77.2982 98.3538C79.5251 97.9719 81.4233 96.3286 82.4138 94.1332L82.6104 93.6716C82.7822 93.2347 82.7746 93.2306 82.812 93.1174L82.8236 93.0832C82.9513 92.6937 83.0596 92.298 83.1467 91.8976C83.1467 91.8976 83.284 91.2376 83.3489 90.7374C83.4367 90.0619 83.4764 89.3836 83.4823 88.7017C83.4823 88.7017 83.4802 87.9739 83.4444 87.4176C83.4277 87.1564 83.4062 86.8955 83.3796 86.635C83.3257 86.1081 83.2527 85.5872 83.1592 85.0631C83.1509 85.0172 83.1425 84.9714 83.1342 84.9255C83.123 84.8638 83.1111 84.8023 83.0994 84.7407C83.0251 84.3528 82.9388 83.9691 82.8461 83.588C82.7956 83.3804 82.7896 83.3636 82.764 83.2649C81.7409 79.3343 79.7776 75.5947 76.9857 72.6027C75.1474 70.6327 72.961 68.9597 70.2876 68.27C69.5998 68.0913 68.8878 67.9934 68.1794 67.9971ZM68.2437 68.9754C69.8958 68.9815 71.4957 69.6168 72.8907 70.4624C73.0581 70.565 73.0908 70.5868 73.1854 70.6484C77.8906 73.685 80.6132 79.1872 81.705 83.1138C81.7663 83.3342 81.8248 83.5553 81.8804 83.7768C81.9292 83.9709 81.9323 83.9896 81.9545 84.0847C82.2549 85.3676 82.4494 86.6762 82.4907 88.0452C82.5265 89.2315 82.4526 90.4288 82.2019 91.6167C82.052 92.3267 81.8359 93.0104 81.5443 93.6722C81.4598 93.8642 81.4519 93.8739 81.4111 93.9564C80.5128 95.7688 78.797 97.3291 76.4773 97.4634C73.4596 97.6381 70.6964 95.7486 68.7423 93.8481C67.8835 93.0129 67.0987 92.0789 66.4231 91.1535C66.3976 91.1185 66.3976 91.1186 66.3721 91.0833C64.3986 88.3241 62.9806 85.1902 62.2831 81.8345C62.2091 81.4821 62.1449 81.1283 62.0891 80.7729C62.083 80.7297 62.083 80.7298 62.0757 80.6864C61.9763 80.0174 61.9059 79.3424 61.8744 78.664C61.8586 78.3378 61.8622 78.3495 61.8598 78.2302C61.8271 76.7144 61.9811 75.2142 62.4117 73.8372C63.04 71.8285 64.327 69.9454 66.4497 69.2521C67.0259 69.0624 67.6372 68.9754 68.2437 68.9754Z" fill="#36464A"/>
<path fill-rule="evenodd" clip-rule="evenodd" d="M115.492 63.7611L111.635 65.6816V130.21C111.635 131.293 111.23 132.058 110.599 132.372L114.457 130.452V130.452C115.088 130.137 115.492 129.373 115.492 128.29V63.7611Z" fill="#7DE2FF"/>
<path fill-rule="evenodd" clip-rule="evenodd" d="M115.273 63.3238L111.415 65.2443L111.271 65.353C111.177 65.504 111.176 65.5064 111.143 65.6816V130.232C111.131 131.042 110.953 131.594 110.448 131.897C110.424 131.911 110.4 131.924 110.375 131.937L110.234 132.045C110.141 132.196 110.14 132.198 110.108 132.372L110.148 132.566L110.262 132.728L110.431 132.832L110.627 132.861L110.819 132.81L114.682 130.887C115.072 130.687 115.392 130.361 115.599 129.977L115.82 129.453C115.88 129.245 115.928 129.085 115.963 128.728C115.964 128.711 115.981 128.481 115.984 128.318V63.761L115.944 63.5678L115.83 63.4059L115.661 63.302L115.464 63.273C115.401 63.2899 115.337 63.3069 115.273 63.3238ZM115.001 128.311C114.993 128.809 114.96 129.145 114.701 129.569C114.587 129.755 114.429 129.916 114.233 130.016L112.032 131.112C112.077 130.923 112.109 130.689 112.119 130.461C112.119 130.461 112.125 130.344 112.126 130.239V65.9847L115.001 64.5534C115.001 85.8058 115.001 107.058 115.001 128.311Z" fill="#36464A"/>
<path fill-rule="evenodd" clip-rule="evenodd" d="M34.4913 21.5102C34.4913 19.7986 35.6085 18.964 36.984 19.6489L109.142 55.5775C110.518 56.2624 111.635 58.2083 111.635 59.9199V65.6815L34.4913 27.2718V21.5102Z" fill="#7DE2FF"/>
<path fill-rule="evenodd" clip-rule="evenodd" d="M36.0366 18.9206C35.3403 18.9326 34.6817 19.3409 34.3457 19.9763L34.2559 20.1586C34.1565 20.3906 34.0861 20.6358 34.0485 20.8846L34.0145 21.1552C34.0024 21.2989 34 21.4656 34 21.4656V27.2719C34.057 27.5763 34.1746 27.6367 34.2717 27.7104L111.415 66.12L111.607 66.1708L111.803 66.1418L111.972 66.0379L112.086 65.876L112.126 65.6816C112.126 63.7465 112.163 61.8103 112.126 59.8753C112.126 59.6264 112.101 59.3752 112.059 59.1324C112.059 59.1324 112.013 58.8872 112.012 58.8824C111.766 57.7168 111.165 56.6067 110.292 55.7938C110.018 55.5389 109.713 55.3179 109.381 55.1488C85.3669 43.0506 61.3661 30.9197 37.1671 19.1936C36.8153 19.022 36.432 18.9181 36.0366 18.9206ZM36.0669 19.899C36.3046 19.9026 36.5351 19.9763 36.751 20.0801C60.8602 31.9778 84.9698 43.8756 108.95 56.0293C109.562 56.3446 110.038 56.8845 110.398 57.4728C110.489 57.6213 110.495 57.6346 110.534 57.7083C110.9 58.3799 111.143 59.1239 111.143 59.8849L111.143 64.8904L34.9825 26.9699V21.4752C34.9861 21.3061 34.9849 21.2168 35.0347 20.951C35.1305 20.4389 35.4653 19.9231 36.0184 19.9002C36.0341 19.899 36.0511 19.899 36.0669 19.899Z" fill="#36464A"/>
<path fill-rule="evenodd" clip-rule="evenodd" d="M107.184 56.6539C106.158 56.1429 105.325 56.794 105.325 58.1082C105.325 59.4224 106.158 60.9032 107.184 61.4142C108.21 61.9251 109.043 61.2741 109.043 59.9599C109.043 58.6457 108.21 57.1648 107.184 56.6539Z" fill="#7DE2FF"/>
<path fill-rule="evenodd" clip-rule="evenodd" d="M106.484 55.9906C105.848 56.0039 105.272 56.4484 105.025 57.0463C104.343 58.6963 105.341 60.9152 106.817 61.7728C107.425 62.1267 108.26 62.21 108.845 61.722C109.49 61.1821 109.622 60.1421 109.475 59.2845C109.27 58.0899 108.62 56.9316 107.579 56.3119C107.249 56.115 106.87 55.9858 106.484 55.9906ZM106.512 56.969C107.348 56.9738 107.953 57.8604 108.293 58.712C108.547 59.3461 108.728 60.066 108.399 60.7231C107.887 61.7498 105.588 59.9658 105.831 57.8399C105.838 57.7831 105.847 57.7263 105.859 57.6696C105.927 57.3471 106.091 56.9919 106.477 56.9702C106.488 56.969 106.5 56.969 106.512 56.969Z" fill="#36464A"/>
<path fill-rule="evenodd" clip-rule="evenodd" d="M102.297 54.2198C101.271 53.7089 100.438 54.3612 100.438 55.6754C100.438 56.9883 101.271 58.4704 102.297 58.9813C103.323 59.4923 104.156 58.84 104.156 57.5258C104.156 56.2129 103.323 54.7308 102.297 54.2198Z" fill="#7DE2FF"/>
<path fill-rule="evenodd" clip-rule="evenodd" d="M101.612 53.5568C99.8232 53.5785 99.3324 56.8507 101.243 58.7978C101.275 58.8292 101.307 58.8618 101.34 58.8932C101.406 58.9548 101.474 59.0152 101.544 59.072C102.142 59.5588 103.004 59.8487 103.717 59.4549C104.951 58.7725 104.803 56.6429 104.004 55.2708C103.759 54.8492 103.45 54.4591 103.075 54.1499C103.023 54.1064 102.97 54.0653 102.916 54.0267C102.537 53.75 102.087 53.5556 101.612 53.5568ZM101.631 54.5352C102.669 54.5509 103.316 55.8035 103.559 56.7432C103.736 57.4257 103.87 58.4439 103.122 58.6468C102.734 58.7519 102.31 58.462 102.019 58.1854C101.116 57.3254 100.561 55.8095 101.11 54.8577C101.214 54.6765 101.403 54.54 101.612 54.5352C101.619 54.5352 101.625 54.5352 101.631 54.5352Z" fill="#36464A"/>
<path fill-rule="evenodd" clip-rule="evenodd" d="M97.4097 51.7872C96.3836 51.2762 95.5504 51.9273 95.5504 53.2415C95.5504 54.5557 96.3836 56.0365 97.4097 56.5475C98.4358 57.0584 99.2689 56.4073 99.2689 55.0932C99.2689 53.779 98.4358 52.2981 97.4097 51.7872Z" fill="#7DE2FF"/>
<path fill-rule="evenodd" clip-rule="evenodd" d="M96.7243 51.1229C95.1811 51.1422 94.6919 53.5205 95.565 55.2454C96.1911 56.4823 97.4565 57.7035 98.767 57.0536C99.0221 56.928 99.238 56.7275 99.3927 56.4895C99.3927 56.4895 99.6745 55.9424 99.7307 55.5401C100.005 53.5725 98.5436 51.1966 96.7997 51.1241C96.7746 51.1241 96.7494 51.1229 96.7243 51.1229ZM96.7441 52.1025C97.7048 52.117 98.3326 53.2174 98.6163 54.1172C98.795 54.6825 98.8916 55.3239 98.6253 55.8566C98.3913 56.3253 97.6555 56.2504 97.1315 55.7515C96.2857 54.9458 95.7286 53.6389 96.1536 52.5675C96.2453 52.3368 96.437 52.1133 96.7132 52.1025C96.7235 52.1025 96.7338 52.1025 96.7441 52.1025Z" fill="#36464A"/>
<path fill-rule="evenodd" clip-rule="evenodd" d="M111.635 65.6815L115.492 63.761V57.9993C115.492 56.2878 114.376 54.3419 113 53.657L40.8413 17.7283C40.253 17.436 39.7132 17.4203 39.2863 17.6329L35.429 19.5534C35.8548 19.3408 36.3958 19.3566 36.984 19.6489L109.142 55.5775C110.518 56.2624 111.635 58.2083 111.635 59.9199V65.6815Z" fill="#7DE2FF"/>
<path fill-rule="evenodd" clip-rule="evenodd" d="M39.9024 17C39.6476 17.0024 39.3941 17.0508 39.1612 17.151C39.1151 17.1715 39.0666 17.1957 39.0666 17.1957L35.2081 19.1162L35.065 19.2238C34.9704 19.3759 34.9692 19.3784 34.9364 19.5535L34.9765 19.7456L35.088 19.9074L35.2554 20.0113L35.4495 20.0427L35.6412 19.9956C35.9954 19.8265 36.4078 19.9183 36.7413 20.0753C60.8275 32.0262 84.9666 43.8743 108.95 56.0293C109.562 56.3446 110.038 56.8845 110.398 57.4728C110.489 57.6213 110.495 57.6346 110.534 57.7083C110.9 58.3799 111.143 59.1239 111.143 59.8849L111.143 65.6816L111.183 65.876L111.297 66.0379L111.466 66.1418L111.663 66.1708L111.854 66.12L115.712 64.1995L115.856 64.0908C115.95 63.9386 115.951 63.9362 115.984 63.761C115.984 61.826 116.02 59.8898 115.983 57.9547C115.983 57.7808 115.97 57.6068 115.949 57.4341C115.827 56.4364 115.562 55.8832 115.256 55.3215C114.787 54.4591 114.12 53.6752 113.238 53.2282C89.2366 41.1349 65.1202 29.2698 41.0608 17.2911C40.7005 17.1124 40.3063 16.9988 39.9024 17ZM39.9266 17.9784C40.1595 17.9808 40.3864 18.0545 40.5986 18.1548C64.6848 30.1056 88.8242 41.9538 112.808 54.1076C114.224 54.8384 115 56.7311 115 57.9644L115.001 63.4591L112.126 64.8904C112.126 63.2187 112.158 61.547 112.126 59.8753C112.126 59.7859 112.124 59.781 112.122 59.7412C112.115 59.537 112.093 59.3329 112.059 59.1324C112.059 59.1324 112.013 58.8872 112.012 58.8824C111.766 57.7168 111.166 56.6067 110.292 55.7938C110.018 55.5389 109.713 55.3179 109.381 55.1488L109.363 55.1403L37.2095 19.2141C37.9822 18.83 38.7488 18.4326 39.5275 18.0606C39.6513 18.0026 39.7896 17.9784 39.9266 17.9784Z" fill="#36464A"/>
<path fill-rule="evenodd" clip-rule="evenodd" d="M85.217 104.986C85.0706 104.96 84.9172 104.909 84.7591 104.83L79.0253 101.975C78.5577 104.66 77.6516 106.924 76.3982 108.7L80.9711 116.777C81.4033 117.54 81.1832 118.6 80.4797 119.142L78.0561 121.01L85.7903 117.159C86.0173 117.121 86.2433 117.024 86.4505 116.864L88.9994 114.9C89.7026 114.358 89.9229 113.298 89.4907 112.535L85.217 104.986Z" fill="#7DE2FF"/>
<path fill-rule="evenodd" clip-rule="evenodd" d="M78.9491 101.492C78.5925 101.57 78.5778 101.687 78.5081 102.076C78.0925 104.337 77.3127 106.535 75.9949 108.42C75.9949 108.42 75.8747 108.646 75.9238 108.827C75.9381 108.88 75.9465 108.891 75.9702 108.94C77.4965 111.636 79.0657 114.308 80.5489 117.028C80.8537 117.59 80.6851 118.345 80.1899 118.747L77.7553 120.623C77.7553 120.623 77.5235 120.848 77.5736 121.103C77.6311 121.396 77.9822 121.572 78.2758 121.447L85.9496 117.627C86.0593 117.604 86.0588 117.601 86.1021 117.588C86.3322 117.519 86.5497 117.406 86.7399 117.26C87.5988 116.608 88.4481 115.944 89.3022 115.286C90.1673 114.605 90.4879 113.312 89.9194 112.296L85.6453 104.746C85.4514 104.444 85.302 104.551 84.9778 104.392L79.2452 101.537C79.1553 101.499 79.1379 101.474 78.9491 101.492ZM84.5404 105.268C84.6778 105.336 84.8928 105.41 84.8928 105.41C86.2852 107.87 87.6897 110.322 89.0697 112.789C89.0767 112.801 89.0833 112.814 89.0898 112.827C89.122 112.892 89.1483 112.96 89.1688 113.029C89.1839 113.08 89.1953 113.132 89.2034 113.185C89.2789 113.672 89.0944 114.197 88.7096 114.504C87.8636 115.17 87.0039 115.819 86.1511 116.476C85.9358 116.642 85.6496 116.69 85.6496 116.69C85.5913 116.711 85.5705 116.721 85.5705 116.721L81.3938 118.801C81.7634 118.118 81.7943 117.261 81.4013 116.54L76.9768 108.725C76.9982 108.693 77.0191 108.661 77.0403 108.629C78.2019 106.852 78.9384 104.832 79.3766 102.757L79.3875 102.703C81.1051 103.558 82.8228 104.413 84.5404 105.268Z" fill="#36464A"/>
<path fill-rule="evenodd" clip-rule="evenodd" d="M48.0561 105.328L51.934 103.397L51.4488 102.74L48.0561 105.328Z" fill="#7DE2FF"/>
<path fill-rule="evenodd" clip-rule="evenodd" d="M51.4245 102.251C51.2753 102.262 51.2401 102.286 51.1504 102.351L47.7564 104.94C47.5539 105.103 47.5757 105.177 47.566 105.288C47.5393 105.617 47.9153 105.922 48.2513 105.778C48.2586 105.774 48.2671 105.77 48.2756 105.766L52.1547 103.835C52.2336 103.793 52.2518 103.774 52.2869 103.738C52.4495 103.571 52.4859 103.33 52.3306 103.107L51.8454 102.45C51.7447 102.321 51.5907 102.247 51.4245 102.251Z" fill="#36464A"/>
<path fill-rule="evenodd" clip-rule="evenodd" d="M86.3101 104.541L86.4505 104.61C89.0137 103.207 92.2161 101.962 94.2551 100.813C94.7717 100.521 95.1154 99.9437 95.1154 99.1285V94.6443C95.1154 93.3825 94.2923 91.9484 93.2787 91.4438L87.5449 88.5889C87.0773 85.4389 86.1712 82.2718 84.9178 79.2484L88.243 76.6863C89.3638 75.8226 89.7027 74.1127 88.9994 72.871L86.4505 68.368C85.7471 67.1263 84.0431 67.0587 82.9223 67.6674L79.3182 69.5868C77.553 67.3292 75.5862 65.3447 73.4874 63.7587V55.9509C73.4874 54.9604 72.6796 53.7538 71.6849 53.2585L68.0812 51.4636C67.5511 51.2003 67.0744 51.1906 66.7445 51.3899L66.7432 51.3863L58.2427 55.6199V55.6212C58.5714 55.4339 59.0408 55.4472 59.5612 55.7057L63.1662 57.5006C64.1608 57.9959 64.9674 59.2025 64.9674 60.193V68.0008C67.2673 69.739 69.4094 71.9542 71.3004 74.486L74.6252 71.924C75.7465 71.0604 77.2275 71.3672 77.9309 72.6101L80.4798 77.1123C81.1832 78.3547 80.8443 80.0645 79.7234 80.9281L76.3982 83.4903C77.6516 86.5136 78.5577 89.6808 79.0253 92.8308L84.7592 95.6857C85.7727 96.1904 86.5957 97.6245 86.5957 98.8863V103.459C86.5957 103.909 86.4909 104.277 86.3101 104.541Z" fill="#7DE2FF"/>
<path fill-rule="evenodd" clip-rule="evenodd" d="M67.2455 50.763C66.998 50.769 66.7567 50.8258 66.5371 50.943L66.5238 50.949L58.0232 55.1814L57.8861 55.2817L57.7927 55.423C57.7527 55.5861 57.7527 55.5873 57.7697 55.754C57.7697 55.754 57.9759 56.2239 58.4635 56.0548C58.4635 56.0548 58.9536 55.9581 59.3211 56.1333C60.5377 56.7348 61.7555 57.3327 62.9649 57.9475C63.3906 58.1661 63.706 58.4572 64.0177 58.9138C64.1851 59.1578 64.3222 59.4272 64.4011 59.7062L64.4738 60.1072C64.475 60.1386 64.4763 60.1737 64.4763 60.1737V68.0008L64.4993 68.1481C64.5891 68.3293 64.7759 68.4694 64.9348 68.5926C67.1764 70.3308 69.1268 72.4168 70.8189 74.6611L70.9051 74.777L71.0494 74.9075L71.2338 74.9703L71.4266 74.9594L71.6013 74.8737C72.71 74.0185 73.8186 73.1645 74.9261 72.3105C75.6289 71.7694 76.6998 71.7827 77.3439 72.6101C77.4 72.6813 77.4493 72.7586 77.4956 72.8372C78.3392 74.3579 79.2256 75.8542 80.065 77.3768C80.1306 77.496 80.1995 77.6688 80.2103 77.699C80.3749 78.1595 80.3503 78.3053 80.3544 78.4842C80.3646 78.9194 80.267 79.3627 80.0702 79.7476C79.8475 80.1833 79.7084 80.3182 79.4215 80.5419L76.0976 83.1032L75.9621 83.265L75.9074 83.4684C75.9916 83.9503 76.2395 84.3988 76.4191 84.8745C77.3997 87.4711 78.1271 90.1723 78.5393 92.9035L78.5868 93.0518C78.6782 93.177 78.6792 93.178 78.8056 93.2685C80.7228 94.2231 82.6445 95.1686 84.5572 96.1324C85.2326 96.488 85.6743 97.2008 85.9118 97.8531C85.9118 97.8531 86.0073 98.1278 86.0549 98.3777L86.0864 98.5833C86.0993 98.7109 86.1043 98.8894 86.1043 98.8894V103.475C86.1015 103.63 86.1935 103.839 85.9031 104.266L85.8257 104.458L85.8347 104.665L85.9286 104.849C86.177 105.047 86.3785 105.2 87.0458 104.846C89.4955 103.55 92.1252 102.571 94.4963 101.239C94.8117 101.062 95.0786 100.792 95.2644 100.483L95.3552 100.314C95.3981 100.223 95.4477 100.094 95.4477 100.094C95.5712 99.7249 95.6011 99.4477 95.6062 99.1952L95.6067 94.6115C95.6067 94.6115 95.5428 93.8489 95.4024 93.4138C95.0767 92.4045 94.3992 91.4672 93.5013 91.0072L87.9927 88.2644C87.9825 88.199 87.9722 88.1336 87.9616 88.0682C87.7588 86.8099 87.4935 85.5753 87.1623 84.3325C86.7228 82.6836 86.1741 81.0595 85.5195 79.4214L85.5141 79.4078C86.5292 78.6257 87.547 77.8471 88.5593 77.0614C88.5796 77.0456 88.5998 77.0294 88.6196 77.013C88.9046 76.7824 89.1397 76.4998 89.335 76.1843C89.3487 76.1622 89.362 76.1398 89.3751 76.1173C89.7012 75.5561 89.8626 74.9002 89.8575 74.2576C89.853 73.6996 89.7091 73.1379 89.4359 72.6439C88.5645 71.1413 87.7406 69.6097 86.867 68.1071C86.7415 67.8933 86.7154 67.8752 86.7154 67.8752C85.8413 66.6999 83.9561 66.5501 82.6892 67.2362L79.4497 68.9622C77.8422 66.9535 76.021 65.0898 73.9836 63.5207L73.9787 55.9472C73.9775 55.8434 73.9836 55.9098 73.9703 55.7467L73.9533 55.5982C73.9157 55.3578 73.9436 55.4943 73.8963 55.3059C73.7653 54.7853 73.6998 54.7261 73.576 54.4929C73.2049 53.7972 72.6311 53.1981 71.9337 52.8345C70.7243 52.2282 69.5113 51.629 68.2996 51.0263C67.9903 50.8729 67.6518 50.7702 67.3025 50.763C67.2746 50.763 67.2746 50.763 67.2455 50.763ZM75.9713 70.9444C75.3755 70.9565 74.7951 71.1751 74.3257 71.5363L71.3927 73.795C69.6751 71.5556 67.7331 69.5155 65.4842 67.7785L65.46 67.7592V60.1652L65.4454 59.926C65.4102 59.6603 65.3011 59.2919 65.3011 59.2919C65.1701 58.915 64.9796 58.5587 64.7419 58.2374C64.7419 58.2374 64.4314 57.8328 64.1306 57.5694C63.9049 57.3713 63.6563 57.201 63.387 57.0633L59.9142 55.3348L66.9604 51.8235C66.9604 51.8235 67.425 51.6955 67.8411 51.8924C69.0565 52.4951 70.2719 53.0978 71.4836 53.7054C72.1908 54.0738 72.7439 54.7611 72.9368 55.5245C72.9368 55.5245 72.9938 55.8083 72.9962 55.9545V63.7587C73.0605 64.1693 73.6246 64.4762 74.0515 64.8276C75.8404 66.3037 77.4569 68.0116 78.8896 69.8356C78.8896 69.8356 79.1296 70.1085 79.3877 70.0723C79.4441 70.0639 79.496 70.0361 79.5502 70.0192C80.7599 69.3741 81.9742 68.7376 83.1795 68.0853C84.0604 67.6287 85.2397 67.6287 85.8694 68.3861C85.9298 68.4586 85.9771 68.531 86.0175 68.5999C86.8906 70.1013 87.7441 71.6148 88.585 73.1355C89.0269 73.9388 88.9507 74.9884 88.4354 75.7699C88.3038 75.9688 88.1401 76.1442 87.9533 76.2906L84.617 78.8613L84.4811 79.0237L84.4266 79.228L84.4639 79.4362C84.4832 79.4822 84.5022 79.5285 84.5213 79.5746C85.2054 81.2609 85.7891 82.9628 86.2504 84.7283C86.5858 86.0121 86.8599 87.3405 87.0591 88.6615L87.1065 88.8098C87.1979 88.9352 87.1989 88.9362 87.3253 89.0266L93.0566 91.8803C94.0394 92.3836 94.5834 93.5525 94.6228 94.5711L94.6237 94.6178C94.6237 96.1371 94.6543 97.6565 94.6235 99.1754C94.6129 99.688 94.3955 100.175 93.8714 100.466C91.6802 101.672 89.3251 102.581 87.0876 103.72C87.0876 103.72 87.0853 103.599 87.0873 103.484V98.883C87.0851 98.7105 87.0631 98.4722 87.0631 98.4722C87.0497 98.3671 87.0276 98.2311 87.0276 98.2311C86.9832 97.9982 86.9726 97.9654 86.9425 97.8557C86.918 97.7664 86.8902 97.6782 86.8607 97.5904C86.7637 97.3019 86.6369 97.0233 86.4846 96.7596C86.4846 96.7596 86.1132 96.1366 85.6814 95.7395C85.471 95.546 85.2364 95.3776 84.98 95.2483L79.4729 92.5064C79.2863 91.31 79.0419 90.1275 78.7398 88.9467C78.2744 87.1279 77.6897 85.3671 76.9994 83.6621L76.9945 83.6499C78.0145 82.864 79.0408 82.0858 80.0543 81.2917C80.0754 81.275 80.0963 81.2582 80.1169 81.2409C80.4362 80.9736 80.7036 80.6485 80.902 80.2758C80.902 80.2758 81.1882 79.711 81.2819 79.1823L81.3289 78.8038C81.3477 78.4805 81.3344 78.1531 81.2667 77.8359L81.1812 77.5027C81.0515 77.0934 80.9929 77.0258 80.9187 76.891C80.0775 75.3701 79.1935 73.8735 78.3502 72.354C78.2398 72.1656 78.1879 72.0967 78.1224 72.0122C77.6224 71.3635 76.824 70.9444 76.0067 70.9444C75.995 70.9444 75.9831 70.9444 75.9713 70.9444Z" fill="#36464A"/>
<path fill-rule="evenodd" clip-rule="evenodd" d="M73.4839 116.485L71.3005 112.628C69.4095 113.276 67.2674 113.359 64.9676 112.807V120.615C64.9676 120.834 64.9287 121.024 64.856 121.182C64.7626 121.393 64.5709 121.549 64.3271 121.677L72.5911 117.562C72.9441 117.317 73.2182 117.256 73.3674 116.959C73.4317 116.824 73.473 116.665 73.4839 116.485Z" fill="#7DE2FF"/>
<path fill-rule="evenodd" clip-rule="evenodd" d="M71.2591 112.14C71.1815 112.15 71.1645 112.158 71.1414 112.165C69.1922 112.828 67.0537 112.799 65.0814 112.331C65.0814 112.331 64.9055 112.293 64.7527 112.367C64.5877 112.447 64.4846 112.623 64.4761 112.807V120.63C64.4701 120.882 64.3354 121.118 64.0964 121.245C64.0964 121.245 63.7289 121.555 63.8818 121.883C63.9921 122.121 64.2481 122.248 64.5465 122.114L72.8105 118C73.1974 117.79 73.8913 117.384 73.9689 116.582C73.9798 116.466 73.9665 116.35 73.9119 116.244L71.7285 112.387C71.6291 112.227 71.458 112.131 71.2591 112.14ZM72.9767 116.585C72.9706 116.615 72.9621 116.645 72.9524 116.674C72.8784 116.902 72.5752 116.979 72.3277 117.148L65.4598 120.566V113.415C65.4974 113.422 65.535 113.429 65.5726 113.437C67.3994 113.774 69.3026 113.743 71.0687 113.216C71.7043 114.339 72.3411 115.462 72.9767 116.585Z" fill="#36464A"/>
<path fill-rule="evenodd" clip-rule="evenodd" d="M46.0291 67.9898C45.7744 67.9439 45.5403 67.9765 45.3414 68.0755L36.8214 72.3177C37.1356 72.1606 37.5346 72.1727 37.9677 72.3877L43.7014 75.2432C44.1684 72.558 45.0745 70.2932 46.3287 68.5188L46.0291 67.9898Z" fill="#7DE2FF"/>
<path fill-rule="evenodd" clip-rule="evenodd" d="M45.7927 67.4801C45.561 67.4838 45.3294 67.5345 45.1219 67.6372L36.602 71.8793C36.602 71.8793 36.3412 72.0701 36.3303 72.3177C36.3303 72.3177 36.4334 72.7888 36.7973 72.8069C36.9234 72.813 37.0399 72.7393 37.1599 72.7139C37.3613 72.6704 37.5699 72.7393 37.7494 72.8263L43.482 75.6805C43.5984 75.7324 43.6227 75.73 43.6821 75.7324C43.9648 75.7433 44.154 75.4945 44.2183 75.143C44.6222 72.9314 45.3839 70.7547 46.6467 68.9212C46.8286 68.6554 46.7728 68.7351 46.7898 68.6868C46.8383 68.554 46.8213 68.4054 46.757 68.2786L46.4574 67.7495C46.3932 67.6468 46.3725 67.6348 46.3289 67.6009C46.1857 67.4922 46.0147 67.4801 45.7927 67.4801ZM45.7503 68.4936C45.7284 68.525 45.7078 68.5564 45.6872 68.5878C44.5167 70.373 43.7707 72.418 43.3389 74.5149L38.4226 72.0677C40.8074 70.8803 43.1593 69.6266 45.5756 68.5068C45.6508 68.473 45.7212 68.4416 45.7503 68.4936Z" fill="#36464A"/>
<path fill-rule="evenodd" clip-rule="evenodd" d="M57.7622 56.4918L55.3726 52.2714C54.9918 51.5986 54.2324 51.3788 53.5762 51.7062L45.1363 55.9084V55.9108C45.7743 55.6402 46.4875 55.8685 46.8526 56.5123L51.4256 64.5907C53.3178 63.9421 55.4587 63.8587 57.7586 64.4107V56.6029C57.7586 56.5655 57.7598 56.528 57.7622 56.4918Z" fill="#7DE2FF"/>
<path fill-rule="evenodd" clip-rule="evenodd" d="M54.1672 51.0685C53.8858 51.0746 53.6105 51.1434 53.3582 51.2678L44.9158 55.4713C44.7023 55.5909 44.5992 55.8457 44.6768 56.0825C44.6768 56.0825 44.7423 56.2347 44.8576 56.3132C45.1499 56.5161 45.5405 56.2057 45.9201 56.3265C46.1348 56.3929 46.3132 56.556 46.4248 56.7529L50.9977 64.8312C51.2306 65.1972 51.7619 64.9822 52.2276 64.859C53.9865 64.394 55.8605 64.464 57.6448 64.8868C57.6448 64.8868 57.8632 64.9255 58.0233 64.824C58.1616 64.7358 58.2416 64.5776 58.2501 64.4109C58.2501 61.8031 58.1907 59.194 58.2501 56.5862C58.2537 56.4461 58.3253 56.5197 58.1907 56.2516C57.3901 54.8384 56.5871 53.4263 55.7902 52.0119C55.5306 51.5722 55.3608 51.478 55.1728 51.356C54.872 51.1616 54.5639 51.0637 54.1672 51.0685ZM54.2024 52.0469C54.5105 52.0518 54.7931 52.2414 54.9447 52.5108L57.2676 56.614V63.8033C55.3935 63.4337 53.4722 63.4579 51.6575 64.0026C50.1959 61.4189 48.7331 58.8365 47.2702 56.254C47.1162 55.9931 46.9427 55.8083 46.7389 55.6573C49.0945 54.4845 51.4416 53.2971 53.8045 52.1399C53.9295 52.0808 54.0653 52.0457 54.2024 52.0469Z" fill="#36464A"/>
<path fill-rule="evenodd" clip-rule="evenodd" d="M64.9674 68.0008V60.193C64.9674 59.2025 64.1608 57.9958 63.1661 57.5006L59.5611 55.7057C58.5665 55.2104 57.7586 55.6126 57.7586 56.6031V64.4109C55.4588 63.8589 53.3179 63.9422 51.4257 64.5909L46.8527 56.5125C46.4209 55.7491 45.4991 55.5704 44.7955 56.1115L42.247 58.0755C41.5435 58.6179 41.3228 59.6784 41.7558 60.4418L46.3287 68.5189C45.0745 70.2933 44.1684 72.5581 43.7014 75.2433L37.9676 72.3878C36.9536 71.8829 36.1312 72.4977 36.1312 73.76V78.332C36.1312 79.5937 36.9536 81.0278 37.9676 81.5325L43.7014 84.3875C44.1684 87.5374 45.0745 90.7046 46.3287 93.7278L43.0027 96.2901C41.8819 97.1538 41.5435 98.8635 42.247 100.106L44.7955 104.608C45.4991 105.85 46.9801 106.158 48.1009 105.294L51.4257 102.732C53.3179 105.264 55.4588 107.479 57.7586 109.217V117.025C57.7586 118.016 58.5665 119.222 59.5611 119.717L63.1661 121.512C64.1608 122.008 64.9674 121.605 64.9674 120.615V112.807C67.2672 113.359 69.4093 113.276 71.3004 112.628L75.8734 120.705C76.3056 121.468 77.2275 121.648 77.9309 121.106L80.4797 119.142C81.1831 118.6 81.4033 117.54 80.9711 116.777L76.3982 108.7C77.6515 106.924 78.5576 104.66 79.0252 101.975L84.7591 104.83C85.7727 105.335 86.5957 104.72 86.5957 103.458V98.8862C86.5957 97.6245 85.7727 96.1904 84.7591 95.6857L79.0252 92.8307C78.5576 89.6808 77.6515 86.5136 76.3982 83.4902L79.7233 80.9281C80.8442 80.0644 81.1831 78.3547 80.4797 77.1122L77.9309 72.6101C77.2275 71.3671 75.7464 71.0603 74.6252 71.924L71.19 74.3385C69.299 71.808 67.2672 69.7389 64.9674 68.0008ZM61.3636 74.8918C55.3945 71.9204 50.5499 75.6539 50.5499 83.2249C50.5499 90.7953 55.3945 99.3542 61.3636 102.326C67.3315 105.297 72.1774 101.564 72.1774 93.9933C72.1774 86.4229 67.3315 77.864 61.3636 74.8918Z" fill="#7DE2FF"/>
<path fill-rule="evenodd" clip-rule="evenodd" d="M37.2532 71.7223C36.9342 71.7295 36.6188 71.8334 36.3665 72.0254C36.3665 72.0254 36.2283 72.1341 36.1324 72.2441C35.9129 72.4965 35.7831 72.7683 35.7018 73.1391C35.6994 73.1536 35.6594 73.4 35.657 73.4218C35.6448 73.5317 35.6412 73.644 35.6388 73.7563V78.3351C35.6412 78.5077 35.663 78.746 35.663 78.746C35.6958 79.0008 35.7006 79.0001 35.7188 79.0894C35.7188 79.0894 35.8522 79.6264 35.9917 79.9566C36.0779 80.1573 36.2246 80.4282 36.2246 80.4282C36.5946 81.0679 37.0968 81.6423 37.7469 81.9697L43.2538 84.7118C43.7354 87.7972 44.6172 90.8128 45.7271 93.5559L45.732 93.5683C44.7118 94.3542 43.6845 95.1301 42.6716 95.9265C41.7303 96.6682 41.29 98.0391 41.4089 99.0599L41.4635 99.3985C41.5326 99.7222 41.6479 100.036 41.808 100.327C42.6522 101.853 43.5353 103.357 44.3856 104.88C45.0054 105.932 46.353 106.534 47.5514 106.138C47.8583 106.036 48.147 105.878 48.4017 105.681L51.3335 103.423C53.0547 105.668 55.0319 107.734 57.2432 109.44L57.2674 109.459V117.053L57.2783 117.26C57.2844 117.315 57.2929 117.375 57.2929 117.375C57.3196 117.564 57.3887 117.812 57.3887 117.812C57.4797 118.116 57.5088 118.155 57.5876 118.32C57.641 118.431 57.698 118.54 57.7623 118.646C57.8545 118.801 58.0037 119.007 58.0037 119.007C58.159 119.211 58.4113 119.477 58.4113 119.477C58.7024 119.764 58.9862 119.974 59.3137 120.141C60.5182 120.756 61.7348 121.347 62.9454 121.95C63.5349 122.243 64.2918 122.355 64.8619 121.935C64.8619 121.935 65.0293 121.79 65.0596 121.757C65.2076 121.594 65.3386 121.304 65.3386 121.304C65.4017 121.132 65.4441 120.876 65.4441 120.876C65.4575 120.748 65.4587 120.711 65.4599 120.642V113.415C65.4975 113.422 65.5351 113.429 65.5727 113.436C65.6091 113.443 65.6455 113.45 65.6831 113.457C67.471 113.773 69.3232 113.725 71.0372 113.225L71.0687 113.216L75.4467 120.948C75.574 121.166 75.8304 121.432 75.8304 121.432C76.481 122.008 77.5026 122.036 78.2108 121.509C79.0782 120.849 79.9464 120.189 80.8013 119.513C80.9891 119.365 81.2056 119.097 81.2056 119.097C81.4073 118.817 81.5566 118.501 81.627 118.168C81.627 118.168 81.6886 117.877 81.6832 117.586C81.6832 117.586 81.6664 117.188 81.5523 116.872C81.5435 116.848 81.4795 116.676 81.398 116.535L76.9768 108.725C77.0082 108.678 77.0388 108.632 77.0696 108.585C77.1927 108.395 77.3549 108.129 77.3549 108.129C77.5337 107.829 77.7026 107.523 77.8592 107.211L78.0322 106.858C78.0867 106.74 78.1513 106.6 78.1513 106.6C78.2339 106.413 78.326 106.198 78.3339 106.179C78.3709 106.09 78.407 106.001 78.4427 105.912C78.5164 105.726 78.5189 105.716 78.548 105.639L78.7285 105.138C78.8376 104.813 78.9419 104.487 79.0344 104.157C79.0344 104.157 79.1369 103.788 79.2086 103.498C79.2086 103.498 79.3062 103.097 79.3876 102.703L84.5411 105.269C84.8 105.395 85.8979 105.743 86.577 104.993C86.6916 104.867 86.8064 104.671 86.8179 104.649C86.9532 104.398 87.0398 104.001 87.0423 103.987C87.0969 103.684 87.0858 103.574 87.0872 103.462V98.883C87.085 98.7105 87.063 98.4722 87.063 98.4722C87.0496 98.3671 87.0276 98.2311 87.0276 98.2311C86.9832 97.9982 86.9725 97.9653 86.9424 97.8557C86.9179 97.7664 86.8901 97.6782 86.8606 97.5904C86.7636 97.3018 86.6368 97.0233 86.4845 96.7596C86.4845 96.7596 86.1131 96.1366 85.6813 95.7394C85.4709 95.5459 85.2363 95.3776 84.9799 95.2483L79.4729 92.5064C79.2862 91.31 79.0418 90.1275 78.7397 88.9466C78.2743 87.1279 77.6897 85.3671 76.9994 83.6621L76.9944 83.6499C78.0144 82.864 79.0407 82.0858 80.0542 81.2916C80.0753 81.275 80.0962 81.2582 80.1168 81.2409C80.4361 80.9736 80.7035 80.6484 80.9019 80.2758C80.9019 80.2758 81.1881 79.711 81.2818 79.1823L81.3288 78.8037C81.3476 78.4805 81.3343 78.1531 81.2666 77.8359L81.1811 77.5027C81.0514 77.0934 80.9929 77.0257 80.9186 76.8909C80.0774 75.3701 79.1934 73.8735 78.3501 72.354C78.1769 72.0593 78.1278 72.0134 78.0397 71.9095C77.166 70.8719 75.4885 70.646 74.3389 71.5254L71.2955 73.6658C71.1997 73.5413 71.0881 73.3964 71.0881 73.3964C69.4834 71.3454 67.6687 69.4852 65.6467 67.9041C65.5666 67.8413 65.4599 67.7592 65.4599 67.7592V60.1652L65.4453 59.926C65.4102 59.6603 65.301 59.2919 65.301 59.2919C65.17 58.915 64.9796 58.5587 64.7418 58.2374C64.7418 58.2374 64.5963 58.0429 64.464 57.898C64.1644 57.567 63.8115 57.2807 63.4124 57.0766C62.2067 56.4642 60.9913 55.8711 59.7807 55.2684C59.0869 54.9241 58.1153 54.8505 57.5816 55.5643C57.4081 55.7974 57.3099 56.0813 57.2795 56.3724C57.2783 56.376 57.2686 56.4823 57.2674 56.5765V63.8033C57.2286 63.7961 57.191 63.7888 57.1534 63.7816C55.3351 63.4458 53.4502 63.4784 51.6889 63.993L51.6574 64.0026L47.2797 56.2697C47.1803 56.1006 47.1572 56.0511 46.9862 55.8735C46.3639 55.2273 45.2747 55.1428 44.5153 55.7093C43.619 56.3917 42.685 57.0367 41.8419 57.7748C41.5096 58.0647 41.267 58.4572 41.1433 58.88C41.1384 58.8981 41.1044 59.0261 41.1044 59.0261C40.9868 59.583 41.0487 60.1821 41.3264 60.6797L45.7502 68.4936C45.7186 68.5395 45.6883 68.5866 45.6568 68.6337C45.5682 68.7702 45.4566 68.9501 45.4566 68.9501C45.3948 69.0504 45.3705 69.0903 45.3705 69.0903C45.231 69.3282 45.0466 69.6616 45.0466 69.6616C44.6451 70.4214 44.2982 71.2089 44.018 72.023C44.018 72.023 43.8676 72.4579 43.7427 72.8855C43.7257 72.9446 43.7257 72.9434 43.7087 73.0038C43.5668 73.5027 43.4443 74.0076 43.3388 74.5149L38.186 71.9493C37.8658 71.7923 37.5674 71.7162 37.2532 71.7223ZM71.099 112.179C69.1728 112.822 67.0441 112.798 65.0827 112.331L64.9056 112.321C64.6799 112.392 64.5247 112.545 64.4762 112.807V120.634C64.4701 121.036 64.1353 121.426 63.4221 121.092L63.4039 121.084C62.1703 120.469 60.9064 119.878 59.7237 119.251C59.5927 119.179 59.469 119.096 59.3525 119.004C58.9365 118.674 58.5435 118.241 58.3312 117.533C58.273 117.339 58.2499 117.045 58.2499 117.045V109.217L58.2269 109.07C58.0692 108.751 57.6932 108.552 57.3729 108.293C55.4128 106.71 53.6539 104.854 51.9958 102.673C51.9376 102.596 51.8794 102.518 51.8211 102.441L51.6768 102.311L51.4936 102.247L51.2995 102.259L51.1249 102.345C50.0102 103.204 48.9003 104.07 47.7795 104.923C47.0008 105.494 45.8242 105.316 45.2795 104.46C45.2625 104.434 45.2468 104.408 45.231 104.381C44.3577 102.878 43.5013 101.364 42.6619 99.8414C42.1064 98.8312 42.3308 97.4325 43.3048 96.6766L46.6296 94.115L46.7642 93.9532L46.8188 93.7497C46.6575 92.8226 46.1444 91.9532 45.7963 90.9185C45.0697 88.758 44.5238 86.5427 44.1878 84.3147L44.1393 84.1664C44.0483 84.041 44.0471 84.0401 43.921 83.9496C42.0033 82.995 40.0819 82.0496 38.169 81.0858C37.3503 80.6547 36.8408 79.7263 36.671 78.8405L36.6407 78.6349C36.6273 78.5069 36.6225 78.3288 36.6225 78.3288V73.7624C36.6273 73.3626 36.6383 73.464 36.6637 73.3457C36.7219 73.0751 36.8542 72.7804 37.1574 72.7139C37.36 72.6704 37.5698 72.7381 37.7493 72.8263L43.4819 75.6805C43.8531 75.7868 44.126 75.6225 44.2533 74.9606C44.3213 74.6031 44.4001 74.248 44.4874 73.894C44.4874 73.894 44.5821 73.5148 44.6864 73.1584C44.7022 73.1041 44.7021 73.1041 44.7191 73.0485C44.7628 72.9024 44.821 72.7188 44.821 72.7188C45.1049 71.8418 45.4554 70.9806 45.8897 70.1701C45.8897 70.1701 46.0328 69.8995 46.1905 69.6338C46.1905 69.6338 46.4391 69.2159 46.7315 68.798L46.8067 68.6325C46.8152 68.4513 46.8152 68.4501 46.7569 68.2786C45.2298 65.5814 43.6845 62.8938 42.1755 60.1869C41.8723 59.6373 42.0421 58.8619 42.5358 58.4717C43.3836 57.7989 44.2473 57.1455 45.1085 56.4896C45.5173 56.1852 46.1444 56.2734 46.427 56.7565L50.9975 64.8312C51.1528 65.0185 51.376 65.1248 51.6283 65.039C51.6428 65.0342 51.6562 65.0293 51.6695 65.0245C53.5945 64.3916 55.7015 64.4242 57.6447 64.8868L57.8205 64.8965C58.0462 64.8252 58.2026 64.673 58.2499 64.4109V56.5838C58.2536 56.3833 58.3009 56.161 58.4731 56.0535C58.7388 55.8892 59.076 56.0173 59.3222 56.1344C60.5376 56.7372 61.7554 57.3339 62.9648 57.9475C63.3905 58.1661 63.7059 58.4572 64.0177 58.9138C64.185 59.1578 64.3221 59.4272 64.401 59.7062L64.4737 60.1072C64.475 60.1386 64.4762 60.1736 64.4762 60.1736V68.0008L64.4992 68.1481C64.7248 68.6011 65.2622 68.8426 65.7122 69.2159C67.1423 70.4044 68.4463 71.7283 69.641 73.1657L69.6859 73.22C70.0522 73.6621 70.4076 74.1127 70.7521 74.5729C70.7521 74.5729 70.8273 74.6925 70.9365 74.7577C71.0966 74.8543 71.2931 74.8193 71.4739 74.7384L74.9175 72.3177C74.9309 72.3069 74.9442 72.2972 74.9587 72.2863C75.6441 71.7754 76.6871 71.7669 77.3438 72.6101C77.3999 72.6813 77.4492 72.7586 77.4955 72.8371C78.3391 74.3579 79.2255 75.8542 80.0649 77.3767C80.1305 77.496 80.1994 77.6688 80.2102 77.699C80.3748 78.1595 80.3502 78.3052 80.3543 78.4841C80.3645 78.9193 80.2669 79.3626 80.0701 79.7476C79.8474 80.1833 79.7083 80.3182 79.4214 80.5419L76.0975 83.1032L75.962 83.265L75.9073 83.4684C75.9915 83.9503 76.2394 84.3988 76.4191 84.8745C77.3996 87.4711 78.1271 90.1723 78.5392 92.9034L78.5867 93.0518C78.6781 93.177 78.6791 93.178 78.8055 93.2685C80.7227 94.2231 82.6444 95.1686 84.5571 96.1324C85.2325 96.488 85.6742 97.2007 85.9117 97.8531C85.9117 97.8531 86.0072 98.1278 86.0549 98.3777L86.0863 98.5833C86.0993 98.7108 86.1042 98.8894 86.1042 98.8894V103.455C86.0989 103.868 86.09 103.748 86.063 103.873C86.0052 104.139 85.8775 104.432 85.5786 104.501C85.3734 104.55 85.16 104.481 84.9771 104.391L79.2451 101.537C78.9069 101.442 78.6012 101.569 78.5078 102.076C78.5078 102.076 78.4363 102.461 78.376 102.737C78.3122 103.03 78.2413 103.321 78.1654 103.61L78.1505 103.667C78.0502 104.037 77.9403 104.405 77.8161 104.768L77.6476 105.242C77.5309 105.548 77.4095 105.852 77.2757 106.151L77.143 106.44C77.0823 106.566 77.0046 106.725 77.0046 106.725C76.8565 107.016 76.7023 107.303 76.5365 107.584C76.511 107.627 76.5108 107.627 76.4848 107.67C76.3304 107.925 76.1666 108.175 75.9951 108.42L75.9203 108.586C75.9117 108.767 75.9119 108.769 75.9701 108.94C77.497 111.637 78.9991 114.349 80.551 117.032C80.8449 117.585 80.6861 118.356 80.1906 118.746C79.3417 119.418 78.4794 120.072 77.618 120.728C77.2529 121 76.7058 120.985 76.4014 120.611C76.3634 120.564 76.3304 120.514 76.3001 120.462L71.7286 112.387C71.5757 112.202 71.3574 112.091 71.099 112.179ZM57.3645 73.3819C55.2684 73.4012 53.2646 74.4545 52.0176 76.1654C51.8199 76.4366 51.638 76.7203 51.4742 77.0145L51.3105 77.3189C51.2498 77.4393 51.171 77.6049 51.171 77.6049C51.0254 77.9238 50.8908 78.2456 50.7768 78.5756L50.6263 79.0381C50.5075 79.4356 50.408 79.8396 50.3292 80.2478C50.3292 80.2478 50.2879 80.459 50.2515 80.6867C50.2515 80.6867 50.1703 81.2326 50.1351 81.5971C50.1302 81.6406 50.1302 81.6405 50.1266 81.6841C50.0829 82.1657 50.0623 82.6492 50.0575 83.1342V83.3157C50.0623 83.8207 50.0854 84.3251 50.1266 84.8286C50.1412 85.0147 50.1436 85.0246 50.1509 85.1068C50.4747 88.398 51.5446 91.5343 53.0596 94.3249C53.5375 95.2056 54.0676 96.065 54.651 96.8856C54.651 96.8856 54.9506 97.304 55.1726 97.595C57.2529 100.315 59.8414 102.637 63.1467 103.536C65.7122 104.234 68.6185 103.688 70.5095 101.314C70.7873 100.965 71.036 100.593 71.2531 100.204L71.4156 99.8993C71.4763 99.7801 71.5551 99.6154 71.5551 99.6154C71.6364 99.4399 71.7419 99.1905 71.7419 99.1905C71.839 98.9527 71.9615 98.6088 71.9615 98.6088C72.0488 98.3572 72.1543 97.9964 72.1543 97.9964C72.2429 97.6699 72.3254 97.341 72.3897 97.0086L72.4552 96.6508C72.5097 96.3096 72.5595 95.9659 72.5922 95.6211L72.5959 95.5799C72.642 95.0824 72.6638 94.5828 72.6686 94.084V93.9025C72.6638 93.3977 72.642 92.8935 72.6007 92.3896C72.5849 92.2035 72.5837 92.1936 72.5752 92.1114C72.4964 91.3041 72.3703 90.5066 72.2004 89.7083C72.1361 89.4019 72.0634 89.094 71.9857 88.7882C71.9748 88.7412 71.9736 88.7413 71.9615 88.6943C70.7594 84.0705 68.4584 79.8172 64.7091 76.5722C62.6664 74.8048 60.1519 73.4024 57.4639 73.3819C57.4312 73.3819 57.3984 73.3819 57.3645 73.3819ZM57.4288 74.3603C61.0386 74.3772 64.3063 77.2366 66.1671 79.4619C68.1636 81.8491 69.6714 84.7042 70.5847 87.4914C71.019 88.8152 71.492 91.0276 71.6133 92.3826C71.617 92.4255 71.617 92.4255 71.6206 92.4685C71.6582 92.9327 71.6813 93.3983 71.6849 93.8643C71.6849 93.8643 71.6886 94.3595 71.6667 94.7961C71.617 95.7983 71.4763 96.8003 71.1985 97.763C71.1815 97.8191 71.1658 97.8751 71.1488 97.9308C71.1063 98.0697 71.0432 98.2586 71.0432 98.2586C70.9401 98.5579 70.8237 98.8531 70.6915 99.1424C70.5386 99.4742 70.5083 99.5241 70.4101 99.6977C69.9297 100.554 69.3366 101.299 68.4717 101.898C66.3017 103.4 63.1564 102.828 60.9173 101.529C59.6206 100.778 58.4574 99.8081 57.4215 98.7209C55.1556 96.3419 53.4938 93.4634 52.4131 90.5083C52.1474 89.7847 51.9048 89.0018 51.7047 88.2334C51.6938 88.1903 51.6938 88.1903 51.6829 88.1471C51.6453 87.9996 51.6101 87.8519 51.5749 87.704C51.5397 87.5543 51.5397 87.5467 51.5264 87.4841C51.3335 86.6109 51.1928 85.7246 51.114 84.8356C51.0836 84.5078 51.0873 84.5196 51.08 84.3986C51.057 84.0502 51.0448 83.7021 51.0412 83.3539C51.0412 83.3539 51.0545 82.1572 51.1479 81.3773C51.228 80.7058 51.3578 80.0378 51.5482 79.3859C51.5579 79.3537 51.5579 79.3537 51.5676 79.3216C51.604 79.2003 51.6428 79.0797 51.6829 78.9597C51.7192 78.8519 51.7229 78.8469 51.7386 78.8021C52.2627 77.3467 53.1409 75.9607 54.5879 75.108C55.4407 74.6055 56.4329 74.3603 57.4288 74.3603Z" fill="#36464A"/>
<path fill-rule="evenodd" clip-rule="evenodd" d="M59.9225 74.2961C54.6339 72.5567 50.5498 76.2738 50.5498 83.2247C50.5498 90.7951 55.3945 99.354 61.3636 102.326C65.9401 104.605 69.8568 102.94 71.4349 98.625C70.9631 98.4701 70.4827 98.2717 69.9939 98.0286C64.0248 95.0569 59.1802 86.4981 59.1802 78.9275C59.1802 77.163 59.4434 75.6066 59.9225 74.2961Z" fill="#36464A"/>
<path fill-rule="evenodd" clip-rule="evenodd" d="M57.3996 73.3818C55.5292 73.3878 53.6733 74.2188 52.4082 75.6755C51.416 76.8163 50.7828 78.2273 50.4262 79.7941C50.4262 79.7941 50.3413 80.1718 50.2927 80.4392C50.1508 81.2328 50.0781 82.0293 50.0623 82.8494L50.0574 83.141C50.0574 83.2753 50.0586 83.4098 50.0611 83.5442C50.0659 83.8654 50.0805 84.1861 50.1011 84.5057C50.1217 84.8113 50.1217 84.7763 50.1351 84.9224C50.4322 88.2478 51.4924 91.4379 53.0596 94.3247C53.5375 95.2054 54.0676 96.0648 54.651 96.8855C54.651 96.8855 54.8863 97.2175 55.0901 97.4857C57.1146 100.149 59.6363 102.468 62.8495 103.45C65.4878 104.256 68.5299 103.709 70.4307 101.41C71.0699 100.637 71.5466 99.7312 71.8959 98.7955L71.9263 98.6026L71.8778 98.4132L71.7589 98.2575C71.5078 98.1139 71.2227 98.0363 70.9522 97.9256C68.2279 96.8126 66.0409 94.6657 64.3985 92.4567C63.8066 91.6619 62.2418 89.1091 61.5165 87.4097C60.9888 86.1727 60.5655 84.8917 60.2477 83.5833C60.2113 83.4336 60.2101 83.4261 60.1967 83.3636C59.7952 81.6165 59.6 79.8181 59.6958 78.0227C59.7091 77.7651 59.7128 77.7525 59.7213 77.6436C59.7492 77.2901 59.7916 76.9377 59.845 76.5881C59.8632 76.4701 59.8656 76.4645 59.8741 76.4152C59.9505 75.9694 60.0512 75.5282 60.1761 75.0957C60.2052 74.9955 60.1785 75.08 60.2416 74.8819C60.2865 74.7418 60.3338 74.6017 60.3848 74.4616L60.4127 74.2696L60.3641 74.0811L60.2453 73.9265C59.9614 73.7659 59.6461 73.6946 59.3331 73.6185C58.7011 73.4651 58.057 73.3805 57.3996 73.3818ZM57.4542 74.3601C58.0765 74.365 58.6951 74.458 59.2943 74.6186C59.1718 74.9943 59.156 75.097 59.156 75.097C59.0893 75.3494 59.0723 75.4243 59.0505 75.5209C58.9862 75.7995 58.9316 76.0801 58.8867 76.3627L58.8103 76.8954C58.7812 77.1315 58.7569 77.3684 58.7387 77.6054C58.7303 77.7074 58.7266 77.7309 58.7169 77.9313C58.672 78.7519 58.683 79.5783 58.7448 80.3944C58.7618 80.6102 58.7824 80.8248 58.8055 81.0388C58.8249 81.2253 58.8273 81.2353 58.8382 81.3176C59.1596 83.9229 59.9287 86.4085 61.0434 88.7525C61.73 90.1956 62.539 91.5732 63.4973 92.889C63.6198 93.0579 63.6319 93.0711 63.6913 93.1507C63.94 93.4805 64.1984 93.8033 64.464 94.1202C64.595 94.2769 64.6071 94.2889 64.6714 94.3625C66.3502 96.3041 68.3941 97.9822 70.7679 98.9061L70.7921 98.9156C69.8169 101.225 67.7257 103.052 64.8267 102.84C61.4352 102.591 58.5034 100.079 56.559 97.756C54.7687 95.6174 53.3822 93.1576 52.413 90.5082C52.1474 89.7845 51.9048 89.0017 51.7047 88.2332C51.6937 88.1901 51.6937 88.1901 51.6828 88.147C51.6452 87.9995 51.61 87.8518 51.5749 87.7038C51.5397 87.5542 51.5397 87.5465 51.5264 87.484C51.3335 86.6108 51.1928 85.7244 51.1139 84.8354C51.0836 84.5076 51.0873 84.5195 51.08 84.3984C51.0569 84.0501 51.0448 83.702 51.0412 83.3537C51.0412 83.3537 51.0399 82.9651 51.0497 82.6783C51.0945 81.3487 51.2923 80.0198 51.7435 78.7877C51.7544 78.759 51.7544 78.7592 51.7641 78.7307C52.4676 76.828 53.8529 75.0873 55.9598 74.5413C56.4474 74.4145 56.9569 74.3577 57.4542 74.3601Z" fill="#36464A"/>
<path fill-rule="evenodd" clip-rule="evenodd" d="M84.9177 79.2484L76.3981 83.4902L79.7541 80.904L88.2737 76.6622L84.9177 79.2484Z" fill="#7DE2FF"/>
<path fill-rule="evenodd" clip-rule="evenodd" d="M88.239 76.1738C88.154 76.1839 88.1324 76.1899 88.0541 76.2243L79.5346 80.4661C79.4928 80.4896 79.4928 80.4895 79.4535 80.5169L76.0974 83.1031C75.8112 83.3471 75.8968 83.8784 76.2892 83.9673C76.3926 83.9909 76.4548 83.9995 76.6181 83.9279L85.1377 79.686C85.1794 79.6627 85.1794 79.6626 85.2186 79.6354L88.5747 77.0491C88.8959 76.7754 88.7264 76.1633 88.239 76.1738Z" fill="#36464A"/>
</svg>
