<svg width="150" height="150" viewBox="0 0 150 150" fill="none" xmlns="http://www.w3.org/2000/svg">
<path d="M72.0235 124.174C46.1191 91.1366 42.1771 83.4404 44.6174 32.1946C57.8544 37.0514 63.3378 35.2752 72.0235 29.5667C82.1113 46.3574 88.201 52.5341 99.6174 59.4131C102.058 101.461 103.184 116.29 72.0235 124.174Z" stroke="#36464A"/>
<path d="M86.4774 119.481C107.877 109.157 107.743 97.8942 105.303 55.8464M105.303 55.8464C93.8866 48.9675 87.7969 42.7907 77.7091 26C69.0234 31.7085 63.54 33.4848 50.303 28.628L44.6173 32.0068M105.303 55.8464L99.6173 59.2253" stroke="#36464A"/>
<path d="M67.4997 90.2769L58.5 74.7767C56 70.2767 60.9999 67.7767 63.5 71.7767L69.4997 82.7769L83.4997 70.2769C86.9996 67.2768 91.4996 72.2766 87.9996 75.2767L70.4997 90.7769C68.4996 92.2768 67.4997 90.2769 67.4997 90.2769Z" fill="#26C4F7" stroke="#36464A"/>
<path fill-rule="evenodd" clip-rule="evenodd" d="M64.2588 69.0408C64.9564 69.3864 65.471 70.0447 65.9999 70.8908L71.4999 80.7768L73.3261 79.2175L68.6813 70.7015C67.4154 68.676 65.5084 68.3172 64.2588 69.0408ZM89.77 68.5243C93.0256 69.8287 93.1189 73.511 90.9995 75.2769L74.0948 90.2499C74.5252 90.2982 75.054 90.1719 75.681 89.7017L93.181 74.2015C96.3251 71.5064 93.0133 67.1976 89.77 68.5243Z" fill="#36464A"/>
<path d="M68.5001 91.1765C68.5001 91.1765 71.4996 92.2769 73.4997 90.777L90.9996 75.2768C93.2749 73.381 93.0001 69.2765 89.0001 68.2766C88.0123 68.0825 85.8292 68.9515 84.5001 69.6765M71.5 80.7767L66 70.8907C64.7076 68.8229 63.5 67.8767 59.5 69.8768" stroke="#36464A"/>
<path d="M67.4997 90.2769L58.5 74.7767C56 70.2767 60.9999 67.7767 63.5 71.7767L69.4997 82.7769L83.4997 70.2769C86.9996 67.2768 91.4996 72.2766 87.9996 75.2767L70.4997 90.7769C68.4996 92.2768 67.4997 90.2769 67.4997 90.2769Z" stroke="#36464A"/>
</svg>
