<svg width="150" height="150" viewBox="0 0 150 150" fill="none" xmlns="http://www.w3.org/2000/svg">
<rect width="150" height="150" fill="#7DE2FF"/>
<path d="M75.4923 46.6762L53.0996 36.1724L74.8564 25.2206C75.2676 25.0137 75.7511 25.007 76.1679 25.2025L97.9004 35.3966L75.4923 46.6762Z" stroke="#36464A"/>
<path d="M31.6445 47.8729C31.2668 47.6958 31.2594 47.1612 31.632 46.9737L53.1214 36.1566L75.514 46.6604L53.1059 57.9399L31.6445 47.8729Z" stroke="#36464A"/>
<path d="M97.9923 57.1804L75.5996 46.6766L98.0077 35.3971L119.469 45.464C119.847 45.6412 119.854 46.1757 119.482 46.3633L97.9923 57.1804Z" stroke="#36464A"/>
<path d="M31.5 86L53.1136 96.2554L75.5 85.0001L98 95.4959L120 85.0001M31.5 67.5L53.1136 77.2554L75.5 66.0001L98 76.4959L120 66" stroke="#36464A"/>
<path d="M31.5 47.5L31.5 104.367C31.5 104.754 31.7227 105.105 32.0719 105.271L74.3407 125.294C74.9055 125.561 75.563 125.55 76.1178 125.262L119.46 102.78C119.792 102.608 120 102.266 120 101.892L120 46" stroke="#36464A"/>
<line x1="75.5" y1="46" x2="75.5" y2="126" stroke="#36464A"/>
<path d="M98 57L98 114.5" stroke="#36464A"/>
<path d="M53 58L53 115.5" stroke="#36464A"/>
<path d="M75.5077 85.0121L97.9004 95.5159L76.1436 106.468C75.7324 106.675 75.2489 106.681 74.8321 106.486L53.0996 96.2916L75.5077 85.0121Z" fill="#7DE2FF" stroke="#36464A"/>
</svg>
