<svg width="150" height="150" viewBox="0 0 150 150" fill="none" xmlns="http://www.w3.org/2000/svg">
<path fill-rule="evenodd" clip-rule="evenodd" d="M34.3227 26.8129L34.1541 26.9168L34.04 27.0787L34 27.2719V91.8492C34.0024 91.9756 34.0024 92.1145 34.0352 92.3916C34.0352 92.3916 34.1019 92.8889 34.2086 93.2803C34.2681 93.5006 34.3784 93.8105 34.3784 93.8105C34.5883 94.3879 34.877 94.936 35.2373 95.4384C35.6994 96.0827 36.2938 96.6626 37.0033 97.0257C60.819 109.077 84.6887 121.022 108.683 132.715C109.522 133.123 110.593 133.131 111.288 132.485L111.557 132.186C111.765 131.903 111.914 131.576 112 131.24C112 131.24 112.126 130.678 112.126 130.259L112.126 130.237V65.6816L112.093 65.5052C111.999 65.353 111.997 65.3518 111.854 65.2443L34.7108 26.8347L34.5192 26.7839C34.4537 26.7936 34.3882 26.8033 34.3227 26.8129ZM111.143 65.9847C111.143 87.4063 111.516 108.831 111.143 130.25C111.143 130.353 111.195 130.114 111.108 130.705C111.021 131.3 110.731 131.945 110.056 132.032C109.738 132.073 109.41 131.979 109.115 131.836C85.1201 120.143 61.1975 108.299 37.434 96.1454C35.8074 95.3137 35.0068 93.2076 34.9825 91.8407V28.0643C60.3702 40.7048 85.7565 53.3442 111.143 65.9847Z" fill="#36464A"/>
<path fill-rule="evenodd" clip-rule="evenodd" d="M115.273 63.3238L111.415 65.2443L111.271 65.353C111.177 65.504 111.176 65.5064 111.143 65.6816V130.232C111.131 131.042 110.953 131.594 110.448 131.897C110.424 131.911 110.4 131.924 110.375 131.937L110.234 132.045C110.141 132.196 110.14 132.198 110.108 132.372L110.148 132.566L110.262 132.728L110.431 132.832L110.627 132.861L110.819 132.81L114.682 130.887C115.072 130.687 115.392 130.361 115.599 129.977L115.82 129.453C115.88 129.245 115.928 129.085 115.963 128.728C115.965 128.711 115.981 128.481 115.984 128.318V63.761L115.944 63.5678L115.83 63.4059L115.661 63.302L115.465 63.273C115.401 63.2899 115.337 63.3069 115.273 63.3238ZM115.001 128.311C114.993 128.809 114.96 129.145 114.701 129.569C114.587 129.755 114.429 129.916 114.233 130.016L112.032 131.112C112.077 130.923 112.109 130.689 112.119 130.461C112.119 130.461 112.125 130.344 112.126 130.239V65.9847L115.001 64.5534C115.001 85.8058 115.001 107.058 115.001 128.311Z" fill="#36464A"/>
<path fill-rule="evenodd" clip-rule="evenodd" d="M36.0366 18.9206C35.3404 18.9326 34.6817 19.3409 34.3457 19.9763L34.256 20.1586C34.1565 20.3906 34.0861 20.6358 34.0485 20.8846L34.0146 21.1552C34.0024 21.2989 34 21.4656 34 21.4656V27.2719C34.057 27.5763 34.1747 27.6367 34.2717 27.7104L111.415 66.12L111.607 66.1708L111.803 66.1418L111.972 66.0379L112.086 65.876L112.126 65.6816C112.126 63.7465 112.163 61.8103 112.126 59.8753C112.126 59.6264 112.101 59.3752 112.059 59.1324C112.059 59.1324 112.013 58.8872 112.012 58.8824C111.766 57.7168 111.166 56.6067 110.292 55.7938C110.018 55.5389 109.713 55.3179 109.381 55.1488C85.367 43.0506 61.3661 30.9197 37.1671 19.1936C36.8153 19.022 36.432 18.9181 36.0366 18.9206ZM36.0669 19.899C36.3047 19.9026 36.5351 19.9763 36.7511 20.0801C60.8603 31.9778 84.9698 43.8756 108.95 56.0293C109.562 56.3446 110.038 56.8845 110.398 57.4728C110.489 57.6213 110.495 57.6346 110.534 57.7083C110.9 58.3799 111.143 59.1239 111.143 59.8849L111.143 64.8904L34.9825 26.9699V21.4752C34.9862 21.3061 34.985 21.2168 35.0347 20.951C35.1305 20.4389 35.4653 19.9231 36.0184 19.9002C36.0342 19.899 36.0512 19.899 36.0669 19.899Z" fill="#36464A"/>
<path fill-rule="evenodd" clip-rule="evenodd" d="M106.484 55.9906C105.848 56.0039 105.272 56.4484 105.025 57.0463C104.343 58.6963 105.341 60.9152 106.817 61.7728C107.425 62.1267 108.261 62.21 108.845 61.722C109.49 61.1821 109.622 60.1421 109.475 59.2845C109.27 58.0899 108.62 56.9316 107.579 56.3119C107.249 56.115 106.87 55.9858 106.484 55.9906ZM106.512 56.969C107.348 56.9738 107.953 57.8604 108.294 58.712C108.547 59.3461 108.728 60.066 108.4 60.7231C107.888 61.7498 105.588 59.9658 105.831 57.8399C105.838 57.7831 105.847 57.7263 105.859 57.6696C105.927 57.3471 106.091 56.9919 106.477 56.9702C106.488 56.969 106.5 56.969 106.512 56.969Z" fill="#36464A"/>
<path fill-rule="evenodd" clip-rule="evenodd" d="M101.612 53.5568C99.8232 53.5785 99.3324 56.8507 101.243 58.7978C101.274 58.8292 101.307 58.8618 101.34 58.8932C101.405 58.9548 101.474 59.0152 101.544 59.072C102.142 59.5588 103.003 59.8487 103.717 59.4549C104.951 58.7725 104.803 56.6429 104.004 55.2708C103.759 54.8492 103.45 54.4591 103.075 54.1499C103.023 54.1064 102.97 54.0653 102.916 54.0267C102.537 53.75 102.087 53.5556 101.612 53.5568ZM101.631 54.5352C102.669 54.5509 103.316 55.8035 103.559 56.7432C103.736 57.4257 103.87 58.4439 103.122 58.6468C102.734 58.7519 102.31 58.462 102.019 58.1854C101.116 57.3254 100.561 55.8095 101.11 54.8577C101.214 54.6765 101.403 54.54 101.612 54.5352C101.618 54.5352 101.625 54.5352 101.631 54.5352Z" fill="#36464A"/>
<path fill-rule="evenodd" clip-rule="evenodd" d="M96.7243 51.1229C95.181 51.1422 94.6918 53.5205 95.5649 55.2454C96.1911 56.4823 97.4565 57.7035 98.767 57.0536C99.0221 56.928 99.238 56.7275 99.3926 56.4895C99.3926 56.4895 99.6745 55.9424 99.7307 55.5401C100.005 53.5725 98.5435 51.1966 96.7996 51.1241C96.7745 51.1241 96.7494 51.1229 96.7243 51.1229ZM96.7441 52.1025C97.7048 52.117 98.3326 53.2174 98.6163 54.1172C98.795 54.6825 98.8915 55.3239 98.6253 55.8566C98.3913 56.3253 97.6555 56.2504 97.1315 55.7515C96.2857 54.9458 95.7286 53.6389 96.1536 52.5675C96.2453 52.3368 96.437 52.1133 96.7131 52.1025C96.7235 52.1025 96.7338 52.1025 96.7441 52.1025Z" fill="#36464A"/>
<path fill-rule="evenodd" clip-rule="evenodd" d="M39.9024 17C39.6477 17.0024 39.3942 17.0508 39.1613 17.151C39.1152 17.1715 39.0667 17.1957 39.0667 17.1957L35.2082 19.1162L35.065 19.2238C34.9704 19.3759 34.9692 19.3784 34.9364 19.5535L34.9765 19.7456L35.0881 19.9074L35.2555 20.0113L35.4495 20.0427L35.6412 19.9956C35.9954 19.8265 36.4078 19.9183 36.7414 20.0753C60.8275 32.0262 84.9666 43.8743 108.95 56.0293C109.562 56.3446 110.038 56.8845 110.398 57.4728C110.489 57.6213 110.495 57.6346 110.534 57.7083C110.9 58.3799 111.143 59.1239 111.143 59.8849L111.143 65.6816L111.183 65.876L111.297 66.0379L111.466 66.1418L111.663 66.1708L111.855 66.12L115.712 64.1995L115.856 64.0908C115.95 63.9386 115.951 63.9362 115.984 63.761C115.984 61.826 116.02 59.8898 115.983 57.9547C115.983 57.7808 115.97 57.6068 115.949 57.4341C115.827 56.4364 115.562 55.8832 115.256 55.3215C114.787 54.4591 114.12 53.6752 113.238 53.2282C89.2367 41.1349 65.1203 29.2698 41.0608 17.2911C40.7005 17.1124 40.3063 16.9988 39.9024 17ZM39.9267 17.9784C40.1595 17.9808 40.3864 18.0545 40.5987 18.1548C64.6848 30.1056 88.8242 41.9538 112.808 54.1076C114.224 54.8384 115 56.7311 115 57.9644L115.001 63.4591L112.126 64.8904C112.126 63.2187 112.158 61.547 112.126 59.8753C112.126 59.7859 112.124 59.781 112.122 59.7412C112.115 59.537 112.093 59.3329 112.059 59.1324C112.059 59.1324 112.013 58.8872 112.012 58.8824C111.766 57.7168 111.166 56.6067 110.292 55.7938C110.018 55.5389 109.713 55.3179 109.381 55.1488L109.363 55.1403L37.2096 19.2141C37.9822 18.83 38.7488 18.4326 39.5276 18.0606C39.6513 18.0026 39.7896 17.9784 39.9267 17.9784Z" fill="#36464A"/>
<path d="M73.0617 63.648H72.5617V63.8968L72.7602 64.0469L73.0617 63.648ZM71.2569 53.1274L71.4798 52.6798L71.2569 53.1274ZM67.645 51.329L67.4221 51.7766L67.645 51.329ZM65.1804 51.329L65.4347 51.7595L65.4429 51.7546L65.4509 51.7495L65.1804 51.329ZM54.9119 52.1374L54.4767 52.3836L54.4767 52.3837L54.9119 52.1374ZM52.8507 51.7356L53.0761 52.1819L53.1181 52.1607L53.1555 52.1319L52.8507 51.7356ZM77.0404 120.812C76.7913 120.931 76.6857 121.23 76.8047 121.479C76.9238 121.728 77.2222 121.833 77.4714 121.714L77.0404 120.812ZM86.0504 116.856L86.3556 117.252L86.3556 117.252L86.0504 116.856ZM88.6042 114.889L88.299 114.493L88.299 114.493L88.6042 114.889ZM89.0965 112.519L88.6614 112.765L88.6614 112.765L89.0965 112.519ZM93.1864 101.452L93.3895 101.909L93.405 101.902L93.4201 101.894L93.1864 101.452ZM92.8919 91.3867L92.669 91.8343L92.669 91.8343L92.8919 91.3867ZM87.1469 88.5261L86.6523 88.5996L86.6906 88.8575L86.924 88.9737L87.1469 88.5261ZM84.5147 79.1675L84.2095 78.7715L83.9061 79.0052L84.0528 79.359L84.5147 79.1675ZM87.8463 76.6004L87.5411 76.2043L87.5411 76.2043L87.8463 76.6004ZM88.6042 72.7771L88.1691 73.0235L88.1691 73.0235L88.6042 72.7771ZM86.0504 68.2662L85.6152 68.5125L85.6153 68.5125L86.0504 68.2662ZM82.7382 67.5788L83.0258 67.9879L83.0347 67.9816L83.0433 67.9749L82.7382 67.5788ZM79.2964 69.9981L78.8959 70.2974L79.1866 70.6864L79.5839 70.4071L79.2964 69.9981ZM69.4509 98.0397L69.6738 97.5921L69.6738 97.5921L69.4509 98.0397ZM73.5617 63.648V55.825H72.5617V63.648H73.5617ZM73.5617 55.825C73.5617 55.2024 73.3128 54.5565 72.9487 54.0121C72.5825 53.4647 72.0691 52.9732 71.4798 52.6798L71.0341 53.575C71.4414 53.7778 71.8304 54.1389 72.1174 54.5681C72.4066 55.0004 72.5617 55.4552 72.5617 55.825H73.5617ZM71.4798 52.6798L67.8678 50.8814L67.4221 51.7766L71.0341 53.575L71.4798 52.6798ZM67.8678 50.8814C67.3404 50.6188 66.849 50.4505 66.35 50.4458C65.8379 50.441 65.3763 50.6084 64.9099 50.9085L65.4509 51.7495C65.8014 51.524 66.0738 51.4432 66.3406 51.4458C66.6205 51.4484 66.9529 51.543 67.4221 51.7766L67.8678 50.8814ZM55.3471 51.8912C54.7607 50.8547 53.4853 50.6167 52.5458 51.3393L53.1555 52.1319C53.6258 51.7702 54.1977 51.8904 54.4767 52.3836L55.3471 51.8912ZM52.6253 51.2893L45.578 54.8484L46.0288 55.741L53.0761 52.1819L52.6253 51.2893ZM77.2559 121.263C77.4714 121.714 77.4715 121.714 77.4715 121.714C77.4716 121.714 77.4717 121.714 77.4718 121.714C77.4721 121.714 77.4724 121.714 77.4729 121.714C77.4739 121.713 77.4754 121.713 77.4774 121.712C77.4813 121.71 77.4871 121.707 77.4948 121.703C77.5102 121.696 77.533 121.685 77.5628 121.671C77.6223 121.642 77.7097 121.6 77.8211 121.547C78.0439 121.44 78.3629 121.287 78.748 121.102C79.518 120.731 80.5523 120.23 81.6088 119.713C82.6649 119.195 83.7452 118.66 84.6066 118.219C85.037 117.999 85.4154 117.801 85.7098 117.641C85.9896 117.488 86.2303 117.349 86.3556 117.252L85.7452 116.46C85.6943 116.5 85.528 116.6 85.2305 116.763C84.9476 116.917 84.5784 117.11 84.1512 117.329C83.2976 117.766 82.2233 118.298 81.1689 118.814C80.115 119.331 79.0828 119.83 78.3139 120.201C77.9295 120.386 77.6111 120.539 77.3888 120.645C77.2776 120.699 77.1905 120.74 77.1311 120.769C77.1015 120.783 77.0788 120.794 77.0635 120.801C77.0559 120.805 77.0501 120.807 77.0462 120.809C77.0443 120.81 77.0428 120.811 77.0419 120.811C77.0414 120.812 77.041 120.812 77.0408 120.812C77.0407 120.812 77.0406 120.812 77.0405 120.812C77.0405 120.812 77.0404 120.812 77.2559 121.263ZM86.3556 117.252L88.9093 115.285L88.299 114.493L85.7452 116.46L86.3556 117.252ZM88.9093 115.285C89.8076 114.593 90.0896 113.258 89.5316 112.273L88.6614 112.765C88.9695 113.309 88.8103 114.099 88.299 114.493L88.9093 115.285ZM89.5316 112.273L84.9498 104.18L84.0796 104.672L88.6614 112.765L89.5316 112.273ZM86.037 105.177L93.3895 101.909L92.9834 100.995L85.6308 104.263L86.037 105.177ZM93.4201 101.894C94.1674 101.499 94.686 101.189 94.9629 100.746C95.2485 100.289 95.232 99.7545 95.232 99.1745H94.232C94.232 99.8588 94.2155 100.055 94.1148 100.216C94.0053 100.392 93.7511 100.588 92.9528 101.01L93.4201 101.894ZM95.232 99.1745V94.5934H94.232V99.1745H95.232ZM95.232 94.5934C95.232 93.8591 94.9949 93.0989 94.6264 92.4567C94.2597 91.8176 93.7351 91.2479 93.1147 90.9391L92.669 91.8343C93.0642 92.031 93.4597 92.4326 93.7591 92.9544C94.0568 93.4732 94.232 94.0635 94.232 94.5934H95.232ZM93.1147 90.9391L87.3697 88.0786L86.924 88.9737L92.669 91.8343L93.1147 90.9391ZM87.6414 88.4527C87.1664 85.2528 86.2467 82.0399 84.9766 78.976L84.0528 79.359C85.2943 82.3536 86.1903 85.4874 86.6523 88.5996L87.6414 88.4527ZM84.8199 79.5636L88.1515 76.9964L87.5411 76.2043L84.2095 78.7715L84.8199 79.5636ZM88.1515 76.9964C89.4745 75.9771 89.865 73.9893 89.0393 72.5308L88.1691 73.0235C88.7529 74.0547 88.4643 75.493 87.5411 76.2043L88.1515 76.9964ZM89.0393 72.5308L86.4855 68.0199L85.6153 68.5125L88.1691 73.0235L89.0393 72.5308ZM86.4855 68.0199C85.6334 66.5141 83.8014 66.1288 82.4331 67.1827L83.0433 67.9749C83.922 67.2982 85.0579 67.5276 85.6152 68.5125L86.4855 68.0199ZM82.4507 67.1697L79.0089 69.589L79.5839 70.4071L83.0258 67.9879L82.4507 67.1697ZM79.6969 69.6987C77.7767 67.1292 75.7084 65.0215 73.3632 63.2491L72.7602 64.0469C75.0236 65.7575 77.0267 67.7961 78.8959 70.2974L79.6969 69.6987ZM58.1162 78.9016C58.1162 82.7945 59.3595 86.9187 61.3557 90.4449C63.3499 93.9674 66.1232 96.9415 69.2281 98.4873L69.6738 97.5921C66.798 96.1604 64.154 93.3581 62.2259 89.9522C60.2999 86.55 59.1162 82.5939 59.1162 78.9016H58.1162ZM59.0308 73.7259C58.4374 75.1793 58.1162 76.9232 58.1162 78.9016H59.1162C59.1162 77.0287 59.4206 75.4168 59.9566 74.1039L59.0308 73.7259ZM69.2281 98.4873C69.8686 98.8062 70.5007 99.0531 71.12 99.2294L71.3939 98.2676C70.8385 98.1095 70.2638 97.8859 69.6738 97.5921L69.2281 98.4873ZM58.0592 56.6823L55.347 51.8911L54.4767 52.3837L57.1889 57.1749L58.0592 56.6823ZM64.9261 50.8985L58.2118 54.8642L58.7204 55.7252L65.4347 51.7595L64.9261 50.8985ZM64.405 121.916L73.8 117.305L73.3594 116.408L63.9644 121.019L64.405 121.916Z" fill="#36464A"/>
<path fill-rule="evenodd" clip-rule="evenodd" d="M64.8922 67.7328V59.9099C64.8922 58.9175 64.084 57.7085 63.0875 57.2123L59.4755 55.4139C58.4789 54.9177 57.6695 55.3207 57.6695 56.3131V64.136C55.3652 63.5829 53.2201 63.6664 51.3242 64.3163L46.7424 56.2223C46.3097 55.4574 45.3861 55.2783 44.6812 55.8205L42.1277 57.7883C41.4228 58.3317 41.2017 59.3943 41.6355 60.1592L46.2174 68.252C44.9607 70.0299 44.0528 72.2991 43.5849 74.9894L37.84 72.1284C36.824 71.6225 36 72.2385 36 73.5032V78.0841C36 79.3483 36.824 80.7852 37.84 81.2909L43.5849 84.1514C44.0528 87.3074 44.9607 90.4808 46.2174 93.5099L42.8849 96.0772C41.7619 96.9425 41.4228 98.6556 42.1277 99.9004L44.6812 104.411C45.3861 105.656 46.87 105.964 47.993 105.099L51.3242 102.532C53.2201 105.068 55.3652 107.288 57.6695 109.03V116.853C57.6695 117.845 58.4789 119.054 59.4755 119.55L63.0875 121.348C64.084 121.845 64.8922 121.442 64.8922 120.449V112.626C67.1965 113.179 69.3428 113.096 71.2375 112.446L75.8194 120.54C76.2525 121.304 77.1761 121.484 77.8809 120.941L80.4347 118.974C81.1395 118.431 81.36 117.369 80.927 116.604L76.3452 108.511C77.601 106.732 78.5089 104.463 78.9774 101.773L84.7224 104.634C85.7379 105.139 86.5625 104.524 86.5625 103.259V98.6783C86.5625 97.4141 85.7379 95.9772 84.7224 95.4715L78.9774 92.611C78.5089 89.455 77.601 86.2816 76.3452 83.2524L79.6768 80.6853C80.7999 79.8199 81.1395 78.1069 80.4347 76.862L77.8809 72.3511C77.1761 71.1058 75.6922 70.7984 74.5687 71.6637L71.1269 74.0829C69.2322 71.5475 67.1965 69.4744 64.8922 67.7328ZM61.2815 74.6372C55.3008 71.6601 50.4467 75.4009 50.4467 82.9865C50.4467 90.5717 55.3008 99.1472 61.2815 102.125C67.2609 105.102 72.1162 101.361 72.1162 93.7759C72.1162 86.1907 67.2609 77.6153 61.2815 74.6372Z" fill="#7DE2FF" stroke="#36464A"/>
<path fill-rule="evenodd" clip-rule="evenodd" d="M59.8376 74.0408C54.5388 72.2981 50.4467 76.0223 50.4467 82.9867C50.4467 90.5719 55.3008 99.1474 61.2815 102.125C65.8669 104.408 69.7913 102.74 71.3724 98.417C70.8996 98.2617 70.4184 98.063 69.9286 97.8194C63.9479 94.842 59.0939 86.2665 59.0939 78.6812C59.0939 76.9133 59.3576 75.3539 59.8376 74.0408Z" fill="#36464A"/>
<path d="M84.194 79.9433L76.0767 83.7554L80.4263 80.8494L89.0555 75.8513C89.0381 76.807 87.9862 77.5884 87.2177 78.1533L84.194 79.9433Z" fill="#36464A"/>
<path fill-rule="evenodd" clip-rule="evenodd" d="M76.3297 54.6931V62.516C78.6339 64.2576 79.8544 65.4223 81.7491 67.9578L84.6085 65.9154C85.7319 65.0501 88.6135 65.889 89.3183 67.1343L91.8721 71.6452C92.5769 72.8901 92.2373 74.6031 91.1142 75.4685L87.7826 78.0356C89.0384 81.0648 89.9463 84.2382 90.4148 87.3942L96.1598 90.2547C97.1754 90.7604 98 92.1973 98 93.4615V98.0426C98 99.3068 96.2443 100.388 95.2288 99.882L94.7321 99.539V94.2784C94.7321 93.0142 93.9075 91.5773 92.892 91.0717L87.147 88.2112C86.6785 85.0551 85.7706 81.8817 84.5148 78.8525L87.8464 76.2854C88.9695 75.4201 89.3091 73.707 88.6043 72.4621L86.0505 67.9512C85.3457 66.7059 83.8618 66.3985 82.7383 67.2638L79.2965 69.6831C77.4018 67.1476 75.3661 65.0745 73.0618 63.333V55.51C73.0618 54.5176 72.2536 53.3086 71.2571 52.8124L67.6451 51.014C67.5897 50.9864 67.5323 50.9619 67.473 50.9404V50.2793C67.473 49.2869 68.2824 48.8839 69.279 49.3801L74.5249 51.9955C75.5215 52.4917 76.3297 53.7007 76.3297 54.6931ZM60.0486 54.3068L58.1798 51.0055C57.7471 50.2406 56.8235 50.0615 56.1186 50.6037L54.7848 51.6316C54.8308 51.6905 54.8733 51.7541 54.912 51.8224L57.2406 56.1119L60.0486 54.3068ZM88.1353 103.917C87.1101 104.395 86.1519 104.817 85.4254 105.129L84.6084 104.72L89.0966 112.204C89.5296 112.969 88.581 114.798 87.8762 115.341L87.4687 115.612C87.9475 116.124 88.7135 116.191 89.3183 115.725L91.8721 113.757C92.5769 113.214 92.7975 112.152 92.3644 111.387L88.1353 103.917ZM76.3296 110.677V115.24C76.3296 115.238 76.3297 115.235 76.3297 115.232L76.3296 110.677Z" fill="#36464A"/>
<path fill-rule="evenodd" clip-rule="evenodd" d="M88.2391 76.1738C88.1541 76.1839 88.1325 76.1899 88.0541 76.2243L79.5346 80.4661C79.4929 80.4896 79.4929 80.4895 79.4536 80.5169L76.0975 83.1031C75.8112 83.3471 75.8969 83.8784 76.2893 83.9673C76.3926 83.9909 76.4548 83.9995 76.6181 83.9279L85.1377 79.686C85.1795 79.6627 85.1795 79.6626 85.2186 79.6354L88.5747 77.0491C88.8959 76.7754 88.7265 76.1633 88.2391 76.1738Z" fill="#36464A"/>
</svg>
