<svg width="150" height="150" viewBox="0 0 150 150" fill="none" xmlns="http://www.w3.org/2000/svg">
<path fill-rule="evenodd" clip-rule="evenodd" d="M51.5751 26.1214L120.121 60.2248V117.518C120.121 119.198 119.025 120.016 117.675 119.344L54.0217 87.6752C52.6712 87.0034 51.5751 85.0944 51.5751 83.4148V26.1214Z" fill="#F7FBFC"/>
<path fill-rule="evenodd" clip-rule="evenodd" d="M51.4253 25.7128L51.2755 25.805L51.1742 25.9487L51.1386 26.1214V83.4578C51.1408 83.5701 51.1397 83.6937 51.1699 83.9395C51.1699 83.9395 51.2561 84.5985 51.4674 85.1794L51.4749 85.1993C51.6592 85.7052 51.9114 86.1867 52.224 86.625C52.224 86.625 52.779 87.3653 53.333 87.764C53.4785 87.8689 53.6305 87.9646 53.7911 88.0458L53.8073 88.0542C74.9911 98.7083 96.1776 109.36 117.498 119.742C118.107 120.041 118.839 120.121 119.434 119.807C119.434 119.807 119.843 119.552 120.043 119.284C120.043 119.284 120.357 118.776 120.446 118.433C120.446 118.433 120.499 118.211 120.518 118.083C120.55 117.863 120.558 117.542 120.558 117.542V60.2248L120.529 60.0682C120.445 59.933 120.444 59.932 120.317 59.8355L51.7702 25.7321L51.5999 25.687C51.5417 25.6956 51.4835 25.7042 51.4253 25.7128ZM119.685 60.4929C119.685 79.5132 120.016 98.5363 119.684 117.554C119.684 117.619 119.683 117.624 119.682 117.654C119.653 118.308 119.399 119.053 118.709 119.137C118.429 119.171 118.14 119.088 117.883 118.962C96.5621 108.58 75.2816 98.1085 54.1899 87.2725C52.6001 86.4647 52.0289 84.4563 52.0116 83.4505V26.8238C74.5695 38.0472 97.127 49.2695 119.685 60.4929Z" fill="#36464A"/>
<path fill-rule="evenodd" clip-rule="evenodd" d="M51.5753 36.5704V83.4148C51.5753 85.0944 52.6714 87.0034 54.0219 87.6751L101.71 111.401V64.269C101.71 62.7483 100.718 61.0205 99.4957 60.4124L51.5753 36.5704Z" fill="#36464A"/>
<path fill-rule="evenodd" clip-rule="evenodd" d="M51.4254 36.1629L51.2756 36.2551L51.1743 36.3988L51.1387 36.5704V83.458C51.1409 83.5703 51.1398 83.6938 51.17 83.9396C51.17 83.9396 51.2562 84.5987 51.4674 85.1795L51.475 85.1995C51.6593 85.7053 51.9115 86.1869 52.2241 86.6251C52.2241 86.6251 52.7791 87.3654 53.3331 87.7642C53.4786 87.8691 53.6306 87.9647 53.7912 88.0459L53.8257 88.0635L101.515 111.79L101.686 111.835L101.86 111.81L102.01 111.717L102.111 111.574L102.147 111.402V64.2294C102.143 63.9924 102.134 63.9045 102.114 63.7479C102.114 63.7479 102.047 63.291 101.944 62.9489C101.94 62.9371 101.811 62.5381 101.684 62.2582C101.515 61.8861 101.307 61.5322 101.059 61.2072C100.82 60.893 100.799 60.8908 100.779 60.8694C100.472 60.5326 100.113 60.2388 99.7075 60.0318L51.7703 36.1822L51.6 36.1371C51.5418 36.1457 51.4836 36.1543 51.4254 36.1629ZM99.3006 60.8008C99.9653 61.1321 100.441 61.7552 100.766 62.3666C100.766 62.3666 100.937 62.7022 101.044 63.0036C101.044 63.0036 101.264 63.7275 101.273 64.2241L101.274 64.2369V110.698C85.579 102.89 69.7815 95.2829 54.19 87.2727C52.6002 86.4649 52.029 84.4565 52.0117 83.4506V37.274C67.7746 45.1159 83.5378 52.9588 99.3006 60.8008Z" fill="#36464A"/>
<path fill-rule="evenodd" clip-rule="evenodd" d="M123.549 58.5197L120.121 60.225V117.518C120.121 118.48 119.762 119.159 119.201 119.438L122.629 117.733V117.733C123.19 117.454 123.549 116.775 123.549 115.813V58.5197Z" fill="#F7FBFC"/>
<path fill-rule="evenodd" clip-rule="evenodd" d="M123.354 58.1303L119.926 59.8356L119.798 59.9321C119.714 60.0672 119.714 60.0683 119.685 60.2249V117.538C119.681 117.764 119.737 118.133 119.418 118.654C119.317 118.819 119.177 118.963 119.004 119.05L118.877 119.147C118.794 119.281 118.793 119.283 118.765 119.438L118.8 119.61L118.901 119.754L119.051 119.846L119.226 119.872L119.397 119.827L122.827 118.121C123.024 118.019 123.204 117.885 123.353 117.721C123.353 117.721 123.543 117.499 123.644 117.312L123.84 116.846C123.893 116.663 123.936 116.519 123.967 116.202C123.98 116.07 123.984 115.941 123.986 115.839V58.5196L123.95 58.347L123.849 58.2033L123.699 58.111L123.524 58.0853C123.467 58.1003 123.411 58.1153 123.354 58.1303ZM123.112 115.832C123.101 116.573 122.984 117.063 122.432 117.345L120.474 118.319C120.513 118.152 120.542 117.943 120.552 117.741C120.552 117.741 120.557 117.637 120.558 117.544V60.493L123.112 59.2221C123.112 78.0923 123.112 96.9623 123.112 115.832Z" fill="#36464A"/>
<path fill-rule="evenodd" clip-rule="evenodd" d="M51.5751 21.0057C51.5751 19.4849 52.5677 18.7449 53.79 19.353L117.907 51.2526C119.129 51.8606 120.121 53.5884 120.121 55.1092V60.2249L51.5751 26.1214V21.0057Z" fill="#F7FBFC"/>
<path fill-rule="evenodd" clip-rule="evenodd" d="M52.9472 18.7051C52.362 18.7169 51.8177 19.0387 51.5041 19.5416L51.4383 19.6553C51.2928 19.9352 51.2227 20.1819 51.1818 20.45L51.1516 20.6903C51.1408 20.8168 51.1387 20.9659 51.1387 20.9659V26.1212C51.1893 26.3904 51.2939 26.4451 51.3801 26.5095L119.926 60.6129L120.097 60.658L120.271 60.6322L120.421 60.54L120.522 60.3963L120.558 60.2247C120.558 58.5055 120.591 56.7874 120.558 55.0693C120.558 53.6933 119.896 52.3227 118.885 51.4058C118.654 51.1956 118.397 51.0143 118.119 50.8728C96.7812 40.1298 75.4427 29.3858 53.9528 18.9486C53.6349 18.7941 53.3234 18.703 52.9472 18.7051ZM52.9753 19.5749C53.1876 19.576 53.3956 19.6446 53.5831 19.7358C75.0181 30.2738 96.454 40.813 117.736 51.6535C119.048 52.3217 119.684 54.0537 119.684 55.0768L119.685 59.5211L52.0117 25.8521V20.9745C52.0149 20.8232 52.0128 20.7439 52.058 20.5079C52.1421 20.0618 52.4461 19.5953 52.9321 19.5749C52.9462 19.5749 52.9612 19.5749 52.9753 19.5749Z" fill="#36464A"/>
<path fill-rule="evenodd" clip-rule="evenodd" d="M116.167 52.2082C115.255 51.7546 114.515 52.3337 114.515 53.5005C114.515 54.6663 115.255 55.9822 116.167 56.4358C117.078 56.8894 117.819 56.3103 117.819 55.1435C117.819 53.9778 117.078 52.6619 116.167 52.2082Z" fill="#F7FBFC"/>
<path fill-rule="evenodd" clip-rule="evenodd" d="M115.544 51.6193C115.088 51.6301 114.654 51.8767 114.405 52.2607C114.405 52.2607 114.155 52.739 114.104 53.1036C113.893 54.6137 114.815 56.3693 116.131 56.8959C116.547 57.0621 117.032 57.0761 117.431 56.8541C118.197 56.4272 118.336 55.3194 118.202 54.545C118.202 54.545 118.069 53.9284 117.875 53.508C117.436 52.5588 116.626 51.6772 115.654 51.6215C115.619 51.6193 115.612 51.6183 115.544 51.6193ZM115.568 52.488C116.356 52.4977 116.884 53.3632 117.152 54.0356C117.381 54.6083 117.549 55.2636 117.234 55.8459C117.121 56.0561 116.87 56.1966 116.606 56.1366C115.817 55.9575 115.292 55.0813 115.065 54.2705C114.926 53.7739 114.843 53.2238 115.119 52.7626C115.213 52.6039 115.379 52.488 115.568 52.488Z" fill="#36464A"/>
<path fill-rule="evenodd" clip-rule="evenodd" d="M111.824 50.0482C110.912 49.5945 110.172 50.1726 110.172 51.3394C110.172 52.5063 110.912 53.8211 111.824 54.2748C112.736 54.7284 113.476 54.1504 113.476 52.9835C113.476 51.8167 112.736 50.5018 111.824 50.0482Z" fill="#F7FBFC"/>
<path fill-rule="evenodd" clip-rule="evenodd" d="M111.201 49.4595C110.149 49.4842 109.57 50.7776 109.8 52.0013C110.11 53.6454 111.61 55.371 112.994 54.7414C113.219 54.6395 113.414 54.4711 113.555 54.2685C113.555 54.2685 113.804 53.862 113.873 53.4662C114.106 52.1224 113.48 50.6382 112.325 49.8402C111.991 49.6097 111.644 49.4542 111.201 49.4595ZM111.232 50.3282C111.831 50.3422 112.279 50.8902 112.586 51.4168C112.963 52.0645 113.219 52.8485 112.946 53.5671C112.843 53.8384 112.561 54.0529 112.236 53.9692C111.507 53.7816 111.018 53.0051 110.767 52.2544C110.584 51.7053 110.466 51.0661 110.797 50.5706C110.892 50.4269 111.053 50.3282 111.232 50.3282Z" fill="#36464A"/>
<path fill-rule="evenodd" clip-rule="evenodd" d="M107.481 47.887C106.57 47.4333 105.829 48.0125 105.829 49.1783C105.829 50.3451 106.57 51.6611 107.481 52.1147C108.393 52.5684 109.134 51.9893 109.134 50.8224C109.134 49.6566 108.393 48.3406 107.481 47.887Z" fill="#F7FBFC"/>
<path fill-rule="evenodd" clip-rule="evenodd" d="M106.858 47.2984C105.817 47.3242 105.24 48.5779 105.446 49.7779C105.628 50.8375 106.232 51.8693 107.105 52.4023C107.105 52.4023 108.057 52.9471 108.781 52.5127C109.723 51.9475 109.714 50.4557 109.266 49.364C108.833 48.3055 107.924 47.322 106.912 47.2984C106.894 47.2984 106.876 47.2984 106.858 47.2984ZM106.892 48.1671C107.683 48.1768 108.341 49.1945 108.583 50.0525C108.649 50.2884 108.69 50.5319 108.696 50.7775C108.696 50.7775 108.754 51.6365 108.241 51.8092C107.898 51.925 107.552 51.6848 107.315 51.48C106.463 50.7485 105.945 49.4144 106.401 48.5006C106.492 48.3173 106.668 48.1671 106.892 48.1671Z" fill="#36464A"/>
<path fill-rule="evenodd" clip-rule="evenodd" d="M120.121 60.2249L123.549 58.5196V53.404C123.549 51.8832 122.557 50.1554 121.334 49.5473L57.2176 17.6478C56.6949 17.3872 56.2142 17.3744 55.8359 17.562L52.4085 19.2683C52.7868 19.0796 53.2675 19.0924 53.7902 19.3531L117.907 51.2526C119.129 51.8607 120.121 53.5884 120.121 55.1092V60.2249Z" fill="#F7FBFC"/>
<path fill-rule="evenodd" clip-rule="evenodd" d="M56.3834 16.9999C56.1258 17.002 55.8703 17.06 55.6419 17.1736L52.2123 18.8789L52.0851 18.9754C52.0011 19.1105 52 19.1116 51.9709 19.2682L52.0064 19.4387L52.1056 19.5824L52.2543 19.6746L52.4279 19.7015L52.5971 19.6596C52.8999 19.5138 53.2782 19.5899 53.5736 19.7315C74.9916 30.3125 96.451 40.8119 117.736 51.6535C119.048 52.3217 119.684 54.0537 119.684 55.0768L119.684 60.2247L119.72 60.3963L119.821 60.54L119.971 60.6322L120.146 60.658L120.316 60.6129L123.744 58.9077L123.872 58.8112C123.956 58.676 123.956 58.675 123.986 58.5195C123.986 56.8003 124.018 55.0822 123.985 53.3641C123.985 53.2097 123.974 53.0552 123.955 52.9008C123.806 51.6878 123.213 50.5199 122.314 49.7016C122.082 49.4903 121.825 49.3069 121.546 49.1665C100.219 38.43 78.79 27.894 57.4127 17.2584C57.0872 17.0975 56.7584 16.9978 56.3834 16.9999ZM56.4049 17.8697C56.6129 17.8708 56.8156 17.9372 57.002 18.0263C78.4192 28.6072 99.8274 39.2064 121.164 49.9483C122.39 50.58 123.112 52.1029 123.112 53.3716L123.112 58.2503L120.558 59.5211C120.558 58.0368 120.586 56.5526 120.558 55.0693C120.558 54.7991 120.548 54.7165 120.505 54.4451C120.271 52.9791 119.393 51.5216 118.119 50.8728L118.103 50.8642L53.9896 18.9668C54.6761 18.6247 55.3584 18.2729 56.0503 17.9415C56.1452 17.8976 56.2486 17.875 56.3532 17.8697C56.3704 17.8697 56.3866 17.8686 56.4049 17.8697Z" fill="#36464A"/>
<path fill-rule="evenodd" clip-rule="evenodd" d="M25.4366 39.1262L93.9827 73.2296V130.523C93.9827 132.202 92.8864 133.021 91.5361 132.349L27.8832 100.68C26.5327 100.008 25.4366 98.0991 25.4366 96.4196V39.1262Z" fill="#F7FBFC"/>
<path fill-rule="evenodd" clip-rule="evenodd" d="M25.2867 38.7177L25.1369 38.8099L25.0356 38.9536L25 39.1263V96.4628C25.0043 96.7351 25.0302 97.0062 25.0798 97.2738C25.0798 97.2738 25.1315 97.5495 25.2026 97.7969C25.2026 97.7969 25.4742 98.6043 25.7307 99.0654C26.1877 99.8879 26.8344 100.639 27.6697 101.059C48.8075 111.804 70.0401 122.365 91.3601 132.747C92.1468 133.13 93.1503 133.115 93.7726 132.446C93.8592 132.353 93.9648 132.206 93.9648 132.206C94.094 132.014 94.1949 131.804 94.2644 131.584L94.3305 131.346C94.353 131.247 94.3761 131.109 94.3761 131.109C94.4018 130.923 94.4191 130.735 94.4191 130.546L94.4194 130.527V73.2297L94.3901 73.072C94.3064 72.938 94.3051 72.9358 94.178 72.8404L25.6316 38.737L25.4613 38.6919C25.4031 38.7005 25.3449 38.7091 25.2867 38.7177ZM93.546 73.4978C93.546 92.5115 93.8764 111.528 93.5457 130.539C93.5457 130.649 93.5394 130.76 93.5269 130.87C93.4933 131.166 93.412 131.456 93.2474 131.71C93.1925 131.794 92.9357 132.095 92.5801 132.141C92.2943 132.177 92.0024 132.092 91.7439 131.966C70.4228 121.584 49.2365 110.93 28.0512 100.277C27.2203 99.8461 26.6199 98.994 26.2718 98.1943C26.0358 97.6519 25.8838 97.0672 25.8741 96.491L25.873 96.4553V39.8288C48.4313 51.0521 70.9886 62.2744 93.546 73.4978Z" fill="#36464A"/>
<path fill-rule="evenodd" clip-rule="evenodd" d="M97.4103 71.5235L93.9826 73.2298V130.523C93.9826 131.485 93.6233 132.164 93.0627 132.443H93.0628L96.4904 130.738H96.4903C97.051 130.459 97.4103 129.779 97.4103 128.818V71.5235Z" fill="#F7FBFC"/>
<path fill-rule="evenodd" clip-rule="evenodd" d="M97.2151 71.1343L93.7873 72.8395L93.6596 72.936C93.5759 73.0712 93.5751 73.0722 93.5459 73.2288C93.5459 92.3327 93.8354 111.439 93.5456 130.542C93.5456 130.637 93.5406 130.732 93.5313 130.827C93.4875 131.273 93.2672 131.854 92.8671 132.053L92.7325 132.157L92.6481 132.305L92.6267 132.473L92.6718 132.636L92.7762 132.77L92.9243 132.854L93.0934 132.875L93.2577 132.831L96.7019 131.117C96.8391 131.046 97.0142 130.914 97.0142 130.914C97.1268 130.819 97.2664 130.666 97.2664 130.666C97.3762 130.533 97.4857 130.351 97.4857 130.351C97.4956 130.333 97.5057 130.315 97.5155 130.296C97.6078 130.122 97.707 129.874 97.7632 129.617C97.7632 129.617 97.8262 129.311 97.8401 129.061C97.8402 129.059 97.8472 128.82 97.8472 128.82V71.5225L97.8116 71.3509L97.7104 71.2072L97.5603 71.115L97.3856 71.0892C97.3288 71.1042 97.272 71.1193 97.2151 71.1343ZM96.9737 128.814C96.9695 129.093 96.9747 129.377 96.7968 129.781C96.7035 129.993 96.5389 130.226 96.2949 130.348L94.3354 131.322C94.3354 131.322 94.3984 131.016 94.4123 130.766C94.4124 130.764 94.4194 130.526 94.4194 130.526V73.4969L96.9737 72.226C96.9737 91.0887 96.9737 109.951 96.9737 128.814Z" fill="#36464A"/>
<path fill-rule="evenodd" clip-rule="evenodd" d="M25.4366 34.0104C25.4366 32.4897 26.4292 31.7497 27.6514 32.3577L91.7681 64.2572C92.9903 64.8653 93.9827 66.5931 93.9827 68.1138V73.2295L25.4366 39.1261V34.0104Z" fill="#F7FBFC"/>
<path fill-rule="evenodd" clip-rule="evenodd" d="M26.8096 31.7101C26.2383 31.7176 25.6887 32.0361 25.3837 32.5177C25.3837 32.5177 25.2511 32.7311 25.1756 32.9392C25.1756 32.9392 25.0603 33.3081 25.0312 33.528C25.0312 33.528 25.0086 33.7317 25.0053 33.8143C25.001 33.8926 24.9999 33.9709 24.9999 33.9709V39.1262C25.0193 39.2313 25.0215 39.3482 25.2414 39.5145L93.7874 73.6179L93.9579 73.663L94.1325 73.6372L94.2826 73.545L94.3838 73.4013L94.4194 73.2297C94.4194 71.458 94.4992 69.7056 94.4142 67.9145C94.406 67.7419 94.373 67.4941 94.373 67.4941C94.3243 67.1713 94.3268 67.2335 94.3183 67.1928C94.278 67.0051 94.2276 66.8206 94.167 66.6383C94.0753 66.3627 93.9111 66.0055 93.9044 65.9916C93.8272 65.8307 93.7191 65.6387 93.7131 65.628C93.6441 65.5079 93.5424 65.3502 93.5424 65.3502C93.3019 64.9899 93.2427 64.9331 93.1304 64.8033C92.8058 64.429 92.4206 64.1019 91.9795 63.8767C70.6016 53.241 49.2246 42.6053 27.8464 31.9686C27.494 31.7938 27.2105 31.7176 26.8592 31.7101C26.843 31.7101 26.8268 31.7101 26.8096 31.7101ZM26.8365 32.5799C27.0435 32.582 27.2461 32.6453 27.4325 32.7354C48.9724 43.0686 70.3106 53.8158 91.5968 64.6585C92.3592 65.051 92.8945 65.8414 93.2025 66.5568C93.2025 66.5568 93.4928 67.403 93.5315 67.8126C93.5434 67.9381 93.546 68.1183 93.546 68.1183V72.5261L25.873 38.857V33.9795C25.8784 33.7306 25.8708 33.4357 26.0864 33.04C26.2308 32.7751 26.497 32.5885 26.8107 32.5799C26.8193 32.5799 26.8279 32.5799 26.8365 32.5799Z" fill="#36464A"/>
<path fill-rule="evenodd" clip-rule="evenodd" d="M90.028 65.2128C89.1162 64.7591 88.376 65.3383 88.376 66.504C88.376 67.6709 89.1162 68.9868 90.028 69.4404C90.9398 69.8941 91.6801 69.315 91.6801 68.1481C91.6801 66.9823 90.9398 65.6664 90.028 65.2128Z" fill="#F7FBFC"/>
<path fill-rule="evenodd" clip-rule="evenodd" d="M89.4053 64.6242C88.9671 64.6349 88.5466 64.8623 88.2967 65.2205C88.2967 65.2205 88.2113 65.3438 88.1536 65.4639C87.4239 66.9847 88.479 69.0921 89.7542 69.7881C90.3574 70.1174 91.2 70.0991 91.673 69.5447C92.7892 68.2373 91.6708 65.6784 90.3791 64.9095C90.0824 64.7336 89.7735 64.6199 89.4053 64.6242ZM89.4293 65.4929C90.3034 65.5036 90.9433 66.5997 91.1621 67.5016C91.2765 67.9735 91.3326 68.5012 91.0554 68.9183C91.0404 68.9409 91.0241 68.9623 91.0067 68.9827C90.6082 69.4546 89.6661 68.81 89.2167 67.9832C88.8742 67.3525 88.64 66.5911 88.912 65.9069C88.9212 65.8833 88.9312 65.8608 88.942 65.8382C88.9518 65.8179 88.9624 65.7986 88.9736 65.7782C88.9846 65.7599 88.9964 65.7417 89.009 65.7235C89.1057 65.5862 89.2579 65.4929 89.4293 65.4929Z" fill="#36464A"/>
<path fill-rule="evenodd" clip-rule="evenodd" d="M85.6855 63.0528C84.7737 62.5992 84.0335 63.1772 84.0335 64.3441C84.0335 65.5109 84.7737 66.8258 85.6855 67.2794C86.5972 67.7331 87.3375 67.1539 87.3375 65.9882C87.3375 64.8213 86.5972 63.5065 85.6855 63.0528Z" fill="#F7FBFC"/>
<path fill-rule="evenodd" clip-rule="evenodd" d="M85.0627 62.4632C84.3498 62.4814 83.77 63.0905 83.6369 63.8616C83.5473 64.3796 83.5921 64.6209 83.6557 64.9748C83.845 66.0269 84.4276 67.0436 85.3346 67.583C85.9496 67.9487 86.8335 67.9573 87.3222 67.3943C87.9202 66.7047 87.8499 65.5904 87.5503 64.7378C87.1373 63.5646 86.2194 62.4492 85.0627 62.4632ZM85.0936 63.3329C86.3525 63.3629 86.9856 65.3706 86.8876 66.2264C86.8819 66.2768 86.8739 66.3272 86.8634 66.3776C86.8482 66.4484 86.8283 66.5191 86.8015 66.5867C86.7908 66.6135 86.779 66.6403 86.7659 66.6661C86.6739 66.8495 86.5004 66.9985 86.2884 66.9996C85.5815 67.0039 85.0651 66.2403 84.7815 65.6397C84.5445 65.1368 84.3759 64.6091 84.5042 63.9732C84.5579 63.7072 84.6759 63.4402 84.9377 63.3544C84.9867 63.3372 85.041 63.3329 85.0936 63.3329Z" fill="#36464A"/>
<path fill-rule="evenodd" clip-rule="evenodd" d="M81.343 60.8919C80.4312 60.4382 79.6909 61.0173 79.6909 62.1831C79.6909 63.3499 80.4312 64.6659 81.343 65.1195C82.2547 65.5732 82.995 64.994 82.995 63.8272C82.995 62.6603 82.2547 61.3455 81.343 60.8919Z" fill="#F7FBFC"/>
<path fill-rule="evenodd" clip-rule="evenodd" d="M80.7202 60.3031C80.1682 60.3159 79.6711 60.6838 79.4457 61.1922C78.7602 62.7387 79.7896 64.7281 81.0175 65.4381C81.5363 65.7373 82.2325 65.8274 82.7472 65.4477C82.7472 65.4477 82.9743 65.2676 83.1049 65.067C83.1049 65.067 83.3527 64.5994 83.4052 64.224C83.5926 62.8845 82.9147 61.4431 81.8682 60.702C81.5304 60.4618 81.1732 60.2977 80.7202 60.3031ZM80.7538 61.1718C81.151 61.1771 81.4989 61.4796 81.7488 61.7638C82.2389 62.3193 82.5395 63.0443 82.5578 63.7822C82.5578 63.7822 82.6009 64.6852 82.0724 64.8225C81.7385 64.9104 81.4125 64.6884 81.1769 64.4857C80.3685 63.7886 79.9134 62.5992 80.1957 61.6758C80.2694 61.4345 80.432 61.1868 80.7192 61.1728C80.7307 61.1718 80.7422 61.1718 80.7538 61.1718Z" fill="#36464A"/>
<path fill-rule="evenodd" clip-rule="evenodd" d="M93.9826 73.2295L97.4103 71.5232V66.4086C97.4103 64.8878 96.418 63.1601 95.1957 62.552L31.0787 30.6525C30.556 30.3919 30.0764 30.379 29.697 30.5667L26.2696 32.2719C26.6479 32.0842 27.1286 32.0971 27.6513 32.3577L91.768 64.2572C92.9902 64.8653 93.9826 66.5931 93.9826 68.1138V73.2295Z" fill="#F7FBFC"/>
<path fill-rule="evenodd" clip-rule="evenodd" d="M30.2308 30.0049C29.9829 30.0092 29.7372 30.066 29.5141 30.1722L26.0737 31.8839C25.9584 31.9739 25.9056 31.9868 25.856 32.1348C25.7849 32.3461 25.9121 32.611 26.1287 32.6839C26.3346 32.7536 26.3712 32.64 26.6902 32.5906C26.9446 32.5509 27.2044 32.6249 27.435 32.7365C48.8821 43.2585 70.3119 53.8158 91.5968 64.6585C92.3592 65.051 92.8946 65.8414 93.2025 66.5568C93.2025 66.5568 93.4929 67.403 93.5316 67.8126C93.5434 67.9381 93.546 68.1183 93.546 68.1183V73.2297L93.5817 73.4013L93.6828 73.545L93.8329 73.6372L94.0075 73.663L94.178 73.6179L97.6057 71.9127L97.7336 71.8162C97.8173 71.681 97.818 71.68 97.8472 71.5234C97.8472 69.7527 97.9271 68.0014 97.842 66.2093C97.8338 66.0356 97.8007 65.7889 97.8007 65.7889C97.7522 65.4661 97.7546 65.5283 97.7461 65.4875C97.7058 65.2999 97.6553 65.1154 97.5947 64.9331C97.54 64.769 97.4499 64.548 97.4499 64.548C97.3632 64.3464 97.2691 64.148 97.1606 63.9582L96.9702 63.645C96.7297 63.2847 96.6704 63.2278 96.5581 63.0981C96.2382 62.7291 95.8591 62.4042 95.4243 62.18C74.1434 51.3395 52.6565 40.9023 31.273 30.2634C30.9432 30.1014 30.6134 29.9995 30.2308 30.0049ZM30.2567 30.8736C30.4679 30.8757 30.6738 30.9401 30.8635 31.0312C52.3094 41.5532 73.7392 52.1106 95.0244 62.9533C95.7753 63.3394 96.3074 64.1019 96.6302 64.8516C96.6302 64.8516 96.9206 65.6977 96.9593 66.1074C96.9711 66.2329 96.9737 66.412 96.9737 66.412V71.2553L94.4195 72.5261C94.4195 71.0483 94.4475 69.5694 94.4191 68.0915C94.4191 68.0668 94.4186 68.0411 94.4181 68.0164C94.414 67.8019 94.373 67.4941 94.373 67.4941C94.3244 67.1713 94.3269 67.2335 94.3184 67.1928C94.278 67.0051 94.2276 66.8206 94.167 66.6383C94.0753 66.3627 93.9112 66.0055 93.9045 65.9916C93.8272 65.8307 93.7191 65.6387 93.7132 65.628C93.6442 65.5079 93.5425 65.3503 93.5425 65.3503C93.302 64.9899 93.2427 64.9331 93.1304 64.8033C92.8059 64.429 92.4207 64.1019 91.9795 63.8767L27.8521 31.9718C28.5376 31.6297 29.2134 31.2683 29.9085 30.9487C30.0185 30.8972 30.137 30.8736 30.2567 30.8736Z" fill="#36464A"/>
<path fill-rule="evenodd" clip-rule="evenodd" d="M73.9936 73.1243C73.3043 73.1351 72.674 73.6067 72.4113 74.3309C72.298 74.6438 72.2527 74.9784 72.248 75.3118C72.248 75.3118 72.2742 76.0899 72.4659 76.6953C72.6245 77.1961 72.8562 77.6752 73.1531 78.1069C73.1691 78.1295 73.3647 78.4037 73.5324 78.5925C73.8319 78.9281 74.1839 79.2195 74.5851 79.4278C76.3613 80.316 78.1254 81.2284 79.9138 82.0917C80.6545 82.449 81.6146 82.3893 82.1596 81.6814C82.7459 80.9199 82.7153 79.84 82.453 78.9066C82.1147 77.7033 81.3443 76.5594 80.2884 76.0219C78.5189 75.1219 76.7431 74.2337 74.9612 73.3585C74.6591 73.2128 74.3257 73.1211 73.9936 73.1243ZM74.0198 73.9985C74.2191 74.0006 74.413 74.0632 74.5905 74.1506C76.3677 75.0237 78.1387 75.9097 79.9036 76.8076C81.3855 77.5813 82.2738 79.7019 81.5559 81.0097C81.331 81.4194 80.7613 81.5297 80.2829 81.2988C78.5124 80.4131 76.7295 79.553 74.9714 78.6432C73.8158 78.04 73.1402 76.6273 73.1232 75.4089C73.1232 75.4089 73.1237 74.9643 73.2205 74.6676C73.3309 74.3298 73.6023 74.0103 73.9873 73.9995C73.9982 73.9985 74.009 73.9985 74.0198 73.9985Z" fill="#36464A"/>
<path fill-rule="evenodd" clip-rule="evenodd" d="M54.2302 63.2423C53.0963 63.2574 52.3572 64.6279 52.5133 65.9499C52.5391 66.169 52.6067 66.4701 52.6067 66.4701C52.9228 67.7467 53.653 68.9425 54.8207 69.5457C59.1646 71.7343 63.5017 73.938 67.8731 76.0715C68.6581 76.4514 69.6812 76.3683 70.2188 75.52C70.9364 74.3869 70.5284 72.7552 69.8901 71.6544C69.4882 70.9616 68.9621 70.3583 68.2318 69.9936C63.8869 67.8212 59.5625 65.6078 55.197 63.4764C54.892 63.3286 54.5915 63.239 54.2302 63.2423ZM54.2561 64.1164C54.4505 64.1186 54.6409 64.179 54.8146 64.2632C59.1847 66.3956 63.5414 68.5583 67.8631 70.7879C68.6363 71.1893 69.1673 71.9998 69.4591 72.78C69.705 73.4383 69.8444 74.1743 69.5851 74.8412C69.3973 75.3247 68.8235 75.5621 68.2431 75.2783C63.8841 73.1329 59.5246 70.9875 55.2069 68.7601C53.7636 68.0101 52.8566 65.8819 53.5453 64.574C53.6806 64.3171 53.9403 64.125 54.2322 64.1164C54.2402 64.1164 54.2481 64.1164 54.2561 64.1164Z" fill="#36464A"/>
<path fill-rule="evenodd" clip-rule="evenodd" d="M39.7472 56C38.7273 56.0129 38.0183 57.104 38 58.1832C38 58.1832 38.0054 58.7238 38.1133 59.19C38.2914 59.9562 38.641 60.6814 39.1353 61.2923C39.1353 61.2923 39.3684 61.5728 39.5745 61.7649C39.8044 61.9764 40.0591 62.1621 40.3364 62.3034C42.9102 63.619 45.5024 64.901 48.0946 66.182C48.7043 66.4777 49.4457 66.5273 50.0134 66.1162C50.2184 65.9683 50.5065 65.6133 50.635 65.2798L50.745 64.9237C50.7893 64.7089 50.8173 64.4931 50.8217 64.274V64.1607C50.8065 63.2758 50.5961 62.6628 50.2411 61.9797C49.8428 61.2156 49.2655 60.5325 48.5014 60.1289C45.9222 58.8112 43.3203 57.5378 40.7292 56.2428C40.4227 56.0928 40.0882 55.9978 39.7472 56ZM39.772 56.8741C39.9662 56.8773 40.1551 56.9389 40.3321 57.022C42.9318 58.2932 45.5208 59.5882 48.0989 60.9048C48.686 61.2145 49.1252 61.7585 49.4349 62.3272C49.4349 62.3272 49.8072 63.0826 49.9044 63.6816C49.9044 63.6816 49.9508 64.6485 49.8094 64.9874C49.6151 65.4568 49.0281 65.6618 48.4788 65.3964C45.8866 64.1154 43.2955 62.8322 40.7206 61.5178C39.1212 60.6998 38.6065 58.249 39.0489 57.3554C39.1795 57.091 39.445 56.8784 39.7547 56.8741C39.7601 56.8741 39.7666 56.8741 39.772 56.8741Z" fill="#36464A"/>
<path fill-rule="evenodd" clip-rule="evenodd" d="M58.5262 77.0051C57.8236 77.0148 57.1804 77.5101 56.9307 78.245C56.2955 80.1153 57.5011 82.4737 59.1163 83.3082C60.7387 84.1193 62.3505 84.9518 63.9834 85.7415C64.7588 86.1163 65.7714 86.0425 66.3119 85.2155C66.5788 84.807 66.6882 84.3122 66.6948 83.8271C66.6948 83.8271 66.6958 83.5079 66.6659 83.2656C66.647 83.1104 66.6067 82.9006 66.6067 82.9006C66.3211 81.566 65.5434 80.2696 64.3575 79.6717C62.7411 78.8494 61.1218 78.0335 59.4918 77.2393C59.1909 77.0936 58.8592 77.0029 58.5262 77.0051ZM58.5509 77.8792C58.7502 77.8824 58.9438 77.945 59.1222 78.0314C60.7446 78.83 62.3592 79.6437 63.9737 80.4576C65.4355 81.225 66.25 83.2643 65.6719 84.5656C65.4649 85.0313 64.8934 85.21 64.3523 84.9483C62.7329 84.1454 61.1081 83.3529 59.5023 82.5231C58.0278 81.7552 57.2187 79.6534 57.8147 78.3886C57.9448 78.1123 58.2138 77.8835 58.5345 77.8792C58.54 77.8792 58.5454 77.8792 58.5509 77.8792Z" fill="#36464A"/>
<path fill-rule="evenodd" clip-rule="evenodd" d="M70.1041 82.7939C69.526 82.8019 68.98 83.1307 68.6826 83.6492C68.6395 83.7242 68.4826 84.0677 68.4281 84.3264L68.3985 84.4811C68.3832 84.58 68.3696 84.7181 68.3696 84.7181C68.3597 84.8759 68.3574 85.0573 68.3574 85.0573C68.3597 85.1704 68.3694 85.3277 68.3694 85.3277C68.3897 85.5381 68.4382 85.8289 68.4382 85.8289C68.5353 86.3094 68.6995 86.772 68.9211 87.2033C68.9513 87.262 68.9824 87.3201 69.0147 87.3775C69.1424 87.6042 69.2854 87.8218 69.4455 88.0262C69.4455 88.0262 70.0713 88.7781 70.6953 89.0978C73.7675 90.6338 76.8397 92.1699 79.9119 93.7059C80.6534 94.0586 81.5858 94.0008 82.1291 93.3352C82.1864 93.2651 82.2146 93.2221 82.2493 93.1688C82.3553 93.0043 82.4375 92.8244 82.4942 92.6378L82.5722 92.3235C82.6054 92.1406 82.6224 91.8721 82.6224 91.8721C82.6355 91.5452 82.5987 91.144 82.5202 90.789C82.5202 90.789 82.3571 90.1527 82.1491 89.7083C81.7468 88.8494 81.1139 88.0653 80.2896 87.6377C77.2239 86.0862 74.1653 84.5192 71.0698 83.028C70.7693 82.8816 70.4381 82.7916 70.1041 82.7939ZM70.1294 83.6685C70.3232 83.6699 70.5136 83.7299 70.6884 83.8151L70.7011 83.8212C73.776 85.3399 76.8591 86.8433 79.9032 88.4225C80.5918 88.7751 81.0822 89.4755 81.3854 90.141L81.4505 90.292C81.5721 90.5973 81.5637 90.6011 81.5637 90.6011C81.7325 91.1432 81.8271 91.7253 81.6839 92.2907C81.6403 92.463 81.5695 92.6296 81.4592 92.772C81.2022 93.104 80.6975 93.121 80.2711 92.9078C77.2075 91.3761 74.129 89.8739 71.0804 88.3124C70.1262 87.8113 69.5348 86.742 69.3096 85.7237C69.2871 85.6176 69.2878 85.6121 69.2796 85.5672C69.2297 85.2617 69.2149 84.9484 69.2584 84.6456C69.3056 84.3176 69.5913 83.6757 70.1132 83.6685C70.1213 83.6684 70.1213 83.6685 70.1294 83.6685Z" fill="#36464A"/>
<path fill-rule="evenodd" clip-rule="evenodd" d="M60.1281 89.2304C59.5441 89.2391 58.9833 89.5813 58.6931 90.1104C58.6931 90.1104 58.5448 90.396 58.4805 90.6458L58.4416 90.8128C58.4216 90.9167 58.4029 91.063 58.4029 91.063C58.391 91.1939 58.3822 91.3783 58.3822 91.3783C58.3822 91.5121 58.3822 91.5328 58.3822 91.5328C58.3878 91.6694 58.4024 91.8615 58.4024 91.8615C58.4776 92.4776 58.6481 93.0453 58.9103 93.5707C58.9343 93.6185 59.1377 93.9828 59.1377 93.9828C59.5349 94.62 60.0633 95.1933 60.7183 95.5337C64.0302 97.1896 67.3507 98.8282 70.6537 100.501C71.3479 100.835 72.2459 100.848 72.8154 100.22L73.0811 99.8469C73.2476 99.5191 73.1891 99.8407 73.3196 99.1762L73.3617 98.9111C73.3735 98.7801 73.3824 98.5955 73.3824 98.5955C73.3824 98.0056 73.3609 98.0996 73.3559 98.0562C73.3483 97.9869 73.3494 97.9783 73.3223 97.8215C73.241 97.3494 73.0904 96.8876 72.8724 96.4399C72.8607 96.4157 72.627 95.9913 72.627 95.9913C72.2292 95.3531 71.7064 94.7748 71.0459 94.4403C67.7516 92.7498 64.435 91.1029 61.1104 89.4726C60.8009 89.3188 60.4977 89.2277 60.1281 89.2304ZM60.1533 90.105C60.3478 90.1072 60.5369 90.1681 60.7126 90.2515C64.0335 91.9011 67.3543 93.5512 70.6624 95.2264C70.9256 95.3615 71.157 95.5549 71.3636 95.7688C71.3636 95.7688 71.6722 96.1147 71.8637 96.4201C72.0154 96.6635 72.1424 96.9234 72.2445 97.1884C72.2445 97.1884 72.5077 97.9618 72.5077 98.4718C72.5077 98.4718 72.4665 99.0796 72.3662 99.3172C72.1733 99.7746 71.6319 100.001 71.0408 99.7171C67.7373 98.0436 64.3901 96.4564 61.1042 94.7486C60.5121 94.445 60.0642 93.8837 59.7542 93.2994C59.7374 93.2676 59.4958 92.7741 59.3874 92.3803C59.3874 92.3803 59.2562 91.7587 59.2562 91.4554C59.2562 91.264 59.2974 90.9945 59.3014 90.9753C59.3569 90.7078 59.4571 90.4298 59.6923 90.2544C59.8236 90.1563 59.9869 90.1044 60.1533 90.105Z" fill="#36464A"/>
<path fill-rule="evenodd" clip-rule="evenodd" d="M76.8007 97.5316C76.4202 97.537 76.047 97.6738 75.7552 97.9247C75.7552 97.9247 75.5012 98.1869 75.4111 98.3336C75.2114 98.6587 75.1236 98.9373 75.0781 99.3444L75.0571 99.6037C75.0538 99.7627 75.0526 99.704 75.0547 99.8121L75.0748 100.162C75.0915 100.302 75.1211 100.491 75.1211 100.491C75.3774 101.85 76.1374 103.184 77.3612 103.819L77.391 103.835C78.2265 104.252 79.062 104.67 79.8975 105.088C80.5654 105.409 81.4513 105.434 82.0255 104.841L82.1793 104.66C82.2603 104.546 82.2753 104.52 82.3096 104.458C82.3945 104.307 82.462 104.145 82.5088 103.979C82.5088 103.979 82.6077 103.545 82.6209 103.295C82.6386 102.96 82.6095 102.621 82.5442 102.292L82.5207 102.179C82.398 101.643 82.195 101.126 81.9098 100.644C81.9004 100.628 81.6918 100.294 81.5375 100.097C81.4277 99.9566 81.2775 99.7916 81.238 99.7501C80.9611 99.46 80.6436 99.206 80.2877 99.0258C79.4498 98.6016 78.6119 98.1774 77.7676 97.766C77.4632 97.6177 77.1626 97.5289 76.8007 97.5316ZM76.8262 98.406C77.0194 98.4088 77.2097 98.467 77.3846 98.5523C78.2285 98.9634 79.0659 99.3876 79.9035 99.8115C80.8953 100.333 81.4634 101.516 81.6597 102.337C81.6597 102.337 81.7638 102.94 81.7475 103.249C81.7394 103.403 81.7216 103.538 81.678 103.703C81.625 103.903 81.5309 104.101 81.3764 104.253C81.1187 104.507 80.6598 104.484 80.2935 104.308C79.4486 103.901 78.6098 103.482 77.7776 103.05C76.3952 102.332 75.5894 100.487 76.0138 99.1167C76.0795 98.8851 75.9674 99.0163 76.2224 98.6975C76.3678 98.5159 76.5895 98.406 76.8262 98.406Z" fill="#36464A"/>
<path fill-rule="evenodd" clip-rule="evenodd" d="M49.5816 72.5331C49.0172 72.5417 48.4841 72.8471 48.1711 73.3705C48.1711 73.3705 47.9672 73.8086 47.9175 74.0158C47.8528 74.2867 47.842 74.44 47.8366 74.6601V74.8349C47.9003 76.4559 48.7776 78.1307 50.173 78.8365C50.8896 79.2034 51.6083 79.5671 52.3335 79.9168C52.9518 80.2179 53.7366 80.2632 54.3138 79.784C54.5627 79.5768 54.7494 79.2973 54.8645 78.9908C54.8645 78.9908 55.0383 78.3325 55.0456 77.9635C55.0456 77.9635 55.0406 77.6203 55.0086 77.3839C54.8472 76.1936 54.2515 75.0357 53.3431 74.2738C53.1475 74.1097 52.9367 73.963 52.7086 73.8475C51.9925 73.4795 51.2738 73.1169 50.5486 72.7672C50.2475 72.6205 49.9183 72.5309 49.5816 72.5331ZM49.6075 73.4072C49.8018 73.4104 49.9917 73.4687 50.1665 73.554C51.3137 74.1065 52.5767 74.4659 53.3819 75.6087C53.8995 76.3436 54.2294 77.234 54.164 78.1264C54.1614 78.161 54.1581 78.1966 54.1539 78.2322C54.1164 78.5462 54.0206 78.8657 53.7954 79.075C53.7752 79.0934 53.4551 79.3146 53.1281 79.2639C52.9803 79.2412 52.8385 79.1894 52.7029 79.1236C51.7497 78.6466 50.6683 78.3045 49.9399 77.5944C49.5298 77.194 49.219 76.6868 49.0107 76.1807C49.0107 76.1807 48.8694 75.8181 48.8025 75.5256C48.715 75.1511 48.6827 74.7594 48.7366 74.3849C48.742 74.3526 48.7474 74.3202 48.7528 74.2878C48.8348 73.8766 49.0615 73.4223 49.5838 73.4083C49.5924 73.4072 49.6 73.4072 49.6075 73.4072Z" fill="#36464A"/>
<path fill-rule="evenodd" clip-rule="evenodd" d="M58.4493 99.745C57.0795 99.7709 56.4406 101.612 56.8758 103.164C57.2108 104.357 57.9485 105.489 59.0412 106.049C60.6631 106.86 62.2771 107.687 63.907 108.482C64.7022 108.866 65.7552 108.768 66.2784 107.888C66.9123 106.821 66.6102 105.35 66.0199 104.237C65.6211 103.485 65.0458 102.81 64.2993 102.421C62.6827 101.586 61.0496 100.782 59.4167 99.9796C59.1157 99.8342 58.7849 99.7435 58.4493 99.745ZM58.4754 100.62C58.6738 100.622 58.8684 100.685 59.0463 100.772C60.671 101.565 62.2907 102.368 63.8966 103.197C65.3489 103.954 66.1305 106.025 65.6078 107.279C65.4615 107.63 65.0864 107.895 64.6841 107.826C64.5419 107.802 64.406 107.752 64.2768 107.689C62.6547 106.891 61.035 106.088 59.4264 105.264C57.9502 104.489 57.1606 102.387 57.7354 101.136C57.8644 100.855 58.134 100.627 58.4518 100.62C58.4597 100.62 58.4675 100.62 58.4754 100.62Z" fill="#36464A"/>
<path fill-rule="evenodd" clip-rule="evenodd" d="M70.1041 105.572C69.5995 105.579 69.1073 105.83 68.806 106.239C68.806 106.239 68.503 106.751 68.4281 107.104L68.3985 107.259C68.3831 107.358 68.3696 107.496 68.3696 107.496C68.3597 107.654 68.3574 107.835 68.3574 107.835C68.3597 107.948 68.3694 108.106 68.3694 108.106C68.3897 108.316 68.4382 108.607 68.4382 108.607C68.6088 109.451 68.979 110.209 69.4455 110.804C69.4455 110.804 70.1006 111.571 70.6953 111.876C73.7625 113.409 76.822 114.958 79.8966 116.476C80.6423 116.845 81.6459 116.798 82.2156 115.998C82.3352 115.818 82.4315 115.622 82.4942 115.416L82.5721 115.102C82.6054 114.919 82.6224 114.65 82.6224 114.65C82.6355 114.323 82.5987 113.922 82.5202 113.567C82.5202 113.567 82.4492 113.265 82.3707 113.036C82.2517 112.687 82.0974 112.35 81.9092 112.033C81.8619 111.953 81.532 111.448 81.2386 111.14C80.963 110.85 80.6421 110.601 80.2896 110.416C77.2167 108.879 74.1586 107.313 71.0708 105.807C70.7697 105.66 70.4417 105.57 70.1041 105.572ZM70.1294 106.447C70.328 106.449 70.5205 106.511 70.7002 106.599C73.775 108.118 76.8658 109.606 79.9023 111.2C80.4128 111.462 80.8061 111.917 81.1064 112.395C81.1064 112.395 81.2737 112.674 81.3854 112.919L81.4505 113.07C81.5719 113.376 81.5637 113.379 81.5637 113.379C81.7322 113.922 81.8303 114.491 81.6839 115.069C81.6793 115.087 81.674 115.106 81.6687 115.124C81.5517 115.531 81.225 115.909 80.7066 115.832C80.5629 115.81 80.4255 115.76 80.2943 115.697C77.2154 114.177 74.1366 112.656 71.0804 111.09C70.1452 110.6 69.5502 109.59 69.3096 108.502C69.2871 108.396 69.2878 108.39 69.2796 108.345C69.229 108.035 69.2171 107.721 69.2604 107.409C69.2993 107.128 69.5548 106.454 70.1132 106.447C70.1186 106.447 70.124 106.447 70.1294 106.447Z" fill="#36464A"/>
<path fill-rule="evenodd" clip-rule="evenodd" d="M46.5287 93.7849C45.9481 93.7935 45.3988 94.1257 45.101 94.6534C44.4804 95.7495 44.8225 97.2279 45.4021 98.2988C45.8014 99.0378 46.3787 99.7081 47.105 100.08C48.8036 100.959 50.5227 101.797 52.2365 102.647C53.0223 103.033 54.0542 102.949 54.5905 102.116C55.2112 101.152 54.9977 99.8443 54.5703 98.8372C54.1745 97.9046 53.5251 97.0489 52.6288 96.5853C50.9231 95.7325 49.2202 94.8739 47.5118 94.027C47.2064 93.8767 46.8665 93.7816 46.5287 93.7849ZM46.5546 94.6594C46.7489 94.6613 46.9377 94.7223 47.1147 94.8063C48.8306 95.6492 50.5454 96.4925 52.2429 97.3705C53.6824 98.1145 54.5422 100.193 53.9294 101.507C53.7257 101.944 53.1526 102.113 52.6343 101.867C50.9188 101.024 49.2029 100.181 47.5054 99.3028C46.7035 98.892 46.1586 98.0497 45.8661 97.1862C45.6093 96.431 45.4129 95.4909 46.015 94.8787C46.1543 94.7368 46.355 94.6584 46.5546 94.6594Z" fill="#36464A"/>
<path fill-rule="evenodd" clip-rule="evenodd" d="M72.6851 75.3499C72.6851 73.893 73.6315 73.1829 74.797 73.7656L80.0765 76.4053C81.242 76.9881 82.1882 78.6435 82.1882 80.1004C82.1882 81.5578 81.242 82.2675 80.0765 81.6847L74.797 79.045C73.6315 78.4622 72.6851 76.8068 72.6851 75.3499Z" fill="#7DE2FF"/>
<path fill-rule="evenodd" clip-rule="evenodd" d="M52.9212 65.4677C52.9212 64.0097 53.8676 63.3007 55.0331 63.8834L68.0369 70.3855C69.2024 70.9682 70.1487 72.6237 70.1487 74.0806C70.1487 75.5374 69.2024 76.2475 68.0369 75.6648L55.0331 69.1627C53.8676 68.58 52.9212 66.9245 52.9212 65.4677Z" fill="#7DE2FF"/>
<path fill-rule="evenodd" clip-rule="evenodd" d="M38.437 58.2255C38.437 56.7686 39.3834 56.0585 40.5489 56.6413L48.2726 60.5036C49.4381 61.0864 50.3845 62.7418 50.3845 64.1987C50.3845 65.6556 49.4381 66.3657 48.2726 65.7829L40.5489 61.9206C39.3834 61.3378 38.437 59.6824 38.437 58.2255Z" fill="#7DE2FF"/>
<path fill-rule="evenodd" clip-rule="evenodd" d="M57.2163 79.2293C57.2163 77.7724 58.1625 77.0634 59.328 77.6461L64.1465 80.0548C65.312 80.6377 66.2582 82.2936 66.2582 83.7506C66.2582 85.2075 65.312 85.9171 64.1465 85.3344L59.328 82.9252C58.1625 82.3425 57.2163 80.6865 57.2163 79.2293Z" fill="#7DE2FF"/>
<path fill-rule="evenodd" clip-rule="evenodd" d="M68.7947 85.0188C68.7947 83.5619 69.7409 82.8522 70.9064 83.435L80.0765 88.02C81.242 88.6027 82.1882 90.2587 82.1882 91.7156C82.1882 93.1725 81.242 93.8823 80.0765 93.2995L70.9064 88.7145C69.7409 88.1317 68.7947 86.4758 68.7947 85.0188Z" fill="#7DE2FF"/>
<path fill-rule="evenodd" clip-rule="evenodd" d="M58.8189 91.4554C58.8189 89.9984 59.7653 89.2887 60.9308 89.8715L70.8338 94.8229C71.9993 95.4058 72.9456 97.0617 72.9456 98.5187C72.9456 99.9755 71.9993 100.685 70.8338 100.102L60.9308 95.151C59.7653 94.5682 58.8189 92.9122 58.8189 91.4554Z" fill="#7DE2FF"/>
<path fill-rule="evenodd" clip-rule="evenodd" d="M75.4914 99.7565C75.4914 98.2995 76.4377 97.5898 77.6033 98.1726L80.0765 99.4092C81.242 99.992 82.1882 101.648 82.1882 103.105C82.1882 104.562 81.242 105.271 80.0765 104.689L77.6033 103.452C76.4377 102.869 75.4914 101.213 75.4914 99.7565Z" fill="#7DE2FF"/>
<path fill-rule="evenodd" clip-rule="evenodd" d="M48.2726 74.7584C48.2726 73.3015 49.2191 72.5914 50.3846 73.1742L52.4965 74.2296C53.6622 74.8123 54.6085 76.4689 54.6085 77.9258C54.6085 79.3827 53.6622 80.0927 52.4965 79.51L50.3846 78.4535C49.2191 77.8707 48.2726 76.2153 48.2726 74.7584Z" fill="#7DE2FF"/>
<path fill-rule="evenodd" clip-rule="evenodd" d="M57.1407 101.97C57.1407 100.513 58.0869 99.8032 59.2524 100.386L64.0708 102.795C65.2363 103.378 66.1826 105.034 66.1826 106.491C66.1826 107.948 65.2363 108.657 64.0708 108.075L59.2524 105.665C58.0869 105.083 57.1407 103.427 57.1407 101.97Z" fill="#7DE2FF"/>
<path fill-rule="evenodd" clip-rule="evenodd" d="M68.7947 107.797C68.7947 106.34 69.7409 105.63 70.9064 106.213L80.0765 110.798C81.242 111.381 82.1882 113.037 82.1882 114.494C82.1882 115.951 81.242 116.66 80.0765 116.078L70.9064 111.493C69.7409 110.91 68.7947 109.254 68.7947 107.797Z" fill="#7DE2FF"/>
<path fill-rule="evenodd" clip-rule="evenodd" d="M45.2206 96.0098C45.2206 94.5529 46.166 93.8431 47.3315 94.4259L52.4166 96.9683C53.5823 97.551 54.5285 99.2069 54.5285 100.664C54.5285 102.121 53.5823 102.83 52.4166 102.248L47.3315 99.7054C46.166 99.1227 45.2206 97.4667 45.2206 96.0098Z" fill="#7DE2FF"/>
</svg>
