<svg width="150" height="150" viewBox="0 0 150 150" fill="none" xmlns="http://www.w3.org/2000/svg">
<path fill-rule="evenodd" clip-rule="evenodd" d="M82.1445 66.9679C77.9211 64.8563 71.7495 64.514 68.3706 66.2043L29.6157 85.5872C26.2369 87.2769 26.9225 90.3628 31.1458 92.4737L66.8553 110.323C71.0786 112.434 77.25 112.776 80.6296 111.086L119.384 91.7034C122.764 90.0136 122.078 86.9277 117.854 84.8168L82.1445 66.9679Z" fill="#F7FBFC"/>
<path fill-rule="evenodd" clip-rule="evenodd" d="M73.9567 64.6614C76.8285 64.6782 79.773 65.2796 82.3034 66.5223C94.2488 72.4705 106.189 78.4334 118.114 84.4224C120.054 85.4041 122.097 86.8924 121.996 89.0899C121.937 90.3943 120.849 91.4776 119.637 92.1018C106.721 98.6029 93.7716 105.038 80.838 111.506C78.651 112.589 76.0971 112.76 73.6134 112.571C71.2171 112.389 68.8303 111.82 66.6962 110.768C54.7502 104.819 42.7995 98.879 30.8847 92.8679C29.5193 92.1771 28.1909 91.2973 27.4357 89.9207C26.9363 89.0106 26.864 87.8587 27.3627 86.9574C27.7984 86.1702 28.5666 85.5984 29.363 85.1887C42.2762 78.6815 55.2286 72.2525 68.1613 65.784C69.9216 64.912 71.9953 64.6551 73.9567 64.6614ZM73.8402 65.5997C72.0418 65.605 70.1968 65.8346 68.6177 66.6055C55.662 73.0224 42.7567 79.5395 29.8263 86.0064C28.6913 86.5784 27.5236 87.5941 28.0832 89.089C28.6072 90.4886 29.9945 91.3653 31.3083 92.03C43.2209 98.04 55.1694 103.979 67.1132 109.927C70.234 111.465 73.874 112.016 77.3184 111.55C78.3771 111.406 79.4243 111.152 80.3819 110.685C93.3376 104.268 106.243 97.7507 119.173 91.2838C120.197 90.7687 121.216 89.8829 121.04 88.6747C120.889 87.6331 120.045 86.8038 119.219 86.1901C118.74 85.8341 118.224 85.53 117.692 85.2605C105.768 79.2727 93.8306 73.311 81.8873 67.3638C79.4453 66.1642 76.6758 65.6166 73.9524 65.5997C73.915 65.5997 73.8776 65.5997 73.8402 65.5997Z" fill="#36464A"/>
<path fill-rule="evenodd" clip-rule="evenodd" d="M27.4697 88.3425C27.4745 89.7429 28.7327 91.2673 31.1458 92.4735L66.8553 110.323C71.0786 112.434 77.25 112.776 80.6296 111.086L119.384 91.7031C120.808 90.9912 121.51 90.0313 121.53 89.001V102.32V102.332V102.333V102.333C121.525 103.375 120.822 104.347 119.384 105.067L80.6296 124.449C77.25 126.139 71.0786 125.797 66.8553 123.686L31.1458 105.837C28.7358 104.632 27.4778 103.11 27.4697 101.711V101.693V101.685V101.685V88.3425Z" fill="#F7FBFC"/>
<path fill-rule="evenodd" clip-rule="evenodd" d="M27.6494 87.9094C27.8008 88.0105 27.8024 88.0122 27.9035 88.1634L27.9393 88.3431C27.9393 88.3644 27.9398 88.3856 27.9405 88.4069C27.9914 89.5506 28.9231 90.4661 29.7907 91.1081C30.2647 91.4589 30.7749 91.7593 31.3012 92.0269C43.2231 98.0249 55.1671 103.978 67.1132 109.928C70.234 111.466 73.874 112.016 77.3184 111.55C78.3771 111.407 79.4243 111.153 80.3819 110.685C93.3481 104.264 106.284 97.7803 119.205 91.2683C119.425 91.1563 119.639 91.0326 119.842 90.8924C119.913 90.8429 119.983 90.7915 120.052 90.7378C120.595 90.3102 121.044 89.7124 121.06 88.991L121.1 88.8134C121.374 88.42 121.54 88.4963 121.713 88.5696C121.879 88.6402 121.963 88.8141 122 89.0016C122 93.4464 122 97.891 122 102.336C121.989 103.692 120.849 104.845 119.63 105.469C106.716 111.968 93.7695 118.403 80.838 124.87C78.6889 125.935 76.1787 126.115 73.7336 125.944C71.2995 125.773 68.8816 125.209 66.6963 124.132C54.767 118.191 42.8554 112.215 30.935 106.257C28.985 105.274 27.0002 103.748 27.0002 101.713L27 88.3431L27.0357 88.1634C27.1238 88.0317 27.1344 87.9738 27.2898 87.9094C27.4016 87.8632 27.5283 87.8853 27.6494 87.9094ZM27.9391 101.711C27.9798 101.916 28.0057 102.281 28.1323 102.575C28.6944 103.877 30.0225 104.741 31.3016 105.391C43.2174 111.4 55.1672 117.342 67.1132 123.291C70.2222 124.824 73.8737 125.379 77.3184 124.913C78.3761 124.771 79.4201 124.519 80.3819 124.048C93.3481 117.627 106.281 111.136 119.205 104.632C120.138 104.154 121.052 103.409 121.061 102.332L121.06 91.0947C120.649 91.5151 120.153 91.8392 119.629 92.1057C106.719 98.6124 93.7684 105.04 80.838 111.507C78.651 112.59 76.0971 112.76 73.6134 112.571C71.2171 112.389 68.8303 111.821 66.6963 110.769C54.7671 104.828 42.8555 98.852 30.9352 92.8937C29.8118 92.3286 28.7395 91.6251 27.9433 90.6632L27.9391 90.658C27.9391 94.3424 27.9391 98.0268 27.9391 101.711Z" fill="#36464A"/>
<path fill-rule="evenodd" clip-rule="evenodd" d="M66.3393 116.88C66.3393 117.822 65.7279 118.28 64.9746 117.904L58.5717 114.703C57.8186 114.327 57.207 113.257 57.207 112.316C57.207 111.375 57.8186 110.916 58.5717 111.293L64.9746 114.493C65.7279 114.869 66.3393 115.939 66.3393 116.88Z" fill="#F7FBFC"/>
<path fill-rule="evenodd" clip-rule="evenodd" d="M58.0988 110.692C58.3278 110.699 58.5516 110.763 58.7584 110.861C60.9093 111.915 63.0436 113.003 65.186 114.074C66.6947 114.84 67.4678 117.327 66.2213 118.262C65.8217 118.561 65.2514 118.556 64.7873 118.334C62.6397 117.275 60.5031 116.193 58.3611 115.122C57.3497 114.612 56.714 113.418 56.7382 112.262C56.7532 111.548 57.1374 110.71 58.0511 110.691C58.0749 110.691 58.0749 110.691 58.0988 110.692ZM58.0615 111.63C57.7424 111.637 57.6819 112.053 57.6771 112.282C57.6601 113.083 58.1141 113.933 58.769 114.277C60.9077 115.356 63.0491 116.43 65.1973 117.49C65.3323 117.554 65.4901 117.603 65.6226 117.533C65.925 117.373 65.8885 116.959 65.8593 116.685C65.7825 115.967 65.3876 115.239 64.777 114.919C62.6416 113.834 60.5006 112.761 58.35 111.706C58.2595 111.664 58.1638 111.63 58.0615 111.63Z" fill="#36464A"/>
<path fill-rule="evenodd" clip-rule="evenodd" d="M34.691 98.1793C33.4663 97.5671 32.4719 98.3482 32.4719 99.9223C32.4719 101.496 33.4663 103.271 34.691 103.884C35.9157 104.496 36.91 103.715 36.91 102.141C36.91 100.567 35.9157 98.7915 34.691 98.1793Z" fill="#F7FBFC"/>
<path fill-rule="evenodd" clip-rule="evenodd" d="M33.9079 97.5015C35.0733 97.5191 36.0452 98.5061 36.607 99.4614C37.5536 101.071 37.875 103.442 36.36 104.331C35.5148 104.826 34.3453 104.352 33.6875 103.748C33.5993 103.667 33.5145 103.582 33.4332 103.494C32.3821 102.357 31.7696 100.746 32.0679 99.2172C32.2364 98.3538 32.8647 97.5317 33.8403 97.502C33.8629 97.5015 33.8853 97.5014 33.9079 97.5015ZM33.8809 98.4402C33.2636 98.4478 32.9543 99.275 32.942 99.8591C32.9175 101.024 33.4487 102.225 34.2777 103.014C34.7333 103.448 35.3862 103.841 35.9093 103.506C36.3414 103.229 36.4324 102.642 36.4397 102.206C36.4644 100.742 35.6711 99.1749 34.4577 98.5878C34.278 98.5009 34.0829 98.4399 33.8809 98.4402Z" fill="#36464A"/>
<path fill-rule="evenodd" clip-rule="evenodd" d="M41.1579 101.412C39.9331 100.8 38.9388 101.581 38.9388 103.155C38.9388 104.729 39.9331 106.504 41.1579 107.116C42.3825 107.728 43.3768 106.947 43.3768 105.373C43.3768 103.799 42.3825 102.024 41.1579 101.412Z" fill="#F7FBFC"/>
<path fill-rule="evenodd" clip-rule="evenodd" d="M40.3751 100.734C41.5389 100.752 42.512 101.739 43.0739 102.694C43.9634 104.206 44.3106 106.324 43.079 107.383C42.1829 108.153 40.6897 107.578 39.9006 106.727C38.9663 105.72 38.4032 104.323 38.4744 102.95C38.5265 101.946 39.0528 100.773 40.3073 100.735C40.3299 100.734 40.3525 100.734 40.3751 100.734ZM40.3481 101.673C39.7231 101.68 39.4235 102.518 39.4094 103.076C39.3796 104.248 39.91 105.452 40.7446 106.247C41.2006 106.681 41.8552 107.072 42.3762 106.738C42.8074 106.462 42.8993 105.874 42.9066 105.439C42.9312 103.98 42.1372 102.406 40.9248 101.82C40.745 101.734 40.5488 101.672 40.3481 101.673Z" fill="#36464A"/>
<path fill-rule="evenodd" clip-rule="evenodd" d="M117.854 85.5055V88.0713V88.0823V88.083V88.0837C117.848 89.0443 117.201 89.9403 115.876 90.6033L80.1501 108.471C77.035 110.029 71.3459 109.714 67.4528 107.768L34.5345 91.3135C32.3129 90.203 31.1532 88.8 31.1458 87.5104V87.4933V87.4861V87.4856V85.5105L66.8552 103.36C71.0785 105.471 77.2499 105.813 80.6295 104.123L117.854 85.5055Z" fill="#7DE2FF"/>
<path fill-rule="evenodd" clip-rule="evenodd" d="M118.015 85.0645L118.176 85.1643L118.285 85.3197L118.324 85.5055V88.0856C118.313 89.3389 117.288 90.4079 116.119 91.0063C104.212 96.9933 92.2798 102.93 80.3597 108.891C78.3465 109.889 75.9809 110.051 73.68 109.876C71.4712 109.709 69.2831 109.192 67.29 108.211C56.2747 102.727 45.2654 97.2311 34.2707 91.7064C32.5094 90.8111 30.6762 89.4947 30.6762 87.4993L30.7083 87.319L30.6762 87.4857L30.676 85.5106L30.7144 85.3249L30.8231 85.1694L30.9845 85.0697L31.1722 85.0419L31.3555 85.0907C43.2747 91.0485 55.1851 97.0239 67.1131 102.964C70.2763 104.523 73.8803 105.051 77.3183 104.587C78.3907 104.442 79.4516 104.182 80.4197 103.703L117.644 85.0857L117.828 85.0368C117.89 85.0461 117.952 85.0553 118.015 85.0645ZM80.838 104.543C78.6889 105.608 76.1786 105.788 73.7335 105.617C71.2809 105.445 68.8474 104.876 66.6455 103.78L31.6152 86.2701C31.6152 86.768 31.5622 87.2746 31.635 87.7603C31.7828 88.7464 32.5772 89.492 33.3458 90.0531C33.7701 90.3629 34.2251 90.6299 34.6944 90.8685C45.6868 96.3922 56.6938 101.887 67.7068 107.37C70.9102 108.947 74.7076 109.444 78.0979 108.683C78.7205 108.543 79.3336 108.348 79.9067 108.068C91.8574 102.146 103.777 96.1609 115.694 90.1692C116.526 89.7439 117.376 89.1349 117.384 88.0818V86.2651C105.203 92.3578 93.0204 98.4505 80.838 104.543Z" fill="#36464A"/>
<path fill-rule="evenodd" clip-rule="evenodd" d="M82.1445 46.6408C77.9211 44.5303 71.7495 44.188 68.3706 45.8773L29.6157 65.2607C26.2369 66.9499 26.9225 70.0357 31.1458 72.1473L66.8553 89.9964C71.0786 92.1074 77.25 92.4493 80.6296 90.7594L119.384 71.3763C122.764 69.6871 122.078 66.6013 117.854 64.4897L82.1445 46.6408Z" fill="#F7FBFC"/>
<path fill-rule="evenodd" clip-rule="evenodd" d="M73.9567 44.3342C76.8285 44.3521 79.773 44.9524 82.3034 46.1951C94.2488 52.1444 106.189 58.1063 118.114 64.0957C120.054 65.0772 122.097 66.5653 121.996 68.7633C121.937 70.0671 120.849 71.1508 119.637 71.7753C106.721 78.2761 93.7716 84.7113 80.838 91.1794C78.651 92.2628 76.0971 92.4328 73.6134 92.2441C71.2172 92.0621 68.8303 91.4933 66.6962 90.4414C54.7502 84.4924 42.7995 78.5522 30.8847 72.5409C29.5193 71.85 28.1909 70.9707 27.4357 69.5942C26.9363 68.6843 26.864 67.5321 27.3627 66.6306C27.7984 65.8428 28.5666 65.272 29.363 64.8613C42.2762 58.3549 55.2286 51.9254 68.1613 45.4569C69.9351 44.5785 71.9953 44.3279 73.9567 44.3342ZM73.8402 45.2726C72.0418 45.2778 70.1967 45.5074 68.6177 46.2794C55.662 52.6952 42.7567 59.2132 29.8263 65.6796C28.6913 66.2515 27.5236 67.2667 28.0832 68.7622C28.6073 70.1618 29.9945 71.0381 31.3083 71.7037C43.2209 77.7133 55.1694 83.6523 67.1132 89.6003C70.234 91.1386 73.874 91.6888 77.3184 91.2228C78.3771 91.0796 79.4243 90.8254 80.3819 90.3577C93.3376 83.9416 106.243 77.424 119.173 70.957C120.197 70.442 121.216 69.5563 121.04 68.3483C120.889 67.3067 120.045 66.4768 119.219 65.8639C118.74 65.5069 118.224 65.2036 117.692 64.934C105.768 58.9457 93.8306 52.9848 81.8873 47.0366C79.4453 45.8381 76.6758 45.2894 73.9524 45.2736C73.915 45.2736 73.8776 45.2726 73.8402 45.2726Z" fill="#36464A"/>
<path fill-rule="evenodd" clip-rule="evenodd" d="M27.4697 68.0157C27.4746 69.4164 28.7327 70.9414 31.1458 72.1472L66.8553 89.9963C71.0786 92.1074 77.25 92.4492 80.6296 90.7593L119.384 71.3763C120.808 70.6644 121.51 69.7049 121.53 68.675V81.9934V82.0054V82.0061V82.0069C121.525 83.049 120.822 84.021 119.384 84.7401L80.6296 104.123C77.25 105.813 71.0786 105.471 66.8553 103.36L31.1458 85.5105C28.7358 84.3059 27.4778 82.7839 27.4697 81.385V81.3664V81.3586V81.3581V68.0157Z" fill="#F7FBFC"/>
<path fill-rule="evenodd" clip-rule="evenodd" d="M27.6494 67.5819C27.8008 67.684 27.8024 67.6851 27.9035 67.8367L27.9393 68.0158C27.9393 68.0368 27.9398 68.059 27.9405 68.08C27.9914 69.2237 28.9231 70.1389 29.7907 70.7814C30.2647 71.1321 30.7749 71.4322 31.3012 71.6997C43.2231 77.6979 55.1671 83.6514 67.1132 89.6006C70.234 91.1389 73.874 91.6891 77.3184 91.2231C78.3771 91.0798 79.4243 90.8257 80.3819 90.358C93.3481 83.9366 106.284 77.4534 119.205 70.9414C119.425 70.8298 119.639 70.7055 119.842 70.5655C119.913 70.516 119.983 70.4644 120.052 70.4107C120.595 69.9831 121.044 69.3849 121.06 68.6635L121.1 68.4865C121.374 68.0926 121.54 68.1695 121.713 68.2422C121.879 68.3128 121.963 68.4876 122 68.675C122 73.1194 122 77.564 122 82.0088C121.989 83.3653 120.849 84.5177 119.63 85.1419C106.716 91.6413 93.7695 98.0761 80.838 104.543C78.6889 105.608 76.1787 105.788 73.7336 105.617C71.2995 105.446 68.8816 104.882 66.6963 103.805C54.767 97.8645 42.8554 91.8884 30.935 85.9301C28.985 84.9467 27.0002 83.4215 27.0002 81.3859L27 68.0158L27.0357 67.8367C27.1238 67.7051 27.1344 67.6472 27.2898 67.5819C27.4016 67.5366 27.5283 67.5587 27.6494 67.5819ZM27.9391 81.3841C27.9798 81.5891 28.0057 81.9541 28.1323 82.2477C28.6946 83.5507 30.0225 84.4143 31.3016 85.0636C43.2174 91.0731 55.1672 97.0149 67.1132 102.964C70.2222 104.497 73.8737 105.052 77.3184 104.587C78.3761 104.444 79.4201 104.192 80.3819 103.722C93.3481 97.3001 106.281 90.8094 119.205 84.3049C120.102 83.8451 121.052 83.1424 121.061 82.0052L121.06 70.7677C120.654 71.1826 120.156 71.5102 119.629 71.7787C106.719 78.2854 93.7684 84.7128 80.838 91.1797C78.651 92.2631 76.0971 92.433 73.6134 92.2444C71.2173 92.0624 68.8303 91.4936 66.6963 90.4417C54.7671 84.501 42.8555 78.525 30.9352 72.5665C29.8122 72.002 28.7395 71.2985 27.9433 70.3359L27.9391 70.3306C27.9391 74.0154 27.9391 77.6998 27.9391 81.3841Z" fill="#36464A"/>
<path fill-rule="evenodd" clip-rule="evenodd" d="M66.3393 96.5013C66.3393 97.4425 65.7279 97.9009 64.9746 97.5245L58.5717 94.324C57.8186 93.9475 57.207 92.8777 57.207 91.9366C57.207 90.9954 57.8186 90.5368 58.5717 90.9133L64.9746 94.1138C65.7279 94.4903 66.3393 95.5601 66.3393 96.5013Z" fill="#F7FBFC"/>
<path fill-rule="evenodd" clip-rule="evenodd" d="M58.0988 90.3127C58.3277 90.3201 58.5516 90.3835 58.7584 90.4819C60.9093 91.5362 63.0437 92.6237 65.1864 93.6948C66.2324 94.2278 66.8641 95.4977 66.8057 96.6333C66.7676 97.375 66.2296 98.2168 65.3287 98.117C65.1407 98.0963 64.9588 98.0372 64.7874 97.9554C62.6396 96.8958 60.5029 95.814 58.3608 94.7432C57.3488 94.2309 56.714 93.0389 56.7382 91.8828C56.7533 91.1619 57.1694 90.3287 58.0511 90.3123C58.075 90.3122 58.0749 90.3122 58.0988 90.3127ZM58.0615 91.251C57.7451 91.2569 57.6819 91.6732 57.6771 91.9026C57.6601 92.704 58.1138 93.5541 58.7693 93.8977C60.9064 94.9798 63.0491 96.0509 65.1974 97.1108C65.3212 97.1699 65.4633 97.2149 65.5898 97.1687C65.9333 97.0431 65.8899 96.5915 65.8594 96.3061C65.7816 95.5787 65.3562 94.8425 64.777 94.5399C62.643 93.4525 60.5006 92.3815 58.35 91.3273C58.2582 91.2837 58.1773 91.2506 58.0615 91.251Z" fill="#36464A"/>
<path fill-rule="evenodd" clip-rule="evenodd" d="M34.691 77.8527C33.4663 77.2406 32.4719 78.0215 32.4719 79.5957C32.4719 81.1698 33.4663 82.9449 34.691 83.557C35.9157 84.1692 36.91 83.3882 36.91 81.814C36.91 80.2399 35.9157 78.4649 34.691 77.8527Z" fill="#F7FBFC"/>
<path fill-rule="evenodd" clip-rule="evenodd" d="M33.9078 77.1749C35.0732 77.1924 36.0451 78.1794 36.6069 79.1349C37.5536 80.7444 37.8731 83.1154 36.3602 84.0038C35.4086 84.5626 34.0944 83.8824 33.4331 83.1673C32.382 82.0307 31.7693 80.4199 32.0679 78.8905C32.2365 78.0272 32.8646 77.2052 33.8403 77.1754C33.8628 77.1749 33.8853 77.1747 33.9078 77.1749ZM33.8808 78.1136C33.0325 78.1227 32.7523 79.5794 33.1386 80.7997C33.4837 81.8902 34.1859 83.0052 35.2364 83.2635C35.4621 83.319 35.7111 83.3063 35.9092 83.1793C36.3414 82.9022 36.4324 82.3153 36.4396 81.8794C36.4644 80.4153 35.6707 78.8482 34.4576 78.2612C34.278 78.1743 34.0829 78.113 33.8808 78.1136Z" fill="#36464A"/>
<path fill-rule="evenodd" clip-rule="evenodd" d="M41.1579 81.0853C39.9331 80.4731 38.9388 81.2541 38.9388 82.8282C38.9388 84.4024 39.9331 86.1774 41.1579 86.7896C42.3825 87.4017 43.3768 86.6208 43.3768 85.0466C43.3768 83.4725 42.3825 81.6974 41.1579 81.0853Z" fill="#F7FBFC"/>
<path fill-rule="evenodd" clip-rule="evenodd" d="M40.3749 80.4075C41.5404 80.425 42.5123 81.412 43.0741 82.3674C43.9634 83.8794 44.3108 85.9973 43.0792 87.0559C42.7279 87.3577 42.254 87.5022 41.7879 87.4598C40.653 87.3563 39.796 86.4307 39.2637 85.5444C38.6493 84.5216 38.3065 83.2941 38.5351 82.1231C38.7027 81.2642 39.3317 80.4377 40.3075 80.408C40.3299 80.4075 40.3524 80.4074 40.3749 80.4075ZM40.3479 81.3462C39.7249 81.3528 39.4237 82.1911 39.4096 82.749C39.38 83.9123 39.9103 85.125 40.7449 85.92C41.193 86.347 41.8426 86.754 42.3764 86.4119C42.8084 86.1349 42.8994 85.5478 42.9068 85.1121C42.9315 83.6479 42.1379 82.0807 40.9247 81.4938C40.7451 81.4068 40.5501 81.3455 40.3479 81.3462Z" fill="#36464A"/>
<path fill-rule="evenodd" clip-rule="evenodd" d="M88.1704 42.246L101.094 35.786L117.854 44.1638C122.078 46.2744 122.764 49.3601 119.384 51.0504L80.6296 70.4328C77.25 72.1231 71.0786 71.7808 66.8553 69.6703L31.1458 51.8203C26.9225 49.7098 26.2369 46.624 29.6157 44.9337L68.3706 25.5514C71.7495 23.8611 77.9211 24.2033 82.1445 26.3139L96.5097 33.4943L83.5856 39.9544L70.3792 43.7605C70.219 43.8595 70.0495 43.9437 69.8983 44.0564C68.6798 44.959 68.2565 46.7546 68.9311 48.1037C69.6095 49.4602 71.305 50.189 72.7506 49.7593C72.9309 49.7056 73.1006 49.6203 73.2755 49.5518L81.9622 45.2096L86.2857 47.3707L88.1704 44.0512V42.246Z" fill="#F7FBFC"/>
<path fill-rule="evenodd" clip-rule="evenodd" d="M101.304 35.3657C106.908 38.167 112.516 40.9579 118.114 43.7688C118.149 43.7856 118.183 43.8035 118.217 43.8204C120.09 44.7893 121.974 46.2953 122 48.2658C122.018 49.6296 120.906 50.7955 119.637 51.4484C106.721 57.9496 93.7717 64.3844 80.8381 70.8529C78.6511 71.9366 76.0971 72.1061 73.6134 71.9176C71.2172 71.7354 68.8303 71.1667 66.6963 70.1146C54.7502 64.1653 42.7995 58.2255 30.8847 52.2141C29.5193 51.5242 28.1909 50.6438 27.4357 49.2673C26.9363 48.3574 26.864 47.2052 27.3627 46.3037C27.7984 45.517 28.5666 44.9452 29.363 44.5355C42.2763 38.028 55.2286 31.5985 68.1613 25.1311C70.3377 24.0526 72.8953 23.8767 75.3864 24.0663C77.8009 24.2496 80.2039 24.8235 82.354 25.8935L96.7193 33.074C96.9953 33.2836 97.0859 33.6364 96.7193 33.9144L83.7952 40.3734L83.7151 40.405L70.57 44.1943L70.6084 44.17C70.5805 44.188 70.5525 44.2037 70.5245 44.2206C69.0446 45.0758 68.3595 47.4327 70.0877 48.7839C70.852 49.3811 71.9224 49.6107 72.8331 49.2284C72.9328 49.1862 73.0828 49.123 73.0828 49.123L81.7525 44.7893C81.9969 44.7114 82.0822 44.7609 82.1718 44.7893L86.0971 46.7513L87.7005 43.9268V42.2459C87.7215 42.1322 87.7236 42.0047 87.9596 41.8257L100.884 35.3657C101.021 35.3225 101.022 35.3225 101.166 35.3225C101.212 35.3362 101.258 35.3509 101.304 35.3657ZM73.8402 24.9468C72.0418 24.952 70.1968 25.1816 68.6177 25.9525C55.662 32.3684 42.7568 38.8864 29.8263 45.3527C28.6913 45.9257 27.5236 46.9409 28.0832 48.4353C28.6073 49.835 29.9945 50.7123 31.3083 51.3768C43.2209 57.3872 55.1694 63.3259 67.1132 69.2742C70.2341 70.8118 73.874 71.3626 77.3184 70.896C78.3772 70.7528 79.4243 70.499 80.3819 70.0314C93.3376 63.6156 106.243 57.0976 119.173 50.6301C120.194 50.1172 121.217 49.2378 121.04 48.0214C120.887 46.963 120.023 46.1268 119.184 45.5107C118.7 45.1558 118.18 44.8525 117.644 44.5829L101.094 36.3103L88.6402 42.5355V44.051C88.6243 44.17 88.6244 44.1711 88.578 44.2827L86.6944 47.6023C86.5732 47.7434 86.4215 47.8529 86.2456 47.8382C86.1876 47.8329 86.1329 47.8066 86.076 47.7898L81.9621 45.734L73.4679 49.9803C72.9025 50.2057 72.3076 50.3774 71.703 50.3468C69.9464 50.2584 68.2709 48.8724 68.149 46.9535C68.0635 45.6066 68.7169 44.2048 69.865 43.5171C70.0506 43.4086 70.249 43.3096 70.249 43.3096L83.4138 39.5151L95.4593 33.4942C90.9357 31.2331 86.4141 28.9646 81.8873 26.7097C79.4359 25.506 76.6759 24.9626 73.9524 24.9468C73.915 24.9468 73.8776 24.9468 73.8402 24.9468Z" fill="#36464A"/>
<path fill-rule="evenodd" clip-rule="evenodd" d="M78.9839 39.4593L70.3791 43.7604C70.2189 43.8594 70.0493 43.9436 69.8982 44.0563C68.6797 44.9589 68.2564 46.7545 68.931 48.1036C69.6094 49.4601 71.3049 50.1888 72.7505 49.7591C72.9308 49.7054 73.1004 49.6201 73.2754 49.5517L86.1444 44.605L88.0301 45.5476L88.1703 42.2459L95.887 46.1036C97.9708 47.1442 98.3089 48.667 96.6423 49.5001L77.5238 59.0627C75.8568 59.8958 72.812 59.7273 70.7286 58.6857L53.1124 49.8803C51.0291 48.8387 50.6908 47.3169 52.3576 46.4828L71.4762 36.9212C73.143 36.0881 76.1878 36.2566 78.2707 37.2982L83.5855 39.9543V41.7594L78.9839 39.4593Z" fill="#F7FBFC"/>
<path fill-rule="evenodd" clip-rule="evenodd" d="M96.0978 45.6835C97.0965 46.1837 98.1468 46.9315 98.1699 48.1142C98.171 48.1668 98.1689 48.2195 98.1657 48.2721C98.1573 48.3795 98.1383 48.4849 98.1078 48.5881C97.9382 49.1768 97.4272 49.6265 96.8742 49.9087C90.4985 53.1261 84.0997 56.3003 77.7114 59.4935C75.8894 60.3782 73.6601 60.2002 71.735 59.5925C71.3367 59.4672 70.9465 59.3155 70.5711 59.1312C64.6531 56.2235 58.7633 53.2578 52.8762 50.2868C51.7222 49.7013 50.479 48.7218 50.9024 47.3601C51.0802 46.7882 51.5814 46.3533 52.1255 46.0742C58.5017 42.8578 64.8999 39.6836 71.2881 36.4904C73.1406 35.591 75.4263 35.7848 77.3806 36.4283C77.7567 36.5526 78.1254 36.7011 78.4815 36.878L83.7952 39.5341C84.0323 39.7131 84.0344 39.8405 84.0554 39.9543V41.7594L84.0165 41.9448L83.9079 42.1006L83.7468 42.1996L83.5592 42.228L83.3759 42.1785L78.984 39.9838L70.6084 44.1701C70.5806 44.188 70.5526 44.2038 70.5245 44.2206C69.2381 44.9642 68.439 46.7882 69.613 48.309C70.3354 49.2452 71.7162 49.697 72.8331 49.2284C72.9461 49.181 73.1039 49.1146 73.1039 49.1146L85.9759 44.1669L86.1666 44.1364L86.3541 44.1848L87.592 44.8041L87.7005 42.2259L87.7458 42.0459L87.8564 41.8963L88.0165 41.8026L88.2009 41.7773L88.38 41.8257C90.9526 43.1116 93.5252 44.3976 96.0978 45.6835ZM74.1749 36.8612C73.3263 36.8643 72.4592 36.9654 71.7034 37.333C65.313 40.5272 58.8942 43.6656 52.5344 46.9199C52.1012 47.1452 51.6468 47.5275 51.8019 48.0594C51.9995 48.7366 52.6925 49.141 53.3003 49.4496C59.1838 52.4184 65.0701 55.382 70.9844 58.2887C72.6362 59.0954 74.5938 59.3566 76.355 58.968C76.673 58.8974 76.9866 58.8005 77.2795 58.6594C83.7109 55.5336 90.1003 52.3215 96.4654 49.0641C96.8226 48.8777 97.1913 48.6165 97.2281 48.2079C97.2798 47.6444 96.7741 47.2295 96.3864 46.9473C96.2863 46.8756 96.1841 46.8072 96.0788 46.744C95.9482 46.665 95.8144 46.5913 95.6774 46.5228L88.6086 42.9895L88.5001 45.5676L88.4558 45.7477L88.3441 45.8973L88.184 45.991L87.9997 46.0163L87.8206 45.9678L86.1192 45.1169C81.8916 46.7429 77.6397 48.31 73.4344 49.993C72.8779 50.2184 72.2941 50.3763 71.7031 50.3468C69.9464 50.2584 68.2709 48.8724 68.1491 46.9536C68.0635 45.6066 68.717 44.2048 69.8651 43.5171C69.9603 43.4613 70.0566 43.4076 70.1513 43.3497L78.7743 39.0391C78.8649 39.0107 78.9492 38.9612 79.1947 39.0391L83.1157 41.0001V40.2439C81.4154 39.394 79.7214 38.5336 78.0158 37.6953C76.8538 37.1276 75.5519 36.8738 74.2557 36.8612C74.2287 36.8612 74.2018 36.8612 74.1749 36.8612Z" fill="#36464A"/>
<path fill-rule="evenodd" clip-rule="evenodd" d="M83.5856 39.9543V41.7594L94.8979 36.105L96.5097 36.957V33.4943L83.5856 39.9543Z" fill="#F7FBFC"/>
<path fill-rule="evenodd" clip-rule="evenodd" d="M96.5781 33.0299C96.8036 33.0752 96.9669 33.2605 96.9785 33.4943V36.9571C96.9616 37.2857 96.6003 37.5163 96.2895 37.3721L94.8915 36.6327L83.7952 42.1787C83.7952 42.1787 83.672 42.2334 83.5645 42.2282C83.3254 42.2176 83.1284 42.007 83.1157 41.7595V39.9544C83.1284 39.6943 83.2042 39.6311 83.3759 39.5342L96.299 33.0741C96.4601 33.0046 96.4001 33.013 96.5781 33.0299ZM84.0554 40.244V41.0002L94.6871 35.6849C94.8999 35.5912 94.9695 35.6207 95.117 35.6902L96.0398 36.1778V34.2537C92.045 36.2504 88.0502 38.2472 84.0554 40.244Z" fill="#36464A"/>
<path fill-rule="evenodd" clip-rule="evenodd" d="M27.4697 47.6897C27.4746 49.0893 28.7327 50.6143 31.1458 51.8202L66.8553 69.6701C71.0786 71.7807 77.25 72.1229 80.6296 70.4326L119.384 51.0503C120.808 50.3384 121.51 49.3779 121.53 48.3479V61.6672V61.6788V61.6798C121.525 62.7225 120.822 63.6945 119.384 64.4138L80.6296 83.7961C77.25 85.486 71.0786 85.1442 66.8553 83.0331L31.1458 65.1837C28.7358 63.9789 27.4778 62.4571 27.4697 61.0585V61.0395V61.0321V61.0311V47.6897Z" fill="#F7FBFC"/>
<path fill-rule="evenodd" clip-rule="evenodd" d="M27.6494 47.2559C27.8008 47.357 27.8024 47.3581 27.9035 47.5097L27.9393 47.6898C27.9393 47.7109 27.9398 47.732 27.9405 47.753C27.9914 48.8968 28.9231 49.8119 29.7907 50.4544C30.2647 50.8051 30.7749 51.1052 31.3012 51.3738C43.2231 57.3715 55.1671 63.325 67.1132 69.2742C70.234 70.8119 73.874 71.3627 77.3184 70.8961C78.3771 70.7529 79.4243 70.4991 80.3819 70.0315C93.3481 63.6104 106.284 57.1272 119.205 50.6144C119.425 50.5028 119.639 50.3785 119.842 50.2385C119.913 50.189 119.983 50.1384 120.052 50.0837C120.595 49.6561 121.044 49.0589 121.06 48.3375L121.1 48.1595C121.206 48.0068 121.359 47.8762 121.535 47.8783C121.658 47.8805 121.777 47.93 121.864 48.0184C121.981 48.1364 121.969 48.1932 122 48.3481C122 52.7924 122 57.2377 122 61.6821C121.989 63.0385 120.849 64.1907 119.63 64.8152C106.716 71.3142 93.7695 77.7494 80.838 84.2164C78.6826 85.2842 76.1787 85.4611 73.7336 85.2899C71.2995 85.1195 68.8816 84.5556 66.6963 83.4785C54.767 77.5377 42.8554 71.5617 30.935 65.6029C28.985 64.6204 27.0002 63.0943 27.0002 61.0596L27 47.6898L27.0357 47.5097C27.1238 47.3781 27.1344 47.3202 27.2898 47.2559C27.4016 47.2096 27.5283 47.2317 27.6494 47.2559ZM27.9391 61.0575C27.9798 61.2629 28.0057 61.6273 28.1323 61.9211C28.6946 63.2239 30.0225 64.0875 31.3016 64.7372C43.2174 70.7466 55.1672 76.6882 67.1132 82.6373C70.208 84.1628 73.8479 84.716 77.2668 84.2666C78.3413 84.1254 79.4106 83.8694 80.3819 83.3947C93.3481 76.9733 106.281 70.4822 119.205 63.9779C120.135 63.5019 121.052 62.7752 121.061 61.6789L121.06 50.4407C120.654 50.8567 120.156 51.1842 119.629 51.4517C106.719 57.9591 93.7684 64.3855 80.838 70.8529C78.651 71.9366 76.0971 72.1062 73.6134 71.9177C71.2171 71.7355 68.8303 71.1668 66.6963 70.1147C54.7671 64.1738 42.8555 58.1982 30.9352 52.2405C29.8122 51.675 28.7395 50.9715 27.9433 50.0099L27.9391 50.0047C27.9391 53.6886 27.9391 57.3725 27.9391 61.0575Z" fill="#36464A"/>
<path fill-rule="evenodd" clip-rule="evenodd" d="M117.854 65.1786V67.7451V67.7556V67.7567C117.848 68.7182 117.201 69.6134 115.876 70.2769L80.1501 88.1444C77.035 89.7021 71.3459 89.387 67.4528 87.441L34.5345 70.9867C32.3129 69.8767 31.1532 68.4739 31.1458 67.1838V67.1669V67.1595V65.1838L66.8552 83.0332C71.0785 85.1443 77.2499 85.4861 80.6295 83.7962L117.854 65.1786Z" fill="#7DE2FF"/>
<path fill-rule="evenodd" clip-rule="evenodd" d="M118.015 64.7383L118.176 64.8373L118.285 64.9932L118.324 65.1785V67.7587C118.313 69.012 117.288 70.0809 116.119 70.6791C104.212 76.6666 92.2798 82.6029 80.3597 88.5644C78.3317 89.5692 75.9741 89.7236 73.68 89.5498C71.4712 89.3823 69.2831 88.8655 67.29 87.8843C56.2747 82.4004 45.2654 76.9045 34.2707 71.3795C32.5094 70.4843 30.6762 69.1679 30.6762 67.1732L30.7083 66.992L30.6762 67.1595L30.676 65.1838L30.7144 64.9984L30.8231 64.8425L30.9845 64.7425L31.1722 64.7151L31.3555 64.7636C43.2747 70.7223 55.1851 76.6972 67.1131 82.6373C70.2614 84.1891 73.8558 84.7149 77.2667 84.2666C78.3581 84.1233 79.4389 83.8618 80.4197 83.376L117.644 64.7594L117.828 64.7099C117.89 64.7193 117.952 64.7288 118.015 64.7383V64.7383ZM80.838 84.2164C78.6826 85.2842 76.1786 85.4611 73.7335 85.2899C71.281 85.1182 68.8474 84.5497 66.6455 83.4532L31.6152 65.9431C31.6152 66.4412 31.5622 66.9478 31.635 67.4333C31.7828 68.4201 32.5772 69.1657 33.3458 69.726C33.7701 70.0367 34.2251 70.3032 34.6944 70.5422C45.6868 76.0655 56.6938 81.5603 67.7068 87.043C70.9102 88.6201 74.7076 89.1173 78.0979 88.3564C78.7215 88.2167 79.3336 88.0205 79.9067 87.7413C91.8574 81.8196 103.777 75.8342 115.694 69.8429C115.889 69.7429 116.079 69.6333 116.26 69.5101C116.319 69.4701 116.377 69.428 116.434 69.3838C116.932 69.0015 117.362 68.4643 117.384 67.7882V67.7556V65.9389C105.203 72.0314 93.0204 78.1238 80.838 84.2164Z" fill="#36464A"/>
<path fill-rule="evenodd" clip-rule="evenodd" d="M34.691 57.5262C33.4663 56.9143 32.4719 57.6947 32.4719 59.2691C32.4719 60.8436 33.4663 62.6182 34.691 63.2301C35.9157 63.842 36.91 63.0616 36.91 61.4871C36.91 59.9137 35.9157 58.138 34.691 57.5262Z" fill="#F7FBFC"/>
<path fill-rule="evenodd" clip-rule="evenodd" d="M33.9079 56.8479C35.0737 56.8658 36.0419 57.8474 36.607 58.8079C37.186 59.7926 37.5147 60.9584 37.3337 62.0821C37.1804 63.0342 36.4441 63.9926 35.3381 63.902C34.2112 63.8093 33.3406 62.891 32.7967 61.9853C32.0704 60.7762 31.6773 59.2239 32.2643 57.9464C32.545 57.3355 33.141 56.87 33.8408 56.849C33.8631 56.8479 33.8855 56.8479 33.9079 56.8479ZM33.8812 57.7863C33.3254 57.7937 33.0109 58.4666 32.9584 58.949C32.9491 59.0343 32.9439 59.1196 32.9421 59.206C32.9176 60.3687 33.4498 61.5724 34.2779 62.3602C34.7245 62.7867 35.3596 63.2048 35.9093 62.852C36.3403 62.5761 36.4325 61.9884 36.4397 61.5524C36.4644 60.0938 35.6703 58.5204 34.4579 57.9348C34.2783 57.8474 34.0834 57.7863 33.8812 57.7863Z" fill="#36464A"/>
<path fill-rule="evenodd" clip-rule="evenodd" d="M41.1579 60.7584C39.9331 60.1465 38.9388 60.9269 38.9388 62.5014C38.9388 64.0758 39.9331 65.8504 41.1579 66.4634C42.3825 67.0752 43.3768 66.2938 43.3768 64.7204C43.3768 63.1459 42.3825 61.3703 41.1579 60.7584Z" fill="#F7FBFC"/>
<path fill-rule="evenodd" clip-rule="evenodd" d="M40.3749 60.0802C41.5407 60.0981 42.509 61.0796 43.0741 62.0411C43.9633 63.5524 44.3095 65.6714 43.0791 66.7287C42.7314 67.0278 42.2637 67.1721 41.8052 67.1342C40.6795 67.0415 39.8077 66.1232 39.2637 65.2174C38.6493 64.1948 38.3066 62.9669 38.535 61.7968C38.7031 60.9343 39.3302 60.1107 40.3078 60.0812C40.3302 60.0812 40.3525 60.0802 40.3749 60.0802ZM40.3483 61.0196C39.7236 61.0269 39.4237 61.8642 39.4096 62.4224C39.38 63.5872 39.9118 64.7993 40.7448 65.5934C41.192 66.0189 41.8314 66.4349 42.3763 66.0852C42.8084 65.8083 42.8994 65.2206 42.9068 64.7857C42.9314 63.3207 42.1377 61.7536 40.9247 61.167C40.7453 61.0796 40.5504 61.0185 40.3483 61.0196Z" fill="#36464A"/>
<path fill-rule="evenodd" clip-rule="evenodd" d="M66.3393 76.1977C66.3393 77.1389 65.7279 77.5974 64.9746 77.2209L58.5717 74.0204C57.8186 73.6438 57.207 72.5738 57.207 71.6333C57.207 70.6918 57.8186 70.2337 58.5717 70.6097L64.9746 73.8102C65.7279 74.1867 66.3393 75.2565 66.3393 76.1977Z" fill="#F7FBFC"/>
<path fill-rule="evenodd" clip-rule="evenodd" d="M58.0988 70.0093C58.3277 70.0167 58.5516 70.0798 58.7584 70.1778C60.9093 71.233 63.0437 72.3199 65.1864 73.3909C66.2324 73.9241 66.864 75.194 66.8057 76.3296C66.7675 77.0713 66.2295 77.9131 65.3287 77.8133C65.1406 77.7926 64.9585 77.7334 64.7876 77.6519C62.6384 76.595 60.503 75.5104 58.3608 74.4396C57.3468 73.9263 56.714 72.7348 56.7382 71.5795C56.7533 70.8581 57.1694 70.0251 58.0511 70.0082C58.075 70.0082 58.0749 70.0082 58.0988 70.0093ZM58.0615 70.9476C57.7451 70.9529 57.6819 71.3699 57.6771 71.5985C57.6601 72.3999 58.1139 73.2509 58.7693 73.5942C60.9063 74.6761 63.0476 75.75 65.1971 76.807C65.321 76.8661 65.4632 76.9112 65.5897 76.865C65.9333 76.7393 65.8899 76.2877 65.8593 76.0024C65.7816 75.275 65.3562 74.5389 64.777 74.2362C62.643 73.1487 60.5006 72.0777 58.35 71.0235C58.2582 70.9803 58.1773 70.9466 58.0615 70.9476Z" fill="#36464A"/>
<path fill-rule="evenodd" clip-rule="evenodd" d="M83.5856 41.7594L94.8978 36.105L97.6769 37.4941L88.1703 42.2459V44.051L95.8871 47.9077C96.5476 48.2384 97.0333 48.6165 97.3346 49.0061C97.1639 49.1883 96.9342 49.3547 96.6424 49.5001L77.5239 59.0627C75.8568 59.8958 72.8121 59.7273 70.7287 58.6857L53.1125 49.8803C52.4522 49.5506 51.9672 49.1725 51.6658 48.7829C51.8361 48.6007 52.0662 48.4343 52.3577 48.2879L71.4762 38.7263C73.1431 37.8932 76.1878 38.0617 78.2708 39.1033L83.5856 41.7594Z" fill="#7DE2FF"/>
<path fill-rule="evenodd" clip-rule="evenodd" d="M74.2628 37.7279C75.7194 37.7405 77.1836 38.0354 78.4815 38.6831L83.5856 41.2339L94.6871 35.6848L94.8251 35.6416C94.9695 35.6416 94.9705 35.6416 95.1075 35.6848L97.8866 37.0739C98.1584 37.2803 98.2679 37.6247 97.8866 37.9133L88.6402 42.5356V43.7604C91.1369 45.0084 93.6337 46.2564 96.1304 47.5054C96.7309 47.813 97.2998 48.1952 97.7054 48.7187L97.7823 48.8661C97.837 49.3 97.64 49.3653 97.6358 49.3695C97.4188 49.5896 97.1586 49.7623 96.8836 49.9045C90.5069 53.1293 84.1028 56.2982 77.7114 59.4935C75.8894 60.3782 73.6601 60.2002 71.735 59.5925C71.3367 59.4672 70.9464 59.3155 70.5711 59.1312C64.6507 56.2224 58.7627 53.2472 52.8691 50.2837C52.2695 49.9772 51.7 49.5938 51.2945 49.0694L51.2179 48.923C51.1595 48.4638 51.3214 48.4512 51.4741 48.3153C51.6672 48.1436 51.8866 48.0036 52.1166 47.8846C58.4926 44.6598 64.8998 41.4961 71.288 38.2956C72.2009 37.8522 73.2504 37.7216 74.2628 37.7279ZM83.7952 42.1785C83.5508 42.2575 83.4655 42.208 83.3759 42.1785C81.5892 41.2855 79.8078 40.3808 78.0158 39.5004C76.3832 38.7021 74.4605 38.4441 72.7132 38.8063C72.3656 38.878 72.0228 38.9822 71.7036 39.1381C65.3195 42.3365 58.9165 45.4971 52.5446 48.7197C52.4664 48.7608 52.3001 48.784 52.4056 48.8735C52.6758 49.0999 52.9793 49.2853 53.2941 49.4464C59.1838 52.4079 65.0679 55.3809 70.9844 58.2887C72.6362 59.0954 74.5938 59.3566 76.355 58.968C76.673 58.8974 76.9866 58.8005 77.2794 58.6594C83.7078 55.5358 90.0782 52.2941 96.4549 49.0694C96.5339 49.0283 96.7003 49.0051 96.5939 48.9156C96.3158 48.6818 96.0029 48.4912 95.6774 48.3279L87.9596 44.4702C87.868 44.4007 87.7552 44.3428 87.7005 44.0511V42.246C87.7215 42.1322 87.7236 42.0048 87.9596 41.8257L96.6266 37.4941L94.8978 36.6295C91.197 38.4799 87.4961 40.3292 83.7952 42.1785Z" fill="#36464A"/>
<path fill-rule="evenodd" clip-rule="evenodd" d="M76.7579 41.5899C75.5104 40.9664 73.6875 40.8653 72.6897 41.3645L61.2437 47.0884C60.2458 47.5876 60.4483 48.4997 61.6956 49.1232L72.242 54.3942C73.4894 55.0177 75.3122 55.1188 76.3102 54.6196L87.7562 48.8946C88.7538 48.3965 88.5516 47.4844 87.3042 46.861L76.7579 41.5899Z" fill="#F7FBFC"/>
<path fill-rule="evenodd" clip-rule="evenodd" d="M74.3595 40.5778C75.2476 40.5873 76.139 40.7674 76.9349 41.1539C80.4693 42.9021 83.989 44.6788 87.515 46.4418C88.3356 46.8568 89.2279 47.6066 88.7381 48.5997C88.5853 48.9073 88.304 49.139 87.9943 49.3011C84.1786 51.2326 80.344 53.1273 76.5187 55.0398C75.1313 55.7212 73.348 55.4526 72.0648 54.8302C68.5308 53.082 65.0113 51.3053 61.4846 49.5423C60.7796 49.1853 60.0383 48.6503 60.1481 47.7677C60.1481 47.7677 60.3738 47.0137 61.005 46.684C64.8148 44.7399 68.6553 42.8569 72.4806 40.9443C73.0562 40.66 73.7126 40.5747 74.3595 40.5778ZM74.2902 41.5162C73.8197 41.5204 73.3421 41.5741 72.9179 41.7753C69.0818 43.6709 65.2481 45.573 61.4363 47.5171C61.2813 47.5982 61.119 47.7172 61.0858 47.8488C60.9948 48.209 61.4058 48.4102 61.6682 48.5713C61.7372 48.6145 61.8083 48.6524 61.8801 48.6903C65.4043 50.4723 68.9382 52.2363 72.4781 53.9877C73.6025 54.5332 75.0098 54.7217 76.0818 54.2089C79.9236 52.3237 83.7467 50.3996 87.5645 48.466C87.8932 48.2933 88.3641 47.9341 87.1199 47.2938C83.596 45.5119 80.0616 43.7478 76.5218 41.9964C75.8288 41.6605 75.0588 41.5151 74.2902 41.5162Z" fill="#36464A"/>
<path fill-rule="evenodd" clip-rule="evenodd" d="M60.6099 47.9004C60.6099 48.3143 60.9815 48.7661 61.6956 49.1231L72.2421 54.3942C73.4894 55.0176 75.3122 55.1187 76.3102 54.6195L87.7563 48.8946C88.1671 48.6892 88.3746 48.4133 88.3894 48.1163V49.8582C88.4041 50.1805 88.1977 50.4827 87.7563 50.7029L76.3102 56.4278C75.3122 56.927 73.4894 56.8259 72.2421 56.2024L61.6956 50.9303C60.9815 50.5733 60.6099 50.1226 60.6099 49.7087V47.9004Z" fill="#F7FBFC"/>
<path fill-rule="evenodd" clip-rule="evenodd" d="M60.7144 47.4422C61.0266 47.5391 61.0622 47.6644 61.0795 47.9003C61.1051 48.2468 61.4874 48.4891 61.8912 48.6955C65.4164 50.4669 68.9419 52.2383 72.4781 53.9876C73.624 54.5426 75.0897 54.6826 76.0819 54.2087C79.9226 52.3246 83.7468 50.4047 87.5614 48.468C87.5888 48.4532 87.6152 48.4385 87.6415 48.4227C87.6657 48.409 87.6889 48.3932 87.711 48.3774C87.731 48.3637 87.75 48.35 87.7679 48.3342C87.7784 48.3248 87.79 48.3153 87.8006 48.3058C87.9323 48.1826 87.9301 48.0193 87.9301 48.0193C88.0302 47.675 88.5001 47.538 88.7382 47.8024C88.814 47.8877 88.8498 47.9983 88.8583 48.1162L88.8593 49.8855C88.8541 50.4111 88.478 50.8555 87.9912 51.1103C84.1734 53.0345 80.343 54.9354 76.5187 56.8479C75.1571 57.5167 73.3707 57.2713 72.0647 56.6383C68.5199 54.8817 64.9725 53.1303 61.4488 51.3315C60.789 50.9945 60.154 50.4795 60.1405 49.7223V47.9003C60.1684 47.5275 60.3566 47.4759 60.5055 47.4422C60.6326 47.4138 60.6699 47.4359 60.7144 47.4422ZM61.0795 49.7139C61.0855 50.0488 61.4953 50.3015 61.8914 50.5037C65.4149 52.2783 68.9431 54.0444 72.4782 55.7958C73.6117 56.3456 75.0389 56.5151 76.0819 56.017C79.9226 54.1318 83.7415 52.2014 87.5625 50.2752C87.592 50.2594 87.6204 50.2436 87.6489 50.2267C87.6689 50.2141 87.6899 50.2015 87.71 50.1867C87.7268 50.1741 87.7447 50.1615 87.7616 50.1467C87.8806 50.0509 87.9196 49.8666 87.9196 49.8666V49.3379L76.5187 55.0397C76.38 55.1081 76.3594 55.1144 76.2834 55.1439C74.9344 55.6663 73.3051 55.4314 72.0649 54.8301C68.5188 53.0755 64.9724 51.322 61.4486 49.5232C61.2947 49.4443 61.0795 49.3095 61.0795 49.3095C61.0795 49.4443 61.0795 49.5791 61.0795 49.7139Z" fill="#36464A"/>
</svg>
