<svg width="255" height="140" viewBox="0 0 255 140" fill="none" xmlns="http://www.w3.org/2000/svg">
<g clip-path="url(#clip0)">
<path d="M0 4C0 1.79086 1.79086 0 4 0H251C253.209 0 255 1.79086 255 4V136C255 138.209 253.209 140 251 140H4C1.79086 140 0 138.209 0 136V4Z" fill="#E1F7FE"/>
<path d="M54.1656 70.1176C55.2896 65.6215 59.0663 56.3596 65.1809 55.2806C71.2955 54.2015 78.2944 54.2315 80.4675 53.9318C93.9952 66.3528 98.9306 69.6513 102.273 63.5983L120.258 72.5904C121.187 72.8807 123.133 74.665 124.882 79.3869C126.463 79.3906 127.231 79.608 127.451 79.7841C127.901 80.0089 128.98 81.2228 129.699 84.2801C130.419 87.3374 129.999 90.3498 129.699 91.4738C129.276 91.8178 128.821 92.1862 128.337 92.5756C130.409 100.916 132.51 108.899 132.846 110.582C133.296 112.83 133.296 124.07 130.598 127.442C127.901 130.814 123.18 131.938 115.761 129.69C114.942 129.442 113.953 129.096 112.839 128.677L113.513 147L57.7624 144.302C57.8373 141.305 57.9422 132.658 57.7624 122.047C57.5376 108.784 54.1656 102.04 53.2663 90.5746C52.547 81.4027 53.5661 73.1149 54.1656 70.1176Z" fill="#7DE2FF"/>
<path d="M88.3356 117.776C94.0837 120.553 105.888 126.058 112.839 128.677M124.882 79.3869C123.772 79.3844 122.261 79.4873 120.258 79.7841C115.402 80.5034 95.1546 88.1767 85.6379 91.9234C85.3382 87.9519 84.0194 78.0306 81.1419 70.1176C77.545 60.2262 67.2041 56.8542 61.8088 60.0014C57.7614 62.3624 55.5144 64.2727 54.84 73.04C54.1656 81.8073 71.4754 114.179 77.7698 117.101C84.0643 120.024 93.0564 116.202 101.149 112.156C107.222 109.119 121.021 98.462 128.337 92.5756M124.882 79.3869C126.463 79.3906 127.231 79.608 127.451 79.7841C127.901 80.0089 128.98 81.2228 129.699 84.2801C130.419 87.3374 129.999 90.3498 129.699 91.4738C129.276 91.8178 128.821 92.1863 128.337 92.5756M124.882 79.3869C123.133 74.665 121.187 72.8807 120.258 72.5904L102.273 63.5983C98.9306 69.6513 93.9952 66.3528 80.4675 53.9318C78.2944 54.2315 71.2955 54.2015 65.1809 55.2806C59.0663 56.3596 55.2896 65.6215 54.1656 70.1176C53.5661 73.1149 52.547 81.4027 53.2663 90.5746C54.1656 102.04 57.5376 108.784 57.7624 122.047C57.9422 132.658 57.8373 141.305 57.7624 144.302L113.513 147L112.839 128.677M128.337 92.5756C130.409 100.916 132.51 108.899 132.846 110.582C133.296 112.83 133.296 124.07 130.598 127.442C127.901 130.814 123.18 131.938 115.761 129.69C114.942 129.442 113.953 129.096 112.839 128.677" stroke="#36464A" stroke-width="0.5"/>
<path d="M80.6923 53.9318C81.9661 52.0584 84.6937 47.7722 85.4131 43.8157C86.1325 39.8591 87.2115 36.3972 87.9117 33.9243M93.0564 37.9708C92.4569 38.3455 90.9433 38.7351 89.6844 37.2964C88.1107 35.498 87.2115 32.1259 87.2115 29.8779C87.2115 27.6299 89.9092 26.9555 91.0332 27.6299C91.9324 28.1694 92.7567 29.6531 93.0564 30.3275M120.932 29.6531C120.857 31.6014 120.617 36.1724 120.258 38.87C119.808 42.242 117.335 48.0869 115.537 51.0093L115.494 51.0789C113.699 53.9956 111.244 57.9853 108.568 58.8774C107.526 59.2245 105.471 58.7206 103.622 57.9782C102.363 60.3162 102.049 62.849 102.049 63.8231" stroke="#36464A" stroke-width="0.5"/>
<path d="M88 34.1491C87.2999 36.6219 85.6829 42.1071 84.9635 46.0636C84.7387 44.4151 85.8177 38.7984 85.6379 37C85.4131 34.752 86.4269 30 84.9635 23C83.5 16 87.8332 14 91.0332 10C95.0331 5 107 5.99999 118 13C126.968 18.7071 121.967 28.8333 120.8 37H120.2C120.7 32 121.366 22.4463 118 24C111.5 27 105.488 16 100.488 19C98.3068 20.3086 100.535 24.1479 98.4877 29C97.4877 31.3703 97.5 29 96.5 34.1491H95.0796L92.6138 30.0663C92.3068 29.3253 91.8293 28.1075 91.0332 27.6298C89.9091 26.9554 87.2115 27.6298 87.2115 29.8778C87.2115 31.0488 87.5438 32.7495 88 34.1491Z" fill="#36464A"/>
<path d="M138.467 82.9312C136.308 82.2119 130.374 80.6832 127.676 80.0088C130.374 83.4258 130.299 88.0268 129.924 89.9001C130.449 89.975 132.037 90.1249 134.195 90.1249C136.893 90.1249 137.792 90.3497 139.591 89.9001C141.029 89.5404 145.735 90.4996 147.908 91.0241V85.6289C145.66 85.0294 140.625 83.6506 138.467 82.9312Z" fill="#E1F7FE" stroke="#36464A" stroke-width="0.5"/>
<path d="M139.366 91.2489C139.006 90.1699 138.167 90.05 137.792 90.1249C139.591 89.7652 142.588 89.8252 143.862 89.9001C144.012 90.7993 144.267 92.9125 144.087 94.1714C143.907 95.4302 142.963 96.3444 142.513 96.6442C141.089 97.5434 137.837 99.5666 136.219 100.466C134.6 101.365 134.195 100.091 134.195 99.3418C134.945 98.3677 136.533 96.3295 136.893 95.9698C137.253 95.6101 138.841 94.621 139.591 94.1714C139.666 93.6468 139.726 92.328 139.366 91.2489Z" fill="#E1F7FE" stroke="#36464A" stroke-width="0.5"/>
<path d="M110.5 106.5L120.5 109.5" stroke="#36464A" stroke-width="0.5"/>
<path d="M95 50C94.2 47.6 93.3334 42.3333 93.5 41C92.625 48 94 51.3333 95 52L102.5 60.5L103.6 57.7C100.767 55.3667 95.8 52.4 95 50Z" fill="#36464A"/>
<path d="M91 119L88 117.5C99.3848 114.081 108.211 108.48 128 93C116.5 103 106.192 110.71 91 119Z" fill="#36464A"/>
<path d="M55 76.5C55 76.5 69.2214 120.112 84.7399 118.252L86 118C85.5792 118.118 85.1591 118.202 84.7399 118.252L78.5 119.5C58.601 108.352 55 76.5 55 76.5Z" fill="#36464A"/>
<path d="M212.651 62.5417C211.242 61.7615 209.79 61.1833 208.38 60.6758C203.884 59.0572 194.967 55.8051 191.07 54.3813C190.846 55.3555 189.452 58.1131 185.675 61.3502C181.898 64.5874 176.608 66.146 174.435 66.5207C173.611 66.221 171.288 64.8572 170.388 62.699M212.651 62.5417C216.861 64.872 220.689 69.004 221.868 78.4352C223.442 91.0242 224.116 103.164 224.566 110.807C225.016 118.45 226.364 133.512 216.023 132.837C205.683 132.163 187.249 120.473 185.675 119.349C184.416 118.45 182.228 116.652 181.853 116.427C188.597 115.303 189.272 105.412 187.249 103.388C198.938 107.884 201.305 109.068 204.558 110.807C201.861 100.691 200.398 94.7741 199.388 83.6057C197.762 69.2336 204.334 60.6758 212.651 62.5417ZM130.598 100.691C131.423 98.2179 132.507 96.4346 136.376 90.125M132.846 120.698C138.017 120.698 149.482 116.427 152.179 114.404M160.048 74.8384L160.722 73.4896C158.474 75.5128 150.831 71.4664 150.156 68.0943C147.897 71.8288 144.252 77.5217 140.57 83.3809" stroke="#36464A" stroke-width="0.5"/>
<path d="M150.156 68.0942C150.981 66.2957 152.764 62.2943 153.304 60.6757C153.978 58.6525 154.428 57.3036 156.001 57.0788C157.575 56.854 162.071 56.1796 163.195 55.9548C164.319 55.73 164.544 55.0556 166.567 55.73C168.59 56.4044 172.862 57.7532 173.536 58.2028C174.21 58.6525 174.435 60.2261 173.761 60.4509C173.221 60.6307 169.49 60.0762 167.691 59.7765" stroke="#36464A" stroke-width="0.5"/>
<path d="M157.35 57.7533C157.8 57.7533 163.644 57.7533 164.544 57.7533C165.443 57.7533 166.342 58.2029 167.016 58.8773C167.556 59.4168 169.489 61.6499 170.389 62.699C170.43 62.8245 170.483 62.9782 170.544 63.1486M168.59 66.5206C168.815 66.8953 169.489 67.6896 170.389 67.8694C171.288 68.0493 171.812 67.195 171.962 66.7454C171.962 66.5206 171.872 65.9361 171.513 65.3966C171.22 64.9575 170.808 63.8932 170.544 63.1486M158.474 59.7765L164.544 60.0013C164.918 60.0013 165.803 60.2711 166.342 61.3501C166.882 62.4292 167.916 64.6472 168.365 65.6214C168.365 65.9961 168.365 66.9702 168.365 67.8694C168.365 68.9934 168.365 70.1174 167.691 70.1174C167.016 70.1174 165.443 70.1174 165.218 68.319M172.861 60.4509C172.74 61.2003 172.106 62.7889 170.544 63.1486" stroke="#36464A" stroke-width="0.5"/>
<path d="M158.474 62.4741H163.195C163.42 62.4741 164.004 62.8338 164.544 64.2725C165.083 65.7113 165.368 66.8203 165.443 67.195C165.293 68.0193 164.903 69.8027 164.544 70.3422C164.207 70.848 163.111 70.848 162.584 70.3422M158.924 70.567C158.924 69.8926 158.924 67.6446 159.598 67.4198C160.273 67.195 160.497 66.5206 161.172 66.7454C161.711 66.9252 162.146 66.8203 162.296 66.7454C162.296 67.3448 162.296 68.7686 162.296 69.6678C162.296 69.9488 162.408 70.1736 162.584 70.3422M160 73.9999C160.642 73.5503 162.455 71.781 162.584 70.3422" stroke="#36464A" stroke-width="0.5"/>
<path d="M154.653 143.853C153.304 127.667 152.178 116.04 151.056 100.241" stroke="#36464A" stroke-width="0.5"/>
<path d="M144.253 102.736L141.911 78.7732C141.748 77.1048 142.983 75.6266 144.654 75.4911L188.507 71.9354C190.168 71.8008 191.62 73.0445 191.742 74.7056L193.547 99.2574C193.669 100.916 192.419 102.357 190.76 102.47L147.444 105.437C145.824 105.548 144.411 104.351 144.253 102.736Z" fill="#36464A" stroke="#36464A" stroke-width="0.5"/>
<path d="M190.846 54.8309C189.572 54.1565 186.889 51.9085 186.35 48.3116C185.81 44.7148 185.825 43.0662 185.9 42.6916M187.249 29.2034C187.249 26.0562 186.799 22.0097 186.35 19.7617C185.9 17.5137 185.45 15.4904 183.202 13.4672C180.954 11.444 179.83 9.64556 176.234 8.97115C172.637 8.29674 169.714 7.17273 167.466 8.97115C165.218 10.7696 163.195 10.7696 161.846 12.3432C160.497 13.9168 160.048 13.692 158.474 15.7152C156.901 17.7385 155.102 18.1881 154.652 20.4361C154.203 22.6841 153.304 23.5833 153.753 26.0562C154.203 28.529 154.652 30.777 155.102 32.1258C155.552 33.4746 156.901 37.2963 157.125 38.6451C157.35 39.9939 157.35 42.6916 159.149 46.0636C160.947 49.4356 162.732 53.014 164.53 55.4868L164.544 55.5053M185.001 42.2419C186.799 44.49 188.822 39.7691 189.047 38.8699C189.272 37.9707 189.722 32.8002 189.722 31.901C189.722 31.0018 189.047 28.529 187.474 28.9786C186.215 29.3383 185.376 30.777 184.776 31.901L184.102 39.7691L182.753 41.3427C182.528 39.0198 181.988 33.9692 181.629 32.3506C181.269 30.732 178.631 30.0277 177.358 29.8778C177.358 29.7279 177.447 28.8887 177.807 26.7306C178.257 24.0329 178.032 20.4361 177.807 20.4361C177.582 20.4361 176.234 19.7617 174.435 20.4361C172.637 21.1105 170.838 22.9089 167.916 24.2577C164.993 25.6065 162.745 26.5058 159.149 25.1569C157.855 24.5984 157.112 23.9788 155.776 22.6841L156.451 28.529C156.99 31.0468 156.826 34.8235 156.676 36.3971" stroke="#36464A" stroke-width="0.5"/>
<path d="M186.35 19.7617C186.799 22.0097 187.249 26.0562 187.249 29.2034C185.99 29.5631 185.376 30.777 184.776 31.901L184.102 39.7691L182.753 41.3427C182.528 39.0198 181.988 33.9692 181.629 32.3506C181.269 30.732 178.631 30.0277 177.358 29.8778C177.358 29.7279 177.447 28.8887 177.807 26.7306C178.257 24.0329 178.032 20.4361 177.807 20.4361C177.582 20.4361 176.234 19.7617 174.435 20.4361C172.637 21.1105 170.838 22.9089 167.916 24.2577C164.993 25.6065 162.745 26.5058 159.149 25.1569C157.855 24.5984 157.112 23.9788 155.776 22.6841L156.451 28.529C156.99 31.0468 156.826 34.8235 156.676 36.3971C156.226 35.0483 154.203 28.529 153.753 26.0562C153.304 23.5833 154.203 22.6841 154.652 20.4361C155.102 18.1881 156.901 17.7385 158.474 15.7152C160.048 13.692 160.497 13.9168 161.846 12.3432C163.195 10.7696 165.218 10.7696 167.466 8.97115C169.714 7.17273 172.637 8.29674 176.234 8.97115C179.83 9.64556 180.954 11.444 183.202 13.4672C185.45 15.4904 185.9 17.5136 186.35 19.7617Z" fill="#36464A" stroke="#36464A" stroke-width="0.5"/>
<path d="M172.175 111.575C174.607 112.865 180.177 115.795 181.854 116.427C187.923 115.303 189.722 106.536 187.249 103.388C185.001 101.378 175.593 94.6403 173.218 93.377L165.253 90.2187C162.319 89.5871 161.9 92.3242 163.367 93.1665C165.854 93.9434 167.475 94.6908 170.074 96.1142L176.152 100.325L170.493 98.0091L161.271 94.6403C158.546 93.7981 157.708 96.9564 159.594 98.0091L168.188 101.378L173.637 104.536L160.432 98.4303C158.546 97.7986 157.305 100.325 159.175 101.378C160.023 101.856 160.814 102.298 161.566 102.714C163.243 106.491 169.613 110.215 172.175 111.575Z" fill="#E1F7FE"/>
<path d="M161.566 102.714C163.243 106.491 169.613 110.215 172.175 111.575C174.607 112.865 180.177 115.795 181.854 116.427C187.923 115.303 189.722 106.536 187.249 103.388C185.001 101.378 175.593 94.6403 173.218 93.377L165.253 90.2187C162.319 89.5871 161.9 92.3242 163.367 93.1665C165.854 93.9434 167.475 94.6908 170.074 96.1142L176.152 100.325L170.493 98.0091L161.271 94.6403C158.546 93.7981 157.708 96.9564 159.594 98.0091L168.188 101.378L173.637 104.536L160.432 98.4303C158.546 97.7986 157.305 100.325 159.175 101.378C164.622 104.445 167.692 106.05 173.218 108.537" stroke="#36464A" stroke-width="0.5"/>
<path d="M212.651 132.613V145.651" stroke="#36464A" stroke-width="0.5"/>
<path d="M184.116 49C182.318 55.2945 179.294 58.252 173 60.5L172 62.5C180 60 181.973 56.5 184.116 49Z" fill="#36464A"/>
</g>
<defs>
<clipPath id="clip0">
<path d="M0 4C0 1.79086 1.79086 0 4 0H251C253.209 0 255 1.79086 255 4V136C255 138.209 253.209 140 251 140H4C1.79086 140 0 138.209 0 136V4Z" fill="white"/>
</clipPath>
</defs>
</svg>
