<svg width="255" height="140" viewBox="0 0 255 140" fill="none" xmlns="http://www.w3.org/2000/svg">
<g clip-path="url(#clip0_309_4173)">
<path d="M136.475 98.566C133.777 100.629 127.151 105.906 124.175 108.287C128.771 108.234 130.759 111.959 134.491 117.412C139.12 115.627 149.171 111.263 152.345 108.088C155.519 104.914 161.074 98.1693 163.455 95.1935C155.019 78.1484 158.485 65.608 161.273 61.4685C156.313 66.2297 155.321 73.1731 150.362 81.7035C146.394 88.5279 142.096 93.5403 140.442 95.1935C140.244 95.458 139.173 96.5029 136.475 98.566Z" fill="#26C4F7"/>
<path d="M159 82.5C161 92.5 170.167 107.667 174.5 114L177.5 121.5L232 139.5C230.667 135.333 227.7 125.6 226.5 120C225 113 223 99 223 80.5C223 62 214.5 58.5 210 55C206.4 52.2 196.833 49.8333 192.5 49C190.333 51.3333 185 57 181 61C177 65 174 62.6667 173 61L167 55C166 55.8333 163.7 57.9 162.5 59.5C161 61.5 156.5 70 159 82.5Z" fill="#7DE2FF"/>
<path d="M115.446 111.69C115.843 111.095 116.676 109.746 116.835 109.111C117.033 108.318 118.025 107.722 118.62 107.722C119.097 107.722 120.538 108.185 120.803 108.318M117.43 115.459C117.496 114.666 117.867 112.682 118.819 111.095C120.009 109.111 120.803 108.119 121.596 107.722C122.39 107.326 122.985 107.524 123.58 107.722C124.175 107.921 123.58 108.119 125.167 108.516C126.437 108.833 127.548 109.177 127.944 109.31C128.341 109.508 129.293 110.103 129.928 110.897C130.563 111.69 130.722 112.153 130.722 112.285M120.009 120.816C120.406 119.295 121.239 116.094 121.398 115.459C121.596 114.666 122.588 114.071 122.985 113.674C123.302 113.357 123.382 113.542 123.382 113.674C124.043 114.534 125.564 116.332 126.357 116.65" stroke="#36464A" stroke-width="0.5"/>
<path d="M32 89L65.5 83L129 104M246.5 144L201.5 129.5" stroke="#36464A" stroke-width="0.5"/>
<path d="M149.5 110.5L162.5 114.5" stroke="#36464A" stroke-width="0.5"/>
<path d="M161.273 61.4685C156.313 66.2297 155.321 73.1731 150.362 81.7035C146.394 88.5279 142.096 93.5403 140.442 95.1935C140.244 95.458 139.173 96.5029 136.475 98.566C133.777 100.629 127.151 105.906 124.175 108.287C128.771 108.234 130.759 111.959 134.491 117.412C139.12 115.627 149.171 111.263 152.345 108.088C155.52 104.914 161.074 98.1693 163.455 95.1935" stroke="#36464A" stroke-width="0.5"/>
<path d="M172.779 60.2782C176.223 66.3795 180.207 62.7183 192.419 48.3753M192.419 48.3753C195.791 49.4333 204.163 51.9858 207.496 53.7316C211.662 55.9138 221.978 62.262 222.573 76.3472C223.168 90.4323 223.366 99.5579 224.358 105.906C225.35 112.254 226.144 119.198 228.128 126.141C229.715 131.696 231.008 136.024 232 139M192.419 48.3753C191.096 47.8462 188.173 45.2805 187.062 39.2497M183.095 29.9257C183.425 29.1322 184.483 27.8228 185.277 27.3467C186.269 26.7516 187.856 27.3467 188.451 29.1322C189.046 30.9176 189.046 34.2901 188.451 36.2739C187.856 38.2578 187.261 40.0432 186.269 40.6383C185.277 41.2335 184.087 40.2416 184.285 38.6545" stroke="#36464A" stroke-width="0.5"/>
<path d="M154.924 24.7678C154.726 27.8097 154.567 34.925 155.52 39.0514C156.71 44.2093 158.297 46.9867 160.281 51.1527C162.265 55.3187 164.248 58.4928 165.24 59.2864C166.232 60.0799 168.613 62.6589 172.779 60.4767" stroke="#36464A" stroke-width="0.5"/>
<path d="M162.463 22.3872C159.448 23.8156 156.181 24.7017 154.924 24.9662C150.993 26.151 149.056 24.3358 148.422 23.7297C148.27 23.6977 148.179 23.6467 148.179 23.5775C148.179 23.4953 148.256 23.5711 148.422 23.7297C149.144 23.8811 151.259 23.6031 151.75 22.784C152.345 21.7921 152.147 20.8002 153.536 18.0228C154.924 15.2455 157.305 13.2616 159.487 11.0794C161.669 8.89723 167.819 7.31017 173.572 8.30208C179.325 9.294 182.5 11.2778 184.88 14.8487C187.261 18.4196 187.658 21.3953 188.054 24.5695C188.372 27.1087 188.583 29.1984 188.649 29.9258C188.517 29.4629 188.134 28.4181 187.658 27.942C187.062 27.3468 186.666 27.1484 185.674 27.1484C184.88 27.1484 183.756 29 183.293 29.9258C182.962 30.1903 182.222 31.0764 181.904 32.5048C181.508 34.2902 183.095 38.6546 183.293 42.4239C183.491 46.1931 181.904 50.1608 179.524 54.3268C177.143 58.4929 173.053 60.991 171.192 61.2702C167.224 61.8654 164.659 59.554 163.058 56.3107C163.323 56.1784 164.407 56.8264 165.042 56.509C165.677 56.1916 165.439 54.922 166.232 54.922C167.422 54.922 167.422 55.7155 168.018 56.1123C168.613 56.509 171.39 55.9139 172.58 54.922C178.611 49.8434 179.722 41.432 179.524 37.8611C179.524 35.0837 178.929 31.5128 177.937 28.9339C177.143 26.8707 174.167 23.4453 172.779 21.9905L173.969 19.6099C173.837 19.2793 173.136 18.6973 171.39 19.0147C169.208 19.4115 166.232 20.6018 162.463 22.3872Z" fill="#36464A"/>
<path d="M156.313 37.8611C154.567 37.7024 152.279 38.324 151.354 38.6546C152.544 42.8206 155.123 44.6061 156.511 44.8045C157.622 44.9632 159.289 44.8045 159.686 44.4077C160.082 44.0109 159.924 41.7494 160.082 40.6384C160.241 39.5275 160.81 39.7788 161.074 40.0433C162.066 41.1013 164.209 43.3364 164.844 43.8126C165.637 44.4077 168.216 44.0109 170.398 43.2174C172.144 42.5826 171.39 39.1175 170.795 37.4643L183.095 29.7274L183.69 28.5371L170.398 35.4805L169.803 35.6789C169.605 35.6128 168.811 35.5202 167.224 35.6789C165.637 35.8376 161.669 37.1998 159.884 37.8611C159.421 37.9272 158.059 38.0198 156.313 37.8611Z" fill="#36464A"/>
<path d="M154.924 36.0756L151.552 38.6546L153.932 38.0595L155.321 37.2659L154.924 36.0756Z" fill="#36464A"/>
<path d="M121.292 114.529C121.429 114.51 121.569 114.519 121.702 114.557L160.193 125.425C161.192 125.707 161.153 127.137 160.14 127.363L126.294 134.934C126.102 134.977 125.902 134.963 125.718 134.892L89.1309 120.89C88.1654 120.52 88.3268 119.107 89.3508 118.965L121.292 114.529Z" fill="#36464A" stroke="#36464A" stroke-width="0.5"/>
<path d="M75.104 83.9127C74.8555 83.1259 75.6131 82.3937 76.391 82.6688L115.026 96.3322C115.324 96.4378 115.555 96.6784 115.648 96.9809L126.9 133.549C127.144 134.343 126.368 135.072 125.59 134.778L86.9539 120.172C86.6673 120.063 86.4462 119.829 86.3539 119.537L75.104 83.9127Z" fill="#7DE2FF" stroke="#36464A" stroke-width="0.5"/>
<path d="M193.411 110.469C191.493 111.13 185.555 112.691 177.143 113.643C176.313 113.737 175.45 113.822 174.564 113.898C166.478 114.589 156.498 114.556 152.147 114.437C154.95 117.711 155.345 120.389 154.131 126.538C167.021 128.994 197.85 130.062 202.933 128.72C207.54 127.504 210.471 124.554 211.463 121.579C212.455 118.603 216.026 107.493 218.605 97.7727C221.184 88.052 221.382 71.983 218.605 66.4283C215.828 60.8735 207.297 60.2784 203.925 61.6671C200.552 63.0558 196.386 65.8331 193.411 75.1571C191.03 82.6163 192.419 101.806 193.411 110.469Z" fill="#7DE2FF"/>
<path d="M163.852 58.0962C162 60.08 158.614 65.2776 158.297 71.7846C157.9 79.9183 160.281 87.4568 162.463 92.6147C164.645 97.7727 171.985 110.184 174.564 113.898M174.564 113.898C166.478 114.589 156.498 114.556 152.147 114.437C154.95 117.711 155.345 120.389 154.131 126.538C167.021 128.994 197.85 130.062 202.933 128.72C207.54 127.504 210.471 124.554 211.463 121.579C212.455 118.603 216.026 107.493 218.605 97.7727C221.184 88.052 221.382 71.983 218.605 66.4283C215.828 60.8735 207.297 60.2784 203.925 61.6671C200.552 63.0558 196.386 65.8331 193.411 75.1571C191.03 82.6163 192.419 101.806 193.411 110.469C191.493 111.13 185.555 112.691 177.143 113.643C176.313 113.737 175.45 113.822 174.564 113.898Z" stroke="#36464A" stroke-width="0.5"/>
<path d="M133.499 127.53C133.023 127.213 132.639 126.34 132.507 125.943C132.416 125.261 132.282 123.999 132.258 122.967L131.515 124.753C131.581 124.951 131.753 125.507 131.912 126.141C132.11 126.935 131.317 127.332 130.523 127.53C129.73 127.728 129.531 126.935 129.333 126.538C129.292 126.457 129.243 126.317 129.189 126.141C128.757 126.617 128.179 126.34 127.944 126.141C127.7 125.789 127.357 125.273 127.036 124.753C125.489 124.277 125.013 123.099 124.969 122.57C124.81 120.825 125.035 118.14 125.365 117.413L127.944 113.643C130.127 112.519 134.848 110.112 136.276 109.477C137.705 108.842 138.723 109.213 139.054 109.477C140.244 110.205 143.18 111.937 145.402 113.048C147.624 114.159 150.692 114.437 151.949 114.437C155.261 117.741 155.134 120.713 154.329 126.34C152.279 126.207 149.409 126.617 147.187 126.141C144.41 125.546 140.442 121.38 136.276 122.57C134.997 122.936 135.681 125.745 135.284 126.737C134.888 127.728 134.094 127.927 133.499 127.53Z" fill="#E1F7FE"/>
<path d="M140.244 116.619L134.293 119.595C133.697 119.925 132.467 120.825 132.309 121.777C132.259 122.075 132.247 122.497 132.258 122.967M138.062 113.643C136.475 114.238 133.063 115.548 132.11 116.024C131.158 116.5 130.127 117.148 129.73 117.413C129.598 117.479 129.293 117.849 129.135 118.801C128.936 119.991 128.341 123.166 128.539 123.761C128.697 124.234 128.98 125.459 129.189 126.141M132.258 122.967C132.282 123.999 132.416 125.261 132.507 125.943C132.639 126.34 133.023 127.213 133.499 127.53C134.094 127.927 134.888 127.728 135.284 126.737C135.681 125.745 134.997 122.936 136.276 122.57C140.442 121.38 144.41 125.546 147.187 126.141C149.409 126.617 152.279 126.207 154.329 126.34C155.134 120.713 155.261 117.741 151.949 114.437C150.692 114.437 147.624 114.159 145.402 113.048C143.18 111.937 140.244 110.205 139.054 109.477C138.723 109.213 137.705 108.842 136.276 109.477C134.848 110.112 130.127 112.519 127.944 113.643L125.365 117.413C125.035 118.14 124.81 120.825 124.969 122.57C125.013 123.099 125.489 124.277 127.036 124.753M132.258 122.967L131.515 124.753C131.581 124.951 131.753 125.507 131.912 126.141C132.11 126.935 131.317 127.332 130.523 127.53C129.73 127.728 129.531 126.935 129.333 126.538C129.292 126.457 129.243 126.317 129.189 126.141M134.689 111.659C134.491 111.659 128.341 114.834 128.143 115.032C127.944 115.23 127.151 116.817 126.754 118.404C126.357 119.991 126.159 122.372 126.159 122.967C126.159 123.248 126.574 124.004 127.036 124.753M129.189 126.141C128.757 126.617 128.179 126.34 127.944 126.141C127.7 125.789 127.357 125.273 127.036 124.753" stroke="#36464A" stroke-width="0.5"/>
<path d="M205.5 131L200.5 129C210 127 210.8 124.5 214.5 111.5C216.956 102.873 220.322 97 221 79C221.5 103 216.494 128.299 205.5 131Z" fill="#36464A"/>
<path d="M164 95L160.5 98.5C155.407 85.3929 154.823 77.7747 159.5 63.5C160.672 61.938 161.144 62.4727 161.476 62.0338C161.484 62.0225 161.492 62.0112 161.5 62C161.492 62.0119 161.484 62.0231 161.476 62.0338C158.58 66.1338 155.178 77.6602 164 95Z" fill="#36464A"/>
</g>
<defs>
<clipPath id="clip0_309_4173">
<path d="M0 4C0 1.79086 1.79086 0 4 0H251C253.209 0 255 1.79086 255 4V136C255 138.209 253.209 140 251 140H4C1.79086 140 0 138.209 0 136V4Z" fill="white"/>
</clipPath>
</defs>
</svg>
