<svg width="335" height="267" viewBox="0 0 335 267" fill="none" xmlns="http://www.w3.org/2000/svg">
<rect x="5" y="196" width="3" height="3" fill="#1C97D0"/>
<rect x="20" y="196" width="3" height="3" fill="#1C97D0"/>
<rect x="35" y="196" width="3" height="3" fill="#1C97D0"/>
<rect x="50" y="196" width="3" height="3" fill="#26C4F7"/>
<rect x="65" y="196" width="3" height="3" fill="#1C97D0"/>
<rect x="5" y="211" width="3" height="3" fill="white"/>
<rect x="20" y="211" width="3" height="3" fill="#1C97D0"/>
<rect x="35" y="211" width="3" height="3" fill="#1C97D0"/>
<rect x="50" y="211" width="3" height="3" fill="#1C97D0"/>
<rect x="65" y="211" width="3" height="3" fill="#1C97D0"/>
<rect x="5" y="226" width="3" height="3" fill="#1C97D0"/>
<rect x="20" y="226" width="3" height="3" fill="#1C97D0"/>
<rect x="35" y="226" width="3" height="3" fill="white"/>
<rect x="50" y="226" width="3" height="3" fill="#1C97D0"/>
<rect x="65" y="226" width="3" height="3" fill="#1C97D0"/>
<rect x="5" y="241" width="3" height="3" fill="#1C97D0"/>
<rect x="20" y="241" width="3" height="3" fill="#1C97D0"/>
<rect x="35" y="241" width="3" height="3" fill="#1C97D0"/>
<rect x="50" y="241" width="3" height="3" fill="#1C97D0"/>
<rect x="65" y="241" width="3" height="3" fill="#1C97D0"/>
<rect x="5" y="256" width="3" height="3" fill="#1C97D0"/>
<rect x="20" y="256" width="3" height="3" fill="#26C4F7"/>
<rect x="35" y="256" width="3" height="3" fill="#1C97D0"/>
<rect x="50" y="256" width="3" height="3" fill="#1C97D0"/>
<rect x="65" y="256" width="3" height="3" fill="#1C97D0"/>
</svg>
