<svg width="32" height="32" viewBox="0 0 32 32" fill="none" xmlns="http://www.w3.org/2000/svg">
<mask id="path-1-outside-1" maskUnits="userSpaceOnUse" x="0" y="0" width="32" height="31" fill="black">
<rect fill="white" width="32" height="31"/>
<path d="M6.20853 15.152L1.1933 17.426C1.15819 17.4426 1.12612 17.465 1.09841 17.492L1.07732 17.5164C1.05638 17.5394 1.03865 17.5652 1.0246 17.5929V17.6242C1.00909 17.6629 1.00076 17.7042 1 17.7458V24.2825C0.999835 24.349 1.01895 24.4142 1.05508 24.4703C1.09121 24.5263 1.14284 24.571 1.20384 24.5989L6.21907 26.8867C6.26534 26.9079 6.3157 26.9189 6.36668 26.9189C6.41766 26.9189 6.46803 26.9079 6.51429 26.8867L8.86551 25.8158L16.1863 29.9534C16.2397 29.9839 16.3003 30 16.362 30C16.4237 30 16.4843 29.9839 16.5377 29.9534L23.4578 25.9549L25.4857 26.8833C25.532 26.9045 25.5823 26.9154 25.6333 26.9154C25.6843 26.9154 25.7347 26.9045 25.7809 26.8833L30.7962 24.5954C30.8572 24.5675 30.9088 24.5229 30.9449 24.4668C30.9811 24.4107 31.0002 24.3455 31 24.279V17.7389C30.9992 17.6972 30.9909 17.656 30.9754 17.6172V17.5859C30.9614 17.5582 30.9436 17.5325 30.9227 17.5094L30.9016 17.4851C30.8739 17.458 30.8418 17.4357 30.8067 17.419L25.7844 15.152C25.7539 15.1408 25.722 15.1338 25.6896 15.1312V11.3865C25.6892 11.3258 25.6728 11.2663 25.6419 11.2138C25.6111 11.1614 25.5669 11.1178 25.5138 11.0875L21.6795 8.9144V3.63291C21.6787 3.59122 21.6704 3.54999 21.6549 3.51122V3.47993C21.6408 3.45222 21.6231 3.42649 21.6022 3.40343L21.5811 3.37909C21.5534 3.35202 21.5213 3.3297 21.4862 3.31303L16.4569 1.03215C16.4106 1.01097 16.3603 1 16.3093 1C16.2583 1 16.2079 1.01097 16.1617 1.03215L11.15 3.33042C11.1148 3.34708 11.0828 3.36941 11.0551 3.39648L11.034 3.42082C11.013 3.44388 10.9953 3.4696 10.9813 3.49731V3.5286C10.9657 3.56738 10.9574 3.6086 10.9567 3.6503V8.92135L7.09068 11.157C7.03704 11.1877 6.99254 11.2318 6.96169 11.2849C6.93083 11.338 6.9147 11.3983 6.91495 11.4595V15.3259L6.50726 15.152C6.46053 15.1303 6.40953 15.1191 6.3579 15.1191C6.30626 15.1191 6.25527 15.1303 6.20853 15.152ZM6.35614 15.8474L10.5314 17.7493L6.35262 19.6443L2.18088 17.7389L6.35614 15.8474ZM8.87957 25.0266L6.71111 26.014V20.2493L11.0164 18.2813V24.06L8.8866 25.0301L8.87957 25.0266ZM1.69236 18.2813L6.00469 20.2458V26.0245L1.69236 24.06V18.2813ZM20.9766 18.2813L25.2889 20.2458V26.0245L20.9766 24.06V18.2813ZM25.9918 26.0245V20.2493L30.3006 18.2813V24.06L25.9918 26.0245ZM29.8121 17.7389L25.6403 19.6443L21.4616 17.7389L25.6403 15.8474L29.8121 17.7389ZM11.6455 4.17879L15.9613 6.14327V11.9185L11.649 9.93662L11.6455 4.17879ZM16.6642 6.14327L20.9766 4.17879V9.93662L16.6642 11.9185V6.14327ZM16.3128 1.73102L20.4881 3.63291L16.3128 5.53828L12.1305 3.63291L16.3128 1.73102ZM7.60028 11.6751L10.9426 9.74539V10.1939C10.9424 10.2604 10.9615 10.3256 10.9977 10.3817C11.0338 10.4377 11.0854 10.4824 11.1464 10.5103L16.1617 12.7982C16.2079 12.8193 16.2583 12.8303 16.3093 12.8303C16.3603 12.8303 16.4106 12.8193 16.4569 12.7982L21.4721 10.5103C21.5331 10.4824 21.5848 10.4377 21.6209 10.3817C21.657 10.3256 21.6761 10.2604 21.676 10.1939V9.7141L24.9726 11.5777V15.3676L20.4775 17.426C20.4424 17.4426 20.4103 17.465 20.3826 17.492L20.3615 17.5129C20.3406 17.536 20.3229 17.5617 20.3088 17.5894V17.6207C20.2933 17.6595 20.285 17.7007 20.2842 17.7424V24.2825C20.284 24.349 20.3032 24.4142 20.3393 24.4703C20.3754 24.5263 20.427 24.571 20.4881 24.5989L22.6741 25.6003L16.3479 29.2511L9.63871 25.4542L11.519 24.5989C11.58 24.571 11.6316 24.5263 11.6677 24.4703C11.7039 24.4142 11.723 24.349 11.7228 24.2825V17.7389C11.7221 17.6972 11.7137 17.656 11.6982 17.6172V17.5859C11.6842 17.5582 11.6664 17.5325 11.6455 17.5094L11.6244 17.4886C11.5967 17.4615 11.5646 17.4392 11.5295 17.4225L7.6284 15.6458L7.60028 11.6751Z"/>
</mask>
<path d="M6.20853 15.152L1.1933 17.426C1.15819 17.4426 1.12612 17.465 1.09841 17.492L1.07732 17.5164C1.05638 17.5394 1.03865 17.5652 1.0246 17.5929V17.6242C1.00909 17.6629 1.00076 17.7042 1 17.7458V24.2825C0.999835 24.349 1.01895 24.4142 1.05508 24.4703C1.09121 24.5263 1.14284 24.571 1.20384 24.5989L6.21907 26.8867C6.26534 26.9079 6.3157 26.9189 6.36668 26.9189C6.41766 26.9189 6.46803 26.9079 6.51429 26.8867L8.86551 25.8158L16.1863 29.9534C16.2397 29.9839 16.3003 30 16.362 30C16.4237 30 16.4843 29.9839 16.5377 29.9534L23.4578 25.9549L25.4857 26.8833C25.532 26.9045 25.5823 26.9154 25.6333 26.9154C25.6843 26.9154 25.7347 26.9045 25.7809 26.8833L30.7962 24.5954C30.8572 24.5675 30.9088 24.5229 30.9449 24.4668C30.9811 24.4107 31.0002 24.3455 31 24.279V17.7389C30.9992 17.6972 30.9909 17.656 30.9754 17.6172V17.5859C30.9614 17.5582 30.9436 17.5325 30.9227 17.5094L30.9016 17.4851C30.8739 17.458 30.8418 17.4357 30.8067 17.419L25.7844 15.152C25.7539 15.1408 25.722 15.1338 25.6896 15.1312V11.3865C25.6892 11.3258 25.6728 11.2663 25.6419 11.2138C25.6111 11.1614 25.5669 11.1178 25.5138 11.0875L21.6795 8.9144V3.63291C21.6787 3.59122 21.6704 3.54999 21.6549 3.51122V3.47993C21.6408 3.45222 21.6231 3.42649 21.6022 3.40343L21.5811 3.37909C21.5534 3.35202 21.5213 3.3297 21.4862 3.31303L16.4569 1.03215C16.4106 1.01097 16.3603 1 16.3093 1C16.2583 1 16.2079 1.01097 16.1617 1.03215L11.15 3.33042C11.1148 3.34708 11.0828 3.36941 11.0551 3.39648L11.034 3.42082C11.013 3.44388 10.9953 3.4696 10.9813 3.49731V3.5286C10.9657 3.56738 10.9574 3.6086 10.9567 3.6503V8.92135L7.09068 11.157C7.03704 11.1877 6.99254 11.2318 6.96169 11.2849C6.93083 11.338 6.9147 11.3983 6.91495 11.4595V15.3259L6.50726 15.152C6.46053 15.1303 6.40953 15.1191 6.3579 15.1191C6.30626 15.1191 6.25527 15.1303 6.20853 15.152ZM6.35614 15.8474L10.5314 17.7493L6.35262 19.6443L2.18088 17.7389L6.35614 15.8474ZM8.87957 25.0266L6.71111 26.014V20.2493L11.0164 18.2813V24.06L8.8866 25.0301L8.87957 25.0266ZM1.69236 18.2813L6.00469 20.2458V26.0245L1.69236 24.06V18.2813ZM20.9766 18.2813L25.2889 20.2458V26.0245L20.9766 24.06V18.2813ZM25.9918 26.0245V20.2493L30.3006 18.2813V24.06L25.9918 26.0245ZM29.8121 17.7389L25.6403 19.6443L21.4616 17.7389L25.6403 15.8474L29.8121 17.7389ZM11.6455 4.17879L15.9613 6.14327V11.9185L11.649 9.93662L11.6455 4.17879ZM16.6642 6.14327L20.9766 4.17879V9.93662L16.6642 11.9185V6.14327ZM16.3128 1.73102L20.4881 3.63291L16.3128 5.53828L12.1305 3.63291L16.3128 1.73102ZM7.60028 11.6751L10.9426 9.74539V10.1939C10.9424 10.2604 10.9615 10.3256 10.9977 10.3817C11.0338 10.4377 11.0854 10.4824 11.1464 10.5103L16.1617 12.7982C16.2079 12.8193 16.2583 12.8303 16.3093 12.8303C16.3603 12.8303 16.4106 12.8193 16.4569 12.7982L21.4721 10.5103C21.5331 10.4824 21.5848 10.4377 21.6209 10.3817C21.657 10.3256 21.6761 10.2604 21.676 10.1939V9.7141L24.9726 11.5777V15.3676L20.4775 17.426C20.4424 17.4426 20.4103 17.465 20.3826 17.492L20.3615 17.5129C20.3406 17.536 20.3229 17.5617 20.3088 17.5894V17.6207C20.2933 17.6595 20.285 17.7007 20.2842 17.7424V24.2825C20.284 24.349 20.3032 24.4142 20.3393 24.4703C20.3754 24.5263 20.427 24.571 20.4881 24.5989L22.6741 25.6003L16.3479 29.2511L9.63871 25.4542L11.519 24.5989C11.58 24.571 11.6316 24.5263 11.6677 24.4703C11.7039 24.4142 11.723 24.349 11.7228 24.2825V17.7389C11.7221 17.6972 11.7137 17.656 11.6982 17.6172V17.5859C11.6842 17.5582 11.6664 17.5325 11.6455 17.5094L11.6244 17.4886C11.5967 17.4615 11.5646 17.4392 11.5295 17.4225L7.6284 15.6458L7.60028 11.6751Z" fill="#26C4F7"/>
<path d="M6.20853 15.152L1.1933 17.426C1.15819 17.4426 1.12612 17.465 1.09841 17.492L1.07732 17.5164C1.05638 17.5394 1.03865 17.5652 1.0246 17.5929V17.6242C1.00909 17.6629 1.00076 17.7042 1 17.7458V24.2825C0.999835 24.349 1.01895 24.4142 1.05508 24.4703C1.09121 24.5263 1.14284 24.571 1.20384 24.5989L6.21907 26.8867C6.26534 26.9079 6.3157 26.9189 6.36668 26.9189C6.41766 26.9189 6.46803 26.9079 6.51429 26.8867L8.86551 25.8158L16.1863 29.9534C16.2397 29.9839 16.3003 30 16.362 30C16.4237 30 16.4843 29.9839 16.5377 29.9534L23.4578 25.9549L25.4857 26.8833C25.532 26.9045 25.5823 26.9154 25.6333 26.9154C25.6843 26.9154 25.7347 26.9045 25.7809 26.8833L30.7962 24.5954C30.8572 24.5675 30.9088 24.5229 30.9449 24.4668C30.9811 24.4107 31.0002 24.3455 31 24.279V17.7389C30.9992 17.6972 30.9909 17.656 30.9754 17.6172V17.5859C30.9614 17.5582 30.9436 17.5325 30.9227 17.5094L30.9016 17.4851C30.8739 17.458 30.8418 17.4357 30.8067 17.419L25.7844 15.152C25.7539 15.1408 25.722 15.1338 25.6896 15.1312V11.3865C25.6892 11.3258 25.6728 11.2663 25.6419 11.2138C25.6111 11.1614 25.5669 11.1178 25.5138 11.0875L21.6795 8.9144V3.63291C21.6787 3.59122 21.6704 3.54999 21.6549 3.51122V3.47993C21.6408 3.45222 21.6231 3.42649 21.6022 3.40343L21.5811 3.37909C21.5534 3.35202 21.5213 3.3297 21.4862 3.31303L16.4569 1.03215C16.4106 1.01097 16.3603 1 16.3093 1C16.2583 1 16.2079 1.01097 16.1617 1.03215L11.15 3.33042C11.1148 3.34708 11.0828 3.36941 11.0551 3.39648L11.034 3.42082C11.013 3.44388 10.9953 3.4696 10.9813 3.49731V3.5286C10.9657 3.56738 10.9574 3.6086 10.9567 3.6503V8.92135L7.09068 11.157C7.03704 11.1877 6.99254 11.2318 6.96169 11.2849C6.93083 11.338 6.9147 11.3983 6.91495 11.4595V15.3259L6.50726 15.152C6.46053 15.1303 6.40953 15.1191 6.3579 15.1191C6.30626 15.1191 6.25527 15.1303 6.20853 15.152ZM6.35614 15.8474L10.5314 17.7493L6.35262 19.6443L2.18088 17.7389L6.35614 15.8474ZM8.87957 25.0266L6.71111 26.014V20.2493L11.0164 18.2813V24.06L8.8866 25.0301L8.87957 25.0266ZM1.69236 18.2813L6.00469 20.2458V26.0245L1.69236 24.06V18.2813ZM20.9766 18.2813L25.2889 20.2458V26.0245L20.9766 24.06V18.2813ZM25.9918 26.0245V20.2493L30.3006 18.2813V24.06L25.9918 26.0245ZM29.8121 17.7389L25.6403 19.6443L21.4616 17.7389L25.6403 15.8474L29.8121 17.7389ZM11.6455 4.17879L15.9613 6.14327V11.9185L11.649 9.93662L11.6455 4.17879ZM16.6642 6.14327L20.9766 4.17879V9.93662L16.6642 11.9185V6.14327ZM16.3128 1.73102L20.4881 3.63291L16.3128 5.53828L12.1305 3.63291L16.3128 1.73102ZM7.60028 11.6751L10.9426 9.74539V10.1939C10.9424 10.2604 10.9615 10.3256 10.9977 10.3817C11.0338 10.4377 11.0854 10.4824 11.1464 10.5103L16.1617 12.7982C16.2079 12.8193 16.2583 12.8303 16.3093 12.8303C16.3603 12.8303 16.4106 12.8193 16.4569 12.7982L21.4721 10.5103C21.5331 10.4824 21.5848 10.4377 21.6209 10.3817C21.657 10.3256 21.6761 10.2604 21.676 10.1939V9.7141L24.9726 11.5777V15.3676L20.4775 17.426C20.4424 17.4426 20.4103 17.465 20.3826 17.492L20.3615 17.5129C20.3406 17.536 20.3229 17.5617 20.3088 17.5894V17.6207C20.2933 17.6595 20.285 17.7007 20.2842 17.7424V24.2825C20.284 24.349 20.3032 24.4142 20.3393 24.4703C20.3754 24.5263 20.427 24.571 20.4881 24.5989L22.6741 25.6003L16.3479 29.2511L9.63871 25.4542L11.519 24.5989C11.58 24.571 11.6316 24.5263 11.6677 24.4703C11.7039 24.4142 11.723 24.349 11.7228 24.2825V17.7389C11.7221 17.6972 11.7137 17.656 11.6982 17.6172V17.5859C11.6842 17.5582 11.6664 17.5325 11.6455 17.5094L11.6244 17.4886C11.5967 17.4615 11.5646 17.4392 11.5295 17.4225L7.6284 15.6458L7.60028 11.6751Z" stroke="#26C4F7" stroke-width="0.6" mask="url(#path-1-outside-1)"/>
</svg>
