<svg width="32" height="32" viewBox="0 0 32 32" fill="none" xmlns="http://www.w3.org/2000/svg">
<g clip-path="url(#clip0)">
<path d="M7 10L16.8 14.2667M16.8 14.2667L26 10M16.8 14.2667V26" stroke="#26C4F7" stroke-width="1.5"/>
<path d="M16.6971 6.02879L7.12778 9.7343C7.05076 9.76413 7 9.83822 7 9.92081V21.0113C7 21.0872 7.04294 21.1565 7.11086 21.1903L16.6797 25.9543C16.7373 25.983 16.8052 25.9822 16.8621 25.9522L25.8933 21.1914C25.9589 21.1568 26 21.0887 26 21.0145V9.91794C26 9.83679 25.951 9.76368 25.8759 9.73289L16.8452 6.03024C16.7978 6.01082 16.7448 6.0103 16.6971 6.02879Z" stroke="#26C4F7" stroke-width="1.5"/>
<path d="M2.79904 23.384C2.93711 23.6231 2.85517 23.9289 2.61603 24.067C2.37688 24.2051 2.07108 24.1231 1.93301 23.884C1.79494 23.6448 1.87688 23.339 2.11603 23.201C2.35517 23.0629 2.66097 23.1448 2.79904 23.384Z" stroke="#26C4F7"/>
<path d="M16.8 1.5C16.5238 1.5 16.3 1.27614 16.3 1C16.3 0.723858 16.5238 0.5 16.8 0.5C17.0761 0.5 17.3 0.723858 17.3 1C17.3 1.27614 17.0761 1.5 16.8 1.5Z" stroke="#26C4F7"/>
<path d="M17 30.5C17.2761 30.5 17.5 30.7239 17.5 31C17.5 31.2761 17.2761 31.5 17 31.5C16.7239 31.5 16.5 31.2761 16.5 31C16.5 30.7239 16.7239 30.5 17 30.5Z" stroke="#26C4F7"/>
<path d="M2.84547 7.89905C2.7234 8.14675 2.42364 8.24858 2.17595 8.12651C1.92825 8.00444 1.82642 7.70468 1.94849 7.45699C2.07056 7.20929 2.37032 7.10745 2.61802 7.22953C2.86571 7.3516 2.96755 7.65136 2.84547 7.89905Z" stroke="#26C4F7"/>
<path d="M30.201 7.61603C30.0629 7.37688 30.1448 7.07108 30.384 6.93301C30.6231 6.79494 30.9289 6.87688 31.067 7.11603C31.2051 7.35517 31.1231 7.66097 30.884 7.79904C30.6448 7.93711 30.339 7.85517 30.201 7.61603Z" stroke="#26C4F7"/>
<path d="M30.0695 23.5219C30.2119 23.2853 30.5191 23.2089 30.7557 23.3513C30.9923 23.4936 31.0687 23.8009 30.9263 24.0375C30.7839 24.2741 30.4767 24.3505 30.2401 24.2081C30.0035 24.0657 29.9271 23.7585 30.0695 23.5219Z" stroke="#26C4F7"/>
</g>
<defs>
<clipPath id="clip0">
<rect width="32" height="32" fill="white"/>
</clipPath>
</defs>
</svg>
