<svg width="32" height="32" viewBox="0 0 32 32" fill="none" xmlns="http://www.w3.org/2000/svg">
<path fill-rule="evenodd" clip-rule="evenodd" d="M11.0487 14L11.9476 15.9176L12.9663 16.2172L14.8839 15.618L16.382 17.1161L15.7228 19.0337L16.1423 19.9925L18 20.9513V23.0487L16.1423 23.9476L15.7828 24.9663L16.382 26.8839L14.8839 28.382L12.9663 27.7228L12.0075 28.1423L11.0487 30H8.95131L8.05243 28.1423L7.09363 27.7828L5.1161 28.382L3.61798 26.8839L4.33708 24.9663L3.85768 24.0075L2.05993 23.0487L2 20.9513L3.9176 20.0524L4.21723 19.0936L3.61798 17.1161L5.1161 15.618L7.03371 16.3371L7.99251 15.8577L8.95131 14.0599L11.0487 14ZM10.03 19.0936C11.588 19.0936 12.9064 20.412 12.9064 22.03C12.9064 23.588 11.588 24.9064 10.03 24.9064C8.41199 24.9064 7.09363 23.588 7.09363 22.03C7.09363 20.412 8.41199 19.0936 10.03 19.0936Z" stroke="#26C4F7" stroke-width="1.5"/>
<path fill-rule="evenodd" clip-rule="evenodd" d="M21.1581 5.56599L21.3616 6.86362L21.9164 7.21837L23.1622 7.19334L23.7952 8.34484L23.0707 9.37283L23.1546 10.0165L24.0951 10.909L23.7321 12.1581L22.4701 12.372L22.0797 12.9165L22.1047 14.1622L20.9532 14.7952L19.9252 14.0707L19.2816 14.1546L18.3891 15.0951L17.14 14.7321L16.9261 13.4702L16.4173 13.0901L15.1358 13.1048L14.5029 11.9532L15.263 10.9356L15.1434 10.2816L14.2387 9.39948L14.566 8.13998L15.8636 7.9365L16.208 7.41732L16.1933 6.13586L17.3448 5.5029L18.3624 6.26304L19.0164 6.14345L19.8986 5.2387L21.1581 5.56599ZM19.6699 8.42329C20.5978 8.69293 21.1548 9.70626 20.8748 10.6699C20.6051 11.5978 19.5918 12.1548 18.6639 11.8852C17.7003 11.6052 17.1433 10.5918 17.4129 9.66391C17.6929 8.70029 18.7062 8.14328 19.6699 8.42329Z" fill="#26C4F7"/>
<path d="M3.5 7H6.5V12.5M10 4V8H13M20.5 21H23V26.5M26 16V22H29" stroke="#26C4F7"/>
<circle cx="2" cy="7" r="1.5" stroke="#26C4F7"/>
<circle cx="10" cy="2" r="1.5" stroke="#26C4F7"/>
<circle cx="23" cy="28" r="1.5" stroke="#26C4F7"/>
<circle cx="30" cy="22" r="1.5" stroke="#26C4F7"/>
</svg>
