<svg width="32" height="32" viewBox="0 0 32 32" fill="none" xmlns="http://www.w3.org/2000/svg">
<g clip-path="url(#clip0)">
<mask id="path-1-inside-1" fill="white">
<rect y="11" width="10" height="10" rx="1"/>
</mask>
<rect y="11" width="10" height="10" rx="1" stroke="#26C4F7" stroke-width="3" mask="url(#path-1-inside-1)"/>
<mask id="path-2-inside-2" fill="white">
<rect x="24" width="8" height="8" rx="1"/>
</mask>
<rect x="24" width="8" height="8" rx="1" stroke="#26C4F7" stroke-width="3" mask="url(#path-2-inside-2)"/>
<mask id="path-3-inside-3" fill="white">
<rect x="24" y="12" width="8" height="8" rx="1"/>
</mask>
<rect x="24" y="12" width="8" height="8" rx="1" stroke="#26C4F7" stroke-width="3" mask="url(#path-3-inside-3)"/>
<mask id="path-4-inside-4" fill="white">
<rect x="24" y="24" width="8" height="8" rx="1"/>
</mask>
<rect x="24" y="24" width="8" height="8" rx="1" stroke="#26C4F7" stroke-width="3" mask="url(#path-4-inside-4)"/>
<path fill-rule="evenodd" clip-rule="evenodd" d="M18.5 12.4394L21.5303 15.4697C21.8232 15.7626 21.8232 16.2375 21.5303 16.5303L18.5 19.5606C18.2071 19.8535 17.7322 19.8535 17.4393 19.5606C17.1464 19.2677 17.1464 18.7929 17.4393 18.5L19.1893 16.75L12.75 16.75C12.3358 16.75 12 16.4142 12 16C12 15.5858 12.3358 15.25 12.75 15.25L19.1893 15.25L17.4393 13.5001C17.1464 13.2072 17.1464 12.7323 17.4393 12.4394C17.7322 12.1465 18.2071 12.1465 18.5 12.4394Z" fill="#26C4F7"/>
<path fill-rule="evenodd" clip-rule="evenodd" d="M13.7515 3.45342L18.037 3.4534C18.4512 3.4534 18.787 3.78919 18.787 4.2034L18.787 8.4889C18.787 8.90312 18.4512 9.2389 18.037 9.2389C17.6228 9.2389 17.287 8.90312 17.287 8.4889L17.287 6.01406L12.7337 10.5674C12.4408 10.8602 11.966 10.8602 11.6731 10.5674C11.3802 10.2745 11.3802 9.79959 11.6731 9.5067L16.2264 4.9534L13.7515 4.95342C13.3373 4.95342 13.0015 4.61764 13.0015 4.20342C13.0015 3.78921 13.3373 3.45342 13.7515 3.45342Z" fill="#26C4F7"/>
<path fill-rule="evenodd" clip-rule="evenodd" d="M13.7515 29.7871L18.037 29.7871C18.4512 29.7871 18.787 29.4513 18.787 29.0371L18.787 24.7516C18.787 24.3374 18.4512 24.0016 18.037 24.0016C17.6228 24.0016 17.287 24.3374 17.287 24.7516L17.287 27.2264L12.7337 22.6731C12.4408 22.3802 11.966 22.3802 11.6731 22.6731C11.3802 22.966 11.3802 23.4409 11.6731 23.7338L16.2264 28.2871L13.7515 28.2871C13.3373 28.2871 13.0015 28.6228 13.0015 29.0371C13.0015 29.4513 13.3373 29.7871 13.7515 29.7871Z" fill="#26C4F7"/>
</g>
<defs>
<clipPath id="clip0">
<rect width="32" height="32" fill="white"/>
</clipPath>
</defs>
</svg>
