<svg width="32" height="32" viewBox="0 0 32 32" fill="none" xmlns="http://www.w3.org/2000/svg">
<path fill-rule="evenodd" clip-rule="evenodd" d="M1.5 9H26.5V19.5844L28 22.0344V9V7.5H26.5H1.5H0V9V24C0 24.5523 0.447715 25 1 25H16.1843L17.1026 23.5H1.5V9Z" fill="#26C4F7"/>
<mask id="path-2-inside-1" fill="white">
<path d="M0 4C0 3.44772 0.447715 3 1 3H27C27.5523 3 28 3.44772 28 4V9H0V4Z"/>
</mask>
<path d="M0 4C0 3.44772 0.447715 3 1 3H27C27.5523 3 28 3.44772 28 4V9H0V4Z" stroke="#26C4F7" stroke-width="3" mask="url(#path-2-inside-1)"/>
<path d="M19.5 6.25C19.5 6.66421 19.1642 7 18.75 7C18.3358 7 18 6.66421 18 6.25C18 5.83579 18.3358 5.5 18.75 5.5C19.1642 5.5 19.5 5.83579 19.5 6.25Z" fill="#26C4F7"/>
<path d="M22.5 6.25C22.5 6.66421 22.1642 7 21.75 7C21.3358 7 21 6.66421 21 6.25C21 5.83579 21.3358 5.5 21.75 5.5C22.1642 5.5 22.5 5.83579 22.5 6.25Z" fill="#26C4F7"/>
<path d="M25.5 6.25C25.5 6.66421 25.1642 7 24.75 7C24.3358 7 24 6.66421 24 6.25C24 5.83579 24.3358 5.5 24.75 5.5C25.1642 5.5 25.5 5.83579 25.5 6.25Z" fill="#26C4F7"/>
<path d="M22.5999 15.9577C22.6777 15.8306 22.8225 15.75 23 15.75C23.1775 15.75 23.3223 15.8306 23.4001 15.9577L31.1977 28.6935C31.2704 28.8123 31.2643 28.9337 31.1977 29.0423C31.129 29.1546 30.9932 29.25 30.7977 29.25H15.2023C15.0068 29.25 14.871 29.1546 14.8023 29.0423C14.7357 28.9337 14.7296 28.8123 14.8023 28.6935L22.5999 15.9577Z" stroke="#26C4F7" stroke-width="1.5"/>
<path d="M22 27.0651C22 26.6911 22.1733 26.4127 22.52 26.2299C22.6711 26.1551 22.8311 26.1177 23 26.1177C23.4 26.1177 23.6933 26.2798 23.88 26.6039C23.96 26.7452 24 26.8989 24 27.0651C24 27.4474 23.8222 27.7216 23.4667 27.8878C23.3244 27.9626 23.1689 28 23 28C22.5911 28 22.2978 27.8338 22.12 27.5014C22.04 27.3601 22 27.2147 22 27.0651ZM23.02 25.0183C22.545 25.0183 22.16 24.6332 22.16 24.1583V19.86C22.16 19.385 22.545 19 23.02 19C23.495 19 23.88 19.385 23.88 19.86V24.1583C23.88 24.6332 23.495 25.0183 23.02 25.0183Z" fill="#26C4F7"/>
</svg>
