<svg width="32" height="32" viewBox="0 0 32 32" fill="none" xmlns="http://www.w3.org/2000/svg">
<g clip-path="url(#clip0)">
<path d="M-17.25 5.75H13.25V25C13.25 25.1381 13.1381 25.25 13 25.25H-17C-17.1381 25.25 -17.25 25.1381 -17.25 25V5.75Z" stroke="white" stroke-width="1.5"/>
<path d="M-17.25 1C-17.25 0.861929 -17.1381 0.75 -17 0.75H13C13.1381 0.75 13.25 0.861929 13.25 1V5.75H-17.25V1Z" stroke="white" stroke-width="1.5"/>
<path d="M5.5 3.25C5.5 3.66421 5.16421 4 4.75 4C4.33579 4 4 3.66421 4 3.25C4 2.83579 4.33579 2.5 4.75 2.5C5.16421 2.5 5.5 2.83579 5.5 3.25Z" fill="white"/>
<path d="M8.5 3.25C8.5 3.66421 8.16421 4 7.75 4C7.33579 4 7 3.66421 7 3.25C7 2.83579 7.33579 2.5 7.75 2.5C8.16421 2.5 8.5 2.83579 8.5 3.25Z" fill="white"/>
<path d="M11.5 3.25C11.5 3.66421 11.1642 4 10.75 4C10.3358 4 10 3.66421 10 3.25C10 2.83579 10.3358 2.5 10.75 2.5C11.1642 2.5 11.5 2.83579 11.5 3.25Z" fill="white"/>
<path d="M19.75 12.75H50.25V31C50.25 31.1381 50.1381 31.25 50 31.25H20C19.8619 31.25 19.75 31.1381 19.75 31V12.75Z" stroke="white" stroke-width="1.5"/>
<path d="M19.75 8C19.75 7.86193 19.8619 7.75 20 7.75H50C50.1381 7.75 50.25 7.86193 50.25 8V12.75H19.75V8Z" stroke="white" stroke-width="1.5"/>
<path d="M6.5 14H1V16.5H6.5V18.5L11 15.5L6.5 12V14Z" fill="white"/>
<path d="M26.5 20H32V22.5H26.5V24.5L22 21.5L26.5 18V20Z" fill="white"/>
</g>
<defs>
<clipPath id="clip0">
<rect width="32" height="32" fill="white"/>
</clipPath>
</defs>
</svg>
