<svg width="32" height="28" viewBox="0 0 32 28" fill="none" xmlns="http://www.w3.org/2000/svg">
<path d="M0.75 5.75H31.25V27C31.25 27.1381 31.1381 27.25 31 27.25H1C0.861929 27.25 0.75 27.1381 0.75 27V5.75Z" stroke="white" stroke-width="1.5"/>
<path d="M0.75 1C0.75 0.861929 0.861929 0.75 1 0.75H31C31.1381 0.75 31.25 0.861929 31.25 1V5.75H0.75V1Z" stroke="white" stroke-width="1.5"/>
<path d="M23.5 3.25C23.5 3.66421 23.1642 4 22.75 4C22.3358 4 22 3.66421 22 3.25C22 2.83579 22.3358 2.5 22.75 2.5C23.1642 2.5 23.5 2.83579 23.5 3.25Z" fill="white"/>
<path d="M26.5 3.25C26.5 3.66421 26.1642 4 25.75 4C25.3358 4 25 3.66421 25 3.25C25 2.83579 25.3358 2.5 25.75 2.5C26.1642 2.5 26.5 2.83579 26.5 3.25Z" fill="white"/>
<path d="M29.5 3.25C29.5 3.66421 29.1642 4 28.75 4C28.3358 4 28 3.66421 28 3.25C28 2.83579 28.3358 2.5 28.75 2.5C29.1642 2.5 29.5 2.83579 29.5 3.25Z" fill="white"/>
</svg>
