<svg width="20" height="21" viewBox="0 0 20 21" fill="none" xmlns="http://www.w3.org/2000/svg">
<path d="M3.33337 14.4999V8.40587C3.33337 8.37508 3.34189 8.34489 3.358 8.31866C3.37411 8.29242 3.39716 8.27115 3.42462 8.25722C3.45208 8.24329 3.48285 8.23723 3.51354 8.23973C3.54423 8.24222 3.57362 8.25316 3.59847 8.27135L8.91768 12.1644C9.23169 12.3947 9.61096 12.5188 10.0004 12.5187C10.3898 12.5186 10.769 12.3943 11.0829 12.1639L16.4016 8.27135C16.4265 8.25317 16.4558 8.24222 16.4865 8.23973C16.5172 8.23723 16.548 8.24328 16.5754 8.25721C16.6029 8.27114 16.626 8.2924 16.6421 8.31864C16.6582 8.34488 16.6667 8.37506 16.6667 8.40585V14.4999C16.6667 14.7651 16.5613 15.0195 16.3738 15.207C16.1863 15.3946 15.9319 15.4999 15.6667 15.4999H4.33337C4.06816 15.4999 3.8138 15.3946 3.62627 15.207C3.43873 15.0195 3.33337 14.7651 3.33337 14.4999ZM3.40156 7.30111L9.31092 11.626C9.51066 11.7729 9.75211 11.8521 10 11.8521C10.248 11.8521 10.4894 11.7729 10.6892 11.626L16.5985 7.30111C16.6196 7.28561 16.6368 7.26536 16.6487 7.24199C16.6605 7.21862 16.6667 7.19279 16.6667 7.16659V6.83325C16.6664 6.56812 16.561 6.31394 16.3735 6.12647C16.186 5.93899 15.9318 5.83354 15.6667 5.83325H4.33337C4.06825 5.83354 3.81406 5.93899 3.62659 6.12647C3.43911 6.31394 3.33366 6.56812 3.33337 6.83325V7.16659C3.33339 7.19279 3.33956 7.21862 3.35141 7.24199C3.36326 7.26536 3.38044 7.28561 3.40156 7.30111Z" fill="#F1F8FA"/>
</svg>
