<svg width="17" height="17" viewBox="0 0 17 17" fill="none" xmlns="http://www.w3.org/2000/svg">
<path d="M8.06491 0.5C3.61143 0.5 0.00012207 4.17221 0.00012207 8.70247C0.00012207 12.3266 2.31093 15.4013 5.51531 16.4859C5.91837 16.5618 6.06634 16.308 6.06634 16.0913C6.06634 15.8957 6.05886 15.2496 6.05539 14.5642C3.81176 15.0603 3.33832 13.5964 3.33832 13.5964C2.97146 12.6482 2.44288 12.3961 2.44288 12.3961C1.71116 11.887 2.49803 11.8975 2.49803 11.8975C3.30788 11.9552 3.7343 12.7428 3.7343 12.7428C4.4536 13.9968 5.62095 13.6343 6.08116 13.4247C6.15355 12.8946 6.36255 12.5325 6.59319 12.3278C4.80189 12.1204 2.91885 11.4171 2.91885 8.27406C2.91885 7.37852 3.23389 6.64679 3.74979 6.07236C3.66606 5.86563 3.39001 5.03148 3.82792 3.90163C3.82792 3.90163 4.50515 3.68118 6.04631 4.74243C6.68962 4.56069 7.37953 4.46955 8.06491 4.46642C8.75028 4.46955 9.44073 4.56069 10.0852 4.74243C11.6245 3.68118 12.3008 3.90163 12.3008 3.90163C12.7398 5.03148 12.4636 5.86563 12.3799 6.07236C12.897 6.64679 13.2099 7.37852 13.2099 8.27406C13.2099 11.4245 11.3232 12.1182 9.52741 12.3213C9.81668 12.5758 10.0744 13.075 10.0744 13.8403C10.0744 14.9377 10.0651 15.821 10.0651 16.0913C10.0651 16.3096 10.2102 16.5654 10.619 16.4848C13.8217 15.399 16.1296 12.3254 16.1296 8.70247C16.1296 4.17221 12.5188 0.5 8.06491 0.5Z" fill="#7DE2FF"/>
<path d="M3.05473 12.277C3.03697 12.3179 2.97393 12.33 2.91651 12.302C2.85801 12.2752 2.82516 12.2197 2.84412 12.1788C2.86148 12.1368 2.92465 12.1253 2.98301 12.1531C3.04164 12.18 3.07503 12.2361 3.05473 12.277Z" fill="#7DE2FF"/>
<path d="M3.38122 12.6476C3.34276 12.6839 3.26757 12.667 3.21656 12.6097C3.16381 12.5525 3.15392 12.4761 3.19292 12.4392C3.23258 12.403 3.3055 12.42 3.35839 12.4771C3.41114 12.535 3.42142 12.6109 3.38122 12.6476Z" fill="#7DE2FF"/>
<path d="M3.69926 13.1199C3.64985 13.1548 3.56905 13.1221 3.51911 13.0492C3.46969 12.9762 3.46969 12.8887 3.52017 12.8537C3.57025 12.8187 3.64985 12.8502 3.70047 12.9226C3.74975 12.9966 3.74975 13.0842 3.69926 13.1199Z" fill="#7DE2FF"/>
<path d="M4.13498 13.5764C4.09077 13.626 3.99662 13.6127 3.92771 13.545C3.85719 13.4789 3.83756 13.385 3.8819 13.3354C3.92664 13.2857 4.02133 13.2997 4.09077 13.3668C4.16075 13.4328 4.18212 13.5274 4.13498 13.5764Z" fill="#7DE2FF"/>
<path d="M4.73591 13.8413C4.71641 13.9055 4.62573 13.9347 4.53438 13.9074C4.44317 13.8793 4.38347 13.804 4.4019 13.7391C4.42087 13.6745 4.51195 13.644 4.60396 13.6732C4.69504 13.7012 4.75487 13.7759 4.73591 13.8413Z" fill="#7DE2FF"/>
<path d="M5.39588 13.8905C5.39815 13.9581 5.32069 14.0142 5.2248 14.0153C5.12838 14.0176 5.05038 13.9629 5.04932 13.8963C5.04932 13.828 5.12504 13.7724 5.22146 13.7708C5.31735 13.7689 5.39588 13.8232 5.39588 13.8905Z" fill="#7DE2FF"/>
<path d="M6.01011 13.7842C6.0216 13.8502 5.95495 13.918 5.85973 13.9359C5.76612 13.9535 5.67944 13.9127 5.66756 13.8472C5.65594 13.7796 5.72378 13.7118 5.81726 13.6943C5.91262 13.6775 5.99796 13.7171 6.01011 13.7842Z" fill="#7DE2FF"/>
</svg>
