<svg width="21" height="20" viewBox="0 0 21 20" fill="none" xmlns="http://www.w3.org/2000/svg">
<path fill-rule="evenodd" clip-rule="evenodd" d="M6.45348 3.63162C6.45348 4.53861 5.77076 5.26436 4.67454 5.26436H4.65445C3.59897 5.26436 2.91663 4.53861 2.91663 3.63162C2.91663 2.70544 3.61975 2 4.69526 2C5.77076 2 6.43308 2.70544 6.45348 3.63162ZM6.24664 6.55364V15.9997H3.10275V6.55364H6.24664ZM17.5845 15.9997L17.5846 10.5836C17.5846 7.68215 16.0336 6.33178 13.9648 6.33178C12.2956 6.33178 11.5483 7.24862 11.131 7.8918V6.55384H7.98673C8.02817 7.44022 7.98673 15.9999 7.98673 15.9999H11.131V10.7245C11.131 10.4421 11.1514 10.1605 11.2345 9.95839C11.4617 9.39439 11.9791 8.81046 12.8477 8.81046C13.9858 8.81046 14.4407 9.67664 14.4407 10.946V15.9997H17.5845Z" fill="#F1F8FA"/>
</svg>
