<svg width="16" height="16" viewBox="0 0 16 16" fill="none" xmlns="http://www.w3.org/2000/svg">
<path d="M1.28246 1.28247C1.47772 1.08721 1.79431 1.08721 1.98957 1.28247L7.29285 6.58576L6.58574 7.29286L1.28246 1.98958C1.0872 1.79432 1.0872 1.47774 1.28246 1.28247ZM7.29285 7.99997L7.99996 7.29286L8.70706 7.99997L7.99996 8.70708L7.29285 7.99997ZM9.41417 7.29286L8.70706 6.58576L14.0104 1.28246C14.2056 1.0872 14.5222 1.0872 14.7175 1.28246C14.9127 1.47773 14.9127 1.79431 14.7175 1.98957L9.41417 7.29286ZM8.70706 9.41418L9.41417 8.70708L14.7175 14.0104C14.9128 14.2057 14.9128 14.5222 14.7175 14.7175C14.5222 14.9128 14.2056 14.9128 14.0104 14.7175L8.70706 9.41418ZM6.58574 8.70708L7.29285 9.41418L1.98954 14.7175C1.79428 14.9128 1.47769 14.9128 1.28243 14.7175C1.08717 14.5222 1.08717 14.2056 1.28243 14.0104L6.58574 8.70708Z" fill="#0E84BC" stroke="#0E84BC"/>
</svg>
