<svg width="20" height="21" viewBox="0 0 20 21" fill="none" xmlns="http://www.w3.org/2000/svg">
<path d="M6.64362 12.4514C6.64362 13.179 6.04931 13.7733 5.32181 13.7733C4.5943 13.7733 4 13.179 4 12.4514C4 11.7239 4.5943 11.1296 5.32181 11.1296H6.64362V12.4514Z" fill="#848484"/>
<path d="M7.30969 12.4514C7.30969 11.7239 7.90399 11.1296 8.6315 11.1296C9.35901 11.1296 9.95331 11.7239 9.95331 12.4514V15.7611C9.95331 16.4886 9.35901 17.0829 8.6315 17.0829C7.90399 17.0829 7.30969 16.4886 7.30969 15.7611V12.4514Z" fill="#848484"/>
<path d="M8.6315 7.14362C7.90399 7.14362 7.30969 6.54931 7.30969 5.82181C7.30969 5.0943 7.90399 4.5 8.6315 4.5C9.35901 4.5 9.95331 5.0943 9.95331 5.82181V7.14362H8.6315Z" fill="#848484"/>
<path d="M8.63145 7.80957C9.35896 7.80957 9.95326 8.40387 9.95326 9.13138C9.95326 9.85888 9.35896 10.4532 8.63145 10.4532H5.32181C4.5943 10.4532 4 9.85888 4 9.13138C4 8.40387 4.5943 7.80957 5.32181 7.80957H8.63145Z" fill="#848484"/>
<path d="M13.9392 9.13138C13.9392 8.40387 14.5335 7.80957 15.261 7.80957C15.9885 7.80957 16.5828 8.40387 16.5828 9.13138C16.5828 9.85888 15.9885 10.4532 15.261 10.4532H13.9392V9.13138Z" fill="#848484"/>
<path d="M13.2731 9.13145C13.2731 9.85896 12.6788 10.4533 11.9513 10.4533C11.2238 10.4533 10.6295 9.85896 10.6295 9.13145V5.82181C10.6295 5.0943 11.2238 4.5 11.9513 4.5C12.6788 4.5 13.2731 5.0943 13.2731 5.82181V9.13145Z" fill="#848484"/>
<path d="M11.9513 14.4392C12.6788 14.4392 13.2731 15.0335 13.2731 15.761C13.2731 16.4885 12.6788 17.0828 11.9513 17.0828C11.2238 17.0828 10.6295 16.4885 10.6295 15.761V14.4392H11.9513Z" fill="#848484"/>
<path d="M11.9513 13.7733C11.2238 13.7733 10.6295 13.179 10.6295 12.4514C10.6295 11.7239 11.2238 11.1296 11.9513 11.1296H15.261C15.9885 11.1296 16.5828 11.7239 16.5828 12.4514C16.5828 13.179 15.9885 13.7733 15.261 13.7733H11.9513Z" fill="#848484"/>
</svg>
