<svg width="20" height="21" viewBox="0 0 20 21" fill="none" xmlns="http://www.w3.org/2000/svg">
<path fill-rule="evenodd" clip-rule="evenodd" d="M14.2563 17.0194C14.4709 17.1714 14.7476 17.2094 14.9943 17.116C15.2409 17.022 15.4223 16.8114 15.4769 16.556C16.0563 13.8334 17.4616 6.94202 17.9889 4.46535C18.0289 4.27868 17.9623 4.08468 17.8156 3.96002C17.6689 3.83535 17.4656 3.79935 17.2843 3.86668C14.4889 4.90135 5.88026 8.13135 2.3616 9.43335C2.13827 9.51602 1.99293 9.73068 2.00027 9.96602C2.00827 10.202 2.16693 10.4067 2.3956 10.4754C3.9736 10.9474 6.04493 11.604 6.04493 11.604C6.04493 11.604 7.01293 14.5274 7.5176 16.014C7.58093 16.2007 7.72693 16.3474 7.9196 16.398C8.1116 16.448 8.31693 16.3954 8.46026 16.26C9.27093 15.4947 10.5243 14.3113 10.5243 14.3113C10.5243 14.3113 12.9056 16.0574 14.2563 17.0194ZM6.91627 11.2347L8.0356 14.9267L8.28426 12.5887C8.28426 12.5887 12.6089 8.68802 15.0743 6.46468C15.1463 6.39935 15.1563 6.29002 15.0963 6.21335C15.0369 6.13668 14.9276 6.11868 14.8456 6.17068C11.9883 7.99535 6.91627 11.2347 6.91627 11.2347Z" fill="#7DE2FF"/>
</svg>
