<svg width="12" height="12" viewBox="0 0 12 12" fill="none" xmlns="http://www.w3.org/2000/svg">
<path fill-rule="evenodd" clip-rule="evenodd" d="M6.78652 0L7.46067 1.4382L8.22472 1.66292L9.66292 1.21348L10.7865 2.33708L10.2921 3.77528L10.6067 4.49438L12 5.21348V6.78652L10.6067 7.46067L10.3371 8.22472L10.7865 9.66292L9.66292 10.7865L8.22472 10.2921L7.50562 10.6067L6.78652 12H5.21348L4.53933 10.6067L3.82022 10.3371L2.33708 10.7865L1.21348 9.66292L1.75281 8.22472L1.39326 7.50562L0.0449438 6.78652L0 5.21348L1.4382 4.53933L1.66292 3.82022L1.21348 2.33708L2.33708 1.21348L3.77528 1.75281L4.49438 1.39326L5.21348 0.0449438L6.78652 0ZM6.02247 3.82022C7.19101 3.82022 8.17978 4.80899 8.17978 6.02247C8.17978 7.19101 7.19101 8.17978 6.02247 8.17978C4.80899 8.17978 3.82022 7.19101 3.82022 6.02247C3.82022 4.80899 4.80899 3.82022 6.02247 3.82022Z" fill="#26C4F7"/>
</svg>
