<svg width="21" height="20" viewBox="0 0 21 20" fill="none" xmlns="http://www.w3.org/2000/svg">
<path d="M9.7708 6.73825L9.80438 7.29189L9.24479 7.2241C7.20791 6.96423 5.42843 6.08293 3.91756 4.6028L3.17891 3.86838L2.98865 4.41072C2.58575 5.61968 2.84316 6.89643 3.68253 7.75513C4.1302 8.22968 4.02948 8.29747 3.25725 8.015C2.98865 7.92462 2.75363 7.85682 2.73124 7.89072C2.6529 7.96981 2.9215 8.99799 3.13414 9.40474C3.42513 9.96968 4.01828 10.5233 4.6674 10.851L5.21579 11.1108L4.56668 11.1221C3.93994 11.1221 3.91756 11.1334 3.98471 11.3707C4.20854 12.1051 5.09268 12.8847 6.07755 13.2237L6.77143 13.461L6.16708 13.8225C5.27175 14.3423 4.21973 14.636 3.16772 14.6586C2.66409 14.6699 2.25 14.7151 2.25 14.749C2.25 14.862 3.61538 15.4947 4.40999 15.7433C6.79382 16.4777 9.62531 16.1614 11.7517 14.9072C13.2626 14.0146 14.7735 12.2407 15.4786 10.5233C15.8591 9.60812 16.2396 7.93591 16.2396 7.13371C16.2396 6.61397 16.2732 6.54617 16.8999 5.92475C17.2692 5.56319 17.6162 5.16773 17.6833 5.05475C17.7952 4.84007 17.784 4.84007 17.2133 5.03215C16.262 5.37111 16.1277 5.32592 16.5977 4.81747C16.9447 4.45592 17.3588 3.80059 17.3588 3.60851C17.3588 3.57462 17.1909 3.63111 17.0006 3.7328C16.7992 3.84579 16.3515 4.01527 16.0158 4.11695L15.4114 4.30903L14.863 3.93618C14.5608 3.7328 14.1356 3.50683 13.9117 3.43903C13.3409 3.28085 12.468 3.30345 11.9532 3.48423C10.5542 3.99267 9.67008 5.30332 9.7708 6.73825Z" fill="#848484"/>
</svg>
