<svg width="32" height="32" viewBox="0 0 32 32" fill="none" xmlns="http://www.w3.org/2000/svg">
<path fill-rule="evenodd" clip-rule="evenodd" d="M15.8393 13.0229C14.4443 13.0229 13.3132 14.1536 13.3132 15.5489C13.3132 16.9439 14.4443 18.075 15.8393 18.075C17.2343 18.075 18.3654 16.9439 18.3654 15.5489C18.3654 14.1536 17.2343 13.0229 15.8393 13.0229ZM12.3946 6.59286C13.1558 6.59286 13.7725 5.97619 13.7725 5.215C13.7725 4.45412 13.1558 3.83714 12.3946 3.83714C11.6334 3.83714 11.0168 4.45412 11.0168 5.215C11.0168 5.97619 11.6334 6.59286 12.3946 6.59286ZM3.68932 13.9537C4.34824 14.3343 5.19088 14.1083 5.57117 13.4491C5.95146 12.7902 5.7258 11.9475 5.06718 11.5672C4.40795 11.1869 3.56501 11.4126 3.18472 12.0712C2.80443 12.7305 3.03009 13.5731 3.68932 13.9537ZM25.2133 15.7722C25.2626 15.718 25.3174 15.6638 25.3655 15.6099C25.0945 15.5073 24.8453 15.3542 24.6276 15.1527C24.6263 15.154 24.6251 15.1552 24.6239 15.1564C23.7059 14.2335 22.6254 13.3122 21.4086 12.4304C21.2705 11.1031 21.0525 9.85196 20.7668 8.70833C23.7715 7.99399 26.097 8.22333 26.8615 9.54699C27.1497 10.0467 27.1791 10.6655 27.0064 11.3575C27.2783 11.4641 27.5281 11.622 27.7452 11.8284C28.0891 10.7806 28.0891 9.83695 27.6567 9.08801C26.7136 7.45418 23.9849 7.09685 20.5411 7.87672C19.5028 4.32429 17.7848 2 15.8393 2C15.0055 2 14.2155 2.43602 13.5006 3.20302C13.7507 3.34081 13.9724 3.52361 14.1546 3.74131C14.68 3.21833 15.2459 2.91857 15.8393 2.91857C17.4211 2.91857 18.8249 4.94923 19.7043 8.08646C18.5766 8.39143 17.3868 8.80968 16.1663 9.33694C14.7563 8.67343 13.3741 8.15229 12.0707 7.77874C12.0982 7.68627 12.1233 7.58859 12.1518 7.49827C11.8597 7.46765 11.5844 7.3813 11.3352 7.25117C11.3024 7.35068 11.2737 7.45754 11.2418 7.5592C7.64163 6.67921 4.76527 7.00438 3.79189 8.69057C3.4707 9.24662 3.3917 9.91197 3.50806 10.6453C3.77658 10.5348 4.06287 10.4763 4.35498 10.4729C4.30415 9.97841 4.36876 9.52862 4.58738 9.14986C5.37857 7.77874 7.84249 7.57941 11.0024 8.38836C10.6564 9.68723 10.3998 11.1321 10.2501 12.6784C9.12053 13.4828 8.10306 14.322 7.2197 15.1674C6.86207 14.8055 6.53322 14.4457 6.23591 14.0909C6.06628 14.3282 5.86083 14.5241 5.6272 14.6766C5.92696 15.0404 6.2552 15.4072 6.60916 15.774C3.99643 18.4777 2.80963 21.1648 3.79251 22.8666C4.76497 24.5516 7.63704 24.8773 11.2326 24.0007C12.2789 27.3725 13.9528 29.5572 15.8393 29.5572C17.7848 29.5572 19.5028 27.2329 20.5408 23.6808C23.9849 24.4606 26.7136 24.1033 27.6567 22.4695C28.5918 20.85 27.5639 18.3399 25.2133 15.7722ZM10.1585 13.8652C10.1218 14.4914 10.0982 15.1279 10.0982 15.7786C10.0982 16.4268 10.1181 17.0637 10.1545 17.688C9.307 17.0594 8.53571 16.4173 7.84892 15.7764C8.53663 15.1359 9.31068 14.4938 10.1585 13.8652ZM4.58738 22.407C3.78608 21.0197 4.88316 18.7477 7.22246 16.3842C8.10398 17.2299 9.11778 18.0698 10.2458 18.8748C10.394 20.4229 10.6506 21.8706 10.9956 23.1706C7.83882 23.9778 5.37827 23.7772 4.58738 22.407ZM24.0173 15.778C23.2892 16.4932 22.4444 17.2137 21.5108 17.9195C21.5562 17.2217 21.5804 16.507 21.5804 15.7786C21.5804 15.0486 21.5562 14.3324 21.5105 13.6334C22.4463 14.3401 23.288 15.0621 24.0173 15.778ZM19.9199 8.92879C20.1263 9.80113 20.2944 10.7436 20.4177 11.7405C19.8354 11.3514 19.227 10.9726 18.595 10.6076C18.1418 10.3458 17.6881 10.0994 17.2361 9.86574C18.1639 9.48575 19.0644 9.17221 19.9199 8.92879ZM11.8383 8.62229C12.8659 8.93063 13.9531 9.33694 15.071 9.83665C14.3362 10.1891 13.5949 10.5773 12.8539 11.0054C12.2939 11.3287 11.7541 11.6634 11.2326 12.006C11.3729 10.7914 11.578 9.65477 11.8383 8.62229ZM11.228 19.5484C11.7504 19.892 12.2927 20.2275 12.8542 20.5515C13.5952 20.9792 14.3365 21.3678 15.0714 21.7202C13.9513 22.2205 12.8622 22.6275 11.8331 22.9361C11.5728 21.9036 11.3677 20.7643 11.228 19.5484ZM15.8393 28.6386C14.3105 28.6386 12.9491 26.7396 12.0655 23.7803C13.3708 23.4064 14.7547 22.8847 16.1669 22.2202C17.3871 22.7478 18.5772 23.1661 19.7046 23.4707C18.8249 26.6076 17.4211 28.6386 15.8393 28.6386ZM19.9199 22.6287C19.0644 22.3853 18.1639 22.072 17.2361 21.6914C17.6884 21.4575 18.1415 21.2113 18.595 20.9495C19.2285 20.5836 19.8351 20.2024 20.4184 19.8123C20.2947 20.8111 20.1266 21.7551 19.9199 22.6287ZM20.5424 18.6219C19.7864 19.1485 18.9857 19.6632 18.136 20.1537C17.4682 20.5392 16.8022 20.8929 16.1424 21.2175C15.2128 20.7928 14.2642 20.3053 13.3135 19.7563C12.5431 19.3114 11.8089 18.8478 11.1154 18.3726C11.0511 17.5349 11.0171 16.6675 11.0171 15.7786C11.0171 14.887 11.0547 14.0207 11.1197 13.1806C11.8119 12.7069 12.5453 12.2445 13.3135 11.8012C14.2642 11.2522 15.2131 10.7644 16.1427 10.34C16.8022 10.6646 17.4685 11.0179 18.136 11.4034C18.9842 11.893 19.7873 12.4056 20.5418 12.9313C20.6195 13.8477 20.6621 14.7997 20.6621 15.7789C20.6618 16.7559 20.6195 17.7067 20.5424 18.6219ZM26.8618 22.0102C26.0973 23.3341 23.7718 23.5638 20.7671 22.8491C21.0531 21.7046 21.2711 20.4523 21.4092 19.1234C22.6245 18.2407 23.7038 17.3193 24.6208 16.3959C26.687 18.6099 27.6166 20.7024 26.8618 22.0102ZM25.487 12.2895C24.83 12.6689 24.6052 13.5088 24.9843 14.1659C25.3636 14.8227 26.2035 15.048 26.8609 14.669C27.5177 14.2896 27.7428 13.4494 27.3634 12.7926C26.9843 12.1358 26.1441 11.9105 25.487 12.2895Z" fill="#26C4F7"/>
</svg>
