<svg width="32" height="32" viewBox="0 0 32 32" fill="none" xmlns="http://www.w3.org/2000/svg">
<path d="M19.6517 4.59551L17.9663 1L14.0337 1.11236L12.236 4.48315L10.4382 5.38202L6.8427 4.03371L4.03371 6.8427L5.1573 10.5506L4.59551 12.3483L1 14.0337L1.11236 17.9663L4.48315 19.764L5.38202 21.5618L4.03371 25.1573L6.8427 27.9663L10.5506 26.8427L12.3483 27.5169L14.0337 31H17.9663L19.764 27.5169L21.5618 26.7303L25.1573 27.9663L27.9663 25.1573L26.8427 21.5618L27.5169 19.6517L31 17.9663V14.0337L27.5169 12.236L26.7303 10.4382L27.9663 6.8427L25.1573 4.03371L21.5618 5.1573L19.6517 4.59551Z" stroke="#26C4F7" stroke-width="1.5"/>
<path d="M22.9445 20.2181C22.3564 18.718 21.3615 18.3671 20.56 18.2287C19.8914 18.1126 19.0579 17.8717 18.7628 17.7146C18.7531 17.5845 18.748 17.3208 18.7748 16.8898C18.791 16.872 18.8077 16.8568 18.8238 16.8381L18.8155 16.8307C19.2106 16.3176 19.3995 15.8357 19.4845 15.51C19.7398 15.3358 20.0078 14.9962 20.1656 14.3397C20.2568 13.9591 20.3252 13.4785 20.043 13.1343C20.036 13.1261 20.0296 13.1181 20.0227 13.1099C20.2755 10.6988 18.6786 9.48061 17.7407 9.16354L17.7272 9.15912L17.7142 9.15548C17.3608 9.05252 17.0202 9 16.7036 9C16.629 9 16.5593 9.00312 16.4918 9.00819C16.4227 9.00273 16.3519 9 16.2813 9C15.9639 9 15.6237 9.05239 15.2701 9.15535L15.2572 9.15938L15.2442 9.16341C14.3059 9.48035 12.7094 10.6987 12.962 13.1098C12.9546 13.118 12.948 13.1259 12.9417 13.1341C12.6591 13.4784 12.7279 13.9591 12.8191 14.3396C12.9769 14.9963 13.2444 15.3357 13.5002 15.5099C13.5844 15.8329 13.7728 16.3085 14.1605 16.8173V16.8175C14.1611 16.8181 14.1647 16.8226 14.1651 16.8234C14.1874 16.8526 14.2031 16.8803 14.2266 16.9095C14.2517 17.3223 14.247 17.5797 14.2355 17.7156C13.9388 17.8715 13.1078 18.1127 12.4398 18.2284C11.6386 18.3668 10.6435 18.7178 10.0556 20.2173C9.95584 20.4725 9.99143 20.749 10.1533 20.976C10.7569 21.8223 13.9378 22 16.5 22C19.0621 22 22.2434 21.8223 22.8468 20.9762C23.0087 20.7493 23.0439 20.4728 22.9445 20.2181ZM14.0523 15.0636C13.9736 15.0636 13.6405 15.0134 13.445 14.1984C13.2928 13.5651 13.452 13.4647 13.5691 13.4647C13.6231 13.4647 13.6681 13.4862 13.6681 13.4862C13.0879 10.5501 15.4556 9.75114 15.4556 9.75114C15.7815 9.65624 16.055 9.62218 16.2812 9.62218C16.3566 9.62218 16.4269 9.62569 16.4916 9.63297C16.5573 9.62569 16.6277 9.62218 16.7034 9.62218C16.9294 9.62218 17.2028 9.65624 17.529 9.75114C17.529 9.75114 19.8963 10.5501 19.3161 13.4862C19.3161 13.4862 19.3615 13.4647 19.4155 13.4647C19.5326 13.4647 19.6918 13.5649 19.539 14.1984C19.3439 15.0135 19.0101 15.0636 18.9315 15.0636C18.9209 15.0636 18.9149 15.0627 18.9149 15.0627C18.9149 15.0627 18.8728 15.8268 18.1463 16.6508C18.1463 16.6571 18.1454 16.6643 18.1454 16.6705C17.5799 17.2273 17.0032 17.4972 16.4249 17.4761C15.7057 17.4471 15.1376 16.9724 14.8552 16.6847C14.8547 16.6804 14.8543 16.674 14.8543 16.6697C14.1129 15.8384 14.0689 15.0627 14.0689 15.0627C14.0689 15.0627 14.0633 15.0636 14.0523 15.0636ZM16.5 21.3779C13.4552 21.3779 10.4109 21.0644 10.6563 20.4382C11.1472 19.1861 11.9282 18.9488 12.5529 18.8409C13.1775 18.733 14.6943 18.3656 14.8277 18.0202C14.8684 17.9163 14.8832 17.7229 14.886 17.5052C15.2683 17.7828 15.7796 18.0453 16.3945 18.0713C16.4282 18.0731 16.4621 18.074 16.4958 18.074C17.0512 18.074 17.5921 17.8747 18.1135 17.4895C18.1159 17.7135 18.1307 17.9138 18.1724 18.0202C18.3056 18.3655 19.8225 18.7328 20.4473 18.8409C21.0719 18.9488 21.8531 19.1861 22.3435 20.4382C22.589 21.0644 19.5448 21.3779 16.5 21.3779Z" fill="#26C4F7" stroke="#26C4F7"/>
</svg>
