<svg width="32" height="32" viewBox="0 0 32 32" fill="none" xmlns="http://www.w3.org/2000/svg">
<path d="M0.395916 1.83992L0.395916 9.16008C0.395916 9.62433 0.77837 10 1.25008 10L30.7501 10C31.2218 10 31.6042 9.62433 31.6042 9.16008L31.6042 1.83992C31.6042 1.37567 31.2218 1 30.7501 1L1.25008 0.999999C0.77837 0.999999 0.395916 1.37567 0.395916 1.83992ZM29.8959 2.67984L29.8959 8.32016L2.10425 8.32016L2.10425 2.67983L29.8959 2.67984Z" fill="#26C4F7"/>
<rect x="26.5" y="2.5" width="6" height="1" rx="0.5" transform="rotate(90 26.5 2.5)" stroke="#26C4F7"/>
<circle cx="6.5" cy="5.5" r="1.5" fill="#26C4F7"/>
<path d="M0.395916 11.8399L0.395916 19.1601C0.395916 19.6243 0.77837 20 1.25008 20L30.7501 20C31.2218 20 31.6042 19.6243 31.6042 19.1601L31.6042 11.8399C31.6042 11.3757 31.2218 11 30.7501 11L1.25008 11C0.77837 11 0.395916 11.3757 0.395916 11.8399ZM29.8959 12.6798L29.8959 18.3202L2.10425 18.3202L2.10425 12.6798L29.8959 12.6798Z" fill="#26C4F7"/>
<rect x="26.5" y="12.5" width="6" height="1" rx="0.5" transform="rotate(90 26.5 12.5)" stroke="#26C4F7"/>
<circle cx="6.5" cy="15.5" r="1.5" fill="#26C4F7"/>
<path d="M0.395916 21.8399L0.395916 29.1601C0.395916 29.6243 0.77837 30 1.25008 30L26.7501 30C27.2218 30 27.6042 29.6243 27.6042 29.1601L27.6042 21.8399C27.6042 21.3757 27.2218 21 26.7501 21L1.25008 21C0.77837 21 0.395916 21.3757 0.395916 21.8399ZM25.8959 22.6798L25.8959 28.3202L2.10425 28.3202L2.10425 22.6798L25.8959 22.6798Z" fill="#26C4F7"/>
<rect x="26.5" y="22.5" width="6" height="1" rx="0.5" transform="rotate(90 26.5 22.5)" stroke="#26C4F7"/>
<circle cx="6.5" cy="25.5" r="1.5" fill="#26C4F7"/>
<circle cx="23.5" cy="23.5" r="7.75" fill="white" stroke="#26C4F7" stroke-width="1.5"/>
<path d="M20.4514 22.9573C20.119 22.6357 19.5817 22.6357 19.2493 22.9573C18.9169 23.279 18.9169 23.7989 19.2493 24.1205L22.049 26.759C22.2148 26.9194 22.4324 27 22.6501 27C22.8677 27 23.0853 26.9194 23.2511 26.759L27.7507 22.4045C28.0831 22.0828 28.0831 21.5629 27.7507 21.2413C27.4183 20.9196 26.881 20.9196 26.5486 21.2413L22.6501 25.0141L20.4514 22.9573Z" fill="#26C4F7"/>
</svg>
