<svg width="32" height="32" viewBox="0 0 32 32" fill="none" xmlns="http://www.w3.org/2000/svg">
<path d="M29.1895 0.853333C28.6 0.284444 27.8632 0 27.0526 0H4.94737C4.13684 0 3.4 0.32 2.81053 0.888889C2.29474 1.38667 2 2.09778 2 2.84444V14.4C2 22.6844 7.67368 29.9022 15.8158 31.9644L16 32L16.1842 31.9644C24.3263 29.9022 30 22.6844 30 14.4V2.84444C30 2.09778 29.7053 1.38667 29.1895 0.853333ZM27.0526 1.42222C27.2 1.42222 27.3842 1.45778 27.5316 1.49333L25.5421 3.55556H6.45789L4.50526 1.49333C4.61579 1.45778 4.8 1.42222 4.94737 1.42222H27.0526ZM16 26.6311C10.6947 25.1733 6.86316 20.0889 6.86316 14.4356V9.95556H25.1368V14.4711C25.1368 20.0889 21.3053 25.1733 16 26.6311ZM25.1368 8.53333H6.86316V4.97778H25.1368V8.53333ZM3.47368 14.4V2.84444C3.47368 2.73778 3.47368 2.66667 3.51053 2.56L5.38947 4.51556V14.4356C5.38947 20.5867 9.51579 26.1689 15.2632 27.8756V30.2933C8.26316 28.1244 3.47368 21.7244 3.47368 14.4ZM28.5263 14.4C28.5263 21.7244 23.7368 28.1244 16.7368 30.3289V27.9111C22.4842 26.1689 26.6105 20.6222 26.6105 14.4356V4.51556L28.4895 2.56C28.4895 2.63111 28.5263 2.73778 28.5263 2.84444V14.4Z" fill="#26C4F7"/>
</svg>
