<svg width="32" height="32" viewBox="0 0 32 32" fill="none" xmlns="http://www.w3.org/2000/svg">
<path d="M1.75 11.25H22.25V27C22.25 27.1381 22.1381 27.25 22 27.25H2C1.86193 27.25 1.75 27.1381 1.75 27V11.25Z" stroke="#26C4F7" stroke-width="1.5"/>
<path d="M1.75 7C1.75 6.86193 1.86193 6.75 2 6.75H22C22.1381 6.75 22.25 6.86193 22.25 7V11.25H1.75V7Z" stroke="#26C4F7" stroke-width="1.5"/>
<path d="M14.5 9.25C14.5 9.66421 14.1642 10 13.75 10C13.3358 10 13 9.66421 13 9.25C13 8.83579 13.3358 8.5 13.75 8.5C14.1642 8.5 14.5 8.83579 14.5 9.25Z" fill="#26C4F7"/>
<path d="M17.5 9.25C17.5 9.66421 17.1642 10 16.75 10C16.3358 10 16 9.66421 16 9.25C16 8.83579 16.3358 8.5 16.75 8.5C17.1642 8.5 17.5 8.83579 17.5 9.25Z" fill="#26C4F7"/>
<path d="M20.5 9.25C20.5 9.66421 20.1642 10 19.75 10C19.3358 10 19 9.66421 19 9.25C19 8.83579 19.3358 8.5 19.75 8.5C20.1642 8.5 20.5 8.83579 20.5 9.25Z" fill="#26C4F7"/>
<mask id="mask0" style="mask-type:alpha" maskUnits="userSpaceOnUse" x="5" y="1" width="27" height="27">
<path d="M32 1H5.5V6.5L23 7V28H32V1Z" fill="#C4C4C4"/>
</mask>
<g mask="url(#mask0)">
<path d="M9.75 8.25H30.25V24C30.25 24.1381 30.1381 24.25 30 24.25H10C9.86193 24.25 9.75 24.1381 9.75 24V8.25Z" stroke="#26C4F7" stroke-width="1.5"/>
<path d="M9.75 4C9.75 3.86193 9.86193 3.75 10 3.75H30C30.1381 3.75 30.25 3.86193 30.25 4V8.25H25H9.75V4Z" stroke="#26C4F7" stroke-width="1.5"/>
</g>
</svg>
