<svg width="32" height="32" viewBox="0 0 32 32" fill="none" xmlns="http://www.w3.org/2000/svg">
<path d="M30.5778 12.0889H28.1956C27.9822 11.4133 27.6978 10.7733 27.3778 10.1333L29.0844 8.42667C29.6533 7.85778 29.6533 6.96889 29.0844 6.4L25.5644 2.88C24.9956 2.31111 24.1067 2.31111 23.5378 2.88L21.8667 4.62222C21.2267 4.30222 20.5867 4.01778 19.9111 3.80444V1.42222C19.9111 0.64 19.2711 0 18.4889 0H13.5111C12.7289 0 12.0889 0.64 12.0889 1.42222V3.80444C11.4133 4.01778 10.7733 4.30222 10.1333 4.62222L8.42667 2.91556C7.85778 2.34667 6.96889 2.34667 6.4 2.91556L2.88 6.43556C2.31111 7.00444 2.31111 7.89333 2.88 8.46222L4.58667 10.1689C4.26667 10.8089 3.98222 11.4489 3.76889 12.1244H1.42222C0.64 12.1244 0 12.7644 0 13.5467V18.5244C0 19.3067 0.64 19.9467 1.42222 19.9467H3.80444C4.01778 20.6222 4.30222 21.2622 4.62222 21.9022L2.91556 23.6089C2.34667 24.1778 2.34667 25.0667 2.91556 25.6356L6.43556 29.1556C6.96889 29.6889 7.92889 29.6889 8.46222 29.1556L10.1689 27.4489C10.8089 27.7689 11.4489 28.0533 12.1244 28.2667V30.5778C12.1244 31.36 12.7644 32 13.5467 32H18.5244C19.3067 32 19.9467 31.36 19.9467 30.5778V28.1956C20.6222 27.9822 21.2622 27.6978 21.9022 27.3778L23.6089 29.0844C24.1778 29.6533 25.0667 29.6533 25.6356 29.0844L29.1556 25.5644C29.7244 24.9956 29.7244 24.1067 29.1556 23.5378L27.3778 21.8667C27.6978 21.2267 27.9822 20.5867 28.1956 19.9111H30.5778C31.36 19.9111 32 19.2711 32 18.4889V13.5111C32 12.7289 31.36 12.0889 30.5778 12.0889ZM30.5778 18.4889H27.6622C27.3422 18.4889 27.0578 18.7022 26.9867 19.0222C26.7378 19.9467 26.3822 20.8 25.92 21.6533C25.7422 21.9378 25.8133 22.2933 26.0267 22.5067L28.0889 24.5689L24.5333 28.0533L22.4711 25.9911C22.2578 25.7778 21.9022 25.7067 21.6178 25.8844C20.8 26.3467 19.9111 26.7022 18.9867 26.9511C18.6667 27.0222 18.4533 27.3067 18.4533 27.6267V30.5778H13.5111V27.6622C13.5111 27.3422 13.2978 27.0578 12.9778 26.9867C12.0533 26.7378 11.2 26.3822 10.3467 25.92C10.24 25.8489 10.1333 25.8133 9.99111 25.8133C9.81333 25.8133 9.63556 25.8844 9.49333 26.0267L7.46667 28.0533L3.94667 24.5333L6.00889 22.4711C6.22222 22.2578 6.29333 21.9022 6.11556 21.6178C5.65333 20.8 5.29778 19.9111 5.04889 18.9867C4.97778 18.6667 4.69333 18.4533 4.37333 18.4533H1.42222V13.5111H4.33778C4.65778 13.5111 4.94222 13.2978 5.01333 12.9778C5.26222 12.0533 5.61778 11.2 6.08 10.3467C6.25778 10.0622 6.18667 9.70667 5.97333 9.49333L3.94667 7.46667L7.46667 3.94667L9.52889 6.00889C9.74222 6.22222 10.0978 6.29333 10.3822 6.11556C11.2 5.65333 12.0889 5.26222 13.0133 5.04889C13.3333 4.97778 13.5467 4.69333 13.5467 4.37333V1.42222H18.5244V4.33778C18.5244 4.65778 18.7378 4.94222 19.0578 5.01333C19.9822 5.26222 20.8356 5.61778 21.6889 6.08C21.9733 6.25778 22.3289 6.18667 22.5422 5.97333L24.6044 3.91111L28.1244 7.43111L26.0622 9.49333C25.8489 9.70667 25.7778 10.0622 25.9556 10.3467C26.4178 11.1644 26.7733 12.0533 27.0222 12.9778C27.0933 13.2978 27.3778 13.5111 27.6978 13.5111H30.5778V18.4889ZM22.2933 9.70667L22.2578 9.67111C20.6222 8.10667 18.4178 7.11111 16 7.11111C13.5822 7.11111 11.3778 8.10667 9.74222 9.67111L9.70667 9.70667L9.67111 9.74222C8.10667 11.3778 7.11111 13.5822 7.11111 16C7.11111 18.4178 8.10667 20.6222 9.67111 22.2578L9.70667 22.2933L9.74222 22.3289C11.3778 23.8933 13.5822 24.8889 16 24.8889C18.4178 24.8889 20.6222 23.8933 22.2578 22.3289L22.2933 22.2933L22.3289 22.2578C23.8933 20.6222 24.8889 18.4178 24.8889 16C24.8889 13.5822 23.8933 11.3778 22.3289 9.74222C22.2933 9.74222 22.2933 9.74222 22.2933 9.70667ZM16.7111 8.56889C18.24 8.71111 19.6267 9.31556 20.7644 10.24L19.2356 11.7689C18.5244 11.2356 17.6711 10.8444 16.7111 10.7378V8.56889ZM15.2889 8.56889V10.7022C14.3644 10.8444 13.4756 11.2 12.7644 11.7333L11.2356 10.2044C12.3733 9.31556 13.76 8.71111 15.2889 8.56889ZM10.24 11.2356L11.7689 12.7644C11.2 13.4756 10.8444 14.3289 10.7378 15.2889H8.56889C8.71111 13.76 9.31556 12.3733 10.24 11.2356ZM8.56889 16.7111H10.7378C10.8444 17.6356 11.2356 18.5244 11.7689 19.2356L10.24 20.7644C9.31556 19.6267 8.71111 18.24 8.56889 16.7111ZM15.2889 23.4311C13.76 23.2889 12.3733 22.6844 11.2356 21.76L12.7644 20.2311C13.4756 20.7644 14.3289 21.1556 15.2889 21.2622V23.4311ZM12.0889 16C12.0889 13.8311 13.8311 12.0889 16 12.0889C18.1689 12.0889 19.9111 13.8311 19.9111 16C19.9111 18.1689 18.1689 19.9111 16 19.9111C13.8311 19.9111 12.0889 18.1689 12.0889 16ZM16.7111 23.4311V21.2978C17.6356 21.1911 18.5244 20.8 19.2356 20.2667L20.7644 21.7956C19.6267 22.6844 18.24 23.2889 16.7111 23.4311ZM21.76 20.7644L20.2311 19.2356C20.8 18.5244 21.1556 17.6711 21.2622 16.7111H23.4311C23.2889 18.24 22.6844 19.6267 21.76 20.7644ZM21.2622 15.2889C21.1556 14.3644 20.7644 13.4756 20.2311 12.7644L21.76 11.2356C22.6844 12.3378 23.2889 13.76 23.4311 15.2889H21.2622Z" fill="#26C4F7"/>
</svg>
