<svg width="32" height="32" viewBox="0 0 32 32" fill="none" xmlns="http://www.w3.org/2000/svg">
<path d="M27.9512 1H7.46341C6.33659 1 5.41463 1.93 5.41463 3.06667V13.7778H4.04878C2.92195 13.7778 2 14.7078 2 15.8444V28.9333C2 30.07 2.92195 31 4.04878 31H27.9512C29.078 31 30 30.07 30 28.9333V3.06667C30 1.93 29.078 1 27.9512 1ZM23.1707 3.34222L27.678 7.88889H23.8537C23.478 7.88889 23.1707 7.57889 23.1707 7.2V3.34222ZM15.6585 28.9333C15.6585 29.3122 15.3512 29.6222 14.9756 29.6222H4.04878C3.67317 29.6222 3.36585 29.3122 3.36585 28.9333V15.8444C3.36585 15.4656 3.67317 15.1556 4.04878 15.1556H8.82927V19.9778C8.82927 21.1144 9.75122 22.0444 10.878 22.0444H15.6585V28.9333ZM10.1951 19.9778V16.12L14.7024 20.6667H10.878C10.5024 20.6667 10.1951 20.3567 10.1951 19.9778ZM15.6585 19.7022L11.1512 15.1556H14.9756C15.3512 15.1556 15.6585 15.4656 15.6585 15.8444V19.7022ZM28.6341 28.9333C28.6341 29.3122 28.3268 29.6222 27.9512 29.6222H16.922C16.9902 29.4156 17.0244 29.1744 17.0244 28.9333V15.8444C17.0244 14.7078 16.1024 13.7778 14.9756 13.7778H6.78049V3.06667C6.78049 2.68778 7.0878 2.37778 7.46341 2.37778H21.8049V7.2C21.8049 8.33667 22.7268 9.26667 23.8537 9.26667H28.6341V28.9333ZM28.6341 6.92444L24.1268 2.37778H27.9512C28.3268 2.37778 28.6341 2.68778 28.6341 3.06667V6.92444Z" fill="#26C4F7"/>
</svg>
