<svg width="32" height="32" viewBox="0 0 32 32" fill="none" xmlns="http://www.w3.org/2000/svg">
<path d="M25.5801 10.971L25.5795 10.9701C25.3227 10.5318 25.2474 10.0419 25.3467 9.58566L17.9773 5.43658C17.7961 5.62864 17.5813 5.78437 17.3524 5.92032C17.3522 5.92039 17.3521 5.92046 17.352 5.92053L17.301 5.83454C17.0752 5.97084 16.8279 6.0652 16.5806 6.11762L25.5801 10.971ZM25.5801 10.971C25.8376 11.4 26.238 11.7103 26.6947 11.8541V20.1381C26.443 20.1949 26.1918 20.2881 25.9497 20.4259C25.7063 20.5643 25.4913 20.7382 25.3046 20.9306L19.7063 17.5366C20.1122 16.5502 20.0653 15.3892 19.4837 14.402C18.9016 13.4138 17.9106 12.8059 16.8398 12.6459L16.6826 6.19677L25.5801 10.971ZM14.974 27.4285C14.8478 27.4948 14.739 27.5766 14.641 27.6658L7.27123 23.5165C7.41773 23.0289 7.42632 22.492 7.27161 21.9857L13.4715 18.4914C14.5979 19.8082 16.5692 20.1795 18.1343 19.3002C18.4847 19.1091 18.7867 18.8623 19.0402 18.5863L24.6862 22.0146C24.5397 22.4937 24.5404 23.0132 24.6865 23.5161L17.3254 27.6665C16.691 27.1134 15.742 27.0011 14.974 27.4285ZM14.974 27.4285C14.9744 27.4283 14.9747 27.4281 14.9751 27.4279L15.0216 27.5164L14.9729 27.4291C14.9733 27.4289 14.9736 27.4287 14.974 27.4285ZM18.366 2.24082L18.3655 2.23991C17.6059 0.954626 15.9219 0.52122 14.6072 1.25995C13.4833 1.88777 12.9877 3.19247 13.3423 4.3512L5.98229 8.5009C5.3476 7.94751 4.39801 7.83541 3.62983 8.26345L3.6295 8.26364C2.66822 8.80401 2.32626 10.0194 2.89396 10.9606C3.15151 11.3896 3.5519 11.6998 4.00857 11.8436V20.1276C3.75734 20.1843 3.50678 20.2775 3.27364 20.4157C1.95756 21.156 1.5101 22.8007 2.26995 24.0864C3.02953 25.3718 4.71362 25.8052 6.02837 25.0663L6.02838 25.0664L6.03042 25.0652C6.25953 24.9292 6.47437 24.7734 6.65567 24.5812L14.0251 28.7303C13.9258 29.1865 14.0011 29.6764 14.258 30.1147L14.2581 30.115C14.813 31.0536 16.0564 31.3836 17.0174 30.8324C17.7841 30.3944 18.1606 29.5399 17.9855 28.7303L25.3454 24.5807C26.2 25.4686 27.6015 25.6941 28.7251 25.0665L28.7253 25.0663C30.0422 24.3263 30.4901 22.6812 29.7301 21.395L29.7296 21.3943C29.3315 20.7333 28.6948 20.2951 27.9807 20.1283V11.8319C28.1026 11.7926 28.2341 11.7416 28.3518 11.6656C29.311 11.1245 29.6517 9.91049 29.0845 8.97016L29.0842 8.96971C28.5182 8.04246 27.2874 7.72447 26.3171 8.26282C26.191 8.32921 26.0821 8.41094 25.9841 8.50017L18.6141 4.35082C18.8191 3.66425 18.753 2.91178 18.366 2.24082ZM14.6993 4.29519L14.699 4.29464C14.2987 3.62127 14.5371 2.73929 15.2428 2.33595C15.9494 1.94252 16.8561 2.18028 17.2577 2.86557C17.6591 3.55062 17.4188 4.43219 16.7147 4.82455C16.008 5.21834 15.101 4.98063 14.6993 4.29519ZM14.613 4.34574C14.183 3.62232 14.441 2.67871 15.1936 2.24885L14.613 4.34574ZM4.26353 9.35099L4.26354 9.351L4.26525 9.35004C4.62708 9.14577 5.08287 9.26701 5.29129 9.61806C5.49834 9.9668 5.37752 10.4083 5.01632 10.6122C4.65449 10.8165 4.19869 10.6953 3.99028 10.3442C3.78251 9.99427 3.90546 9.54395 4.26353 9.35099ZM14.4353 13.0653L14.435 13.0655C12.87 13.9452 12.2118 15.7953 12.8113 17.4067L6.61105 20.9011C6.23711 20.5182 5.76465 20.2527 5.2517 20.1379L5.27281 11.8425C5.39492 11.8031 5.5266 11.752 5.64436 11.6759C6.40947 11.2376 6.78505 10.384 6.61016 9.5752L13.9699 5.42561C14.3577 5.8293 14.8613 6.09593 15.3967 6.20147L15.5539 12.6514C15.1741 12.7297 14.7953 12.8648 14.4353 13.0653ZM17.51 18.2134C16.363 18.8583 14.8857 18.4746 14.2151 17.3582C13.5564 16.2438 13.9465 14.8064 15.0924 14.1518C16.2393 13.5072 17.7163 13.8909 18.3869 15.0071C19.0461 16.1327 18.6549 17.5697 17.51 18.2134ZM3.35592 23.4708C2.9549 22.7858 3.19525 21.9046 3.89921 21.5123C4.60591 21.1185 5.51294 21.3562 5.9146 22.0417C6.31604 22.7267 6.07574 23.6083 5.37161 24.0006C4.66572 24.394 3.76875 24.1576 3.35592 23.4708ZM16.3589 29.7677C15.9971 29.9715 15.5417 29.8502 15.3334 29.4993C15.1263 29.1506 15.2471 28.7091 15.6083 28.5051C15.9702 28.3009 16.426 28.4221 16.6344 28.7732C16.8404 29.1203 16.7116 29.5628 16.3589 29.7677ZM28.0685 23.9901C27.3618 24.3839 26.4548 24.1462 26.0531 23.4608C25.6517 22.7757 25.892 21.8942 26.5961 21.5018C27.3028 21.108 28.2099 21.3457 28.6115 22.0312C29.013 22.7162 28.7727 23.5978 28.0685 23.9901ZM27.7025 10.6018C27.3407 10.806 26.8849 10.6848 26.6765 10.3337C26.4694 9.985 26.5902 9.54347 26.9514 9.33955C27.3133 9.13528 27.769 9.25653 27.9775 9.60757C28.1845 9.95632 28.0637 10.3978 27.7025 10.6018Z" fill="#26C4F7" stroke="#26C4F7" stroke-width="0.2"/>
<circle cx="16" cy="16" r="3" fill="#26C4F7"/>
</svg>
