<svg width="32" height="32" viewBox="0 0 32 32" fill="none" xmlns="http://www.w3.org/2000/svg">
<g clip-path="url(#clip0)">
<path d="M18.7535 15.216L18.754 15.2162L20.8798 15.6811L20.88 15.6812C21.5528 15.8296 22.1831 16.1248 22.7244 16.5449C23.2657 16.965 23.7042 17.4993 24.0073 18.1086C24.0074 18.1086 24.0074 18.1087 24.0074 18.1088L25.0606 20.2038L18.7535 15.216ZM18.7535 15.216C18.1169 15.0804 17.4582 15.0803 16.8216 15.2156L15.8061 15.3838M18.7535 15.216L15.8061 15.3838M15.8061 15.3838L14.9337 6.73585L14.9337 6.73585L14.9336 6.73453C14.8738 6.21146 14.6133 5.73091 14.2057 5.39068C13.7982 5.05049 13.2743 4.8761 12.7409 4.90264C12.2075 4.92918 11.7042 5.1547 11.3336 5.53371C10.963 5.91277 10.7532 6.41683 10.7475 6.94319L10.7475 6.94319V6.94428V20.1665C9.41318 19.4395 8.01011 18.8414 6.558 18.3808C6.2488 18.273 5.91736 18.242 5.59308 18.2905C5.26831 18.339 4.96068 18.4658 4.69764 18.6597C4.43459 18.8536 4.22428 19.1086 4.08562 19.4021C3.94706 19.6953 3.8844 20.0178 3.90329 20.3407C3.91735 20.6607 4.00825 20.9728 4.16848 21.2515C4.32868 21.5302 4.55358 21.7674 4.82468 21.944C6.46829 23.0568 7.94716 24.3878 9.21917 25.8991L9.21975 25.8998C9.76839 26.54 10.429 27.0786 11.1702 27.4902M15.8061 15.3838L11.0935 21.9847C11.1871 22.0547 11.2986 22.0976 11.4157 22.1085C11.5327 22.1195 11.6505 22.0981 11.7558 22.0467M11.1702 27.4902C11.1699 27.49 11.1697 27.4898 11.1694 27.4897L11.2197 27.4032L11.1711 27.4907C11.1708 27.4905 11.1705 27.4904 11.1702 27.4902ZM11.1702 27.4902C11.6189 27.7514 11.9285 27.9926 12.2193 28.2193C12.3053 28.2863 12.3896 28.352 12.4755 28.4166C12.8528 28.7007 13.2486 28.954 13.9101 29.1721L13.9101 29.1722L13.9126 29.1729C14.482 29.3444 14.8077 29.7916 15.1291 30.3131C15.1666 30.3739 15.2041 30.4358 15.2418 30.4982C15.5223 30.9618 15.8224 31.4577 16.3037 31.7838L16.303 31.7833L16.3605 31.7015M16.3605 31.7015L16.3044 31.7843L16.5679 31.9693L16.5686 31.9698C16.7275 32.0793 16.9238 32.1221 17.1144 32.0892C17.3051 32.0563 17.4751 31.9502 17.5868 31.7937C17.6985 31.6371 17.7425 31.4429 17.7088 31.2541C17.6751 31.0653 17.5665 30.8979 17.4076 30.7884L17.407 30.788L17.1424 30.6084L17.0859 30.6909M16.3605 31.7015L16.6254 31.8875M16.3605 31.7015C15.8982 31.3885 15.61 30.9128 15.3279 30.4472C14.9701 29.8565 14.6222 29.2822 13.9414 29.0772L16.6254 31.8875M17.0859 30.6909L17.142 30.6082L17.1421 30.6082C16.6657 30.2818 16.3513 29.805 16.0308 29.3191C15.9831 29.2466 15.9351 29.1739 15.8865 29.1015C15.5172 28.5515 15.1088 28.0204 14.4135 27.804M17.0859 30.6909C16.5919 30.3525 16.2658 29.8576 15.9463 29.3727C15.5317 28.7433 15.1281 28.1308 14.383 27.8992M17.0859 30.6909L17.3508 30.8707M14.4135 27.804C13.8212 27.609 13.4864 27.385 13.162 27.1296C13.0959 27.0775 13.0298 27.0238 12.9618 26.9685C12.6941 26.7508 12.3968 26.5091 11.9511 26.2504L11.9498 26.2497C11.36 25.9193 10.8335 25.4904 10.3937 24.9824C9.02849 23.3627 7.44244 21.936 5.68043 20.7426L5.68079 20.742L5.67069 20.7368C5.58739 20.6932 5.51762 20.6287 5.46837 20.5502C5.41913 20.4717 5.39213 20.3818 5.38999 20.2899L5.39004 20.2899L5.38988 20.2869C5.38535 20.2009 5.40274 20.115 5.44055 20.037C5.47837 19.9591 5.53547 19.8914 5.60685 19.8403L5.60688 19.8404L5.60914 19.8387C5.67747 19.7868 5.7578 19.7519 5.84317 19.7373C5.92855 19.7227 6.01625 19.7289 6.09863 19.7551L6.09968 19.7554C7.84851 20.2918 9.5107 21.0701 11.0362 22.0668C11.1441 22.1467 11.2722 22.1955 11.4064 22.2081C11.5416 22.2207 11.6778 22.196 11.7997 22.1366L11.7558 22.0467M14.4135 27.804C14.4138 27.8041 14.414 27.8041 14.4143 27.8042L14.383 27.8992M14.4135 27.804C14.4133 27.8039 14.413 27.8038 14.4127 27.8037L14.383 27.8992M11.7558 22.0467C11.862 21.9956 11.9514 21.9162 12.0139 21.8175C12.0763 21.7189 12.1093 21.6049 12.1091 21.4887M11.7558 22.0467L11.7992 22.1368C11.9221 22.0777 12.0258 21.9856 12.0984 21.871C12.1709 21.7564 12.2093 21.624 12.2091 21.4887M12.1091 21.4887H12.2091M12.1091 21.4887L12.2091 21.4885M12.1091 21.4887L12.2091 21.4885M12.2091 21.4887C12.2091 21.4887 12.2091 21.4886 12.2091 21.4885M12.2091 21.4887L12.2091 21.4885M16.6254 31.8875C16.7626 31.982 16.9324 32.0191 17.0974 31.9906C17.2624 31.9622 17.4092 31.8704 17.5054 31.7356C17.6016 31.6007 17.6393 31.4339 17.6104 31.2717C17.5814 31.1095 17.488 30.9653 17.3508 30.8707M16.6254 31.8875L17.3508 30.8707M17.3508 30.8707L14.383 27.8992M12.2091 21.4885L12.2091 6.94562C12.2135 6.78911 12.2776 6.63959 12.3893 6.52693C12.5013 6.41392 12.653 6.34633 12.814 6.33818C12.975 6.33003 13.133 6.38195 13.2564 6.48315C13.3794 6.58399 13.4588 6.72627 13.4796 6.88147L14.4319 16.3344L14.4319 16.3347C14.4423 16.4347 14.4737 16.5315 14.5243 16.6187C14.5748 16.706 14.6433 16.7818 14.7252 16.8413C14.807 16.9008 14.9006 16.9428 14.9998 16.9646C15.0989 16.9864 15.2016 16.9876 15.3013 16.9681L15.3017 16.968L17.1311 16.6023L17.132 16.6021C17.5612 16.512 18.0049 16.512 18.4341 16.602C18.4342 16.602 18.4344 16.602 18.4345 16.6021L20.5592 17.0668C20.5593 17.0668 20.5594 17.0668 20.5594 17.0668C21.0203 17.1692 21.4518 17.372 21.8221 17.66C22.1925 17.9481 22.4922 18.3141 22.6992 18.731L22.6995 18.7315L23.7528 20.8206L12.2091 21.4885ZM14.383 27.8992C13.6524 27.6588 13.3011 27.3733 12.8967 27.0445C12.6296 26.8273 12.3392 26.5913 11.9009 26.3369L14.383 27.8992ZM24.6564 30.6275L24.6566 30.6076L24.701 25.7716C24.699 25.7523 24.6986 25.7329 24.6998 25.7136C24.5195 25.0514 24.4287 24.3688 24.4298 23.6833M24.6564 30.6275L24.5298 23.6834M24.6564 30.6275L24.6638 30.646M24.6564 30.6275L24.6638 30.646M24.4298 23.6833L24.5298 23.6834M24.4298 23.6833C24.4298 23.6833 24.4298 23.6833 24.4298 23.6833L24.5298 23.6834M24.4298 23.6833C24.4308 22.6908 24.1992 21.7113 23.7529 20.8208L23.8422 20.7758C24.2955 21.6803 24.5308 22.6752 24.5298 23.6834M24.6638 30.646C24.72 30.7848 24.8185 30.9028 24.9454 30.9838C25.0717 31.0645 25.2201 31.1046 25.3703 31.0991C25.4619 31.099 25.5528 31.082 25.6381 31.0489L25.6382 31.0488M24.6638 30.646L25.6382 31.0488M25.6382 31.0488C25.7274 31.0141 25.8088 30.9623 25.8778 30.8964C25.9468 30.8306 26.002 30.7519 26.0401 30.6648C26.0783 30.5778 26.0986 30.4841 26.0999 30.3892C26.1012 30.3013 26.086 30.214 26.0553 30.1315L26.1122 25.3461L26.1124 25.3321M25.6382 31.0488L26.1124 25.3321M26.1124 25.3321L26.1086 25.3185M26.1124 25.3321L26.1086 25.3185M26.1086 25.3185C25.9626 24.7855 25.8895 24.2357 25.8914 23.6838V23.6834M26.1086 25.3185L25.8914 23.6834M25.8914 23.6834C25.8906 22.4761 25.6063 21.2854 25.0607 20.2039L25.8914 23.6834ZM4.87999 21.8607C6.5315 22.9787 8.01751 24.3161 9.29568 25.8347L5.60787 18.3894C5.29913 18.4355 5.00681 18.5561 4.75698 18.7402C4.50714 18.9244 4.30756 19.1664 4.17604 19.4448C4.04451 19.7232 3.98512 20.0292 4.00316 20.3356C4.01641 20.6398 4.10277 20.9366 4.25517 21.2017C4.40758 21.4668 4.62169 21.6926 4.87999 21.8607Z" fill="#26C4F7" stroke="#26C4F7" stroke-width="0.2"/>
<path d="M4.875 9.1H8.625C8.81944 9.1 9.0045 9.01755 9.1399 8.87313C9.27508 8.72893 9.35 8.53466 9.35 8.33333C9.35 8.13201 9.27508 7.93773 9.1399 7.79353C9.0045 7.64912 8.81944 7.56667 8.625 7.56667H4.875C4.73792 7.56667 4.60504 7.50864 4.50601 7.40301C4.40678 7.29716 4.35 7.1523 4.35 7V3C4.35 2.8477 4.40678 2.70284 4.50601 2.59699C4.60504 2.49136 4.73792 2.43333 4.875 2.43333H21.125C21.2621 2.43333 21.395 2.49136 21.494 2.59699C21.5932 2.70284 21.65 2.8477 21.65 3V7C21.65 7.1523 21.5932 7.29716 21.494 7.40301C21.395 7.50864 21.2621 7.56667 21.125 7.56667H17.375C17.1806 7.56667 16.9955 7.64912 16.8601 7.79353C16.7249 7.93773 16.65 8.13201 16.65 8.33333C16.65 8.53466 16.7249 8.72893 16.8601 8.87313C16.9955 9.01755 17.1806 9.1 17.375 9.1H21.125C21.651 9.1 22.154 8.87707 22.5238 8.48261C22.8934 8.08836 23.1 7.55495 23.1 7V3C23.1 2.44505 22.8934 1.91164 22.5238 1.51739C22.154 1.12293 21.651 0.9 21.125 0.9H4.875C4.34904 0.9 3.84603 1.12293 3.47622 1.51739C3.10661 1.91164 2.9 2.44505 2.9 3V7C2.9 7.55495 3.10661 8.08836 3.47622 8.48261C3.84603 8.87707 4.34904 9.1 4.875 9.1Z" fill="#26C4F7" stroke="#26C4F7" stroke-width="0.2"/>
</g>
<defs>
<clipPath id="clip0">
<rect width="32" height="32" fill="white"/>
</clipPath>
</defs>
</svg>
