<svg width="32" height="32" viewBox="0 0 32 32" fill="none" xmlns="http://www.w3.org/2000/svg">
<g clip-path="url(#clip0)">
<path d="M7.83992 31.2083H24.1601C24.6243 31.2083 25 30.8259 25 30.3542V0.854167C25 0.382456 24.6243 0 24.1601 0H7.83992C7.37567 0 7 0.382456 7 0.854167V30.3542C7 30.8259 7.37567 31.2083 7.83992 31.2083ZM8.67984 1.70833H23.3202V29.5H8.67984V1.70833Z" fill="#26C4F7"/>
<path d="M16 22.854C15.4473 22.854 15 23.1592 15 23.5355V24.1725C15 24.5488 15.4473 24.854 16 24.854C16.5527 24.854 17 24.5488 17 24.1725V23.5355C17 23.1592 16.5527 22.854 16 22.854Z" fill="#26C4F7"/>
<path d="M30.5 22H36V24.5H30.5V26.5L26 23.5L30.5 20V22Z" fill="#26C4F7"/>
<path d="M1.5 8H-4V10.5H1.5V12.5L6 9.5L1.5 6V8Z" fill="#26C4F7"/>
<rect x="10.75" y="5.75" width="10.5" height="2.5" rx="1.25" stroke="#26C4F7" stroke-width="1.5"/>
<rect x="10.75" y="11.75" width="10.5" height="2.5" rx="1.25" stroke="#26C4F7" stroke-width="1.5"/>
</g>
<defs>
<clipPath id="clip0">
<rect width="32" height="32" fill="white"/>
</clipPath>
</defs>
</svg>
