<svg width="32" height="32" viewBox="0 0 32 32" fill="none" xmlns="http://www.w3.org/2000/svg">
<path d="M6.75 27V4C6.75 3.30964 7.30964 2.75 8 2.75H17.2091C17.5267 2.75 17.8323 2.87088 18.064 3.08808L24.8549 9.45454C25.107 9.69085 25.25 10.021 25.25 10.3665V27C25.25 27.6904 24.6904 28.25 24 28.25H16H8C7.30964 28.25 6.75 27.6904 6.75 27Z" stroke="#26C4F7" stroke-width="1.5"/>
<path d="M13.6201 22.7503L9 20.054V19.1737L13.6201 16.1204V17.5978L10.4377 19.5492L13.6201 21.2791V22.7503Z" fill="#26C4F7"/>
<path d="M17.9239 15L15.3882 24H14.0994L16.6351 15H17.9239Z" fill="#26C4F7"/>
<path d="M18.3799 21.2791L21.5623 19.5492L18.3799 17.5978V16.1204L23 19.1737V20.054L18.3799 22.7503V21.2791Z" fill="#26C4F7"/>
</svg>
