<svg width="32" height="32" viewBox="0 0 32 32" fill="none" xmlns="http://www.w3.org/2000/svg">
<path d="M29.0267 12.6533H29.1988C29.7255 12.6942 30.2226 12.9217 30.5988 13.2979C31.0158 13.7148 31.25 14.2803 31.25 14.87C31.25 15.4597 31.0158 16.0252 30.5988 16.4421C30.1818 16.8591 29.6163 17.0933 29.0267 17.0933H27.7567H27.0067V17.8433V23.5085C27.0027 24.4331 26.6344 25.319 25.9816 25.9738C25.329 26.6284 24.4448 26.9995 23.5206 27.0067H17.8567H17.1067V27.7567V29.0267C17.1067 29.6163 16.8724 30.1818 16.4555 30.5988C16.0385 31.0158 15.473 31.25 14.8833 31.25C14.2937 31.25 13.7282 31.0158 13.3112 30.5988C12.8942 30.1818 12.66 29.6163 12.66 29.0267V27.7567V27.0067H11.91H6.24486C5.32062 27.0027 4.43523 26.6344 3.7809 25.9816C3.12677 25.329 2.75636 24.4448 2.75 23.5209V18.6067H3.27C4.25749 18.6067 5.20453 18.2144 5.90279 17.5161C6.60106 16.8179 6.99333 15.8708 6.99333 14.8833C6.99333 13.8958 6.60106 12.9488 5.90279 12.2505C5.20453 11.5523 4.25749 11.16 3.27 11.16H2.75V6.24456C2.75317 5.32063 3.12085 4.43527 3.77316 3.7809C4.42521 3.1268 5.30895 2.75637 6.23246 2.75H11.1467V3.27C11.1467 4.25749 11.5389 5.20453 12.2372 5.90279C12.9355 6.60106 13.8825 6.99333 14.87 6.99333C15.8575 6.99333 16.8045 6.60106 17.5028 5.90279C18.2011 5.20453 18.5933 4.25749 18.5933 3.27V2.75H23.5088C24.4341 2.75317 25.3207 3.12158 25.9757 3.77511C26.6306 4.42843 27.0011 5.31383 27.0067 6.23878V11.9033V12.6533H27.7567H29.0267Z" stroke="#26C4F7" stroke-width="1.5"/>
</svg>
