<svg width="32" height="32" viewBox="0 0 32 32" fill="none" xmlns="http://www.w3.org/2000/svg">
<path d="M24.163 8C21.1427 8 18.552 9.7693 17.2443 12.3333H3.91729C3.76895 12.3332 3.625 12.3847 3.50911 12.4792L0.243679 15.1771C0.165085 15.2416 0.102209 15.3239 0.0599802 15.4174C0.0177514 15.5109 -0.00268204 15.6132 0.000282033 15.7161C0.00324611 15.819 0.0295271 15.9199 0.0770645 16.0107C0.124602 16.1015 0.192103 16.1799 0.274277 16.2396L4.84588 19.5417C4.96336 19.6268 5.10512 19.6699 5.24908 19.6642C5.39303 19.6585 5.53112 19.6044 5.64183 19.5103L7.1827 18.1979L8.72358 19.5103C8.841 19.6103 8.98906 19.6651 9.14196 19.6651C9.29487 19.6651 9.44293 19.6103 9.56035 19.5103L11.1012 18.1979L12.6421 19.5103C12.7593 19.6109 12.9074 19.6662 13.0605 19.6667H17.2545C18.5641 22.2246 21.1472 24 24.163 24C28.4835 24 32 20.4104 32 16C32 11.5896 28.4835 8 24.163 8ZM24.163 9.33333C27.7776 9.33333 30.6938 12.3102 30.6938 16C30.6938 19.6898 27.7776 22.6667 24.163 22.6667C21.5027 22.6667 19.2138 21.0386 18.1933 18.7187C18.1409 18.6036 18.0573 18.5062 17.9525 18.438C17.8476 18.3697 17.7258 18.3334 17.6015 18.3333H13.3054L11.5196 16.8125C11.4022 16.7125 11.2541 16.6578 11.1012 16.6578C10.9483 16.6578 10.8003 16.7125 10.6829 16.8125L9.14198 18.125L7.60111 16.8125C7.48369 16.7125 7.33563 16.6578 7.18272 16.6578C7.02982 16.6578 6.88176 16.7125 6.76434 16.8125L5.19285 18.1563L1.73353 15.6563L4.13158 13.6667H17.6015C17.727 13.6657 17.8495 13.6279 17.9545 13.5577C18.0594 13.4875 18.1424 13.3879 18.1933 13.2708C19.2138 10.951 21.5027 9.33333 24.163 9.33333ZM26.4488 13.3333C25.0137 13.3333 23.8364 14.5351 23.8364 16C23.8364 17.4649 25.0137 18.6667 26.4488 18.6667C27.8838 18.6667 29.0611 17.4649 29.0611 16C29.0611 14.5351 27.8838 13.3333 26.4488 13.3333ZM26.4488 14.6667C27.1779 14.6667 27.7549 15.2557 27.7549 16C27.7549 16.7443 27.1779 17.3333 26.4488 17.3333C25.7197 17.3333 25.1426 16.7443 25.1426 16C25.1426 15.2557 25.7197 14.6667 26.4488 14.6667Z" fill="#26C4F7"/>
</svg>
