<svg width="32" height="32" viewBox="0 0 32 32" fill="none" xmlns="http://www.w3.org/2000/svg">
<path d="M27.2396 4.65H27.2399C28.2623 4.65273 29.2427 5.04723 29.9664 5.74818C30.6901 6.44924 31.0981 7.39988 31.1 8.39232V8.39251V13.9251V13.9252C31.0987 14.8294 30.7602 15.7023 30.1474 16.3834C29.5539 17.043 28.7419 17.4798 27.853 17.6204V21.0823V21.0825H27.753C27.7532 21.1727 27.7286 21.2613 27.6817 21.3392C27.6347 21.4171 27.5671 21.4815 27.4859 21.5257L27.2396 4.65ZM27.2396 4.65H17.1795M27.2396 4.65L13.3086 10.3068M13.3086 10.3068V8.39251V8.39241C13.3091 7.90004 13.4098 7.41265 13.6049 6.95812C13.7999 6.50359 14.0855 6.09091 14.4451 5.74355C14.8046 5.3962 15.2312 5.12096 15.7004 4.93339C16.1695 4.74582 16.6721 4.64955 17.1795 4.65M13.3086 10.3068H4.76734H4.76726C3.74231 10.3077 2.75903 10.7023 2.03364 11.405C1.30815 12.1077 0.9 13.0612 0.9 14.056L0.9 19.5886L0.9 19.5887C0.901256 20.4929 1.23981 21.3658 1.85259 22.0469C2.44609 22.7065 3.25809 23.1433 4.14699 23.2839L4.14699 26.7494L4.147 26.75C4.14766 26.8583 4.17824 26.9642 4.23529 27.0568C4.29233 27.1494 4.37365 27.2251 4.47049 27.2764C4.56731 27.3278 4.67632 27.353 4.78627 27.3497C4.89623 27.3465 5.00349 27.3148 5.09695 27.2578L5.09701 27.2577L11.5219 23.3311H14.8518L14.8522 23.3311C15.8728 23.3266 16.8507 22.931 17.5717 22.23C18.2928 21.5289 18.6983 20.5793 18.6983 19.5886V17.6743H20.5023L13.3086 10.3068ZM17.1795 4.65C17.1795 4.65 17.1795 4.65 17.1796 4.65L17.1795 4.75V4.65H17.1795ZM20.6794 16.4604C20.7979 16.4597 20.9142 16.4929 21.0137 16.5562C21.014 16.5564 21.0143 16.5566 21.0145 16.5568L26.6192 19.9908V17.064C26.6192 16.9029 26.6854 16.749 26.8021 16.6361C26.9186 16.5233 27.076 16.4605 27.2395 16.4604C27.9363 16.4596 28.6038 16.1915 29.0959 15.7159C29.5878 15.2404 29.8644 14.5964 29.8662 13.925C29.8662 13.9249 29.8662 13.9249 29.8662 13.9248L29.8593 8.39948C29.8575 7.72804 29.5809 7.08394 29.0889 6.60842C28.5969 6.13282 27.9294 5.86474 27.2326 5.86386C27.2326 5.86386 27.2326 5.86386 27.2325 5.86386H17.1726C17.1726 5.86386 17.1726 5.86386 17.1726 5.86386C16.4761 5.86474 15.809 6.13291 15.3175 6.60858C14.8261 7.08416 14.5502 7.72824 14.5494 8.39935V10.3135H14.8344H14.8345C15.8579 10.3144 16.8398 10.7082 17.5644 11.4095C18.2891 12.1109 18.6973 13.0626 18.6983 14.0559V14.056V16.4604H20.6794ZM20.6794 16.4604H20.6797V16.5604L20.679 16.4605C20.6791 16.4605 20.6792 16.4604 20.6794 16.4604ZM16.6894 21.3792C17.1808 20.9037 17.4567 20.2596 17.4576 19.5885C17.4576 19.5885 17.4576 19.5885 17.4576 19.5885L17.4541 14.0561C17.4532 13.385 17.1774 12.741 16.686 12.2654C16.1944 11.7897 15.5273 11.5215 14.8308 11.5207H4.77094C4.07409 11.5215 3.40662 11.7896 2.91452 12.2652C2.42257 12.7407 2.14597 13.3847 2.14417 14.0561V19.575C2.14597 20.2464 2.42257 20.8905 2.91452 21.366C3.40662 21.8416 4.07409 22.1097 4.77094 22.1105C4.93438 22.1106 5.09176 22.1734 5.2083 22.2862C5.32498 22.3991 5.39117 22.5529 5.39117 22.7141V25.6543L10.9924 22.2203C10.9927 22.2201 10.9929 22.2199 10.9932 22.2198C11.0927 22.1564 11.2089 22.1232 11.3274 22.124M16.6894 21.3792L11.3272 22.224M16.6894 21.3792C16.1979 21.8549 15.5308 22.1231 14.8343 22.124M16.6894 21.3792L14.8344 22.224M11.3274 22.124C11.3276 22.124 11.3278 22.124 11.328 22.124L11.3272 22.224M11.3274 22.124H11.3272V22.224M11.3274 22.124H14.8343M11.3272 22.224H14.8344M14.8343 22.124L14.8344 22.224M14.8343 22.124H14.8344V22.224M5.39117 25.7716L5.29117 25.8329V25.7156L5.39117 25.7716Z" fill="#26C4F7" stroke="#26C4F7" stroke-width="0.2"/>
<path d="M10.2657 13.4784C10.2223 13.3951 10.1559 13.325 10.0738 13.2761C9.99176 13.2271 9.89723 13.2012 9.80081 13.2012C9.70439 13.2012 9.60987 13.2271 9.52779 13.2761C9.44571 13.325 9.3793 13.3951 9.33597 13.4784L6.12713 19.5952C6.09211 19.6544 6.06988 19.7198 6.06179 19.7876C6.0537 19.8553 6.05991 19.9239 6.08005 19.9893C6.1002 20.0547 6.13385 20.1154 6.17896 20.1678C6.22408 20.2202 6.27973 20.2631 6.34253 20.2941C6.40532 20.3251 6.47396 20.3433 6.54429 20.3479C6.61461 20.3524 6.68514 20.343 6.75161 20.3203C6.81808 20.2977 6.8791 20.2622 6.93097 20.216C6.98284 20.1698 7.02448 20.114 7.05336 20.0517L8.15997 17.9434H11.4417L12.5344 20.0517C12.5633 20.114 12.6049 20.1698 12.6568 20.216C12.7086 20.2622 12.7697 20.2977 12.8361 20.3203C12.9026 20.343 12.9731 20.3524 13.0435 20.3479C13.1138 20.3433 13.1824 20.3251 13.2452 20.2941C13.308 20.2631 13.3637 20.2202 13.4088 20.1678C13.4539 20.1154 13.4876 20.0547 13.5077 19.9893C13.5278 19.9239 13.5341 19.8553 13.526 19.7876C13.5179 19.7198 13.4956 19.6544 13.4606 19.5952L10.2657 13.4784ZM8.68726 16.9363L9.80081 14.8179L10.9109 16.9363H8.68726Z" fill="#26C4F7"/>
<path d="M25.2484 13.5255L23.219 12.2028C23.6392 11.5598 23.988 10.8756 24.2597 10.1617H24.9535C25.0915 10.1617 25.2239 10.1086 25.3215 10.0142C25.4191 9.91973 25.4739 9.79165 25.4739 9.65809C25.4739 9.52454 25.4191 9.39645 25.3215 9.30201C25.2239 9.20757 25.0915 9.15452 24.9535 9.15452H22.8513V8.10709C22.8513 7.97353 22.7965 7.84545 22.6989 7.75101C22.6013 7.65657 22.469 7.60352 22.331 7.60352C22.193 7.60352 22.0606 7.65657 21.963 7.75101C21.8654 7.84545 21.8106 7.97353 21.8106 8.10709V9.15452H19.4725C19.3345 9.15452 19.2021 9.20757 19.1046 9.30201C19.007 9.39645 18.9521 9.52454 18.9521 9.65809C18.9521 9.79165 19.007 9.91973 19.1046 10.0142C19.2021 10.1086 19.3345 10.1617 19.4725 10.1617H23.1531C22.9313 10.6742 22.6644 11.1672 22.3552 11.6355L21.0474 10.7827C20.9306 10.7079 20.7878 10.6811 20.6506 10.7082C20.5133 10.7353 20.3928 10.814 20.3155 10.9271C20.2382 11.0402 20.2105 11.1783 20.2385 11.3112C20.2664 11.444 20.3478 11.5607 20.4646 11.6355L21.7551 12.4747C21.3514 12.9687 20.902 13.426 20.4126 13.8411C20.3091 13.9301 20.2464 14.0553 20.2382 14.1891C20.2301 14.3229 20.2772 14.4543 20.3692 14.5545C20.4612 14.6547 20.5906 14.7154 20.7288 14.7232C20.8671 14.7311 21.0029 14.6855 21.1064 14.5965C21.6631 14.1242 22.1729 13.6027 22.6293 13.0387L24.676 14.3816C24.7611 14.4369 24.8614 14.4662 24.9639 14.4655C25.0751 14.4652 25.1832 14.4305 25.2725 14.3665C25.3617 14.3024 25.4275 14.2124 25.46 14.1096C25.4926 14.0067 25.4903 13.8965 25.4535 13.795C25.4166 13.6936 25.3472 13.6062 25.2553 13.5457L25.2484 13.5255Z" fill="#26C4F7"/>
</svg>
