<svg width="32" height="32" viewBox="0 0 32 32" fill="none" xmlns="http://www.w3.org/2000/svg">
<g clip-path="url(#clip0)">
<path d="M11.3499 4.73936H6.09627C5.87244 4.73936 5.65768 4.90506 5.55171 5.11714L5.55115 5.11686L5.54875 5.12445C5.50626 5.2591 5.53051 5.39183 5.59778 5.51965C5.66447 5.64638 5.77455 5.77073 5.90872 5.89312C6.12394 6.08943 6.41005 6.28831 6.6993 6.48938C6.76999 6.53852 6.84086 6.58778 6.91094 6.63717C7.2709 6.8909 7.6098 7.1479 7.813 7.4137C7.91415 7.54601 7.97922 7.67745 7.99819 7.8089C8.01698 7.93906 7.9912 8.0734 7.90325 8.21421L7.90322 8.21419L7.90224 8.2159C7.7182 8.5382 7.30297 8.63426 6.97533 8.44995C6.96957 8.44511 6.96316 8.44065 6.95745 8.43689C6.94882 8.43119 6.93837 8.42485 6.92671 8.41811C6.90335 8.40459 6.87334 8.38838 6.83954 8.37068C6.77195 8.33529 6.68724 8.29291 6.60622 8.25237L6.60598 8.25225C6.52455 8.2115 6.44705 8.17272 6.393 8.14413C6.36566 8.12967 6.34576 8.11857 6.33452 8.11143C6.33062 8.10896 6.32917 8.10783 6.32916 8.10785C6.32915 8.10786 6.33016 8.1087 6.33158 8.11026C6.33259 8.11136 6.33597 8.11512 6.33884 8.12116C6.34146 8.1267 6.34733 8.14221 6.33975 8.16059C6.33836 8.16395 6.33672 8.16693 6.33493 8.16957C6.32258 8.1627 6.31262 8.15685 6.30556 8.15226L6.31921 8.09626C5.33709 7.5873 4.63635 7.25607 4.1231 7.01348C3.90493 6.91036 3.72065 6.82325 3.56303 6.74531C3.03478 6.48411 2.80657 6.32622 2.58913 6.01221L0.940545 3.41258C0.78174 3.1483 0.452163 3.02538 0.220271 3.19721C0.0826973 3.28075 0.00184583 3.41794 -0.0316105 3.55856C-0.0650758 3.69922 -0.05256 3.84909 0.00354354 3.96137L0.00319571 3.96155L0.00665961 3.96675C0.381019 4.52869 0.671164 4.997 0.912322 5.39219C0.960229 5.47069 1.00624 5.54637 1.05062 5.61937C1.22937 5.9134 1.38164 6.16387 1.52483 6.38007C1.88376 6.92199 2.18937 7.25435 2.72417 7.53469L2.72437 7.5348L5.49645 8.97137V14.6432C5.49645 14.8046 5.55044 14.943 5.64854 15.0412C5.74665 15.1393 5.88497 15.1934 6.04629 15.1934H8.45676C8.72469 16.196 9.63383 16.9941 10.7447 16.9941C11.8551 16.9941 12.7655 16.2451 13.0332 15.1934H15.4432C15.6045 15.1934 15.7428 15.1393 15.8409 15.0412C15.939 14.943 15.993 14.8046 15.993 14.6432V11.7421C15.993 11.5806 15.939 11.4422 15.8409 11.3441C15.7428 11.2459 15.6045 11.1919 15.4432 11.1919C14.7711 11.1919 14.1936 10.614 14.1936 9.94135C14.1936 9.65769 14.3358 9.37002 14.5654 9.15232C14.7947 8.93491 15.1076 8.79089 15.4432 8.79089C15.6045 8.79089 15.7428 8.73686 15.8409 8.63868C15.939 8.5405 15.993 8.4021 15.993 8.24069V5.33957C15.993 5.17816 15.939 5.03976 15.8409 4.94159C15.7428 4.84341 15.6045 4.78938 15.4432 4.78938H12.6692C12.4525 4.49817 12.2735 4.2128 12.1065 3.94025C12.0845 3.90437 12.0627 3.86868 12.041 3.83323C11.8947 3.59381 11.7547 3.36468 11.6039 3.15344C11.2563 2.66637 10.8486 2.27041 10.1611 2.04098C10.161 2.04095 10.1609 2.04091 10.1608 2.04088L4.2633 -0.00971205L4.26331 -0.00971583L4.2627 -0.00991622C4.10439 -0.0627263 3.95352 -0.0645781 3.8267 -0.00817063C3.69944 0.0484294 3.60376 0.160422 3.55012 0.320453C3.44147 0.594737 3.6022 0.926967 3.88312 0.986058C6.08163 1.80863 7.51301 2.2802 8.47186 2.5961C8.76583 2.69295 9.01539 2.77517 9.22902 2.84838C9.68538 3.00478 9.97424 3.11896 10.1831 3.24556C10.3893 3.37062 10.5185 3.5085 10.6528 3.71608L10.6528 3.71609L10.6534 3.71708L11.3499 4.73936ZM13.0939 10.0414C13.0939 11.1513 13.8412 12.0634 14.8933 12.2832V14.143H12.5441C12.3828 14.143 12.2445 14.197 12.1464 14.2952C12.0483 14.3934 11.9943 14.5318 11.9943 14.6932C11.9943 15.3659 11.4169 15.9437 10.7447 15.9437C10.0726 15.9437 9.49516 15.3659 9.49516 14.6932C9.49516 14.5318 9.44118 14.3934 9.34308 14.2952C9.24497 14.197 9.10665 14.143 8.94533 14.143H6.59612V9.56766C7.52042 9.95261 8.37527 9.53045 8.80032 8.84862C9.23655 8.14887 9.22412 7.16942 8.37692 6.50111C8.37678 6.501 8.37663 6.50089 8.37649 6.50077L7.6351 5.88976H14.8933V7.75182C13.8914 8.01995 13.0939 8.92976 13.0939 10.0414Z" fill="#26C4F7" stroke="#26C4F7" stroke-width="0.1"/>
<path d="M20.9678 27.6488C20.8707 27.4899 20.7655 27.3218 20.6404 27.1481C21.931 27.1485 22.9249 27.1563 23.6917 27.1623C24.6067 27.1694 25.1985 27.174 25.5855 27.1606C25.7658 27.1543 25.9035 27.1441 26.0097 27.128C26.1156 27.112 26.1935 27.0898 26.2522 27.0575C26.369 26.9933 26.3984 26.8941 26.4321 26.7809C26.4339 26.7748 26.4358 26.7686 26.4376 26.7623L26.4378 26.7617C26.4919 26.5721 26.4516 26.4322 26.3881 26.3333C26.3401 26.2586 26.2742 26.2037 26.242 26.177C26.2341 26.1704 26.2282 26.1655 26.2252 26.1624L26.2244 26.1617C25.9219 25.8716 25.5979 25.6261 25.2927 25.4069C25.2073 25.3455 25.1235 25.2863 25.0422 25.2288C24.8318 25.0801 24.6375 24.9428 24.4719 24.8084C24.2418 24.6217 24.0754 24.447 24.0008 24.2655C23.9283 24.0889 23.9401 23.8995 24.0828 23.6734L24.0829 23.6732C24.2017 23.483 24.3412 23.392 24.4852 23.3586C24.6312 23.3248 24.7883 23.3487 24.9431 23.4003C25.0978 23.4519 25.2459 23.5297 25.3731 23.5992C25.3872 23.6069 25.4011 23.6145 25.4147 23.622C25.4619 23.6479 25.5061 23.6722 25.5452 23.692C25.5912 23.7154 25.635 23.7352 25.6721 23.744C26.708 24.3178 27.4296 24.6794 27.949 24.9397C28.1297 25.0303 28.2859 25.1086 28.4223 25.1792C28.9511 25.4532 29.1795 25.6111 29.397 25.9253L31.046 28.5254L31.046 28.5255C31.1408 28.6745 31.2715 28.7549 31.4093 28.7785C31.546 28.8019 31.6863 28.7688 31.8017 28.6975C31.9172 28.6261 32.0101 28.5149 32.0499 28.379C32.09 28.2422 32.0749 28.0843 31.9811 27.9232L31.9812 27.9232L31.9792 27.9203C31.6049 27.3709 31.3149 26.909 31.0738 26.5163C31.0058 26.4055 30.9416 26.3002 30.8805 26.1998C30.7252 25.9447 30.5896 25.7221 30.4615 25.5264C30.1029 24.9786 29.7973 24.6333 29.262 24.3528L29.262 24.3528L29.2608 24.3522L26.4397 22.9654V17.2943C26.4397 17.1329 26.3857 16.9945 26.2876 16.8963C26.1895 16.7981 26.0512 16.7441 25.8899 16.7441H23.4794C23.2115 15.7414 22.3024 14.9434 21.1914 14.9434C20.0811 14.9434 19.1707 15.6923 18.903 16.7441H16.493C16.3317 16.7441 16.1934 16.7981 16.0953 16.8963C15.9971 16.9945 15.9432 17.1329 15.9432 17.2943V20.1954C15.9432 20.3568 15.9971 20.4952 16.0953 20.5934C16.1934 20.6916 16.3317 20.7456 16.493 20.7456C17.1651 20.7456 17.7426 21.3234 17.7426 21.9961H17.7424L17.7427 22C17.7902 22.6175 17.2174 23.1966 16.543 23.1966C16.3817 23.1966 16.2433 23.2506 16.1452 23.3488C16.0471 23.447 15.9931 23.5854 15.9931 23.7468V26.6479C15.9931 26.8093 16.0471 26.9477 16.1452 27.0459C16.2433 27.1441 16.3817 27.1981 16.543 27.1981H19.317C19.5337 27.4893 19.7126 27.7747 19.8797 28.0472C19.9017 28.0831 19.9235 28.1188 19.9452 28.1543C20.0915 28.3937 20.2315 28.6228 20.3823 28.8341C20.7299 29.3211 21.1376 29.7171 21.8251 29.9465C24.9238 31.0218 26.3981 31.5469 27.1164 31.8032L27.1836 31.8272C27.4969 31.939 27.6523 31.9945 27.7372 32.0218C27.7825 32.0364 27.8104 32.0439 27.8328 32.0474C27.8521 32.0503 27.8671 32.0502 27.8809 32.0501C27.8837 32.05 27.8865 32.05 27.8892 32.05C28.1104 32.05 28.3297 31.8865 28.3868 31.6653C28.4957 31.387 28.329 31.0618 28.0578 30.9532L28.0578 30.9532L28.056 30.9525L22.1579 28.8517L22.1578 28.8517C21.7458 28.7061 21.5035 28.4645 21.2886 28.1574C21.1987 28.0288 21.1142 27.8897 21.0238 27.7408C21.0054 27.7106 20.9868 27.6799 20.9678 27.6488ZM17.0928 19.7047V17.8445H19.442C19.6033 17.8445 19.7417 17.7905 19.8398 17.6923C19.9379 17.5941 19.9919 17.4557 19.9919 17.2943C19.9919 16.6216 20.5693 16.0438 21.2414 16.0438C21.9136 16.0438 22.491 16.6216 22.491 17.2943C22.491 17.4557 22.545 17.5941 22.6431 17.6923C22.7412 17.7905 22.8795 17.8445 23.0408 17.8445H25.39V22.4198C24.6273 22.1067 23.6472 22.3712 23.1492 23.1188L23.1491 23.1188L23.1482 23.1203C22.8802 23.5546 22.8144 23.9513 22.8736 24.306C22.9326 24.6595 23.1148 24.9662 23.3339 25.2235C23.553 25.4809 23.811 25.6914 24.0253 25.8524C24.0927 25.903 24.1567 25.9495 24.2134 25.9907C24.2464 26.0146 24.277 26.0368 24.3044 26.057C24.3243 26.0717 24.3424 26.0853 24.3587 26.0977H17.0928V24.2357C18.0948 23.9675 18.8922 23.0577 18.8922 21.9461C18.8922 20.8357 18.0961 19.925 17.0928 19.7047Z" fill="#26C4F7" stroke="#26C4F7" stroke-width="0.1"/>
<path d="M25.8898 13.8928C26.0511 13.8928 26.1894 13.8388 26.2875 13.7406C26.3856 13.6425 26.4396 13.5041 26.4396 13.3427V5.33955C26.4396 5.17814 26.3856 5.03974 26.2875 4.94157C26.1894 4.84339 26.0511 4.78936 25.8898 4.78936H17.8924C17.7311 4.78936 17.5928 4.84339 17.4947 4.94157C17.3966 5.03974 17.3426 5.17814 17.3426 5.33955V13.3427C17.3426 13.5041 17.3966 13.6425 17.4947 13.7406C17.5928 13.8388 17.7311 13.8928 17.8924 13.8928H25.8898ZM18.4422 5.88974H25.3399V12.7925H18.4422V5.88974Z" fill="#26C4F7" stroke="#26C4F7" stroke-width="0.1"/>
<path d="M6.09651 18.0945C5.93519 18.0945 5.79687 18.1486 5.69877 18.2467C5.60066 18.3449 5.54668 18.4833 5.54668 18.6447V26.6478C5.54668 26.8092 5.60066 26.9476 5.69877 27.0458C5.79687 27.144 5.93519 27.198 6.09651 27.198H14.0939C14.2552 27.198 14.3935 27.144 14.4916 27.0458C14.5897 26.9476 14.6437 26.8092 14.6437 26.6478V18.6447C14.6437 18.4833 14.5897 18.3449 14.4916 18.2467C14.3935 18.1486 14.2552 18.0945 14.0939 18.0945H6.09651ZM13.544 26.0976H6.64635V19.1949H13.544V26.0976Z" fill="#26C4F7" stroke="#26C4F7" stroke-width="0.1"/>
</g>
<defs>
<clipPath id="clip0">
<rect width="32" height="32" fill="white"/>
</clipPath>
</defs>
</svg>
