<svg width="32" height="32" viewBox="0 0 32 32" fill="none" xmlns="http://www.w3.org/2000/svg">
<path d="M8.81592 8.05798H23.0094V9.18848H8.81592V8.05798Z" fill="#26C4F7"/>
<path d="M8.81592 11.6942H23.0094V12.8246H8.81592V11.6942Z" fill="#26C4F7"/>
<path d="M8.81592 15.3307H23.0094V16.4612H8.81592V15.3307Z" fill="#26C4F7"/>
<path fill-rule="evenodd" clip-rule="evenodd" d="M2 20.8255C2 20.2732 2.44772 19.8255 3 19.8255H29C29.5523 19.8255 30 20.2732 30 20.8255V28.9999C30 29.5522 29.5523 29.9999 29 29.9999H3C2.44771 29.9999 2 29.5522 2 28.9999V20.8255ZM9.53044 25.5842L7.98548 25.6829C8.03075 26.2253 8.22523 26.6714 8.57019 27.0226C8.91391 27.375 9.53288 27.55 10.4258 27.55C10.9347 27.55 11.3567 27.475 11.6907 27.325C12.0258 27.1751 12.2864 26.9551 12.4723 26.6639C12.6583 26.374 12.7524 26.0566 12.7524 25.7129C12.7524 25.4192 12.6815 25.1543 12.5421 24.9181C12.4026 24.6806 12.1788 24.4832 11.8717 24.3232C11.5647 24.1633 11.057 24.0045 10.3475 23.8483C10.0601 23.7871 9.87907 23.7221 9.80199 23.6509C9.72371 23.5821 9.68455 23.5059 9.68455 23.4209C9.68455 23.3034 9.73226 23.2035 9.82767 23.1222C9.92309 23.0398 10.065 22.9998 10.2546 22.9998C10.4833 22.9998 10.6632 23.0548 10.7928 23.1635C10.9237 23.2735 11.0093 23.4497 11.0497 23.6908L12.58 23.5996C12.5127 23.0435 12.3035 22.6374 11.9512 22.3824C11.5989 22.1275 11.0864 22 10.4148 22C9.86806 22 9.43747 22.07 9.1231 22.21C8.80874 22.3512 8.57386 22.5436 8.41729 22.7886C8.26071 23.0335 8.18244 23.2947 8.18244 23.5709C8.18244 23.9908 8.33533 24.3357 8.64115 24.6069C8.94451 24.8781 9.45215 25.0943 10.1641 25.258C10.5995 25.3555 10.876 25.4592 10.9959 25.5692C11.1157 25.6792 11.1745 25.8041 11.1745 25.9429C11.1745 26.0891 11.1121 26.2178 10.9873 26.329C10.8613 26.4402 10.6827 26.4952 10.4515 26.4952C10.1408 26.4952 9.90107 26.3878 9.73473 26.1703C9.63196 26.0353 9.56345 25.8404 9.53044 25.5842ZM18.6326 26.9464C18.5702 26.9101 18.4381 26.8189 18.235 26.6752C18.6167 26.1991 18.8087 25.5642 18.8087 24.7719C18.8087 23.8808 18.5714 23.196 18.0968 22.7173C17.6222 22.2387 16.9494 22 16.0773 22C15.2222 22 14.5568 22.2449 14.0797 22.7336C13.6026 23.2235 13.3641 23.9096 13.3641 24.7931C13.3641 25.7042 13.6369 26.4103 14.1812 26.9126C14.6424 27.3375 15.2724 27.55 16.0699 27.55C16.6106 27.55 17.0595 27.4713 17.4179 27.3125C17.506 27.39 17.6613 27.5075 17.884 27.6625C18.1054 27.8174 18.3304 27.9511 18.558 28.0624L19.0094 27.1326C18.8516 27.0626 18.7256 27.0001 18.6326 26.9464ZM17.1855 24.7644C17.1855 25.2355 17.1207 25.5892 16.991 25.8254C16.9274 25.7841 16.8675 25.7442 16.8124 25.7054C16.58 25.5392 16.4247 25.4367 16.3451 25.398C16.2644 25.358 16.1531 25.3255 16.01 25.298L15.7555 25.8954C16.0491 26.0153 16.2644 26.1415 16.4002 26.2765C16.3023 26.2978 16.1984 26.309 16.0883 26.309C15.747 26.309 15.4779 26.1903 15.2821 25.9541C15.0864 25.7166 14.9886 25.3055 14.9886 24.7206C14.9886 24.217 15.0889 23.8471 15.2895 23.6109C15.4901 23.3734 15.7519 23.256 16.0736 23.256C16.421 23.256 16.6925 23.3709 16.8895 23.6034C17.0864 23.8358 17.1855 24.222 17.1855 24.7644ZM21.3066 22.0912H19.6821L19.6821 27.4588H23.8399V26.1365H21.3066V22.0912Z" fill="#26C4F7"/>
<path fill-rule="evenodd" clip-rule="evenodd" d="M21.8333 3.46964H7.01667V19.7126H24.9833V6.52197C24.9833 4.83621 23.573 3.46964 21.8333 3.46964ZM5.5 2V21.1822H26.5V6.52197C26.5 4.02455 24.4107 2 21.8333 2H5.5Z" fill="#26C4F7"/>
</svg>
