<svg width="32" height="32" viewBox="0 0 32 32" fill="none" xmlns="http://www.w3.org/2000/svg">
<path d="M30.6959 13.75H28.1619V9.76789C28.1619 9.49039 27.9432 9.25282 27.6578 9.25282H16.5041V6.2996H19.0384C19.3238 6.2996 19.5425 6.06204 19.5425 5.78454V2.31506C19.5425 2.03757 19.3238 1.8 19.0384 1.8H12.9613C12.6763 1.8 12.4572 2.03744 12.4572 2.31506V5.78454C12.4572 6.06217 12.6763 6.2996 12.9613 6.2996H15.4959V9.25282H4.34222C4.05728 9.25282 3.83813 9.49026 3.83813 9.76789V13.75H1.30409C1.01915 13.75 0.8 13.9875 0.8 14.2651V17.7346C0.8 18.0127 1.01928 18.2496 1.30409 18.2496H3.83813V22.2315C3.83813 22.5096 4.05741 22.7465 4.34222 22.7465H15.4959V25.7004H12.9613C12.6764 25.7004 12.4572 25.9374 12.4572 26.2155V29.6849C12.4572 29.963 12.6764 30.2 12.9613 30.2H19.0384C19.3237 30.2 19.5425 29.9629 19.5425 29.6849V26.2155C19.5425 25.9375 19.3237 25.7004 19.0384 25.7004H16.5041V22.7465H27.6578C27.943 22.7465 28.1619 22.5094 28.1619 22.2315V18.2496H30.6959C30.9812 18.2496 31.2 18.0125 31.2 17.7346V14.2651C31.2 13.9876 30.9813 13.75 30.6959 13.75ZM13.4653 2.83013H18.5343V5.26948H13.4653V2.83013ZM18.5343 29.1699H13.4653V26.7305H18.5343V29.1699ZM1.80817 14.7802H6.87687V17.2195H1.80817V14.7802ZM4.84631 21.7164V18.2496H7.38096C7.66577 18.2496 7.88505 18.0127 7.88505 17.7346V14.2651C7.88505 13.9875 7.6659 13.75 7.38096 13.75H4.84631V10.283H15.4959V13.75H12.9619C12.6769 13.75 12.4578 13.9875 12.4578 14.2651V17.7346C12.4578 18.0127 12.6771 18.2496 12.9619 18.2496H15.4959V21.7164H4.84631ZM13.466 17.2195V14.7802H18.5343V17.2195H13.466ZM27.1537 21.7164H16.5041V18.2496H19.0384C19.3237 18.2496 19.5425 18.0125 19.5425 17.7346V14.2651C19.5425 13.9876 19.3238 13.75 19.0384 13.75H16.5041V10.283H27.1537V13.75H24.6196C24.3343 13.75 24.1156 13.9876 24.1156 14.2651V17.7346C24.1156 18.0125 24.3344 18.2496 24.6196 18.2496H27.1537V21.7164ZM30.1918 17.2195H25.1237V14.7802H30.1918V17.2195Z" fill="#26C4F7" stroke="#26C4F7" stroke-width="0.4"/>
<rect x="13" y="14" width="6" height="4" fill="#26C4F7"/>
</svg>
