<svg width="32" height="32" viewBox="0 0 32 32" fill="none" xmlns="http://www.w3.org/2000/svg">
<path d="M0.75 7.75H31.25V29C31.25 29.1381 31.1381 29.25 31 29.25H1C0.861929 29.25 0.75 29.1381 0.75 29V7.75Z" stroke="#26C4F7" stroke-width="1.5"/>
<path d="M0.75 3C0.75 2.86193 0.861929 2.75 1 2.75H31C31.1381 2.75 31.25 2.86193 31.25 3V7.75H0.75V3Z" stroke="#26C4F7" stroke-width="1.5"/>
<path d="M23.5 5.25C23.5 5.66421 23.1642 6 22.75 6C22.3358 6 22 5.66421 22 5.25C22 4.83579 22.3358 4.5 22.75 4.5C23.1642 4.5 23.5 4.83579 23.5 5.25Z" fill="#26C4F7"/>
<path d="M26.5 5.25C26.5 5.66421 26.1642 6 25.75 6C25.3358 6 25 5.66421 25 5.25C25 4.83579 25.3358 4.5 25.75 4.5C26.1642 4.5 26.5 4.83579 26.5 5.25Z" fill="#26C4F7"/>
<path d="M29.5 5.25C29.5 5.66421 29.1642 6 28.75 6C28.3358 6 28 5.66421 28 5.25C28 4.83579 28.3358 4.5 28.75 4.5C29.1642 4.5 29.5 4.83579 29.5 5.25Z" fill="#26C4F7"/>
<path d="M13.6201 21.7503L9 19.054V18.1737L13.6201 15.1204V16.5978L10.4377 18.5492L13.6201 20.2791V21.7503Z" fill="#26C4F7"/>
<path d="M17.9239 14L15.3882 23H14.0994L16.6351 14H17.9239Z" fill="#26C4F7"/>
<path d="M18.3799 20.2791L21.5623 18.5492L18.3799 16.5978V15.1204L23 18.1737V19.054L18.3799 21.7503V20.2791Z" fill="#26C4F7"/>
</svg>
