<svg width="32" height="32" viewBox="0 0 32 32" fill="none" xmlns="http://www.w3.org/2000/svg">
<path d="M10.8208 6.71673L16 11.905L21.1792 6.71673C21.4344 6.46109 21.8483 6.46109 22.1035 6.71673L30.9087 15.5373C31.1638 15.7929 31.1638 16.2071 30.9087 16.4627L22.1035 25.2833C21.8483 25.5389 21.4344 25.5389 21.1792 25.2833L16 20.095L10.8208 25.2833C10.5656 25.5389 10.1517 25.5389 9.89653 25.2833L1.09133 16.4627C0.836224 16.2071 0.836224 15.7929 1.09133 15.5373L9.89653 6.71673C10.1517 6.46109 10.5656 6.46109 10.8208 6.71673ZM21.6749 8.42149L17.0987 13.0057L19.626 15.5373C19.8811 15.7929 19.8811 16.2071 19.626 16.4627L17.1529 18.9401L21.6749 23.4701C21.6863 23.4815 21.7047 23.4815 21.7161 23.4701L29.2064 15.9666C29.2179 15.9551 29.2179 15.9364 29.2064 15.9249L21.7161 8.42149C21.7047 8.41009 21.6863 8.41009 21.6749 8.42149ZM10.3412 8.37328C10.3294 8.36145 10.3103 8.36145 10.2985 8.37328L2.74547 15.9395C2.73357 15.9514 2.73357 15.9708 2.74547 15.9828L10.2985 23.549C10.3103 23.5608 10.3294 23.5608 10.3412 23.549L17.8942 15.9828C17.9061 15.9708 17.9061 15.9514 17.8942 15.9395L10.3412 8.37328Z" fill="#26C4F7" stroke="#26C4F7" stroke-width="0.2"/>
<path d="M14.2096 18.3015L14.2825 18.3745L14.3532 18.2994L15.2698 17.325L15.3362 17.2544L15.2678 17.1858L14.1154 16.0314C14.1035 16.0195 14.1035 16.0001 14.1154 15.9882L15.2192 14.8824L15.291 14.8105L15.2179 14.7399L14.2461 13.8014L14.1753 13.733L14.1058 13.8026L12.374 15.5374C12.1189 15.793 12.1189 16.2072 12.374 16.4628L14.2096 18.3015Z" fill="#26C4F7" stroke="#26C4F7" stroke-width="0.2"/>
</svg>
