<svg width="32" height="32" viewBox="0 0 32 32" fill="none" xmlns="http://www.w3.org/2000/svg">
<path d="M3.9541 14.0853C4.13244 13.2561 4.38289 12.4423 4.70923 11.6591C4.67128 11.7508 4.63333 11.8425 4.59539 11.9341C4.85342 11.319 5.15699 10.723 5.5023 10.1537C5.66927 9.87473 5.84761 9.60346 6.03735 9.33982C6.08288 9.27487 6.12842 9.20991 6.17395 9.14878C6.20431 9.10675 6.37886 8.8775 6.24226 9.05326C6.10565 9.23284 6.2802 9.00359 6.31435 8.96156C6.36748 8.89279 6.4244 8.82401 6.48132 8.75906C6.90631 8.24325 7.37305 7.76183 7.87015 7.31861C7.98778 7.21163 8.10921 7.10847 8.23064 7.00913C8.29135 6.95946 8.35207 6.90979 8.41658 6.86012C8.45073 6.83337 8.48488 6.8028 8.51903 6.77606C8.4697 6.81427 8.42037 6.85248 8.37104 6.89068C8.3976 6.86776 8.42796 6.84865 8.45452 6.82573C8.71635 6.62705 8.98577 6.43983 9.26278 6.26025C9.90407 5.84378 10.5833 5.48845 11.2853 5.1866C11.1942 5.22481 11.1032 5.26302 11.0121 5.30123C12.1163 4.83509 13.2737 4.52178 14.4576 4.36131C14.3552 4.37659 14.2565 4.38805 14.154 4.40334C15.3266 4.2505 16.5105 4.2505 17.6793 4.40716C17.5768 4.39187 17.4781 4.38041 17.3757 4.36513C18.5482 4.5256 19.6942 4.84655 20.7871 5.30887C20.696 5.27066 20.6049 5.23245 20.5138 5.19424C21.1248 5.45788 21.7129 5.75972 22.2783 6.11124C22.5516 6.27935 22.821 6.45893 23.0828 6.64997C23.208 6.73785 23.3295 6.83337 23.4509 6.92507C23.1207 6.67672 23.3902 6.87922 23.4623 6.93653C23.5268 6.99002 23.5951 7.04352 23.6596 7.10083C24.1681 7.53258 24.6462 7.99872 25.0864 8.49924C25.1888 8.61387 25.2875 8.73231 25.3861 8.85458C25.4393 8.91953 25.4962 8.98831 25.5493 9.05708C25.5721 9.08383 25.591 9.11057 25.6138 9.13732C25.4924 8.98066 25.462 8.93864 25.5152 9.00741C25.5303 9.02651 25.5455 9.04944 25.5607 9.06854C25.758 9.33218 25.944 9.60346 26.1223 9.87856C26.5397 10.5319 26.8964 11.2197 27.1962 11.9303C27.1582 11.8386 27.1203 11.7469 27.0823 11.6552C27.3859 12.3926 27.6288 13.153 27.8033 13.9286C27.9361 14.5132 28.6381 14.9144 29.2035 14.731C29.8145 14.5323 30.1408 13.9477 30.0004 13.3211C29.435 10.807 28.1904 8.46868 26.441 6.58884C24.7486 4.77013 22.5743 3.41375 20.2179 2.66105C17.7665 1.87778 15.1179 1.80137 12.6172 2.37449C10.0748 2.95907 7.70319 4.26961 5.82864 6.09595C4.00722 7.86881 2.66013 10.146 1.96571 12.6028C1.88223 12.8932 1.81393 13.1874 1.74942 13.4816C1.6242 14.0662 1.92018 14.7501 2.54629 14.8915C3.12687 15.0175 3.82128 14.7119 3.9541 14.0853Z" fill="#26C4F7"/>
<path d="M29.7537 7.74646C29.1883 9.37413 28.6229 11.0056 28.0575 12.6333C27.9778 12.8625 27.8981 13.0918 27.8184 13.3248C28.2851 13.0574 28.7519 12.7899 29.2186 12.5225C27.6021 11.9532 25.9818 11.3839 24.3653 10.8146C24.1376 10.7343 23.9099 10.6541 23.6785 10.5739C23.1169 10.3752 22.4073 10.7993 22.2782 11.3762C22.134 12.0143 22.4718 12.576 23.0751 12.7861C24.6916 13.3554 26.3119 13.9247 27.9284 14.494C28.1561 14.5742 28.3838 14.6545 28.6153 14.7347C28.8733 14.8264 29.2641 14.7653 29.4918 14.6201C29.7499 14.452 29.913 14.2304 30.0155 13.9362C30.5809 12.3085 31.1463 10.677 31.7117 9.04936C31.7914 8.82011 31.8711 8.59086 31.9507 8.35779C32.1481 7.79231 31.7269 7.07782 31.1539 6.94792C30.5202 6.80273 29.9661 7.14278 29.7537 7.74646Z" fill="#26C4F7"/>
<path d="M28.0459 18.9147C27.8676 19.7438 27.6171 20.5577 27.2908 21.3409C27.3287 21.2492 27.3667 21.1575 27.4046 21.0658C27.1466 21.681 26.843 22.277 26.4977 22.8463C26.3307 23.1253 26.1524 23.3965 25.9627 23.6602C25.9171 23.7251 25.8716 23.7901 25.8261 23.8512C25.7957 23.8932 25.6212 24.1225 25.7578 23.9467C25.8944 23.7672 25.7198 23.9964 25.6857 24.0384C25.6325 24.1072 25.5756 24.176 25.5187 24.2409C25.0937 24.7567 24.627 25.2382 24.1299 25.6814C24.0122 25.7884 23.8908 25.8915 23.7694 25.9909C23.7087 26.0405 23.6479 26.0902 23.5834 26.1399C23.5493 26.1666 23.5151 26.1972 23.481 26.2239C23.5303 26.1857 23.5796 26.1475 23.629 26.1093C23.6024 26.1322 23.5721 26.1513 23.5455 26.1743C23.2837 26.3729 23.0142 26.5602 22.7372 26.7397C22.0959 27.1562 21.4167 27.5115 20.7147 27.8134C20.8058 27.7752 20.8968 27.737 20.9879 27.6988C19.8837 28.1649 18.7263 28.4782 17.5424 28.6387C17.6448 28.6234 17.7435 28.6119 17.846 28.5967C16.6734 28.7495 15.4895 28.7495 14.3208 28.5928C14.4232 28.6081 14.5219 28.6196 14.6243 28.6349C13.4518 28.4744 12.3058 28.1534 11.213 27.6911C11.304 27.7293 11.3951 27.7675 11.4862 27.8057C10.8752 27.5421 10.2871 27.2403 9.72167 26.8888C9.44846 26.7206 9.17904 26.5411 8.91721 26.35C8.79199 26.2621 8.67056 26.1666 8.54913 26.0749C8.87927 26.3233 8.60985 26.1208 8.53775 26.0635C8.47324 26.01 8.40494 25.9565 8.34043 25.8992C7.83195 25.4674 7.35383 25.0013 6.91365 24.5008C6.8112 24.3861 6.71253 24.2677 6.61387 24.1454C6.56075 24.0805 6.50383 24.0117 6.45071 23.9429C6.42794 23.9162 6.40896 23.8894 6.3862 23.8627C6.50762 24.0193 6.53798 24.0614 6.48486 23.9926C6.46968 23.9735 6.4545 23.9506 6.43932 23.9314C6.242 23.6678 6.05606 23.3965 5.87772 23.1214C5.46031 22.4681 5.10361 21.7803 4.80384 21.0697C4.84178 21.1614 4.87973 21.2531 4.91768 21.3448C4.61411 20.6073 4.37125 19.847 4.1967 19.0714C4.06389 18.4868 3.36188 18.0856 2.79648 18.269C2.18555 18.4677 1.85921 19.0523 1.99961 19.6789C2.56501 22.193 3.80965 24.5313 5.55897 26.4112C7.25137 28.2299 9.42569 29.5862 11.7822 30.3389C14.2335 31.1222 16.8821 31.1986 19.3828 30.6255C21.9252 30.0409 24.2968 28.7304 26.1714 26.904C27.9928 25.1312 29.3399 22.854 30.0343 20.3972C30.1178 20.1068 30.1861 19.8126 30.2506 19.5184C30.3758 18.9338 30.0798 18.2499 29.4537 18.1085C28.8731 17.9825 28.1787 18.2881 28.0459 18.9147Z" fill="#26C4F7"/>
<path d="M2.24639 25.2538C2.81179 23.6261 3.37719 21.9946 3.94259 20.367C4.02227 20.1377 4.10196 19.9085 4.18165 19.6754C3.71491 19.9428 3.24817 20.2103 2.78143 20.4778C4.39794 21.0471 6.01825 21.6164 7.63476 22.1857C7.86243 22.2659 8.09011 22.3461 8.32158 22.4264C8.88319 22.625 9.59278 22.2009 9.7218 21.624C9.866 20.9859 9.52827 20.4243 8.92493 20.2141C7.30842 19.6448 5.68811 19.0755 4.0716 18.5062C3.84393 18.426 3.61625 18.3457 3.38478 18.2655C3.12674 18.1738 2.7359 18.2349 2.50822 18.3801C2.25018 18.5482 2.08701 18.7699 1.98456 19.0641C1.41916 20.6917 0.853761 22.3232 0.288362 23.9509C0.208675 24.1801 0.128988 24.4094 0.0493009 24.6424C-0.14802 25.2079 0.273184 25.9224 0.846172 26.0523C1.48367 26.2013 2.03768 25.8613 2.24639 25.2538Z" fill="#26C4F7"/>
<path fill-rule="evenodd" clip-rule="evenodd" d="M16.6267 11.2684L17.1923 12.4577L17.8268 12.6404L19.0171 12.2611L19.9539 13.1875L19.5507 14.3822L19.8149 14.9769L20.9734 15.5666L20.9807 16.8708L19.8287 17.4362L19.6087 18.0709L19.988 19.2613L19.0617 20.1981L17.867 19.7949L17.2723 20.0591L16.6826 21.2175L15.3784 21.2249L14.8129 20.0729L14.2155 19.8526L12.9879 20.2322L12.0511 19.3059L12.4916 18.1109L12.1901 17.5164L11.0689 16.9265L11.0243 15.6225L12.2136 15.0569L12.3965 14.4596L12.017 13.2321L12.9433 12.2953L14.1382 12.7357L14.7328 12.4343L15.3227 11.313L16.6267 11.2684ZM16.011 14.4393C16.9798 14.4339 17.8042 15.249 17.8098 16.2551C17.8153 17.224 17.0001 18.0483 16.0313 18.0538C15.0252 18.0594 14.2008 17.2443 14.1954 16.2754C14.1897 15.2693 15.0049 14.445 16.011 14.4393Z" fill="#26C4F7"/>
</svg>
