<svg width="32" height="32" viewBox="0 0 32 32" fill="none" xmlns="http://www.w3.org/2000/svg">
<rect x="1.75" y="4.75" width="28.5" height="11.5" rx="1.25" stroke="#26C4F7" stroke-width="1.5"/>
<path d="M16 16V21" stroke="#26C4F7" stroke-width="1.5"/>
<circle cx="16" cy="24" r="3.25" stroke="#26C4F7" stroke-width="1.5"/>
<path d="M13 24H1.5" stroke="#26C4F7" stroke-width="1.5"/>
<path d="M30.5 24H19" stroke="#26C4F7" stroke-width="1.5"/>
<path d="M7.66025 14C7.4077 14 7.18761 13.973 7 13.9189V12.9673C7.19242 13.0165 7.36801 13.0411 7.52676 13.0411C7.7721 13.0411 7.94768 12.9624 8.05352 12.8051C8.15935 12.6502 8.21227 12.4067 8.21227 12.0748V8.02213H9.33073V12.0674C9.33073 12.6969 9.19002 13.1763 8.9086 13.5058C8.62718 13.8353 8.21106 14 7.66025 14Z" fill="#26C4F7"/>
<path d="M13.8876 13.4141L13.5051 12.1307H11.5821L11.1996 13.4141H9.99459L11.8563 8H13.2237L15.0926 13.4141H13.8876ZM13.2381 11.1718C12.8845 10.0088 12.6849 9.35107 12.6392 9.19863C12.5959 9.04619 12.5646 8.92571 12.5454 8.8372C12.466 9.15191 12.2387 9.9301 11.8635 11.1718H13.2381Z" fill="#26C4F7"/>
<path d="M18.7691 8.02213H19.8984L18.1052 13.4141H16.8857L15.0962 8.02213H16.2255L17.2177 11.2308C17.273 11.4201 17.3295 11.6414 17.3873 11.8946C17.4474 12.1454 17.4847 12.32 17.4991 12.4183C17.5256 12.1921 17.6158 11.7963 17.7697 11.2308L18.7691 8.02213Z" fill="#26C4F7"/>
<path d="M23.7949 13.4141L23.4125 12.1307H21.4895L21.107 13.4141H19.902L21.7637 8H23.1311L25 13.4141H23.7949ZM23.1455 11.1718C22.7919 10.0088 22.5923 9.35107 22.5466 9.19863C22.5033 9.04619 22.472 8.92571 22.4528 8.8372C22.3734 9.15191 22.1461 9.9301 21.7709 11.1718H23.1455Z" fill="#26C4F7"/>
</svg>
