<svg width="32" height="32" viewBox="0 0 32 32" fill="none" xmlns="http://www.w3.org/2000/svg">
<path d="M28.316 5.051L16.316 1.051C16.11 0.983 15.889 0.983 15.683 1.051L3.683 5.051C3.275 5.188 3 5.569 3 6V16C3 26.99 15.583 30.919 15.711 30.958C15.805 30.986 15.902 31 16 31C16.098 31 16.195 30.986 16.289 30.958C16.417 30.919 29 26.99 29 16V6C29 5.569 28.725 5.188 28.316 5.051ZM27 16C27 24.63 17.769 28.318 16 28.945C14.231 28.318 5 24.63 5 16V6.721L16 3.054L27 6.721V16Z" fill="#26C4F7"/>
<path d="M11.707 14.2928C11.316 13.9018 10.684 13.9018 10.293 14.2928C9.90201 14.6838 9.90201 15.3158 10.293 15.7068L14.293 19.7068C14.488 19.9018 14.744 19.9998 15 19.9998C15.256 19.9998 15.512 19.9018 15.707 19.7068L22.707 12.7068C23.098 12.3158 23.098 11.6838 22.707 11.2928C22.316 10.9018 21.684 10.9018 21.293 11.2928L15 17.5858L11.707 14.2928Z" fill="#26C4F7"/>
</svg>
