<svg width="32" height="32" viewBox="0 0 32 32" fill="none" xmlns="http://www.w3.org/2000/svg">
<path d="M4.04865 11.3333H27.9621C28.2552 11.3329 28.5363 11.21 28.7436 10.9916C28.9508 10.7732 29.0675 10.4771 29.0679 10.1683V1.16509C29.0675 0.856218 28.9508 0.560115 28.7436 0.341708C28.5363 0.123301 28.2552 0.000416963 27.9621 0H4.04865C3.75548 0.000347296 3.47441 0.123209 3.26711 0.341631C3.05981 0.560053 2.9432 0.856197 2.94287 1.16509V10.1683C2.9432 10.4772 3.05981 10.7733 3.26711 10.9917C3.47442 11.2101 3.75548 11.333 4.04865 11.3333ZM4.29651 1.42624H27.7142V9.9071H4.29651V1.42624Z" fill="#26C4F7"/>
<path d="M27.9621 20.6667H4.04865C3.7555 20.6671 3.47447 20.79 3.26718 21.0084C3.05988 21.2268 2.94326 21.5229 2.94287 21.8318V30.8349C2.94326 31.1438 3.05988 31.4399 3.26717 31.6583C3.47446 31.8767 3.7555 31.9996 4.04865 32H27.9621C28.2552 31.9996 28.5362 31.8767 28.7435 31.6583C28.9508 31.4399 29.0674 31.1438 29.0679 30.8349V21.8318C29.0674 21.5229 28.9508 21.2268 28.7435 21.0085C28.5362 20.7901 28.2552 20.6672 27.9621 20.6667ZM27.7142 30.5738H4.29651V22.0929H27.7142V30.5738Z" fill="#26C4F7"/>
<path d="M30.9154 12.9963H1.6009C1.31344 12.9967 1.03785 13.1172 0.834584 13.3313C0.631314 13.5455 0.51696 13.8359 0.516602 14.1388V17.328C0.516874 17.6309 0.631189 17.9214 0.834466 18.1356C1.03774 18.3499 1.31338 18.4704 1.6009 18.4708H30.9154C31.2029 18.4705 31.4786 18.35 31.682 18.1357C31.8853 17.9215 31.9997 17.631 32 17.328V14.1388C31.9996 13.8359 31.8852 13.5454 31.6819 13.3313C31.4786 13.1171 31.2029 12.9966 30.9154 12.9963ZM30.6464 17.0446H1.87024V14.4226H30.6464V17.0446Z" fill="#26C4F7"/>
</svg>
