<svg width="32" height="32" viewBox="0 0 32 32" fill="none" xmlns="http://www.w3.org/2000/svg">
<path d="M6.96968 10.6212L6.96972 10.6213C9.39497 11.4773 12.6036 11.9489 16 11.9489C19.3964 11.9489 22.605 11.4773 25.0303 10.6213C26.2448 10.1932 27.2085 9.68295 27.8989 9.10888C28.6881 8.45279 29.1 7.71409 29.1 6.92446C29.1 6.13471 28.688 5.39957 27.8991 4.74024C27.2084 4.16239 26.241 3.65564 25.0303 3.22767L25.0303 3.22766C22.605 2.37158 19.3964 1.9 16 1.9C12.6036 1.9 9.39497 2.37158 6.96972 3.22766C5.75516 3.65575 4.79154 4.16597 4.1011 4.74004C3.31185 5.39613 2.9 6.13483 2.9 6.92446C2.9 7.71423 3.31199 8.44938 4.1009 9.10871C4.79163 9.68655 5.75906 10.1933 6.96968 10.6212ZM7.40216 4.39214L7.40221 4.39212C9.68661 3.58372 12.7399 3.13819 16 3.13819C19.2601 3.13819 22.3134 3.58372 24.5978 4.39212L24.5978 4.39214C25.6252 4.75504 26.439 5.1787 26.9939 5.6206C27.552 6.06501 27.8309 6.51343 27.8309 6.92446C27.8309 7.3355 27.552 7.78391 26.9939 8.22832C26.439 8.67022 25.6252 9.09388 24.5978 9.45678L24.5978 9.4568C22.3134 10.2652 19.2601 10.7107 16 10.7107C12.7399 10.7107 9.68661 10.2652 7.40221 9.4568L7.40216 9.45678C6.37477 9.09388 5.56096 8.67022 5.00608 8.22832C4.44805 7.78391 4.16913 7.3355 4.16913 6.92446C4.16913 6.51343 4.44805 6.06501 5.00608 5.6206C5.56096 5.1787 6.37477 4.75504 7.40216 4.39214Z" fill="#26C4F7" stroke="#26C4F7" stroke-width="0.2"/>
<path d="M6.96968 17.0026L6.96972 17.0026L24.9899 16.9084L25.0231 17.0027C25.0232 17.0027 25.0232 17.0026 25.0232 17.0026C26.2378 16.5745 27.2014 16.0643 27.8918 15.4903C28.681 14.8342 29.0929 14.099 29.0929 13.3058V13.2058H28.9929H27.9273H27.8273V13.3058C27.8273 13.7169 27.5484 14.1653 26.9904 14.6097C26.4355 15.0516 25.6217 15.4753 24.5943 15.8382L24.5942 15.8382C22.3098 16.6466 19.2565 17.0921 15.9964 17.0921C12.7364 17.0921 9.68305 16.6466 7.39866 15.8382L7.39861 15.8382C6.37122 15.4753 5.55741 15.0516 5.00253 14.6097C4.44449 14.1653 4.16557 13.7169 4.16557 13.3058V13.2058H4.06557H3H2.9V13.3058C2.9 14.0956 3.31197 14.8307 4.10086 15.4901C4.7916 16.0679 5.75904 16.5747 6.96968 17.0026Z" fill="#26C4F7" stroke="#26C4F7" stroke-width="0.2"/>
<path d="M6.96968 23.3875L6.96972 23.3875L24.9899 23.2932L25.0231 23.3875C25.0232 23.3875 25.0232 23.3875 25.0232 23.3875C26.2378 22.9594 27.2014 22.4492 27.8918 21.8751C28.681 21.2191 29.0929 20.4838 29.0929 19.6907V19.5907H28.9929H27.9273H27.8273V19.6907C27.8273 20.1017 27.5484 20.5501 26.9904 20.9945C26.4355 21.4364 25.6217 21.8601 24.5943 22.223L24.5942 22.223C22.3098 23.0314 19.2565 23.4769 15.9964 23.4769C12.7364 23.4769 9.68305 23.0314 7.39866 22.223L7.39861 22.223C6.37122 21.8601 5.55741 21.4364 5.00253 20.9945C4.44449 20.5501 4.16557 20.1017 4.16557 19.6907V19.5907H4.06557H3H2.9V19.6907C2.9 20.4804 3.31197 21.2156 4.10086 21.8749C4.7916 22.4527 5.75904 22.9595 6.96968 23.3875Z" fill="#26C4F7" stroke="#26C4F7" stroke-width="0.2"/>
<path d="M6.96968 29.7724L6.96972 29.7724C9.39497 30.6284 12.6036 31.1 16 31.1C19.3964 31.1 22.605 30.6285 25.0233 29.7723C26.2378 29.3442 27.2014 28.834 27.8918 28.26C28.681 27.604 29.0929 26.8687 29.0929 26.0756V6.9245V6.8245H28.9929H27.9273H27.8273V6.9245C27.8273 7.33553 27.5484 7.78395 26.9904 8.22836C26.4355 8.67026 25.6217 9.09392 24.5943 9.45682L24.5942 9.45684C22.3098 10.2652 19.2565 10.7108 15.9964 10.7108C12.7364 10.7108 9.68305 10.2652 7.39866 9.45684L7.39861 9.45682C6.37122 9.09392 5.55741 8.67026 5.00253 8.22836C4.44449 7.78395 4.16557 7.33553 4.16557 6.9245V6.8245H4.06557H3H2.9V6.9245V26.0756C2.9 26.8653 3.31197 27.6005 4.10086 28.2598C4.7916 28.8376 5.75904 29.3444 6.96968 29.7724ZM27.8309 9.1617V26.0756C27.8309 26.4866 27.552 26.935 26.9939 27.3794C26.439 27.8213 25.6252 28.245 24.5978 28.6079L24.5978 28.6079C22.3134 29.4163 19.2601 29.8618 16 29.8618C12.7399 29.8618 9.68661 29.4163 7.40221 28.6079L7.40216 28.6079C6.37477 28.245 5.56096 27.8213 5.00608 27.3794C4.44804 26.935 4.16913 26.4866 4.16913 26.0756V9.16486C4.85478 9.71944 5.79841 10.2072 6.96968 10.6213L6.96972 10.6213C9.39497 11.4774 12.6036 11.949 16 11.949C19.3964 11.949 22.605 11.4774 25.0268 10.6213C26.204 10.2064 27.1454 9.71429 27.8309 9.1617Z" fill="#26C4F7" stroke="#26C4F7" stroke-width="0.2"/>
</svg>
