<svg width="32" height="32" viewBox="0 0 32 32" fill="none" xmlns="http://www.w3.org/2000/svg">
<path fill-rule="evenodd" clip-rule="evenodd" d="M4 3.5H27C27.2761 3.5 27.5 3.72386 27.5 4V15.5V16H29V15.5V4C29 2.89543 28.1046 2 27 2H4C2.89543 2 2 2.89543 2 4V27C2 28.1046 2.89543 29 4 29H15.5H16V27.5H15.5H4C3.72386 27.5 3.5 27.2761 3.5 27V4C3.5 3.72386 3.72386 3.5 4 3.5Z" fill="#26C4F7"/>
<path fill-rule="evenodd" clip-rule="evenodd" d="M18.9887 10.9535L11.7032 10.9534C11.289 10.9534 10.9532 11.2892 10.9532 11.7034L10.9533 18.9889C10.9533 19.4031 11.289 19.7389 11.7033 19.7389C12.1175 19.7389 12.4533 19.4031 12.4533 18.9889L12.4532 13.5141L22.9088 23.9697C23.2017 24.2626 23.6766 24.2626 23.9695 23.9697C24.2624 23.6768 24.2624 23.2019 23.9695 22.9091L13.5139 12.4534L18.9887 12.4535C19.403 12.4535 19.7387 12.1177 19.7387 11.7035C19.7387 11.2892 19.403 10.9535 18.9887 10.9535Z" fill="#26C4F7"/>
<circle cx="25" cy="25" r="4" fill="#26C4F7"/>
</svg>
