<svg width="32" height="32" viewBox="0 0 32 32" fill="none" xmlns="http://www.w3.org/2000/svg">
<g clip-path="url(#clip0)">
<mask id="mask0" style="mask-type:alpha" maskUnits="userSpaceOnUse" x="3" y="3" width="29" height="27">
<path d="M32 3H3V8.5L22.1509 9V30H32V3Z" fill="#C4C4C4"/>
</mask>
<g mask="url(#mask0)">
<path d="M5.75 7C5.75 6.30964 6.30964 5.75 7 5.75H25C25.6904 5.75 26.25 6.30964 26.25 7V26C26.25 26.6904 25.6904 27.25 25 27.25H7C6.30964 27.25 5.75 26.6904 5.75 26V7Z" stroke="#26C4F7" stroke-width="1.5"/>
</g>
<mask id="mask1" style="mask-type:alpha" maskUnits="userSpaceOnUse" x="7" y="0" width="29" height="27">
<path d="M36 0H7V5.5L26.1509 6V27H36V0Z" fill="#C4C4C4"/>
</mask>
<g mask="url(#mask1)">
<path d="M9.75 4C9.75 3.30964 10.3096 2.75 11 2.75H29C29.6904 2.75 30.25 3.30964 30.25 4V23C30.25 23.6904 29.6904 24.25 29 24.25H11C10.3096 24.25 9.75 23.6904 9.75 23V4Z" stroke="#26C4F7" stroke-width="1.5"/>
</g>
<path d="M1.75 13.25H22.25V29C22.25 29.1381 22.1381 29.25 22 29.25H2C1.86193 29.25 1.75 29.1381 1.75 29V13.25Z" stroke="#26C4F7" stroke-width="1.5"/>
<path d="M1.75 9C1.75 8.86193 1.86193 8.75 2 8.75H22C22.1381 8.75 22.25 8.86193 22.25 9V13.25H1.75V9Z" stroke="#26C4F7" stroke-width="1.5"/>
<path d="M14.5 11.25C14.5 11.6642 14.1642 12 13.75 12C13.3358 12 13 11.6642 13 11.25C13 10.8358 13.3358 10.5 13.75 10.5C14.1642 10.5 14.5 10.8358 14.5 11.25Z" fill="#26C4F7"/>
<path d="M17.5 11.25C17.5 11.6642 17.1642 12 16.75 12C16.3358 12 16 11.6642 16 11.25C16 10.8358 16.3358 10.5 16.75 10.5C17.1642 10.5 17.5 10.8358 17.5 11.25Z" fill="#26C4F7"/>
<path d="M20.5 11.25C20.5 11.6642 20.1642 12 19.75 12C19.3358 12 19 11.6642 19 11.25C19 10.8358 19.3358 10.5 19.75 10.5C20.1642 10.5 20.5 10.8358 20.5 11.25Z" fill="#26C4F7"/>
<path d="M7.70725 19.2933C7.31625 18.9023 6.68425 18.9023 6.29325 19.2933C5.90225 19.6843 5.90225 20.3162 6.29325 20.7072L10.2933 24.7073C10.4883 24.9023 10.7442 25.0002 11.0002 25.0002C11.2562 25.0002 11.5122 24.9023 11.7072 24.7073L18.7073 17.7072C19.0983 17.3162 19.0983 16.6842 18.7073 16.2932C18.3163 15.9022 17.6842 15.9022 17.2932 16.2932L11.0002 22.5863L7.70725 19.2933Z" fill="#26C4F7"/>
</g>
<defs>
<clipPath id="clip0">
<rect width="32" height="32" fill="white"/>
</clipPath>
</defs>
</svg>
